<svg width="16" height="16" viewBox="0 0 16 16" fill="none" xmlns="http://www.w3.org/2000/svg">
<path fill-rule="evenodd" clip-rule="evenodd" d="M7.53026 15.9775C3.99519 15.9775 2.22766 15.9775 1.12946 14.8182C0.0312499 13.6591 0.03125 11.7933 0.03125 8.06187C0.03125 4.3304 0.0312499 2.46467 1.12946 1.30546C2.22766 0.14624 3.99519 0.14624 7.53026 0.14624C11.0653 0.14624 12.8329 0.14624 13.931 1.30546C15.0293 2.46467 15.0293 4.3304 15.0293 8.06187C15.0293 11.7933 15.0293 13.6591 13.931 14.8182C12.8329 15.9775 11.0653 15.9775 7.53026 15.9775ZM10.3424 8.06187C10.3424 8.38973 10.0906 8.65554 9.77997 8.65554H5.28056C4.96994 8.65554 4.71813 8.38973 4.71813 8.06187C4.71813 7.734 4.96994 7.46819 5.28056 7.46819H9.77997C10.0906 7.46819 10.3424 7.734 10.3424 8.06187Z" fill="#3598DC"/>
<rect x="6.96875" y="4.82324" width="1.12388" height="6.47712" rx="0.561939" fill="white"/>
</svg>
