<svg width="31" height="31" viewBox="0 0 31 31" fill="none" xmlns="http://www.w3.org/2000/svg">
<path fill-rule="evenodd" clip-rule="evenodd" d="M5.4707 6.10571V23.6057C5.4707 25.6768 7.14964 27.3557 9.2207 27.3557H21.7207C23.7918 27.3557 25.4707 25.6768 25.4707 23.6057V11.1057C25.4707 9.03464 23.7918 7.35571 21.7207 7.35571H6.7207C6.03035 7.35571 5.4707 6.79606 5.4707 6.10571ZM9.5332 14.8557C9.5332 14.3379 9.95294 13.9182 10.4707 13.9182H20.4707C20.9885 13.9182 21.4082 14.3379 21.4082 14.8557C21.4082 15.3734 20.9885 15.7932 20.4707 15.7932H10.4707C9.95294 15.7932 9.5332 15.3734 9.5332 14.8557ZM9.5332 19.2307C9.5332 18.7129 9.95294 18.2932 10.4707 18.2932H17.3457C17.8635 18.2932 18.2832 18.7129 18.2832 19.2307C18.2832 19.7484 17.8635 20.1682 17.3457 20.1682H10.4707C9.95294 20.1682 9.5332 19.7484 9.5332 19.2307Z" fill="#3598DC"/>
<path opacity="0.5" d="M22.9707 5.23827V7.56909C22.5797 7.4309 22.159 7.35572 21.7207 7.35572H6.7207C6.03035 7.35572 5.4707 6.79607 5.4707 6.10572V6.0169C5.4707 5.35063 5.96062 4.78575 6.62019 4.69153L20.1172 2.76339C21.6232 2.54823 22.9707 3.71689 22.9707 5.23827Z" fill="#3598DC"/>
</svg>
