<svg width="17" height="17" viewBox="0 0 17 17" fill="none" xmlns="http://www.w3.org/2000/svg">
<path fill-rule="evenodd" clip-rule="evenodd" d="M6.28587 2.00879C5.69487 2.00876 5.18567 2.00873 4.77789 2.06356C4.34088 2.12231 3.92198 2.2548 3.58221 2.59458C3.24243 2.93436 3.10993 3.35326 3.05118 3.79026C2.99635 4.19804 2.99639 4.70725 2.99642 5.29824V14.0088H2.32975C1.96157 14.0088 1.66309 14.3073 1.66309 14.6755C1.66309 15.0437 1.96157 15.3421 2.32975 15.3421H14.3298C14.698 15.3421 14.9964 15.0437 14.9964 14.6755C14.9964 14.3073 14.698 14.0088 14.3298 14.0088H13.6631V5.29824C13.6632 4.70725 13.6632 4.19804 13.6084 3.79026C13.5496 3.35326 13.4171 2.93436 13.0773 2.59458C12.7376 2.2548 12.3186 2.12231 11.8816 2.06356C11.4738 2.00873 10.9646 2.00876 10.3736 2.00879H6.28587ZM7.66309 6.00879C7.66309 6.37698 7.36462 6.67546 6.99642 6.67546H6.32975C5.96157 6.67546 5.66309 6.37698 5.66309 6.00879C5.66309 5.6406 5.96157 5.34212 6.32975 5.34212H6.99642C7.36462 5.34212 7.66309 5.6406 7.66309 6.00879ZM6.99642 9.34212C7.36462 9.34212 7.66309 9.04366 7.66309 8.67546C7.66309 8.30726 7.36462 8.00879 6.99642 8.00879H6.32975C5.96157 8.00879 5.66309 8.30726 5.66309 8.67546C5.66309 9.04366 5.96157 9.34212 6.32975 9.34212H6.99642ZM7.66309 11.3421C7.66309 11.7103 7.36462 12.0088 6.99642 12.0088H6.32975C5.96157 12.0088 5.66309 11.7103 5.66309 11.3421C5.66309 10.9739 5.96157 10.6755 6.32975 10.6755H6.99642C7.36462 10.6755 7.66309 10.9739 7.66309 11.3421ZM10.3298 6.67546C10.698 6.67546 10.9964 6.37698 10.9964 6.00879C10.9964 5.6406 10.698 5.34212 10.3298 5.34212H9.66309C9.29489 5.34212 8.99642 5.6406 8.99642 6.00879C8.99642 6.37698 9.29489 6.67546 9.66309 6.67546H10.3298ZM10.9964 8.67546C10.9964 9.04366 10.698 9.34212 10.3298 9.34212H9.66309C9.29489 9.34212 8.99642 9.04366 8.99642 8.67546C8.99642 8.30726 9.29489 8.00879 9.66309 8.00879H10.3298C10.698 8.00879 10.9964 8.30726 10.9964 8.67546ZM10.3298 12.0088C10.698 12.0088 10.9964 11.7103 10.9964 11.3421C10.9964 10.9739 10.698 10.6755 10.3298 10.6755H9.66309C9.29489 10.6755 8.99642 10.9739 8.99642 11.3421C8.99642 11.7103 9.29489 12.0088 9.66309 12.0088H10.3298Z" fill="#3598DC"/>
</svg>
