<svg width="31" height="31" viewBox="0 0 31 31" fill="none" xmlns="http://www.w3.org/2000/svg">
<path d="M25.5742 11.4878V13.9878C25.5742 14.3193 25.4425 14.6373 25.2081 14.8717C24.9737 15.1061 24.6557 15.2378 24.3242 15.2378H6.82422C6.4927 15.2378 6.17476 15.1061 5.94034 14.8717C5.70592 14.6373 5.57422 14.3193 5.57422 13.9878V11.4878C5.57422 9.83019 6.2327 8.24048 7.4048 7.06838C8.5769 5.89627 10.1666 5.23779 11.8242 5.23779H19.3242C20.9818 5.23779 22.5715 5.89627 23.7436 7.06838C24.9157 8.24048 25.5742 9.83019 25.5742 11.4878ZM24.3242 17.7378H6.82422C6.4927 17.7378 6.17476 17.8695 5.94034 18.1039C5.70592 18.3383 5.57422 18.6563 5.57422 18.9878C5.57422 20.6454 6.2327 22.2351 7.4048 23.4072C8.5769 24.5793 10.1666 25.2378 11.8242 25.2378H19.3242C20.9818 25.2378 22.5715 24.5793 23.7436 23.4072C24.9157 22.2351 25.5742 20.6454 25.5742 18.9878C25.5742 18.6563 25.4425 18.3383 25.2081 18.1039C24.9737 17.8695 24.6557 17.7378 24.3242 17.7378Z" fill="#3598DC"/>
<path d="M24.3242 12.7378H6.82422C5.82966 12.7378 4.87583 13.1329 4.17257 13.8361C3.46931 14.5394 3.07422 15.4932 3.07422 16.4878C3.07422 17.4824 3.46931 18.4362 4.17257 19.1394C4.87583 19.8427 5.82966 20.2378 6.82422 20.2378H24.3242C25.3188 20.2378 26.2726 19.8427 26.9759 19.1394C27.6791 18.4362 28.0742 17.4824 28.0742 16.4878C28.0742 15.4932 27.6791 14.5394 26.9759 13.8361C26.2726 13.1329 25.3188 12.7378 24.3242 12.7378Z" fill="#8DC7ED"/>
</svg>
