<svg width="24" height="24" viewBox="0 0 24 24" fill="none" xmlns="http://www.w3.org/2000/svg">
<circle cx="11.7792" cy="12.2507" r="8.30071" fill="white" stroke="#A9A9A9"/>
<path d="M5.47548 11.5119C5.54732 11.5365 5.62496 11.5387 5.69808 11.5182C5.7712 11.4977 5.83635 11.4554 5.88488 11.397C6.73869 10.365 7.11763 9.69528 7.56329 8.4307C7.58837 8.35901 7.59106 8.28139 7.571 8.20815C7.55093 8.1349 7.50907 8.06948 7.45096 8.02059C7.08617 7.70276 6.69619 7.41506 6.28487 7.16031C6.70478 7.38863 7.07868 7.66535 7.61565 8.1143C7.67376 8.16319 7.71563 8.22861 7.73569 8.30186C7.75576 8.3751 7.75307 8.45272 7.72798 8.5244C7.28303 9.78774 6.90409 10.4575 6.04957 11.4907C6.00104 11.5491 5.93589 11.5914 5.86277 11.6119C5.78965 11.6324 5.71202 11.6302 5.64018 11.6056C4.97871 11.3765 4.54896 11.1985 4.1371 10.9561C4.56711 11.178 5.01477 11.3639 5.47548 11.5119Z" fill="#D4D4D4"/>
<path d="M1.27063 9.95921L0.742949 9.95105C0.742949 9.95105 0.950404 9.07453 1.99232 7.23313C3.03423 5.39172 3.6786 4.76615 3.6786 4.76615L3.95527 5.2112C3.98735 5.26234 4.00494 5.32124 4.00619 5.3816C4.00743 5.44195 3.99227 5.50152 3.96233 5.55394L1.56662 9.78795C1.5371 9.84061 1.49385 9.88427 1.44147 9.91429C1.38909 9.94431 1.32954 9.95955 1.26918 9.95839L1.27063 9.95921Z" fill="#2B2120"/>
<path d="M1.50438 6.95727C0.730566 8.32485 0.454489 9.18117 0.366636 9.50746C0.356015 9.55043 0.358235 9.59558 0.373019 9.6373C0.387804 9.67902 0.414504 9.71549 0.449812 9.74218L0.701433 9.94226C0.712217 9.94847 0.7243 9.95209 0.736724 9.95282C0.749149 9.95356 0.761573 9.95139 0.773014 9.94649C0.784454 9.94158 0.794596 9.93409 0.802636 9.92459C0.810676 9.91508 0.816393 9.90384 0.819335 9.89175C0.890191 9.60453 1.15733 8.71899 1.99658 7.23577C2.83582 5.75255 3.45702 5.06917 3.66734 4.85869C3.67619 4.84994 3.68289 4.83925 3.68689 4.82747C3.6909 4.81568 3.6921 4.80313 3.69041 4.7908C3.68872 4.77847 3.68418 4.7667 3.67715 4.75643C3.67013 4.74616 3.6608 4.73766 3.64992 4.73162L3.34884 4.61896C3.30774 4.60246 3.26269 4.59839 3.2193 4.60725C3.1759 4.61612 3.13606 4.63753 3.10472 4.66883C2.8701 4.91199 2.27823 5.58962 1.50438 6.95727Z" fill="#A9A9A9"/>
<path d="M3.11375 4.72056C3.12103 4.91822 3.31599 4.96182 3.48175 4.93805C3.48175 4.93805 3.05527 5.29046 2.21391 6.70178C1.37359 8.11187 1.11889 8.65081 0.785397 9.77994C0.785397 9.77994 0.713463 9.38403 0.452967 9.51551C0.47063 9.39449 0.501038 9.27567 0.543684 9.16104C0.543684 9.16104 0.608044 9.544 0.784048 9.36401C0.832955 9.31371 0.944793 8.88914 1.1064 8.52452C1.49698 7.64376 2.18537 6.41766 2.68539 5.76058C3.18334 5.10423 3.18802 5.06962 3.14997 5.03137C3.11192 4.99312 3.08734 4.83583 2.8861 4.98447L3.11726 4.72064L3.11375 4.72056Z" fill="#D4D4D4"/>
<path d="M17.881 13.2618C17.8091 13.2372 17.7315 13.2349 17.6584 13.2555C17.5852 13.276 17.5201 13.3183 17.4716 13.3767C16.6178 14.4087 16.2388 15.0784 15.7932 16.343C15.7681 16.4147 15.7654 16.4923 15.7854 16.5655C15.8055 16.6388 15.8474 16.7042 15.9055 16.7531C16.2703 17.0709 16.6603 17.3586 17.0716 17.6134C16.6517 17.385 16.2778 17.1083 15.7408 16.6594C15.6827 16.6105 15.6408 16.5451 15.6208 16.4718C15.6007 16.3986 15.6034 16.321 15.6285 16.2493C16.0734 14.9859 16.4524 14.3162 17.3069 13.283C17.3554 13.2246 17.4206 13.1823 17.4937 13.1618C17.5668 13.1412 17.6444 13.1434 17.7163 13.1681C18.3777 13.3971 18.8075 13.5752 19.2193 13.8176C18.7893 13.5957 18.3417 13.4098 17.881 13.2618Z" fill="#D4D4D4"/>
<path d="M22.0858 14.8147L22.6135 14.8229C22.6135 14.8229 22.406 15.6994 21.3641 17.5408C20.3222 19.3822 19.6778 20.0078 19.6778 20.0078L19.4012 19.5627C19.3691 19.5116 19.3515 19.4527 19.3503 19.3923C19.349 19.332 19.3642 19.2724 19.3941 19.22L21.7898 14.986C21.8193 14.9333 21.8626 14.8897 21.915 14.8596C21.9674 14.8296 22.0269 14.8144 22.0873 14.8155L22.0858 14.8147Z" fill="#2B2120"/>
<path d="M21.8521 17.8167C22.6259 16.4491 22.902 15.5928 22.9898 15.2665C23.0004 15.2235 22.9982 15.1783 22.9834 15.1366C22.9686 15.0949 22.9419 15.0584 22.9066 15.0317L22.655 14.8317C22.6442 14.8255 22.6321 14.8218 22.6197 14.8211C22.6073 14.8204 22.5949 14.8225 22.5834 14.8274C22.572 14.8323 22.5618 14.8398 22.5538 14.8493C22.5458 14.8588 22.5401 14.8701 22.5371 14.8822C22.4663 15.1694 22.1991 16.0549 21.3599 17.5382C20.5206 19.0214 19.8994 19.7048 19.6891 19.9152C19.6803 19.924 19.6736 19.9347 19.6696 19.9465C19.6656 19.9582 19.6643 19.9708 19.666 19.9831C19.6677 19.9955 19.6723 20.0072 19.6793 20.0175C19.6863 20.0278 19.6956 20.0363 19.7065 20.0423L20.0076 20.155C20.0487 20.1715 20.0938 20.1755 20.1371 20.1667C20.1805 20.1578 20.2204 20.1364 20.2517 20.1051C20.4863 19.8619 21.0782 19.1843 21.8521 17.8167Z" fill="#A9A9A9"/>
<path d="M20.2427 20.0534C20.2354 19.8557 20.0405 19.8121 19.8747 19.8359C19.8747 19.8359 20.3012 19.4835 21.1425 18.0721C21.9829 16.6621 22.2376 16.1231 22.571 14.994C22.571 14.994 22.643 15.3899 22.9035 15.2584C22.8858 15.3794 22.8554 15.4983 22.8128 15.6129C22.8128 15.6129 22.7484 15.2299 22.5724 15.4099C22.5235 15.4602 22.4117 15.8848 22.25 16.2494C21.8595 17.1302 21.1711 18.3563 20.6711 19.0133C20.1731 19.6697 20.1684 19.7043 20.2065 19.7426C20.2445 19.7808 20.2691 19.9381 20.4703 19.7895L20.2392 20.0533L20.2427 20.0534Z" fill="#D4D4D4"/>
<path d="M17.881 11.5119C17.8091 11.5365 17.7315 11.5387 17.6584 11.5182C17.5852 11.4977 17.5201 11.4554 17.4716 11.397C16.6178 10.365 16.2388 9.69528 15.7932 8.4307C15.7681 8.35901 15.7654 8.28139 15.7854 8.20815C15.8055 8.1349 15.8474 8.06948 15.9055 8.02059C16.2703 7.70276 16.6603 7.41506 17.0716 7.16031C16.6517 7.38863 16.2778 7.66535 15.7408 8.1143C15.6827 8.16319 15.6408 8.22861 15.6208 8.30186C15.6007 8.3751 15.6034 8.45272 15.6285 8.5244C16.0734 9.78774 16.4524 10.4575 17.3069 11.4907C17.3554 11.5491 17.4206 11.5914 17.4937 11.6119C17.5668 11.6324 17.6444 11.6302 17.7163 11.6056C18.3777 11.3765 18.8075 11.1985 19.2193 10.9561C18.7893 11.178 18.3417 11.3639 17.881 11.5119Z" fill="#D4D4D4"/>
<path d="M22.0858 9.95921L22.6135 9.95105C22.6135 9.95105 22.406 9.07453 21.3641 7.23313C20.3222 5.39172 19.6778 4.76615 19.6778 4.76615L19.4012 5.2112C19.3691 5.26234 19.3515 5.32124 19.3503 5.3816C19.349 5.44195 19.3642 5.50152 19.3941 5.55394L21.7898 9.78795C21.8193 9.84061 21.8626 9.88427 21.915 9.91429C21.9674 9.94431 22.0269 9.95955 22.0873 9.95839L22.0858 9.95921Z" fill="#2B2120"/>
<path d="M21.8521 6.95727C22.6259 8.32485 22.902 9.18117 22.9898 9.50746C23.0004 9.55043 22.9982 9.59558 22.9834 9.6373C22.9686 9.67902 22.9419 9.71549 22.9066 9.74218L22.655 9.94226C22.6442 9.94847 22.6321 9.95209 22.6197 9.95282C22.6073 9.95356 22.5949 9.95139 22.5834 9.94649C22.572 9.94158 22.5618 9.93409 22.5538 9.92459C22.5458 9.91508 22.5401 9.90384 22.5371 9.89175C22.4663 9.60453 22.1991 8.71899 21.3599 7.23577C20.5206 5.75255 19.8994 5.06917 19.6891 4.85869C19.6803 4.84994 19.6736 4.83925 19.6696 4.82747C19.6655 4.81568 19.6643 4.80313 19.666 4.7908C19.6677 4.77847 19.6723 4.7667 19.6793 4.75643C19.6863 4.74616 19.6956 4.73766 19.7065 4.73162L20.0076 4.61896C20.0487 4.60246 20.0938 4.59839 20.1371 4.60725C20.1805 4.61612 20.2204 4.63753 20.2517 4.66883C20.4863 4.91199 21.0782 5.58962 21.8521 6.95727Z" fill="#A9A9A9"/>
<path d="M20.2427 4.72056C20.2354 4.91822 20.0405 4.96182 19.8747 4.93805C19.8747 4.93805 20.3012 5.29046 21.1425 6.70178C21.9829 8.11187 22.2376 8.65081 22.571 9.77994C22.571 9.77994 22.643 9.38403 22.9035 9.51551C22.8858 9.39449 22.8554 9.27567 22.8128 9.16104C22.8128 9.16104 22.7484 9.544 22.5724 9.36401C22.5235 9.31371 22.4117 8.88914 22.25 8.52452C21.8595 7.64376 21.1711 6.41766 20.6711 5.76058C20.1731 5.10423 20.1684 5.06962 20.2065 5.03137C20.2445 4.99312 20.2691 4.83583 20.4703 4.98447L20.2392 4.72064L20.2427 4.72056Z" fill="#D4D4D4"/>
<path d="M5.47548 13.2618C5.54732 13.2372 5.62496 13.2349 5.69808 13.2555C5.7712 13.276 5.83635 13.3183 5.88488 13.3767C6.73869 14.4087 7.11763 15.0784 7.56329 16.343C7.58837 16.4147 7.59106 16.4923 7.571 16.5655C7.55093 16.6388 7.50907 16.7042 7.45096 16.7531C7.08617 17.0709 6.69619 17.3586 6.28487 17.6134C6.70478 17.385 7.07868 17.1083 7.61565 16.6594C7.67376 16.6105 7.71563 16.5451 7.73569 16.4718C7.75576 16.3986 7.75307 16.321 7.72798 16.2493C7.28303 14.9859 6.90409 14.3162 6.04957 13.283C6.00104 13.2246 5.93589 13.1823 5.86277 13.1618C5.78965 13.1412 5.71202 13.1434 5.64018 13.1681C4.97871 13.3971 4.54896 13.5752 4.1371 13.8176C4.56711 13.5957 5.01477 13.4098 5.47548 13.2618Z" fill="#D4D4D4"/>
<path d="M1.27063 14.8147L0.742949 14.8229C0.742949 14.8229 0.950404 15.6994 1.99232 17.5408C3.03423 19.3822 3.6786 20.0078 3.6786 20.0078L3.95527 19.5627C3.98735 19.5116 4.00494 19.4527 4.00619 19.3923C4.00743 19.332 3.99227 19.2724 3.96233 19.22L1.56662 14.986C1.5371 14.9333 1.49385 14.8897 1.44147 14.8596C1.38909 14.8296 1.32954 14.8144 1.26918 14.8155L1.27063 14.8147Z" fill="#2B2120"/>
<path d="M1.50438 17.8167C0.730566 16.4491 0.454489 15.5928 0.366636 15.2665C0.356015 15.2235 0.358235 15.1783 0.373019 15.1366C0.387804 15.0949 0.414504 15.0584 0.449812 15.0317L0.701433 14.8317C0.712217 14.8255 0.7243 14.8218 0.736724 14.8211C0.749149 14.8204 0.761573 14.8225 0.773014 14.8274C0.784454 14.8323 0.794596 14.8398 0.802636 14.8493C0.810676 14.8588 0.816393 14.8701 0.819334 14.8822C0.890191 15.1694 1.15733 16.0549 1.99658 17.5382C2.83582 19.0214 3.45702 19.7048 3.66734 19.9152C3.6762 19.924 3.68289 19.9347 3.68689 19.9465C3.6909 19.9582 3.6921 19.9708 3.69041 19.9831C3.68872 19.9955 3.68418 20.0072 3.67715 20.0175C3.67013 20.0278 3.6608 20.0363 3.64992 20.0423L3.34884 20.155C3.30774 20.1715 3.26269 20.1755 3.2193 20.1667C3.1759 20.1578 3.13606 20.1364 3.10472 20.1051C2.8701 19.8619 2.27823 19.1843 1.50438 17.8167Z" fill="#A9A9A9"/>
<path d="M3.11375 20.0534C3.12103 19.8557 3.31599 19.8121 3.48175 19.8359C3.48175 19.8359 3.05527 19.4835 2.21391 18.0721C1.37359 16.6621 1.11889 16.1231 0.785397 14.994C0.785397 14.994 0.713463 15.3899 0.452967 15.2584C0.470631 15.3794 0.501038 15.4983 0.543684 15.6129C0.543684 15.6129 0.608044 15.2299 0.784048 15.4099C0.832955 15.4602 0.944793 15.8848 1.1064 16.2494C1.49698 17.1302 2.18537 18.3563 2.68539 19.0133C3.18334 19.6697 3.18802 19.7043 3.14997 19.7426C3.11192 19.7808 3.08734 19.9381 2.8861 19.7895L3.11726 20.0533L3.11375 20.0534Z" fill="#D4D4D4"/>
<path d="M9.77088 6.50153C9.78482 6.57619 9.82113 6.64484 9.875 6.69837C9.92887 6.7519 9.99775 6.78779 10.0725 6.80126C11.3911 7.03614 12.1606 7.03614 13.4807 6.80126C13.5555 6.78779 13.6243 6.7519 13.6782 6.69837C13.7321 6.64484 13.7684 6.57619 13.7823 6.50153C13.8793 6.02752 13.9377 5.54643 13.9568 5.06299C13.9649 5.54089 13.9082 6.00259 13.7819 6.69102C13.7679 6.76567 13.7316 6.83433 13.6778 6.88786C13.6239 6.94139 13.555 6.97728 13.4803 6.99075C12.1616 7.22563 11.3921 7.22563 10.072 6.99075C9.9973 6.97728 9.92842 6.94139 9.87455 6.88786C9.82068 6.83433 9.78437 6.76567 9.77043 6.69102C9.64405 6.00251 9.58735 5.54082 9.59549 5.06299C9.61414 5.54652 9.6728 6.02768 9.77088 6.50153Z" fill="#D4D4D4"/>
<path d="M9.05158 2.07741L8.79883 1.61413C8.79883 1.61413 9.66385 1.36304 11.7796 1.36304C13.8953 1.36304 14.7571 1.61579 14.7571 1.61579L14.506 2.07575C14.4773 2.12885 14.4347 2.17317 14.3828 2.20398C14.3309 2.23478 14.2716 2.25093 14.2112 2.25068L9.34641 2.25068C9.28603 2.25093 9.22673 2.23478 9.17481 2.20398C9.12289 2.17317 9.0803 2.12885 9.05158 2.07575V2.07741Z" fill="#2B2120"/>
<path d="M11.7795 0.80249C10.2082 0.80249 9.32693 0.98391 8.99968 1.06814C8.95705 1.08005 8.91885 1.10422 8.88982 1.13763C8.86079 1.17104 8.8422 1.21224 8.83635 1.25612L8.78614 1.57364C8.78604 1.58608 8.78884 1.59838 8.79432 1.60956C8.7998 1.62073 8.80781 1.63048 8.81771 1.63802C8.82761 1.64556 8.83913 1.6507 8.85135 1.65302C8.86358 1.65534 8.87618 1.65478 8.88816 1.65138C9.17303 1.5716 10.0753 1.36801 11.7795 1.36801C13.4837 1.36801 14.3844 1.57213 14.6711 1.65153C14.6831 1.65493 14.6957 1.65549 14.7079 1.65317C14.7202 1.65085 14.7317 1.64572 14.7416 1.63817C14.7515 1.63063 14.7595 1.62088 14.765 1.60971C14.7704 1.59853 14.7732 1.58624 14.7732 1.57379L14.7229 1.25627C14.7171 1.21237 14.6984 1.17116 14.6693 1.13776C14.6402 1.10435 14.602 1.08022 14.5593 1.06836C14.2321 0.98391 13.3509 0.80249 11.7795 0.80249Z" fill="#A9A9A9"/>
<path d="M14.5187 1.1021C14.3503 1.20578 14.4083 1.39693 14.5107 1.52949C14.5107 1.52949 13.9939 1.33185 12.3513 1.2946C10.7102 1.25766 10.1157 1.30139 8.96875 1.56719C8.96875 1.56719 9.2779 1.30961 9.03518 1.14764C9.14921 1.10342 9.2676 1.07137 9.38837 1.05203C9.38837 1.05203 9.08676 1.29664 9.33008 1.36119C9.39795 1.37898 9.82254 1.26723 10.2195 1.22833C11.1784 1.13452 12.5845 1.12985 13.4026 1.24145C14.2191 1.35161 14.2515 1.33864 14.2661 1.28669C14.2806 1.23473 14.4054 1.13588 14.1769 1.03394L14.5204 1.10519L14.5187 1.1021Z" fill="#D4D4D4"/>
<path d="M13.7887 17.686C13.7748 17.6113 13.7384 17.5427 13.6846 17.4891C13.6307 17.4356 13.5618 17.3997 13.4871 17.3862C12.1684 17.1514 11.3989 17.1514 10.0789 17.3862C10.0041 17.3997 9.93523 17.4356 9.88136 17.4891C9.82749 17.5427 9.79118 17.6113 9.77724 17.686C9.68027 18.16 9.62191 18.6411 9.60276 19.1245C9.59469 18.6466 9.65139 18.1849 9.77769 17.4965C9.79163 17.4218 9.82795 17.3532 9.88182 17.2996C9.93568 17.2461 10.0046 17.2102 10.0793 17.1968C11.398 16.9619 12.1674 16.9619 13.4875 17.1968C13.5623 17.2102 13.6311 17.2461 13.685 17.2996C13.7389 17.3532 13.7752 17.4218 13.7891 17.4965C13.9155 18.185 13.9722 18.6467 13.9641 19.1245C13.9454 18.641 13.8868 18.1598 13.7887 17.686Z" fill="#D4D4D4"/>
<path d="M14.508 22.1101L14.7607 22.5734C14.7607 22.5734 13.8957 22.8245 11.78 22.8245C9.66424 22.8245 8.80245 22.5717 8.80245 22.5717L9.05355 22.1118C9.08227 22.0586 9.12486 22.0143 9.17678 21.9835C9.2287 21.9527 9.288 21.9366 9.34837 21.9368L14.2132 21.9368C14.2735 21.9366 14.3328 21.9527 14.3848 21.9835C14.4367 22.0143 14.4793 22.0586 14.508 22.1118L14.508 22.1101Z" fill="#2B2120"/>
<path d="M11.7801 23.385C13.3514 23.385 14.2326 23.2036 14.5599 23.1194C14.6025 23.1074 14.6407 23.0833 14.6697 23.0499C14.6988 23.0165 14.7174 22.9753 14.7232 22.9314L14.7734 22.6139C14.7735 22.6014 14.7707 22.5891 14.7653 22.5779C14.7598 22.5668 14.7518 22.557 14.7419 22.5495C14.732 22.5419 14.7204 22.5368 14.7082 22.5345C14.696 22.5322 14.6834 22.5327 14.6714 22.5361C14.3865 22.6159 13.4843 22.8195 11.7801 22.8195C10.0759 22.8195 9.1752 22.6154 8.88844 22.536C8.87647 22.5326 8.86387 22.532 8.85164 22.5343C8.83941 22.5367 8.82789 22.5418 8.81799 22.5493C8.80809 22.5569 8.80008 22.5666 8.7946 22.5778C8.78912 22.589 8.78632 22.6013 8.78642 22.6137L8.83664 22.9312C8.84252 22.9751 8.86116 23.0163 8.89025 23.0497C8.91933 23.0831 8.95759 23.1073 9.00026 23.1191C9.32744 23.2036 10.2087 23.385 11.7801 23.385Z" fill="#A9A9A9"/>
<path d="M9.04084 23.0854C9.20929 22.9817 9.15123 22.7906 9.04891 22.658C9.04891 22.658 9.56565 22.8556 11.2083 22.8929C12.8494 22.9298 13.4439 22.8861 14.5908 22.6203C14.5908 22.6203 14.2817 22.8779 14.5244 23.0399C14.4104 23.0841 14.292 23.1161 14.1712 23.1355C14.1712 23.1355 14.4728 22.8909 14.2295 22.8263C14.1616 22.8085 13.737 22.9203 13.3401 22.9592C12.3812 23.053 10.9751 23.0577 10.157 22.9461C9.34049 22.8359 9.30807 22.8489 9.29352 22.9008C9.27896 22.9528 9.15417 23.0516 9.38264 23.1536L9.03918 23.0823L9.04084 23.0854Z" fill="#D4D4D4"/>
</svg>
