<svg width="16" height="17" viewBox="0 0 16 17" fill="none" xmlns="http://www.w3.org/2000/svg">
<path fill-rule="evenodd" clip-rule="evenodd" d="M1.37924 4.44228C1.33301 4.68732 1.33301 4.9815 1.33301 5.56985V10.27C1.33301 12.7842 1.33301 14.0413 2.11405 14.8223C2.89511 15.6034 4.15218 15.6034 6.66634 15.6034H9.33301C11.8471 15.6034 13.1043 15.6034 13.8853 14.8223C14.6663 14.0413 14.6663 12.7842 14.6663 10.27V8.80195C14.6663 7.04705 14.6663 6.16959 14.1533 5.59924C14.1062 5.54678 14.0563 5.49685 14.0038 5.44966C13.4334 4.93669 12.556 4.93669 10.8011 4.93669H10.5519C9.78281 4.93669 9.39827 4.93669 9.03994 4.83454C8.84307 4.77842 8.65327 4.69983 8.47441 4.60031C8.14881 4.41913 7.87687 4.14721 7.33301 3.60335L6.96614 3.23652C6.78387 3.05424 6.69274 2.96309 6.59697 2.88369C6.18402 2.54138 5.67744 2.33155 5.14339 2.28161C5.01951 2.27002 4.89062 2.27002 4.63284 2.27002C4.04449 2.27002 3.75031 2.27002 3.50527 2.31625C2.42655 2.51978 1.58277 3.36356 1.37924 4.44228ZM6.16634 9.60335C6.16634 9.32722 6.3902 9.10335 6.66634 9.10335H9.33301C9.60914 9.10335 9.83301 9.32722 9.83301 9.60335C9.83301 9.87949 9.60914 10.1034 9.33301 10.1034H6.66634C6.3902 10.1034 6.16634 9.87949 6.16634 9.60335Z" fill="#1C274C"/>
</svg>
