<svg width="27" height="28" viewBox="0 0 27 28" fill="none" xmlns="http://www.w3.org/2000/svg">
<path fill-rule="evenodd" clip-rule="evenodd" d="M13.4658 27.8438C7.40431 27.8438 4.37356 27.8438 2.4905 25.856C0.607422 23.8684 0.607422 20.6692 0.607422 14.271C0.607422 7.87274 0.607422 4.67361 2.4905 2.68593C4.37356 0.698242 7.40431 0.698242 13.4658 0.698242C19.5273 0.698242 22.5581 0.698242 24.4411 2.68593C26.3242 4.67361 26.3242 7.87274 26.3242 14.271C26.3242 20.6692 26.3242 23.8684 24.4411 25.856C22.5581 27.8438 19.5273 27.8438 13.4658 27.8438ZM18.2877 14.271C18.2877 14.8332 17.8559 15.289 17.3234 15.289H9.60831C9.0757 15.289 8.64393 14.8332 8.64393 14.271C8.64393 13.7088 9.0757 13.253 9.60831 13.253H17.3234C17.8559 13.253 18.2877 13.7088 18.2877 14.271Z" fill="#196AA2"/>
<rect x="12.5029" y="8.7179" width="1.92709" height="11.1062" rx="0.562012" fill="white"/>
</svg>
