<svg width="27" height="28" viewBox="0 0 27 28" fill="none" xmlns="http://www.w3.org/2000/svg">
<path fill-rule="evenodd" clip-rule="evenodd" d="M13.4229 27.8438C7.36135 27.8438 4.3306 27.8438 2.44753 25.8561C0.564453 23.8685 0.564453 20.6692 0.564453 14.271C0.564453 7.87275 0.564453 4.67362 2.44753 2.68594C4.3306 0.698242 7.36135 0.698242 13.4229 0.698242C19.4843 0.698242 22.5152 0.698242 24.3982 2.68594C26.2813 4.67362 26.2813 7.87275 26.2813 14.271C26.2813 20.6692 26.2813 23.8685 24.3982 25.8561C22.5152 27.8438 19.4843 27.8438 13.4229 27.8438ZM18.2448 14.271C18.2448 14.8332 17.813 15.289 17.2804 15.289H9.56535C9.03274 15.289 8.60097 14.8332 8.60097 14.271C8.60097 13.7088 9.03274 13.2531 9.56535 13.2531H17.2804C17.813 13.2531 18.2448 13.7088 18.2448 14.271Z" fill="#196AA2"/>
</svg>
