<svg width="16" height="17" viewBox="0 0 16 17" fill="none" xmlns="http://www.w3.org/2000/svg">
<path d="M3.3335 11.4144H2.66683C2.31321 11.4144 1.97407 11.2739 1.72402 11.0239C1.47397 10.7738 1.3335 10.4347 1.3335 10.0811V3.41439C1.3335 3.06077 1.47397 2.72163 1.72402 2.47158C1.97407 2.22153 2.31321 2.08105 2.66683 2.08105H13.3335C13.6871 2.08105 14.0263 2.22153 14.2763 2.47158C14.5264 2.72163 14.6668 3.06077 14.6668 3.41439V10.0811C14.6668 10.4347 14.5264 10.7738 14.2763 11.0239C14.0263 11.2739 13.6871 11.4144 13.3335 11.4144H12.6668" stroke="white" stroke-linecap="round" stroke-linejoin="round"/>
<path d="M7.99984 10.0811L11.3332 14.0811H4.6665L7.99984 10.0811Z" stroke="white" stroke-linecap="round" stroke-linejoin="round"/>
</svg>
