<svg width="16" height="16" viewBox="0 0 16 16" fill="none" xmlns="http://www.w3.org/2000/svg">
<circle cx="8" cy="8" r="7.5" fill="white" stroke="#3598DC"/>
<path fill-rule="evenodd" clip-rule="evenodd" d="M5.63309 5.52224C5.63691 5.31131 5.81104 5.13719 6.02197 5.13336L9.80304 5.06461C10.014 5.06078 10.1819 5.22868 10.178 5.43961L10.1093 9.22067C10.1055 9.4316 9.93133 9.60572 9.7204 9.60956C9.50947 9.61339 9.34157 9.44549 9.3454 9.23456L9.39739 6.37559L5.66148 10.1115C5.50961 10.2634 5.26777 10.2678 5.12132 10.1213C4.97487 9.97487 4.97928 9.73304 5.13114 9.58117L8.86705 5.84526L6.00809 5.89725C5.79715 5.90107 5.62926 5.73318 5.63309 5.52224Z" fill="black"/>
</svg>
