<svg id="east-west-north-south-symbol-icon" xmlns="http://www.w3.org/2000/svg" width="54.682" height="54.807" viewBox="0 0 54.682 54.807">
  <path id="Path_6839" data-name="Path 6839" d="M33.2,22.968,30.319,25.74,29.25,26.885l.045.049H47.626L33.2,22.968ZM7.024,24.694v.121a.43.43,0,0,0-.224.076.553.553,0,0,0-.161.2c-.013.027-.085.21-.219.545L4.936,29.545h-.13L3.635,26.46l-1.3,3.085H2.213L.648,25.673a4.254,4.254,0,0,0-.331-.715A.434.434,0,0,0,0,24.815v-.121H2.052v.121a.582.582,0,0,0-.331.076.214.214,0,0,0-.08.17,2.189,2.189,0,0,0,.17.568l.93,2.3.751-1.815L3.3,25.624a3.6,3.6,0,0,0-.246-.55.526.526,0,0,0-.2-.2.731.731,0,0,0-.331-.058V24.7H4.8v.121a1.17,1.17,0,0,0-.344.04.213.213,0,0,0-.156.215,2.257,2.257,0,0,0,.156.5l.863,2.244.774-2.03c.08-.21.13-.353.152-.434a.939.939,0,0,0,.027-.215.279.279,0,0,0-.1-.228.626.626,0,0,0-.371-.089V24.7H7.024Zm45.145.326v1.932h.094a.763.763,0,0,0,.657-.282,1.722,1.722,0,0,0,.259-.832h.134V28.32h-.134A1.852,1.852,0,0,0,53,27.654a.736.736,0,0,0-.313-.349,1.215,1.215,0,0,0-.519-.089v1.332a1.649,1.649,0,0,0,.036.478.276.276,0,0,0,.125.143.611.611,0,0,0,.3.058h.282a1.534,1.534,0,0,0,1.641-1.243h.13l-.215,1.507H50.376v-.121h.148a.647.647,0,0,0,.331-.076.3.3,0,0,0,.139-.17,1.466,1.466,0,0,0,.036-.443V25.557a2.3,2.3,0,0,0-.018-.4.32.32,0,0,0-.13-.188.59.59,0,0,0-.362-.1h-.156v-.121h3.961v1.4H54.19a1.709,1.709,0,0,0-.282-.738,1.083,1.083,0,0,0-.514-.331,2.847,2.847,0,0,0-.729-.063h-.5ZM30.14,49.844l.036,1.583h-.143a1.614,1.614,0,0,0-.5-.957,1.249,1.249,0,0,0-.858-.362.791.791,0,0,0-.563.192.579.579,0,0,0-.21.438.554.554,0,0,0,.076.282,1.174,1.174,0,0,0,.326.322,7.076,7.076,0,0,0,.76.407,3.377,3.377,0,0,1,1.122.773,1.3,1.3,0,0,1,.286.832,1.334,1.334,0,0,1-.465,1.019,1.664,1.664,0,0,1-1.176.429,2.17,2.17,0,0,1-.425-.045,3.15,3.15,0,0,1-.5-.17.791.791,0,0,0-.277-.067.321.321,0,0,0-.192.072.55.55,0,0,0-.165.215h-.121V53.018h.121a2.062,2.062,0,0,0,.59,1.149,1.4,1.4,0,0,0,.948.4.894.894,0,0,0,.626-.215.638.638,0,0,0,.143-.818.989.989,0,0,0-.273-.3,4.159,4.159,0,0,0-.644-.367,5.4,5.4,0,0,1-.93-.541,1.684,1.684,0,0,1-.434-.5,1.228,1.228,0,0,1-.152-.608,1.289,1.289,0,0,1,.416-.966,1.459,1.459,0,0,1,1.046-.4,1.855,1.855,0,0,1,.447.054,2.2,2.2,0,0,1,.4.156.92.92,0,0,0,.331.112.189.189,0,0,0,.143-.054.626.626,0,0,0,.1-.268h.107ZM28.043,0l2.334,2.938V.9a.993.993,0,0,0-.121-.581.667.667,0,0,0-.563-.2V0h1.565V.121a1.258,1.258,0,0,0-.407.1.414.414,0,0,0-.161.2A1.352,1.352,0,0,0,30.632.9V4.851h-.116L27.314.9V3.921a.682.682,0,0,0,.188.559.672.672,0,0,0,.429.143h.112v.121h-1.69V4.623a.777.777,0,0,0,.545-.161.767.767,0,0,0,.152-.541V.568L26.961.443A.905.905,0,0,0,26.7.188a.781.781,0,0,0-.331-.067V0ZM28.3,26.952H9.993l14.6,4.011.715-.689,3.058-3.268-.063-.054Zm-3.51-4.444,3.9,4.055.036-.036V8.2L24.792,22.508Zm-.653,8.884L8.911,27.207v-.514l15.363-4.3,4.2-15.282h.514l4.283,15.318L48.7,26.675v.514L33.292,31.5,29,47.121h-.514L24.1,31.432l.04-.04Zm4.605-3.684V46.039l4.028-14.652-3.979-3.72-.049.04Z" fill="#747474"/>
</svg>
