<svg width="14" height="14" viewBox="0 0 12 13" fill="none" xmlns="http://www.w3.org/2000/svg">
<g clip-path="url(#clip0_84_560)">
<path d="M5.5 2.38477H2C1.73478 2.38477 1.48043 2.49012 1.29289 2.67766C1.10536 2.8652 1 3.11955 1 3.38477V10.3848C1 10.65 1.10536 10.9043 1.29289 11.0919C1.48043 11.2794 1.73478 11.3848 2 11.3848H9C9.26522 11.3848 9.51957 11.2794 9.70711 11.0919C9.89464 10.9043 10 10.65 10 10.3848V6.88477" stroke="black" stroke-width="1.3" stroke-linecap="round" stroke-linejoin="round"/>
<path d="M9.25 1.63488C9.44891 1.43597 9.7187 1.32422 10 1.32422C10.2813 1.32422 10.5511 1.43597 10.75 1.63488C10.9489 1.83379 11.0607 2.10357 11.0607 2.38488C11.0607 2.66618 10.9489 2.93597 10.75 3.13488L6 7.88488L4 8.38488L4.5 6.38488L9.25 1.63488Z" stroke="black" stroke-width="1.3" stroke-linecap="round" stroke-linejoin="round"/>
</g>
<defs>
<clipPath id="clip0_84_560">
<rect width="12" height="12" fill="white" transform="translate(0 0.384766)"/>
</clipPath>
</defs>
</svg>
