<svg width="8" height="8" viewBox="0 0 8 8" fill="none" xmlns="http://www.w3.org/2000/svg">
<g clip-path="url(#clip0_446_762)">
<path fill-rule="evenodd" clip-rule="evenodd" d="M6.93003 5.1705C6.86427 6.74098 5.57081 7.99412 3.98418 7.99412C2.35547 7.99412 1.03516 6.62942 1.03516 5.0451C1.03516 4.83334 1.03136 4.41012 1.34888 3.69608C1.53891 3.26876 1.65809 3.0003 1.72535 2.75491C1.76231 2.62004 1.83419 2.40576 2.03908 2.75491C2.1599 2.96077 2.16457 3.25687 2.16457 3.25687C2.16457 3.25687 2.61408 2.91193 2.91751 2.25295C3.36234 1.28689 3.00742 0.709417 2.88614 0.307848C2.84416 0.168931 2.81781 -0.0807321 3.10575 0.0254953C3.39914 0.133762 4.1748 0.676727 4.58026 1.24902C5.15892 2.06581 5.36457 2.84902 5.36457 2.84902C5.36457 2.84902 5.54986 2.61906 5.61555 2.37844C5.68975 2.10672 5.69084 1.83761 5.92924 2.12749C6.15597 2.40316 6.4927 2.92121 6.68222 3.41373C7.02634 4.30813 6.93003 5.1705 6.93003 5.1705Z" fill="url(#paint0_linear_446_762)"/>
<path fill-rule="evenodd" clip-rule="evenodd" d="M3.98453 7.99412C2.85829 7.99412 1.94531 7.08114 1.94531 5.9549C1.94531 5.27534 2.21916 4.86276 2.78911 4.30326C3.15403 3.94502 3.49559 3.50502 3.64075 3.20541C3.66933 3.14643 3.73436 2.83907 3.98512 3.19895C4.11667 3.38769 4.32288 3.72334 4.45512 4.0098C4.68307 4.5037 4.73747 4.98235 4.73747 4.98235C4.73747 4.98235 4.96087 4.85071 5.11394 4.51176C5.16329 4.40253 5.26305 3.98897 5.54196 4.40246C5.7466 4.7059 6.02773 5.25147 6.02374 5.9549C6.02374 7.08114 5.11074 7.99412 3.98453 7.99412Z" fill="#FC9502"/>
<path fill-rule="evenodd" clip-rule="evenodd" d="M4.01588 5.76672C4.30608 5.76672 4.30608 6.3041 4.67471 7.02163C4.92016 7.4994 4.55301 7.99417 4.01588 7.99417C3.47875 7.99417 3.2002 7.55876 3.2002 7.02163C3.2002 6.48453 3.72569 5.76672 4.01588 5.76672Z" fill="#FCE202"/>
</g>
<defs>
<linearGradient id="paint0_linear_446_762" x1="3.9886" y1="8.00002" x2="3.9886" y2="0.00591881" gradientUnits="userSpaceOnUse">
<stop stop-color="#FF4C0D"/>
<stop offset="1" stop-color="#FC9502"/>
</linearGradient>
<clipPath id="clip0_446_762">
<rect width="8" height="8" fill="white"/>
</clipPath>
</defs>
</svg>
