<svg width="16" height="16" viewBox="0 0 16 16" fill="none" xmlns="http://www.w3.org/2000/svg">
<g clip-path="url(#clip0_316_120)">
<path fill-rule="evenodd" clip-rule="evenodd" d="M8.00001 16C6.41776 16 4.87104 15.5308 3.55544 14.6518C2.23985 13.7727 1.21448 12.5233 0.608976 11.0615C0.00347455 9.59966 -0.154963 7.99113 0.153718 6.43928C0.4624 4.88743 1.22434 3.46197 2.34316 2.34315C3.46198 1.22433 4.88743 0.462404 6.43928 0.153723C7.99113 -0.154959 9.59967 0.00346254 11.0615 0.608964C12.5233 1.21446 13.7727 2.23985 14.6518 3.55544C15.5308 4.87103 16 6.41775 16 8C16 10.1217 15.1572 12.1566 13.6569 13.6569C12.1566 15.1571 10.1217 16 8.00001 16ZM3.4704 9.80401C3.29837 9.63008 3.20188 9.39531 3.20188 9.15067C3.20188 8.90603 3.29837 8.67127 3.4704 8.49733L3.94135 8.02907C4.02144 7.94826 4.11693 7.88436 4.22219 7.84117C4.32745 7.79797 4.44032 7.77637 4.55409 7.77764C4.66786 7.77891 4.78021 7.80302 4.88448 7.84855C4.98875 7.89407 5.08281 7.96009 5.16108 8.04267L5.99307 8.90587C6.03274 8.94773 6.08053 8.98106 6.1335 9.00384C6.18648 9.02663 6.24354 9.03837 6.30121 9.03837C6.35888 9.03837 6.41594 9.02663 6.46892 9.00384C6.5219 8.98106 6.56967 8.94773 6.60933 8.90587L10.8493 4.5352C10.9282 4.45204 11.023 4.38568 11.1281 4.34011C11.2333 4.29454 11.3466 4.2707 11.4611 4.27003C11.5757 4.26936 11.6893 4.29186 11.7949 4.33619C11.9006 4.38053 11.9962 4.44578 12.076 4.52801L12.5333 4.9904C12.7012 5.16362 12.795 5.39534 12.795 5.63653C12.795 5.87773 12.7012 6.10945 12.5333 6.28267L6.90427 12.0029C6.82572 12.0842 6.73172 12.1491 6.62779 12.1936C6.52386 12.2381 6.41207 12.2614 6.29902 12.2621C6.18596 12.2629 6.07389 12.241 5.96938 12.1979C5.86487 12.1548 5.77002 12.0912 5.69041 12.0109L3.4704 9.80401Z" fill="#35B817"/>
</g>
<defs>
<clipPath id="clip0_316_120">
<rect width="16" height="16" fill="white"/>
</clipPath>
</defs>
</svg>
