<svg width="26" height="27" viewBox="0 0 26 27" fill="none" xmlns="http://www.w3.org/2000/svg">
<path fill-rule="evenodd" clip-rule="evenodd" d="M4.78176 19.839C5.1694 19.613 5.66688 19.744 5.89293 20.1316C6.7887 21.6678 8.15814 22.8293 9.84692 23.5831C10.2567 23.766 10.4406 24.2464 10.2577 24.6562C10.0748 25.066 9.5944 25.2499 9.18463 25.067C7.22216 24.1912 5.5757 22.8134 4.48917 20.9502C4.26312 20.5625 4.39412 20.0651 4.78176 19.839Z" fill="#FFA53B"/>
<path fill-rule="evenodd" clip-rule="evenodd" d="M20.481 4.74055C19.3826 3.61878 17.8161 3.20501 16.2826 3.64136C15.851 3.76416 15.4016 3.51384 15.2788 3.08224C15.156 2.65064 15.4063 2.2012 15.8379 2.07839C17.9376 1.48094 20.1221 2.05134 21.642 3.60366C21.956 3.92428 21.9506 4.4387 21.63 4.75264C21.3094 5.06659 20.795 5.06117 20.481 4.74055Z" fill="#FFA53B"/>
<path fill-rule="evenodd" clip-rule="evenodd" d="M12.1228 4.07582C11.891 3.67815 11.2152 3.43698 10.5287 3.82931C9.84469 4.22021 9.7244 4.90926 9.95226 5.29999L12.6884 9.99204C12.9144 10.3797 12.7834 10.8772 12.3958 11.1032C12.0082 11.3293 11.5107 11.1983 11.2846 10.8106L7.63646 4.55457C7.40456 4.1569 6.72877 3.91574 6.04229 4.30807C5.35832 4.69897 5.23802 5.38801 5.46589 5.77875L9.57008 12.8168C9.79613 13.2044 9.66513 13.702 9.27749 13.928C8.88985 14.1541 8.39236 14.0231 8.16632 13.6354L6.34223 10.5074C6.11033 10.1097 5.43454 9.86855 4.74806 10.2609C4.06409 10.6518 3.9438 11.3408 4.17167 11.7315L8.27585 18.7696C10.0189 21.7586 14.3201 22.7287 17.9676 20.644C21.6127 18.5609 22.9084 14.3992 21.1694 11.4171L18.4333 6.72509C18.2014 6.32741 17.5256 6.08625 16.8391 6.47858C16.1552 6.86948 16.0348 7.55853 16.2628 7.94927L18.0868 11.0773C18.196 11.2645 18.2259 11.4876 18.1698 11.6969C18.1136 11.9063 17.9763 12.0845 17.7881 12.192C16.1171 13.147 15.605 14.9936 16.3365 16.248C16.5626 16.6358 16.4317 17.1332 16.0439 17.3592C15.6563 17.5853 15.1589 17.4543 14.9328 17.0667C13.944 15.3711 14.3435 13.3293 15.6207 11.8863C15.9777 11.4829 16.0999 10.896 15.8286 10.4306L12.1228 4.07582Z" fill="#FFA53C"/>
</svg>
