<svg width="21" height="21" viewBox="0 0 21 21" fill="none" xmlns="http://www.w3.org/2000/svg">
<path d="M6.07274 1.75C6.43662 1.75 6.7316 2.03368 6.7316 2.38362V3.66176C7.31602 3.65086 7.9711 3.65086 8.70817 3.65086H12.2221C12.9591 3.65086 13.6142 3.65086 14.1986 3.66176V2.38362C14.1986 2.03368 14.4936 1.75 14.8575 1.75C15.2213 1.75 15.5164 2.03368 15.5164 2.38362V3.71782C16.7808 3.81519 17.6109 4.05416 18.2206 4.64064C18.8305 5.22712 19.079 6.02539 19.1803 7.24138L19.25 7.875H2.55899H1.75V7.24138C1.85125 6.02539 2.09974 5.22712 2.70957 4.64064C3.31941 4.05416 4.14948 3.81519 5.41389 3.71782V2.38362C5.41389 2.03368 5.70887 1.75 6.07274 1.75Z" fill="#3598DC"/>
<path opacity="0.5" d="M19.2493 12.2501V10.5001C19.2493 9.76588 19.2465 8.45711 19.2352 7.875H1.75778C1.74649 8.45711 1.74935 9.76588 1.74935 10.5001V12.2501C1.74935 15.5499 1.74935 17.1998 2.77447 18.2249C3.79959 19.2501 5.44951 19.2501 8.74935 19.2501H12.2493C15.5492 19.2501 17.1991 19.2501 18.2243 18.2249C19.2493 17.1998 19.2493 15.5499 19.2493 12.2501Z" fill="#3598DC"/>
<path d="M15.75 14.875C15.75 15.3583 15.3583 15.75 14.875 15.75C14.3917 15.75 14 15.3583 14 14.875C14 14.3917 14.3917 14 14.875 14C15.3583 14 15.75 14.3917 15.75 14.875Z" fill="#3598DC"/>
<path d="M15.75 11.375C15.75 11.8583 15.3583 12.25 14.875 12.25C14.3917 12.25 14 11.8583 14 11.375C14 10.8917 14.3917 10.5 14.875 10.5C15.3583 10.5 15.75 10.8917 15.75 11.375Z" fill="#3598DC"/>
<path d="M11.375 14.875C11.375 15.3583 10.9833 15.75 10.5 15.75C10.0167 15.75 9.625 15.3583 9.625 14.875C9.625 14.3917 10.0167 14 10.5 14C10.9833 14 11.375 14.3917 11.375 14.875Z" fill="#3598DC"/>
<path d="M11.375 11.375C11.375 11.8583 10.9833 12.25 10.5 12.25C10.0167 12.25 9.625 11.8583 9.625 11.375C9.625 10.8917 10.0167 10.5 10.5 10.5C10.9833 10.5 11.375 10.8917 11.375 11.375Z" fill="#3598DC"/>
<path d="M7 14.875C7 15.3583 6.60825 15.75 6.125 15.75C5.64175 15.75 5.25 15.3583 5.25 14.875C5.25 14.3917 5.64175 14 6.125 14C6.60825 14 7 14.3917 7 14.875Z" fill="#3598DC"/>
<path d="M7 11.375C7 11.8583 6.60825 12.25 6.125 12.25C5.64175 12.25 5.25 11.8583 5.25 11.375C5.25 10.8917 5.64175 10.5 6.125 10.5C6.60825 10.5 7 10.8917 7 11.375Z" fill="#3598DC"/>
</svg>
