<svg width="17" height="17" viewBox="0 0 17 17" fill="none" xmlns="http://www.w3.org/2000/svg">
<path d="M13.6668 9.53346C13.6668 14.2742 9.63723 15.4594 7.62236 15.4594C5.85942 15.4594 2.3335 14.2742 2.3335 9.53346C2.3335 7.67906 3.30781 6.43364 4.24014 5.72242C4.7591 5.32652 5.42043 5.72071 5.48694 6.37005L5.54416 6.92861C5.61384 7.60879 6.23304 8.16646 6.80638 7.79386C7.92936 7.06409 8.3335 5.30953 8.3335 4.34829V4.13253C8.3335 3.17939 9.29603 2.56596 10.0684 3.1245C11.777 4.36024 13.6668 6.51557 13.6668 9.53346Z" stroke="white"/>
<path d="M5.66699 13.0891C5.66699 14.9853 7.32626 15.4594 8.15586 15.4594C8.88179 15.4594 10.3337 14.9853 10.3337 13.0891C10.3337 12.3551 9.94079 11.8595 9.56059 11.5736C9.29526 11.3741 8.92219 11.5533 8.83093 11.8725C8.71199 12.2885 8.28219 12.5501 8.06326 12.1767C7.86306 11.8353 7.86306 11.3232 7.86306 11.015C7.86306 10.5906 7.43626 10.3159 7.09293 10.5653C6.40465 11.0655 5.66699 11.9137 5.66699 13.0891Z" stroke="white"/>
</svg>
