<svg width="15" height="15" viewBox="0 0 15 15" fill="none" xmlns="http://www.w3.org/2000/svg">
<g clip-path="url(#clip0_376_1262)">
<path d="M13.0984 6.05834L14.6672 7.62721C14.8383 7.79827 14.8383 8.07521 14.6672 8.24584L13.0984 9.81471C12.8227 10.0903 12.3516 9.89521 12.3516 9.5054L12.3516 9.24902L10.301 9.24902C9.72087 9.24902 9.16394 9.47959 8.754 9.88996L6.42956 12.2148C5.52787 13.117 4.30419 13.624 3.02844 13.624L1.41406 13.624C1.17256 13.624 0.976562 13.428 0.976562 13.1865L0.976562 11.4365C0.976562 11.195 1.17256 10.999 1.41406 10.999L3.02756 10.999C3.60725 10.999 4.16331 10.7685 4.57325 10.3585L6.89812 8.03321C6.93225 7.99909 6.96988 7.96934 7.00487 7.93652L7.00444 7.93609C7.89562 7.09696 9.07206 6.62402 10.2997 6.62402L10.3014 6.62402L12.3516 6.62402L12.3516 6.36765C12.3516 5.97784 12.8227 5.78271 13.0984 6.05834ZM0.976562 2.68652L0.976562 4.43652C0.976562 4.67802 1.17256 4.87402 1.41406 4.87402L3.02669 4.87402C3.60681 4.87402 4.16331 5.10459 4.57369 5.51496L6.68987 7.63115C7.39512 6.96177 8.25219 6.50896 9.1845 6.30815C9.0305 6.21627 8.8835 6.11215 8.75444 5.98309L6.43 3.65865C5.52744 2.75609 4.30375 2.24902 3.02756 2.24902L1.41406 2.24902C1.17256 2.24902 0.976562 2.44502 0.976562 2.68652Z" fill="#132756"/>
</g>
<defs>
<clipPath id="clip0_376_1262">
<rect width="14" height="14" fill="white" transform="translate(0.976562 14.9365) rotate(-90)"/>
</clipPath>
</defs>
</svg>
