<svg width="26" height="26" viewBox="0 0 26 26" fill="none" xmlns="http://www.w3.org/2000/svg">
<path fill-rule="evenodd" clip-rule="evenodd" d="M13 25.0757C7.10744 25.0757 4.16116 25.0757 2.33059 23.2451C0.5 21.4146 0.5 18.4682 0.5 12.5757C0.5 6.68312 0.5 3.73685 2.33059 1.90627C4.16116 0.0756834 7.10744 0.0756836 13 0.0756836C18.8925 0.0756836 21.8389 0.0756834 23.6694 1.90627C25.5 3.73685 25.5 6.68312 25.5 12.5757C25.5 18.4682 25.5 21.4146 23.6694 23.2451C21.8389 25.0757 18.8925 25.0757 13 25.0757ZM9.21206 8.78777C9.57818 8.42166 10.1718 8.42166 10.5379 8.78777L13 11.2499L15.462 8.7878C15.8281 8.42168 16.4218 8.42168 16.7879 8.7878C17.154 9.15391 17.154 9.74751 16.7879 10.1136L14.3258 12.5757L16.7879 15.0378C17.154 15.4038 17.154 15.9974 16.7879 16.3636C16.4218 16.7297 15.8281 16.7297 15.462 16.3636L13 13.9016L10.5379 16.3636C10.1718 16.7297 9.5782 16.7297 9.21209 16.3636C8.84597 15.9974 8.84597 15.4039 9.21209 15.0378L11.6741 12.5757L9.21206 10.1136C8.84595 9.74748 8.84595 9.15388 9.21206 8.78777Z" fill="#868686"/>
</svg>
