<svg width="20" height="21" viewBox="0 0 20 21" fill="none" xmlns="http://www.w3.org/2000/svg">
<path d="M15 7.448C15 6.12192 14.4732 4.85015 13.5355 3.91246C12.5979 2.97478 11.3261 2.448 10 2.448C8.67392 2.448 7.40215 2.97478 6.46447 3.91246C5.52678 4.85015 5 6.12192 5 7.448C5 13.2813 2.5 14.948 2.5 14.948H17.5C17.5 14.948 15 13.2813 15 7.448Z" stroke="#ED3D25" stroke-width="1.2" stroke-linecap="round" stroke-linejoin="round"/>
<path d="M11.4419 18.2812C11.2954 18.5338 11.0851 18.7435 10.8321 18.8892C10.5791 19.0349 10.2922 19.1116 10.0003 19.1116C9.70828 19.1116 9.42142 19.0349 9.1684 18.8892C8.91539 18.7435 8.7051 18.5338 8.55859 18.2812" stroke="#ED3D25" stroke-width="1.2" stroke-linecap="round" stroke-linejoin="round"/>
</svg>
