<svg width="12" height="13" viewBox="0 0 12 13" fill="none" xmlns="http://www.w3.org/2000/svg">
<path d="M2.875 0.541748C3.0821 0.541748 3.25 0.723634 3.25 0.947998V1.95008L4.11033 1.76368C4.9356 1.58487 5.79105 1.66995 6.57245 2.00856L6.6743 2.05269C7.45485 2.39094 8.314 2.45411 9.1296 2.23321C9.50825 2.13067 9.875 2.4409 9.875 2.86371V6.85417C9.875 7.20316 9.65575 7.50736 9.3432 7.59203L9.236 7.62106C8.3512 7.86069 7.41925 7.79217 6.57245 7.42525C5.79105 7.0866 4.9356 7.00156 4.11033 7.18036L3.25 7.36675V11.7813C3.25 12.0057 3.0821 12.1876 2.875 12.1876C2.6679 12.1876 2.5 12.0057 2.5 11.7813V0.947998C2.5 0.723634 2.6679 0.541748 2.875 0.541748Z" fill="#53AA2A"/>
</svg>
