<svg width="11" height="12" viewBox="0 0 11 12" fill="none" xmlns="http://www.w3.org/2000/svg">
<g clip-path="url(#clip0_69_306)">
<path fill-rule="evenodd" clip-rule="evenodd" d="M9.52928 7.88426C9.43886 10.0437 7.66036 11.7667 5.47873 11.7667C3.23926 11.7667 1.42383 9.89027 1.42383 7.71184C1.42383 7.42067 1.41861 6.83875 1.8552 5.85694C2.11649 5.26937 2.28036 4.90024 2.37285 4.56282C2.42367 4.37738 2.52249 4.08275 2.80422 4.56282C2.97034 4.84589 2.97677 5.25302 2.97677 5.25302C2.97677 5.25302 3.59484 4.77873 4.01207 3.87263C4.62371 2.5443 4.1357 1.75027 3.96893 1.19812C3.91121 1.00711 3.87498 0.663819 4.27089 0.809882C4.67431 0.958749 5.74083 1.70533 6.29834 2.49224C7.09401 3.61531 7.37677 4.69223 7.37677 4.69223C7.37677 4.69223 7.63154 4.37604 7.72187 4.04518C7.82389 3.67156 7.8254 3.30153 8.1532 3.70012C8.46495 4.07917 8.92794 4.79149 9.18854 5.46871C9.66171 6.69851 9.52928 7.88426 9.52928 7.88426Z" fill="url(#paint0_linear_69_306)"/>
<path fill-rule="evenodd" clip-rule="evenodd" d="M5.47873 11.7668C3.93014 11.7668 2.6748 10.5115 2.6748 8.96291C2.6748 8.02851 3.05135 7.46121 3.83502 6.6919C4.3368 6.19932 4.80643 5.59432 5.00603 5.18236C5.04533 5.10126 5.13475 4.67864 5.47955 5.17347C5.66042 5.43299 5.94396 5.89451 6.12579 6.2884C6.43922 6.96751 6.51402 7.62565 6.51402 7.62565C6.51402 7.62565 6.8212 7.44465 7.03167 6.97859C7.09952 6.82839 7.2367 6.25975 7.62019 6.8283C7.90157 7.24553 8.28813 7.99568 8.28265 8.96291C8.28265 10.5115 7.02727 11.7668 5.47873 11.7668Z" fill="#FC9502"/>
<path fill-rule="evenodd" clip-rule="evenodd" d="M5.52196 8.7041C5.92098 8.7041 5.92098 9.443 6.42784 10.4296C6.76535 11.0865 6.26051 11.7668 5.52196 11.7668C4.78341 11.7668 4.40039 11.1681 4.40039 10.4296C4.40039 9.69108 5.12294 8.7041 5.52196 8.7041Z" fill="#FCE202"/>
</g>
<defs>
<linearGradient id="paint0_linear_69_306" x1="5.48482" y1="11.7749" x2="5.48482" y2="0.782964" gradientUnits="userSpaceOnUse">
<stop stop-color="#FF4C0D"/>
<stop offset="1" stop-color="#FC9502"/>
</linearGradient>
<clipPath id="clip0_69_306">
<rect width="11" height="11" fill="white" transform="translate(0 0.774902)"/>
</clipPath>
</defs>
</svg>
