<svg width="16" height="17" viewBox="0 0 16 17" fill="none" xmlns="http://www.w3.org/2000/svg">
<path d="M10.6665 3.36304H11.9998C12.3535 3.36304 12.6926 3.50351 12.9426 3.75356C13.1927 4.00361 13.3332 4.34275 13.3332 4.69637V14.0297C13.3332 14.3833 13.1927 14.7225 12.9426 14.9725C12.6926 15.2226 12.3535 15.363 11.9998 15.363H3.99984C3.64622 15.363 3.30708 15.2226 3.05703 14.9725C2.80698 14.7225 2.6665 14.3833 2.6665 14.0297V4.69637C2.6665 4.34275 2.80698 4.00361 3.05703 3.75356C3.30708 3.50351 3.64622 3.36304 3.99984 3.36304H5.33317" stroke="white" stroke-linecap="round" stroke-linejoin="round"/>
<path d="M10.0002 2.02954H6.00016C5.63197 2.02954 5.3335 2.32802 5.3335 2.69621V4.02954C5.3335 4.39773 5.63197 4.69621 6.00016 4.69621H10.0002C10.3684 4.69621 10.6668 4.39773 10.6668 4.02954V2.69621C10.6668 2.32802 10.3684 2.02954 10.0002 2.02954Z" stroke="white" stroke-linecap="round" stroke-linejoin="round"/>
</svg>
