<svg width="31" height="31" viewBox="0 0 31 31" fill="none" xmlns="http://www.w3.org/2000/svg">
<path d="M28.1614 11.2628L27.7989 7.80029C27.2739 4.02529 25.5614 2.48779 21.899 2.48779H18.9489H17.099H13.299H11.449H8.44898C4.77398 2.48779 3.07398 4.02529 2.53648 7.83779L2.19898 11.2753C2.07398 12.6128 2.43648 13.9128 3.22398 14.9253C4.17398 16.1628 5.63648 16.8628 7.26148 16.8628C8.83648 16.8628 10.349 16.0753 11.299 14.8128C12.149 16.0753 13.599 16.8628 15.2115 16.8628C16.8239 16.8628 18.2365 16.1128 19.0989 14.8628C20.0615 16.1003 21.5489 16.8628 23.0989 16.8628C24.7614 16.8628 26.2614 16.1253 27.1989 14.8253C27.9489 13.8253 28.2865 12.5628 28.1614 11.2628Z" fill="#B9B9B9"/>
<path d="M14.3978 21.7506C12.8103 21.9131 11.6104 23.2631 11.6104 24.8631V28.2881C11.6104 28.6256 11.8854 28.9006 12.2229 28.9006H18.1853C18.5228 28.9006 18.7978 28.6256 18.7978 28.2881V25.3006C18.8103 22.6881 17.2728 21.4506 14.3978 21.7506Z" fill="#B9B9B9"/>
<path d="M26.926 18.9229V22.6479C26.926 26.0979 24.126 28.8979 20.676 28.8979C20.3385 28.8979 20.0635 28.6229 20.0635 28.2854V25.2979C20.0635 23.6979 19.576 22.4479 18.626 21.5979C17.7885 20.8354 16.651 20.4604 15.2385 20.4604C14.926 20.4604 14.6135 20.4729 14.276 20.5104C12.051 20.7354 10.3635 22.6104 10.3635 24.8604V28.2854C10.3635 28.6229 10.0885 28.8979 9.75098 28.8979C6.30098 28.8979 3.50098 26.0979 3.50098 22.6479V18.9479C3.50098 18.0729 4.36348 17.4854 5.17598 17.7729C5.51348 17.8854 5.85098 17.9729 6.20098 18.0229C6.35098 18.0479 6.51348 18.0729 6.66348 18.0729C6.86348 18.0979 7.06348 18.1104 7.26348 18.1104C8.71348 18.1104 10.1385 17.5729 11.2635 16.6479C12.3385 17.5729 13.7385 18.1104 15.2135 18.1104C16.701 18.1104 18.076 17.5979 19.151 16.6729C20.276 17.5854 21.676 18.1104 23.101 18.1104C23.326 18.1104 23.551 18.0979 23.7635 18.0729C23.9135 18.0604 24.051 18.0479 24.1885 18.0229C24.576 17.9729 24.926 17.8604 25.276 17.7479C26.0885 17.4729 26.926 18.0729 26.926 18.9229Z" fill="#B9B9B9"/>
</svg>
