<svg width="113" height="70" viewBox="0 0 113 70" fill="none" xmlns="http://www.w3.org/2000/svg">
<rect y="6.28809" width="112.762" height="51.1144" rx="3" fill="url(#paint0_linear_31_939)"/>
<path d="M11.3025 46.8379V12.6561H24.7883C27.3809 12.6561 29.5896 13.1512 31.4144 14.1415C33.2392 15.1207 34.6301 16.4837 35.587 18.2306C36.555 19.9664 37.0391 21.9693 37.0391 24.2392C37.0391 26.5091 36.5495 28.5119 35.5703 30.2477C34.5911 31.9835 33.1725 33.3354 31.3143 34.3034C29.4672 35.2715 27.2307 35.7555 24.6048 35.7555H16.0092V29.964H23.4364C24.8273 29.964 25.9734 29.7247 26.8746 29.2463C27.787 28.7567 28.4658 28.0835 28.9109 27.2267C29.3671 26.3588 29.5952 25.363 29.5952 24.2392C29.5952 23.1042 29.3671 22.1139 28.9109 21.2683C28.4658 20.4115 27.787 19.7495 26.8746 19.2821C25.9622 18.8037 24.805 18.5645 23.403 18.5645H18.5295V46.8379H11.3025ZM73.1444 29.747C73.1444 33.4745 72.4379 36.6457 71.0248 39.2605C69.6228 41.8753 67.7089 43.8726 65.2833 45.2523C62.8687 46.6209 60.1538 47.3052 57.1384 47.3052C54.1008 47.3052 51.3747 46.6154 48.9601 45.2356C46.5456 43.8559 44.6373 41.8586 43.2353 39.2438C41.8334 36.629 41.1324 33.4634 41.1324 29.747C41.1324 26.0195 41.8334 22.8483 43.2353 20.2335C44.6373 17.6187 46.5456 15.627 48.9601 14.2583C51.3747 12.8786 54.1008 12.1887 57.1384 12.1887C60.1538 12.1887 62.8687 12.8786 65.2833 14.2583C67.7089 15.627 69.6228 17.6187 71.0248 20.2335C72.4379 22.8483 73.1444 26.0195 73.1444 29.747ZM65.8174 29.747C65.8174 27.3324 65.4558 25.2962 64.7325 23.6383C64.0204 21.9804 63.0134 20.7231 61.7116 19.8663C60.4097 19.0095 58.8853 18.5811 57.1384 18.5811C55.3915 18.5811 53.8671 19.0095 52.5652 19.8663C51.2634 20.7231 50.2509 21.9804 49.5276 23.6383C48.8155 25.2962 48.4594 27.3324 48.4594 29.747C48.4594 32.1615 48.8155 34.1977 49.5276 35.8556C50.2509 37.5136 51.2634 38.7709 52.5652 39.6277C53.8671 40.4844 55.3915 40.9128 57.1384 40.9128C58.8853 40.9128 60.4097 40.4844 61.7116 39.6277C63.0134 38.7709 64.0204 37.5136 64.7325 35.8556C65.4558 34.1977 65.8174 32.1615 65.8174 29.747ZM97.0408 22.4867C96.9073 21.1403 96.3343 20.0944 95.3217 19.3489C94.3092 18.6034 92.935 18.2306 91.1992 18.2306C90.0198 18.2306 89.0239 18.3975 88.2116 18.7314C87.3994 19.054 86.7763 19.5047 86.3423 20.0833C85.9195 20.6619 85.7081 21.3184 85.7081 22.0527C85.6858 22.6647 85.8138 23.1988 86.092 23.655C86.3813 24.1112 86.7763 24.5062 87.277 24.84C87.7777 25.1627 88.3563 25.4464 89.0128 25.6912C89.6693 25.9249 90.3703 26.1252 91.1158 26.2921L94.1868 27.0265C95.6778 27.3603 97.0464 27.8053 98.2926 28.3617C99.5388 28.918 100.618 29.6023 101.531 30.4146C102.443 31.2269 103.149 32.1838 103.65 33.2853C104.162 34.3869 104.424 35.6498 104.435 37.074C104.424 39.1659 103.889 40.9796 102.832 42.5151C101.786 44.0395 100.273 45.2245 98.2926 46.0701C96.3231 46.9047 93.9476 47.3219 91.1658 47.3219C88.4064 47.3219 86.0029 46.8991 83.9556 46.0534C81.9194 45.2078 80.3282 43.956 79.1822 42.2981C78.0472 40.6291 77.4519 38.565 77.3963 36.106H84.3895C84.4674 37.2521 84.7957 38.209 85.3743 38.9767C85.964 39.7334 86.7485 40.3064 87.7276 40.6958C88.7179 41.0742 89.8362 41.2633 91.0824 41.2633C92.3063 41.2633 93.369 41.0853 94.2702 40.7292C95.1826 40.3732 95.8892 39.878 96.3899 39.2438C96.8906 38.6096 97.141 37.8807 97.141 37.0574C97.141 36.2896 96.9129 35.6442 96.4567 35.1213C96.0116 34.5983 95.3551 34.1532 94.4872 33.786C93.6304 33.4189 92.5789 33.085 91.3327 32.7846L87.6108 31.85C84.7289 31.149 82.4535 30.053 80.7844 28.562C79.1154 27.071 78.2864 25.0626 78.2976 22.5368C78.2864 20.4672 78.8372 18.659 79.9499 17.1124C81.0737 15.5658 82.6148 14.3585 84.5731 13.4906C86.5315 12.6227 88.7569 12.1887 91.2493 12.1887C93.7862 12.1887 96.0005 12.6227 97.892 13.4906C99.7947 14.3585 101.275 15.5658 102.332 17.1124C103.389 18.659 103.934 20.4505 103.967 22.4867H97.0408Z" fill="white"/>
<defs>
<linearGradient id="paint0_linear_31_939" x1="28.5671" y1="8.15669" x2="82.0057" y2="57.4025" gradientUnits="userSpaceOnUse">
<stop stop-color="#F23223"/>
<stop offset="1" stop-color="#3598DC"/>
</linearGradient>
</defs>
</svg>
