<svg width="26" height="26" viewBox="0 0 26 26" fill="none" xmlns="http://www.w3.org/2000/svg">
<path fill-rule="evenodd" clip-rule="evenodd" d="M14.3623 9.18974C14.3623 8.47638 13.8027 7.89807 13.1123 7.89807C12.4219 7.89807 11.8623 8.47638 11.8623 9.18974V11.7731H9.3623C8.67196 11.7731 8.1123 12.3514 8.1123 13.0647C8.1123 13.7781 8.67196 14.3564 9.3623 14.3564H11.8623V16.9397C11.8623 17.6531 12.4219 18.2314 13.1123 18.2314C13.8027 18.2314 14.3623 17.6531 14.3623 16.9397V14.3564H16.8623C17.5527 14.3564 18.1123 13.7781 18.1123 13.0647C18.1123 12.3514 17.5527 11.7731 16.8623 11.7731H14.3623V9.18974ZM7.17489 0.649005C8.79828 0.276205 10.7677 0.148071 13.1123 0.148071C15.4569 0.148071 17.4263 0.276205 19.0497 0.649005C20.6873 1.02507 22.0483 1.66707 23.0953 2.74895C24.1423 3.83082 24.7636 5.23726 25.1276 6.92941C25.4883 8.60691 25.6123 10.642 25.6123 13.0647C25.6123 15.4875 25.4883 17.5225 25.1276 19.2C24.7636 20.8922 24.1423 22.2986 23.0953 23.3805C22.0483 24.4624 20.6873 25.1044 19.0497 25.4805C17.4263 25.8533 15.4569 25.9814 13.1123 25.9814C10.7677 25.9814 8.79828 25.8533 7.17489 25.4805C5.53733 25.1044 4.17625 24.4624 3.12928 23.3805C2.0823 22.2986 1.46102 20.8922 1.09708 19.2C0.736305 17.5225 0.612305 15.4875 0.612305 13.0647C0.612305 10.642 0.736305 8.60691 1.09708 6.92941C1.46102 5.23726 2.0823 3.83082 3.12928 2.74895C4.17625 1.66707 5.53733 1.02507 7.17489 0.649005Z" fill="#3598DC"/>
</svg>
