<svg width="24" height="24" viewBox="0 0 26 26" fill="none" xmlns="http://www.w3.org/2000/svg">
<path d="M13 0.5C19.9035 0.5 25.5 6.09644 25.5 13C25.5 19.9035 19.9035 25.5 13 25.5C6.09644 25.5 0.5 19.9035 0.5 13C0.5 6.09644 6.09644 0.5 13 0.5ZM16.2832 9.7168C16.127 9.5606 15.873 9.56063 15.7168 9.7168L13.3535 12.0811L13 12.4346L12.6465 12.0811L10.2832 9.7168C10.127 9.56057 9.873 9.56061 9.7168 9.7168C9.56058 9.873 9.5606 10.127 9.7168 10.2832L12.0811 12.6465L12.4346 13L12.0811 13.3535L9.7168 15.7168C9.5607 15.8728 9.56055 16.127 9.7168 16.2832C9.87301 16.4394 10.127 16.4394 10.2832 16.2832L12.6465 13.9189L13 13.5654L13.3535 13.9189L15.7168 16.2832C15.873 16.4394 16.127 16.4394 16.2832 16.2832C16.4394 16.127 16.4394 15.873 16.2832 15.7168L13.9189 13.3535L13.5654 13L13.9189 12.6465L16.2832 10.2832C16.4394 10.1271 16.4394 9.87301 16.2832 9.7168Z" fill="#3598DC" stroke="white"/>
</svg>
