<svg width="40" height="40" viewBox="0 0 40 40" fill="none" xmlns="http://www.w3.org/2000/svg">
<path d="M7.5 9.16663H32.5V11.6666H7.5V9.16663Z" fill="#424242"/>
<path d="M3.33301 20.8333H36.6663V15C36.6663 13.1666 35.1663 11.6666 33.333 11.6666H6.66634C4.83301 11.6666 3.33301 13.1666 3.33301 15V20.8333Z" fill="#616161"/>
<path d="M6.66634 30H33.333C35.1663 30 36.6663 28.5 36.6663 26.6667V20H3.33301V26.6667C3.33301 28.5 4.83301 30 6.66634 30Z" fill="#424242"/>
<path d="M32.5 15C32.5 15.1094 32.5216 15.2178 32.5634 15.3189C32.6053 15.42 32.6667 15.5118 32.7441 15.5892C32.8215 15.6666 32.9133 15.728 33.0144 15.7699C33.1155 15.8117 33.2239 15.8333 33.3333 15.8333C33.4428 15.8333 33.5511 15.8117 33.6522 15.7699C33.7533 15.728 33.8452 15.6666 33.9226 15.5892C34 15.5118 34.0614 15.42 34.1032 15.3189C34.1451 15.2178 34.1667 15.1094 34.1667 15C34.1667 14.8905 34.1451 14.7822 34.1032 14.6811C34.0614 14.58 34 14.4881 33.9226 14.4107C33.8452 14.3333 33.7533 14.2719 33.6522 14.2301C33.5511 14.1882 33.4428 14.1666 33.3333 14.1666C33.2239 14.1666 33.1155 14.1882 33.0144 14.2301C32.9133 14.2719 32.8215 14.3333 32.7441 14.4107C32.6667 14.4881 32.6053 14.58 32.5634 14.6811C32.5216 14.7822 32.5 14.8905 32.5 15Z" fill="#00E676"/>
<path d="M9.16699 3.33337H30.8337V11.6667H9.16699V3.33337Z" fill="#90CAF9"/>
<path d="M31.25 25.8334H8.75C8.08333 25.8334 7.5 25.25 7.5 24.5834C7.5 23.9167 8.08333 23.3334 8.75 23.3334H31.25C31.9167 23.3334 32.5 23.9167 32.5 24.5834C32.5 25.25 31.9167 25.8334 31.25 25.8334Z" fill="#242424"/>
<path d="M9.16699 25.8334H30.8337V35H9.16699V25.8334Z" fill="#90CAF9"/>
<path d="M9.16699 24.1666H30.8337V25.8333H9.16699V24.1666Z" fill="#42A5F5"/>
<path d="M13.333 27.5H27.4997V29.1667H13.333V27.5ZM13.333 30.8333H24.1663V32.5H13.333V30.8333Z" fill="#1976D2"/>
</svg>
