<svg width="17" height="17" viewBox="0 0 17 17" fill="none" xmlns="http://www.w3.org/2000/svg">
<path d="M1.41699 8.50002C1.41699 5.1609 1.41699 3.49135 2.45432 2.45402C3.49165 1.41669 5.16121 1.41669 8.50033 1.41669C11.8394 1.41669 13.509 1.41669 14.5463 2.45402C15.5837 3.49135 15.5837 5.1609 15.5837 8.50002C15.5837 11.8391 15.5837 13.5087 14.5463 14.546C13.509 15.5834 11.8394 15.5834 8.50033 15.5834C5.16121 15.5834 3.49165 15.5834 2.45432 14.546C1.41699 13.5087 1.41699 11.8391 1.41699 8.50002Z" fill="white"/>
<path d="M9.03125 4.95831C9.03125 4.66491 8.79339 4.42706 8.5 4.42706C8.20661 4.42706 7.96875 4.66491 7.96875 4.95831V8.63407L6.75065 7.41602C6.54318 7.20855 6.20681 7.20855 5.99935 7.41602C5.79188 7.62349 5.79188 7.9598 5.99935 8.16728L8.12437 10.2923C8.22396 10.3919 8.35911 10.4479 8.5 10.4479C8.64089 10.4479 8.77604 10.3919 8.87563 10.2923L11.0006 8.16728C11.2081 7.9598 11.2081 7.62349 11.0006 7.41602C10.7932 7.20855 10.4568 7.20855 10.2494 7.41602L9.03125 8.63407V4.95831Z" fill="#3598DC"/>
<path d="M5.66699 11.5104C5.37359 11.5104 5.13574 11.7483 5.13574 12.0417C5.13574 12.3351 5.37359 12.5729 5.66699 12.5729H11.3337C11.6271 12.5729 11.8649 12.3351 11.8649 12.0417C11.8649 11.7483 11.6271 11.5104 11.3337 11.5104H5.66699Z" fill="#3598DC"/>
</svg>
