<svg width="17" height="17" viewBox="0 0 17 17" fill="none" xmlns="http://www.w3.org/2000/svg">
<path d="M1.41699 8.50002C1.41699 5.1609 1.41699 3.49135 2.45432 2.45402C3.49165 1.41669 5.16121 1.41669 8.50033 1.41669C11.8394 1.41669 13.509 1.41669 14.5463 2.45402C15.5837 3.49135 15.5837 5.1609 15.5837 8.50002C15.5837 11.8391 15.5837 13.5087 14.5463 14.546C13.509 15.5834 11.8394 15.5834 8.50033 15.5834C5.16121 15.5834 3.49165 15.5834 2.45432 14.546C1.41699 13.5087 1.41699 11.8391 1.41699 8.50002Z" fill="white"/>
<path fill-rule="evenodd" clip-rule="evenodd" d="M13.3036 10.5626C13.3036 10.947 12.9916 11.259 12.6072 11.259H11.8613C11.7064 10.6594 11.1663 10.2144 10.5179 10.2144H6.33948C5.69112 10.2144 5.15105 10.6594 4.9961 11.259H4.25024C3.86583 11.259 3.55383 10.947 3.55383 10.5626V9.86615C3.55383 9.48173 3.86583 9.16974 4.25024 9.16974H12.6072C12.9916 9.16974 13.3036 9.48173 13.3036 9.86615V10.5626ZM10.5179 12.3036H6.33948C5.95506 12.3036 5.64307 11.9916 5.64307 11.6072C5.64307 11.2228 5.95506 10.9108 6.33948 10.9108H10.5179C10.9024 10.9108 11.2144 11.2228 11.2144 11.6072C11.2144 11.9916 10.9024 12.3036 10.5179 12.3036ZM5.64307 4.64307C5.64307 4.25865 5.95506 3.94665 6.33948 3.94665H10.5179C10.9024 3.94665 11.2144 4.25865 11.2144 4.64307V8.47333H5.64307V4.64307ZM12.6072 8.47333H11.9108V4.64307C11.9108 3.87388 11.2871 3.25024 10.5179 3.25024H6.33948C5.57029 3.25024 4.94666 3.87388 4.94666 4.64307V8.47333H4.25024C3.48106 8.47333 2.85742 9.09696 2.85742 9.86615V10.5626C2.85742 11.3317 3.48106 11.9554 4.25024 11.9554H4.9961C5.15105 12.5553 5.69112 13 6.33948 13H10.5179C11.1663 13 11.7064 12.5553 11.8613 11.9554H12.6072C13.3764 11.9554 14 11.3317 14 10.5626V9.86615C14 9.09696 13.3764 8.47333 12.6072 8.47333Z" fill="#3598DC" stroke="#3598DC" stroke-width="0.3"/>
</svg>
