<svg width="16" height="16" viewBox="0 0 16 16" fill="none" xmlns="http://www.w3.org/2000/svg">
<g clip-path="url(#clip0_316_124)">
<path d="M8 0C3.58174 0 0 3.58174 0 8C0 12.4183 3.58174 16 8 16C12.4183 16 16 12.4183 16 8C16 3.58174 12.4183 0 8 0ZM11.9375 9.59473C12.5843 10.2415 12.5843 11.2904 11.9375 11.9375C11.2907 12.5843 10.2419 12.5843 9.59473 11.9375L8 10.3428L6.40527 11.9375C5.75849 12.5843 4.70965 12.5843 4.06249 11.9375C3.41572 11.2907 3.41572 10.2419 4.06249 9.59473L5.65722 8L4.06249 6.40527C3.41572 5.75849 3.41572 4.70965 4.06249 4.06249C4.70927 3.41572 5.75812 3.41572 6.40527 4.06249L8 5.65722L9.59473 4.06249C10.2415 3.41572 11.2904 3.41572 11.9375 4.06249C12.5843 4.70927 12.5843 5.75812 11.9375 6.40527L10.3424 8L11.9375 9.59473Z" fill="#EE2323"/>
</g>
<defs>
<clipPath id="clip0_316_124">
<rect width="16" height="16" fill="white"/>
</clipPath>
</defs>
</svg>
