<svg width="19" height="20" viewBox="0 0 19 20" fill="none" xmlns="http://www.w3.org/2000/svg">
<g clip-path="url(#clip0_56_275)">
<path d="M1.00781 4.0874V8.8374H5.50781" stroke="#132756" stroke-width="2" stroke-linecap="round" stroke-linejoin="round"/>
<path d="M17.5078 16.7539V12.0039H13.0078" stroke="#132756" stroke-width="2" stroke-linecap="round" stroke-linejoin="round"/>
<path d="M15.6253 8.04573C15.2449 6.91111 14.5985 5.89668 13.7462 5.09711C12.894 4.29754 11.8637 3.73888 10.7516 3.47327C9.63948 3.20766 8.48175 3.24375 7.38642 3.57818C6.29109 3.91261 5.29387 4.53447 4.48781 5.38573L1.00781 8.8374M17.5078 12.0041L14.0278 15.4557C13.2218 16.307 12.2245 16.9289 11.1292 17.2633C10.0339 17.5977 8.87614 17.6338 7.76403 17.3682C6.65191 17.1026 5.62166 16.5439 4.76941 15.7444C3.91716 14.9448 3.27069 13.9304 2.89031 12.7957" stroke="#132756" stroke-width="2" stroke-linecap="round" stroke-linejoin="round"/>
</g>
<defs>
<clipPath id="clip0_56_275">
<rect width="18" height="19" fill="white" transform="translate(0.257812 0.920654)"/>
</clipPath>
</defs>
</svg>
