<svg width="34" height="35" viewBox="0 0 34 35" fill="none" xmlns="http://www.w3.org/2000/svg">
<g clip-path="url(#clip0_56_236)">
<path d="M6.09119 6.30352L15.3271 15.8193L11.4386 19.827L6.08982 14.3162C5.05873 13.2535 4.47949 11.8125 4.47949 10.3099C4.47949 8.80726 5.0601 7.36618 6.09119 6.30352ZM19.9044 18.1157L18.7302 19.3255L28.4528 29.3428L26.5086 31.3459L16.7859 21.3301L7.06332 31.3459L5.11907 29.3428L17.9602 16.1125C17.1517 14.0484 17.9877 11.0763 20.1877 8.80677C22.8731 6.04144 26.5732 5.36852 28.4528 7.30511C30.3324 9.24169 29.6793 13.0539 26.9953 15.8193C24.7926 18.0888 21.9078 18.9501 19.9044 18.1157Z" fill="#B9B9B9"/>
</g>
<defs>
<clipPath id="clip0_56_236">
<rect width="33" height="34" fill="white" transform="translate(0.286133 0.908936)"/>
</clipPath>
</defs>
</svg>
