<svg width="16" height="17" viewBox="0 0 16 17" fill="none" xmlns="http://www.w3.org/2000/svg">
<path d="M13.3335 5.47314H2.66683C1.93045 5.47314 1.3335 6.0701 1.3335 6.80648V13.4731C1.3335 14.2095 1.93045 14.8065 2.66683 14.8065H13.3335C14.0699 14.8065 14.6668 14.2095 14.6668 13.4731V6.80648C14.6668 6.0701 14.0699 5.47314 13.3335 5.47314Z" stroke="white" stroke-linecap="round" stroke-linejoin="round"/>
<path d="M10.6668 14.8064V4.13973C10.6668 3.78611 10.5264 3.44697 10.2763 3.19692C10.0263 2.94687 9.68712 2.8064 9.3335 2.8064H6.66683C6.31321 2.8064 5.97407 2.94687 5.72402 3.19692C5.47397 3.44697 5.3335 3.78611 5.3335 4.13973V14.8064" stroke="white" stroke-linecap="round" stroke-linejoin="round"/>
</svg>
