<svg width="17" height="17" viewBox="0 0 17 17" fill="none" xmlns="http://www.w3.org/2000/svg">
<g clip-path="url(#clip0_31_943)">
<path d="M8.3335 10.8945C9.43807 10.8945 10.3335 9.9991 10.3335 8.89453C10.3335 7.78996 9.43807 6.89453 8.3335 6.89453C7.22893 6.89453 6.3335 7.78996 6.3335 8.89453C6.3335 9.9991 7.22893 10.8945 8.3335 10.8945Z" stroke="white" stroke-linecap="round" stroke-linejoin="round"/>
<path d="M13.2667 10.8946C13.1779 11.0957 13.1515 11.3187 13.1907 11.535C13.2299 11.7513 13.333 11.9508 13.4867 12.1079L13.5267 12.1479C13.6506 12.2718 13.749 12.4188 13.8161 12.5807C13.8832 12.7426 13.9177 12.9161 13.9177 13.0913C13.9177 13.2665 13.8832 13.44 13.8161 13.6019C13.749 13.7637 13.6506 13.9108 13.5267 14.0346C13.4028 14.1586 13.2558 14.2569 13.0939 14.324C12.9321 14.3911 12.7586 14.4257 12.5833 14.4257C12.4081 14.4257 12.2346 14.3911 12.0727 14.324C11.9109 14.2569 11.7638 14.1586 11.64 14.0346L11.6 13.9946C11.4429 13.8409 11.2433 13.7378 11.0271 13.6986C10.8108 13.6594 10.5877 13.6859 10.3867 13.7746C10.1895 13.8591 10.0213 13.9994 9.90287 14.1783C9.78442 14.3572 9.72086 14.5668 9.72 14.7813V14.8946C9.72 15.2482 9.57952 15.5874 9.32948 15.8374C9.07943 16.0875 8.74029 16.2279 8.38667 16.2279C8.03304 16.2279 7.69391 16.0875 7.44386 15.8374C7.19381 15.5874 7.05333 15.2482 7.05333 14.8946V14.8346C7.04817 14.6139 6.97675 14.3999 6.84834 14.2204C6.71994 14.0409 6.54049 13.9041 6.33333 13.8279C6.13226 13.7392 5.9092 13.7127 5.69294 13.7519C5.47668 13.7912 5.27712 13.8943 5.12 14.0479L5.08 14.0879C4.95617 14.2119 4.80912 14.3103 4.64725 14.3774C4.48539 14.4445 4.31189 14.479 4.13667 14.479C3.96145 14.479 3.78794 14.4445 3.62608 14.3774C3.46422 14.3103 3.31716 14.2119 3.19333 14.0879C3.06936 13.9641 2.97102 13.8171 2.90392 13.6552C2.83682 13.4933 2.80228 13.3198 2.80228 13.1446C2.80228 12.9694 2.83682 12.7959 2.90392 12.634C2.97102 12.4722 3.06936 12.3251 3.19333 12.2013L3.23333 12.1613C3.38702 12.0042 3.49012 11.8046 3.52934 11.5883C3.56855 11.3721 3.54208 11.149 3.45333 10.9479C3.36882 10.7508 3.2285 10.5826 3.04964 10.4642C2.87078 10.3457 2.66119 10.2821 2.44667 10.2813H2.33333C1.97971 10.2813 1.64057 10.1408 1.39052 9.89075C1.14048 9.64071 1 9.30157 1 8.94795C1 8.59432 1.14048 8.25519 1.39052 8.00514C1.64057 7.75509 1.97971 7.61461 2.33333 7.61461H2.39333C2.614 7.60945 2.828 7.53803 3.00753 7.40962C3.18706 7.28121 3.32381 7.10177 3.4 6.89461C3.48874 6.69354 3.51522 6.47048 3.476 6.25422C3.43679 6.03796 3.33369 5.8384 3.18 5.68128L3.14 5.64128C3.01603 5.51745 2.91769 5.3704 2.85059 5.20853C2.78349 5.04667 2.74895 4.87317 2.74895 4.69795C2.74895 4.52273 2.78349 4.34922 2.85059 4.18736C2.91769 4.02549 3.01603 3.87844 3.14 3.75461C3.26383 3.63064 3.41088 3.5323 3.57275 3.4652C3.73461 3.3981 3.90811 3.36356 4.08333 3.36356C4.25855 3.36356 4.43206 3.3981 4.59392 3.4652C4.75578 3.5323 4.90284 3.63064 5.02667 3.75461L5.06667 3.79461C5.22379 3.9483 5.42334 4.0514 5.63961 4.09062C5.85587 4.12983 6.07892 4.10336 6.28 4.01461H6.33333C6.53051 3.9301 6.69868 3.78978 6.81713 3.61092C6.93558 3.43206 6.99914 3.22247 7 3.00795V2.89461C7 2.54099 7.14048 2.20185 7.39052 1.9518C7.64057 1.70176 7.97971 1.56128 8.33333 1.56128C8.68696 1.56128 9.02609 1.70176 9.27614 1.9518C9.52619 2.20185 9.66667 2.54099 9.66667 2.89461V2.95461C9.66752 3.16914 9.73109 3.37873 9.84954 3.55759C9.96799 3.73645 10.1362 3.87677 10.3333 3.96128C10.5344 4.05002 10.7575 4.07649 10.9737 4.03728C11.19 3.99807 11.3895 3.89497 11.5467 3.74128L11.5867 3.70128C11.7105 3.57731 11.8575 3.47897 12.0194 3.41187C12.1813 3.34477 12.3548 3.31023 12.53 3.31023C12.7052 3.31023 12.8787 3.34477 13.0406 3.41187C13.2025 3.47897 13.3495 3.57731 13.4733 3.70128C13.5973 3.82511 13.6956 3.97216 13.7627 4.13403C13.8298 4.29589 13.8644 4.46939 13.8644 4.64461C13.8644 4.81983 13.8298 4.99334 13.7627 5.1552C13.6956 5.31706 13.5973 5.46412 13.4733 5.58795L13.4333 5.62795C13.2796 5.78507 13.1765 5.98462 13.1373 6.20089C13.0981 6.41715 13.1246 6.6402 13.2133 6.84128V6.89461C13.2978 7.09179 13.4382 7.25996 13.617 7.37841C13.7959 7.49686 14.0055 7.56042 14.22 7.56128H14.3333C14.687 7.56128 15.0261 7.70176 15.2761 7.9518C15.5262 8.20185 15.6667 8.54099 15.6667 8.89461C15.6667 9.24823 15.5262 9.58737 15.2761 9.83742C15.0261 10.0875 14.687 10.2279 14.3333 10.2279H14.2733C14.0588 10.2288 13.8492 10.2924 13.6704 10.4108C13.4915 10.5293 13.3512 10.6974 13.2667 10.8946Z" stroke="white" stroke-linecap="round" stroke-linejoin="round"/>
</g>
<defs>
<clipPath id="clip0_31_943">
<rect width="16" height="16" fill="white" transform="translate(0.333496 0.894531)"/>
</clipPath>
</defs>
</svg>
