<svg width="15" height="15" viewBox="0 0 15 15" fill="none" xmlns="http://www.w3.org/2000/svg">
<g clip-path="url(#clip0_376_1388)">
<path d="M7.52381 11.894H12.9623C13.2584 11.894 13.5007 12.1364 13.5007 12.4325V13.9671C13.5007 14.2633 13.2584 14.5056 12.9623 14.5056H7.52381C7.22766 14.5056 6.98535 14.2633 6.98535 13.9671V12.4325C6.98535 12.1364 7.22766 11.894 7.52381 11.894Z" fill="#142756"/>
<path d="M1.11659 5.64795H12.9627C13.2589 5.64795 13.5012 5.89026 13.5012 6.18641V9.84795C13.5012 10.1441 13.2589 10.3864 12.9627 10.3864H1.11659C0.820433 10.3864 0.578125 10.1441 0.578125 9.84795V6.18641C0.578125 5.89026 0.820433 5.64795 1.11659 5.64795Z" fill="#142756"/>
<path d="M1.11659 1.55566H6.55505C6.8512 1.55566 7.09351 1.79797 7.09351 2.09413V3.62874C7.09351 3.92489 6.8512 4.1672 6.55505 4.1672H1.11659C0.820433 4.1672 0.578125 3.92489 0.578125 3.62874V2.09413C0.578125 1.79797 0.820433 1.55566 1.11659 1.55566Z" fill="#142756"/>
</g>
<defs>
<clipPath id="clip0_376_1388">
<rect width="14" height="14" fill="white" transform="translate(0.0400391 0.936523)"/>
</clipPath>
</defs>
</svg>
