<svg width="17" height="23" viewBox="0 0 17 23" fill="none" xmlns="http://www.w3.org/2000/svg">
<rect x="0.884766" y="4.11304" width="14.9092" height="14.91" rx="1.5" fill="white" stroke="#A9A9A9"/>
<path d="M14.3249 16.107C14.3088 16.0208 14.2669 15.9415 14.2046 15.8797C14.1424 15.8179 14.0629 15.7764 13.9766 15.7609C12.4537 15.4896 11.5651 15.4896 10.0406 15.7609C9.95427 15.7764 9.87473 15.8179 9.81252 15.8797C9.75031 15.9415 9.70837 16.0208 9.69227 16.107C9.58029 16.6544 9.5129 17.21 9.49077 17.7683C9.48145 17.2164 9.54694 16.6832 9.6928 15.8882C9.70889 15.802 9.75083 15.7227 9.81304 15.6609C9.87525 15.599 9.9548 15.5576 10.0411 15.542C11.564 15.2708 12.4526 15.2708 13.9771 15.542C14.0634 15.5576 14.143 15.599 14.2052 15.6609C14.2674 15.7227 14.3093 15.802 14.3254 15.8882C14.4714 16.6833 14.5368 17.2165 14.5274 17.7683C14.5059 17.2099 14.4382 16.6542 14.3249 16.107Z" fill="#D4D4D4"/>
<path d="M15.1554 21.2163L15.4473 21.7513C15.4473 21.7513 14.4483 22.0413 12.0049 22.0413C9.56158 22.0413 8.56635 21.7494 8.56635 21.7494L8.85632 21.2182C8.88949 21.1569 8.93867 21.1057 8.99863 21.0701C9.05859 21.0345 9.12708 21.0159 9.1968 21.0162L14.8149 21.0162C14.8846 21.0159 14.9531 21.0345 15.0131 21.0701C15.073 21.1057 15.1222 21.1569 15.1554 21.2182L15.1554 21.2163Z" fill="#2B2120"/>
<path d="M12.005 22.6885C13.8197 22.6885 14.8374 22.479 15.2153 22.3817C15.2645 22.3679 15.3086 22.34 15.3422 22.3014C15.3757 22.2629 15.3972 22.2153 15.4039 22.1646L15.4619 21.7979C15.462 21.7835 15.4588 21.7693 15.4525 21.7564C15.4461 21.7435 15.4369 21.7323 15.4255 21.7236C15.414 21.7149 15.4007 21.7089 15.3866 21.7062C15.3725 21.7036 15.3579 21.7042 15.3441 21.7081C15.0151 21.8003 13.9731 22.0354 12.005 22.0354C10.037 22.0354 8.9968 21.7997 8.66564 21.708C8.65181 21.704 8.63726 21.7034 8.62313 21.7061C8.60901 21.7088 8.59571 21.7147 8.58428 21.7234C8.57284 21.7321 8.5636 21.7434 8.55727 21.7563C8.55094 21.7692 8.5477 21.7834 8.54782 21.7977L8.60581 22.1644C8.61261 22.2151 8.63413 22.2627 8.66772 22.3013C8.70131 22.3399 8.74549 22.3677 8.79477 22.3814C9.17261 22.479 10.1903 22.6885 12.005 22.6885Z" fill="#A9A9A9"/>
<path d="M8.84159 22.3424C9.03613 22.2227 8.96908 22.0019 8.85091 21.8489C8.85091 21.8489 9.44767 22.0771 11.3447 22.1201C13.2399 22.1628 13.9264 22.1123 15.251 21.8053C15.251 21.8053 14.894 22.1028 15.1743 22.2898C15.0426 22.3409 14.9059 22.3779 14.7664 22.4002C14.7664 22.4002 15.1147 22.1178 14.8337 22.0432C14.7553 22.0227 14.265 22.1517 13.8066 22.1967C12.6992 22.305 11.0754 22.3104 10.1305 22.1815C9.18765 22.0543 9.1502 22.0693 9.1334 22.1293C9.11659 22.1893 8.97247 22.3034 9.23632 22.4211L8.83968 22.3389L8.84159 22.3424Z" fill="#D4D4D4"/>
<path d="M2.78937 7.52214C2.80547 7.60835 2.8474 7.68764 2.90962 7.74946C2.97183 7.81128 3.05137 7.85272 3.13769 7.86828C4.66053 8.13953 5.54917 8.13953 7.07367 7.86828C7.15998 7.85272 7.23953 7.81128 7.30174 7.74946C7.36395 7.68764 7.40589 7.60835 7.42198 7.52214C7.53397 6.97473 7.60136 6.41914 7.62349 5.86084C7.6328 6.41275 7.56732 6.94593 7.42146 7.74097C7.40536 7.82718 7.36343 7.90647 7.30122 7.96829C7.239 8.03011 7.15946 8.07155 7.07315 8.08711C5.5503 8.35836 4.66166 8.35836 3.13716 8.08711C3.05085 8.07155 2.9713 8.03011 2.90909 7.96829C2.84688 7.90647 2.80494 7.82718 2.78885 7.74097C2.6429 6.94585 2.57742 6.41266 2.58682 5.86084C2.60835 6.41925 2.6761 6.97491 2.78937 7.52214Z" fill="#D4D4D4"/>
<path d="M1.95888 2.41288L1.66699 1.87786C1.66699 1.87786 2.66597 1.58789 5.10932 1.58789C7.55268 1.58789 8.54791 1.87978 8.54791 1.87978L8.25794 2.41096C8.22477 2.47229 8.17558 2.52347 8.11562 2.55905C8.05566 2.59462 7.98717 2.61327 7.91745 2.61299H2.29936C2.22964 2.61327 2.16115 2.59462 2.10119 2.55905C2.04123 2.52347 1.99205 2.47229 1.95888 2.41096V2.41288Z" fill="#2B2120"/>
<path d="M5.10922 0.940674C3.29457 0.940674 2.27688 1.15019 1.89896 1.24745C1.84973 1.26122 1.80561 1.28912 1.77209 1.32771C1.73856 1.3663 1.71709 1.41387 1.71034 1.46454L1.65235 1.83123C1.65223 1.84561 1.65547 1.85981 1.6618 1.87271C1.66813 1.88562 1.67737 1.89687 1.68881 1.90558C1.70024 1.9143 1.71354 1.92023 1.72766 1.9229C1.74179 1.92558 1.75634 1.92493 1.77017 1.92101C2.09915 1.82888 3.14114 1.59377 5.10922 1.59377C7.0773 1.59377 8.11746 1.82949 8.44862 1.92119C8.46245 1.92511 8.477 1.92576 8.49112 1.92308C8.50525 1.9204 8.51855 1.91447 8.52998 1.90576C8.54141 1.89705 8.55066 1.88579 8.55699 1.87289C8.56332 1.85998 8.56655 1.84578 8.56644 1.83141L8.50845 1.46472C8.50165 1.41402 8.48012 1.36643 8.44653 1.32786C8.41294 1.28928 8.36877 1.26141 8.31948 1.24772C7.94165 1.15019 6.92395 0.940674 5.10922 0.940674Z" fill="#A9A9A9"/>
<path d="M8.27266 1.28673C8.07813 1.40646 8.14518 1.62721 8.26335 1.78029C8.26335 1.78029 7.66659 1.55206 5.76957 1.50904C3.87438 1.46637 3.18784 1.51688 1.86328 1.82383C1.86328 1.82383 2.22031 1.52637 1.94 1.33932C2.07169 1.28825 2.20841 1.25124 2.34788 1.22891C2.34788 1.22891 1.99956 1.51139 2.28057 1.58593C2.35894 1.60648 2.84928 1.47743 3.30766 1.4325C4.41505 1.32417 6.03891 1.31877 6.98372 1.44765C7.92661 1.57487 7.96406 1.5599 7.98086 1.4999C7.99767 1.4399 8.14178 1.32574 7.87793 1.20801L8.27458 1.2903L8.27266 1.28673Z" fill="#D4D4D4"/>
<path d="M7.20282 16.107C7.18672 16.0208 7.14478 15.9415 7.08257 15.8797C7.02036 15.8179 6.94082 15.7764 6.8545 15.7609C5.33166 15.4896 4.44302 15.4896 2.91852 15.7609C2.8322 15.7764 2.75266 15.8179 2.69045 15.8797C2.62824 15.9415 2.5863 16.0208 2.5702 16.107C2.45822 16.6544 2.39083 17.21 2.3687 17.7683C2.35938 17.2164 2.42487 16.6832 2.57072 15.8882C2.58682 15.802 2.62876 15.7227 2.69097 15.6609C2.75318 15.599 2.83273 15.5576 2.91904 15.542C4.44188 15.2708 5.33053 15.2708 6.85502 15.542C6.94134 15.5576 7.02088 15.599 7.08309 15.6609C7.14531 15.7227 7.18724 15.802 7.20334 15.8882C7.34929 16.6833 7.41477 17.2165 7.40537 17.7683C7.38383 17.2099 7.31609 16.6542 7.20282 16.107Z" fill="#D4D4D4"/>
<path d="M8.03428 21.2163L8.32617 21.7513C8.32617 21.7513 7.3272 22.0413 4.88384 22.0413C2.44048 22.0413 1.44526 21.7494 1.44526 21.7494L1.73523 21.2182C1.7684 21.1569 1.81758 21.1057 1.87754 21.0701C1.9375 21.0345 2.00599 21.0159 2.07571 21.0162L7.6938 21.0162C7.76352 21.0159 7.83201 21.0345 7.89197 21.0701C7.95193 21.1057 8.00112 21.1569 8.03428 21.2182L8.03428 21.2163Z" fill="#2B2120"/>
<path d="M4.88297 22.6885C6.69761 22.6885 7.71531 22.479 8.09323 22.3817C8.14246 22.3679 8.18657 22.34 8.2201 22.3014C8.25363 22.2629 8.27509 22.2153 8.28185 22.1646L8.33984 21.7979C8.33995 21.7835 8.33672 21.7693 8.33039 21.7564C8.32406 21.7435 8.31481 21.7323 8.30338 21.7236C8.29195 21.7149 8.27865 21.7089 8.26452 21.7062C8.2504 21.7036 8.23585 21.7042 8.22202 21.7081C7.89304 21.8003 6.85105 22.0354 4.88297 22.0354C2.91489 22.0354 1.87473 21.7997 1.54357 21.708C1.52974 21.704 1.51519 21.7034 1.50106 21.7061C1.48694 21.7088 1.47364 21.7147 1.46221 21.7234C1.45077 21.7321 1.44153 21.7434 1.4352 21.7563C1.42887 21.7692 1.42563 21.7834 1.42575 21.7977L1.48374 22.1644C1.49053 22.2151 1.51206 22.2627 1.54565 22.3013C1.57924 22.3399 1.62342 22.3677 1.6727 22.3814C2.05054 22.479 3.06824 22.6885 4.88297 22.6885Z" fill="#A9A9A9"/>
<path d="M1.71952 22.3424C1.91406 22.2227 1.84701 22.0019 1.72884 21.8489C1.72884 21.8489 2.3256 22.0771 4.22262 22.1201C6.11781 22.1628 6.80434 22.1123 8.12891 21.8053C8.12891 21.8053 7.77188 22.1028 8.05219 22.2898C7.9205 22.3409 7.78378 22.3779 7.64431 22.4002C7.64431 22.4002 7.99263 22.1178 7.71162 22.0432C7.63325 22.0227 7.14291 22.1517 6.68452 22.1967C5.57714 22.305 3.95328 22.3104 3.00847 22.1815C2.06558 22.0543 2.02813 22.0693 2.01133 22.1293C1.99452 22.1893 1.8504 22.3034 2.11425 22.4211L1.71761 22.3389L1.71952 22.3424Z" fill="#D4D4D4"/>
<path d="M10.0296 7.52214C10.0457 7.60835 10.0876 7.68764 10.1498 7.74946C10.2121 7.81128 10.2916 7.85272 10.3779 7.86828C11.9008 8.13953 12.7894 8.13953 14.3139 7.86828C14.4002 7.85272 14.4798 7.81128 14.542 7.74946C14.6042 7.68764 14.6461 7.60835 14.6622 7.52214C14.7742 6.97473 14.8416 6.41914 14.8637 5.86084C14.873 6.41275 14.8076 6.94593 14.6617 7.74097C14.6456 7.82718 14.6037 7.90647 14.5414 7.96829C14.4792 8.03011 14.3997 8.07155 14.3134 8.08711C12.7905 8.35836 11.9019 8.35836 10.3774 8.08711C10.2911 8.07155 10.2115 8.03011 10.1493 7.96829C10.0871 7.90647 10.0452 7.82718 10.0291 7.74097C9.88314 6.94585 9.81765 6.41266 9.82706 5.86084C9.84859 6.41925 9.91634 6.97491 10.0296 7.52214Z" fill="#D4D4D4"/>
<path d="M9.19912 2.41288L8.90723 1.87786C8.90723 1.87786 9.9062 1.58789 12.3496 1.58789C14.7929 1.58789 15.7881 1.87978 15.7881 1.87978L15.4982 2.41096C15.465 2.47229 15.4158 2.52347 15.3559 2.55905C15.2959 2.59462 15.2274 2.61327 15.1577 2.61299H9.5396C9.46988 2.61327 9.40139 2.59462 9.34143 2.55905C9.28147 2.52347 9.23228 2.47229 9.19912 2.41096V2.41288Z" fill="#2B2120"/>
<path d="M12.3495 0.940674C10.5348 0.940674 9.51711 1.15019 9.13919 1.24745C9.08996 1.26122 9.04585 1.28912 9.01232 1.32771C8.9788 1.3663 8.95733 1.41387 8.95058 1.46454L8.89258 1.83123C8.89247 1.84561 8.8957 1.85981 8.90203 1.87271C8.90836 1.88562 8.91761 1.89687 8.92904 1.90558C8.94047 1.9143 8.95378 1.92023 8.9679 1.9229C8.98202 1.92558 8.99657 1.92493 9.0104 1.92101C9.33938 1.82888 10.3814 1.59377 12.3495 1.59377C14.3175 1.59377 15.3577 1.82949 15.6889 1.92119C15.7027 1.92511 15.7172 1.92576 15.7314 1.92308C15.7455 1.9204 15.7588 1.91447 15.7702 1.90576C15.7816 1.89705 15.7909 1.88579 15.7972 1.87289C15.8036 1.85998 15.8068 1.84578 15.8067 1.83141L15.7487 1.46472C15.7419 1.41402 15.7204 1.36643 15.6868 1.32786C15.6532 1.28928 15.609 1.26141 15.5597 1.24772C15.1819 1.15019 14.1642 0.940674 12.3495 0.940674Z" fill="#A9A9A9"/>
<path d="M15.5129 1.28673C15.3184 1.40646 15.3854 1.62721 15.5036 1.78029C15.5036 1.78029 14.9068 1.55206 13.0098 1.50904C11.1146 1.46637 10.4281 1.51688 9.10352 1.82383C9.10352 1.82383 9.46054 1.52637 9.18023 1.33932C9.31192 1.28825 9.44864 1.25124 9.58811 1.22891C9.58811 1.22891 9.23979 1.51139 9.5208 1.58593C9.59917 1.60648 10.0895 1.47743 10.5479 1.4325C11.6553 1.32417 13.2791 1.31877 14.224 1.44765C15.1668 1.57487 15.2043 1.5599 15.2211 1.4999C15.2379 1.4399 15.382 1.32574 15.1182 1.20801L15.5148 1.2903L15.5129 1.28673Z" fill="#D4D4D4"/>
</svg>
