<svg width="21" height="21" viewBox="0 0 21 21" fill="none" xmlns="http://www.w3.org/2000/svg">
<path d="M18.6093 14.023C18.0791 15.2767 17.2499 16.3815 16.1942 17.2407C15.1384 18.1 13.8882 18.6875 12.553 18.952C11.2177 19.2164 9.83794 19.1498 8.53438 18.7578C7.23081 18.3659 6.04311 17.6605 5.0751 16.7035C4.1071 15.7465 3.38827 14.5669 2.98145 13.2679C2.57464 11.9689 2.49222 10.5901 2.74142 9.25184C2.99062 7.91363 3.56384 6.65684 4.41096 5.59134C5.25809 4.52584 6.35332 3.68408 7.60092 3.13965" stroke="#2992DB" stroke-width="1.2" stroke-linecap="round" stroke-linejoin="round"/>
<path d="M19.2679 10.7813C19.2679 9.68698 19.0524 8.60335 18.6336 7.5923C18.2148 6.58126 17.6009 5.6626 16.8271 4.88877C16.0533 4.11495 15.1346 3.50112 14.1236 3.08234C13.1126 2.66355 12.0289 2.448 10.9346 2.448V10.7813H19.2679Z" stroke="#2992DB" stroke-width="1.2" stroke-linecap="round" stroke-linejoin="round"/>
</svg>
