<svg width="24" height="24" viewBox="0 0 24 24" fill="none" xmlns="http://www.w3.org/2000/svg">
<g clip-path="url(#clip0_31_998)">
<path d="M16.6214 20.144V18.2274C16.6214 17.2107 16.2176 16.2357 15.4987 15.5168C14.7798 14.7979 13.8047 14.394 12.7881 14.394H5.12142C4.10476 14.394 3.12973 14.7979 2.41084 15.5168C1.69195 16.2357 1.28809 17.2107 1.28809 18.2274V20.144" stroke="#72E73C" stroke-width="1.3" stroke-linecap="round" stroke-linejoin="round"/>
<path d="M8.9554 10.5607C11.0725 10.5607 12.7887 8.84447 12.7887 6.72738C12.7887 4.61028 11.0725 2.89404 8.9554 2.89404C6.83831 2.89404 5.12207 4.61028 5.12207 6.72738C5.12207 8.84447 6.83831 10.5607 8.9554 10.5607Z" stroke="#72E73C" stroke-width="1.3" stroke-linecap="round" stroke-linejoin="round"/>
<path d="M22.3721 20.144V18.2273C22.3714 17.378 22.0887 16.5529 21.5684 15.8816C21.048 15.2103 20.3194 14.7309 19.4971 14.5186" stroke="#72E73C" stroke-width="1.3" stroke-linecap="round" stroke-linejoin="round"/>
<path d="M15.6631 3.01855C16.4877 3.22968 17.2185 3.70923 17.7404 4.3816C18.2623 5.05398 18.5456 5.88093 18.5456 6.7321C18.5456 7.58326 18.2623 8.41021 17.7404 9.08259C17.2185 9.75497 16.4877 10.2345 15.6631 10.4456" stroke="#72E73C" stroke-width="1.3" stroke-linecap="round" stroke-linejoin="round"/>
</g>
<defs>
<clipPath id="clip0_31_998">
<rect width="23" height="23" fill="white" transform="translate(0.330078 0.019043)"/>
</clipPath>
</defs>
</svg>
