<svg width="24" height="24" viewBox="0 0 24 24" fill="none" xmlns="http://www.w3.org/2000/svg">
<path d="M15.8877 3.85229H17.8044C18.3127 3.85229 18.8002 4.05423 19.1597 4.41367C19.5191 4.77312 19.721 5.26063 19.721 5.76896V19.1856C19.721 19.694 19.5191 20.1815 19.1597 20.5409C18.8002 20.9004 18.3127 21.1023 17.8044 21.1023H6.30436C5.79603 21.1023 5.30852 20.9004 4.94907 20.5409C4.58963 20.1815 4.3877 19.694 4.3877 19.1856V5.76896C4.3877 5.26063 4.58963 4.77312 4.94907 4.41367C5.30852 4.05423 5.79603 3.85229 6.30436 3.85229H8.22103" stroke="#3598DC" stroke-linecap="round" stroke-linejoin="round"/>
<path d="M14.93 1.93579H9.18001C8.65074 1.93579 8.22168 2.36485 8.22168 2.89412V4.81079C8.22168 5.34006 8.65074 5.76912 9.18001 5.76912H14.93C15.4593 5.76912 15.8883 5.34006 15.8883 4.81079V2.89412C15.8883 2.36485 15.4593 1.93579 14.93 1.93579Z" stroke="#3598DC" stroke-linecap="round" stroke-linejoin="round"/>
</svg>
