<svg width="24" height="24" viewBox="0 0 24 24" fill="none" xmlns="http://www.w3.org/2000/svg">
<path d="M10.2488 3.28162C10.8262 2.28162 12.2695 2.28162 12.8469 3.28162L19.3421 14.5316C19.9194 15.5316 19.1977 16.7816 18.043 16.7816H5.05266C3.89796 16.7816 3.17627 15.5316 3.75362 14.5316L10.2488 3.28162Z" fill="white" stroke="#A9A9A9"/>
<path d="M9.74352 13.9062C9.72895 13.8281 9.69097 13.7563 9.63464 13.7003C9.5783 13.6443 9.50627 13.6068 9.42811 13.5927C8.04914 13.3471 7.24445 13.3471 5.86398 13.5927C5.78582 13.6068 5.71379 13.6443 5.65745 13.7003C5.60112 13.7563 5.56314 13.8281 5.54857 13.9062C5.44716 14.4019 5.38614 14.905 5.3661 15.4105C5.35766 14.9108 5.41696 14.4279 5.54904 13.708C5.56362 13.6299 5.60159 13.5582 5.65793 13.5022C5.71426 13.4462 5.78629 13.4087 5.86445 13.3946C7.24342 13.149 8.04811 13.149 9.42859 13.3946C9.50675 13.4087 9.57877 13.4462 9.63511 13.5022C9.69144 13.5582 9.72942 13.6299 9.744 13.708C9.87615 14.428 9.93545 14.9108 9.92693 15.4105C9.90744 14.9049 9.84609 14.4017 9.74352 13.9062Z" fill="#D4D4D4"/>
<path d="M10.4955 18.5327L10.7598 19.0172C10.7598 19.0172 9.85517 19.2798 7.64264 19.2798C5.43012 19.2798 4.52891 19.0155 4.52891 19.0155L4.79149 18.5345C4.82153 18.4789 4.86606 18.4326 4.92036 18.4004C4.97466 18.3682 5.03667 18.3513 5.09981 18.3515L10.1871 18.3515C10.2503 18.3513 10.3123 18.3682 10.3666 18.4004C10.4209 18.4326 10.4654 18.4789 10.4955 18.5345L10.4955 18.5327Z" fill="#2B2120"/>
<path d="M7.64315 19.866C9.28635 19.866 10.2079 19.6762 10.5501 19.5882C10.5947 19.5757 10.6346 19.5504 10.665 19.5155C10.6954 19.4806 10.7148 19.4375 10.7209 19.3916L10.7734 19.0595C10.7735 19.0465 10.7706 19.0337 10.7649 19.022C10.7591 19.0103 10.7508 19.0001 10.7404 18.9922C10.7301 18.9843 10.718 18.979 10.7052 18.9765C10.6924 18.9741 10.6793 18.9747 10.6667 18.9782C10.3688 19.0617 9.42529 19.2746 7.64315 19.2746C5.861 19.2746 4.9191 19.0611 4.61923 18.9781C4.60671 18.9745 4.59353 18.9739 4.58074 18.9764C4.56795 18.9788 4.55591 18.9842 4.54555 18.9921C4.5352 18.9999 4.52683 19.0101 4.5211 19.0218C4.51537 19.0335 4.51244 19.0464 4.51254 19.0594L4.56506 19.3914C4.57121 19.4373 4.5907 19.4804 4.62112 19.5154C4.65154 19.5503 4.69154 19.5755 4.73617 19.5879C5.07831 19.6762 5.99986 19.866 7.64315 19.866Z" fill="#A9A9A9"/>
<path d="M4.77817 19.5526C4.95432 19.4442 4.89361 19.2443 4.7866 19.1057C4.7866 19.1057 5.32698 19.3124 7.04478 19.3513C8.76093 19.3899 9.3826 19.3442 10.582 19.0663C10.582 19.0663 10.2587 19.3356 10.5126 19.505C10.3933 19.5512 10.2695 19.5848 10.1432 19.605C10.1432 19.605 10.4586 19.3492 10.2042 19.2817C10.1332 19.2631 9.68918 19.3799 9.2741 19.4206C8.27134 19.5187 6.80089 19.5236 5.94534 19.4069C5.09153 19.2917 5.05762 19.3053 5.0424 19.3596C5.02718 19.4139 4.89668 19.5173 5.13561 19.6239L4.77643 19.5494L4.77817 19.5526Z" fill="#D4D4D4"/>
<path d="M17.972 13.9061C17.9575 13.828 17.9195 13.7562 17.8632 13.7002C17.8068 13.6442 17.7348 13.6067 17.6566 13.5926C16.2777 13.347 15.473 13.347 14.0925 13.5926C14.0143 13.6067 13.9423 13.6442 13.886 13.7002C13.8296 13.7562 13.7917 13.828 13.7771 13.9061C13.6757 14.4017 13.6147 14.9048 13.5946 15.4104C13.5862 14.9106 13.6455 14.4278 13.7776 13.7079C13.7921 13.6298 13.8301 13.558 13.8864 13.5021C13.9428 13.4461 14.0148 13.4085 14.093 13.3945C15.4719 13.1488 16.2766 13.1488 17.6571 13.3945C17.7353 13.4085 17.8073 13.4461 17.8636 13.5021C17.92 13.558 17.9579 13.6298 17.9725 13.7079C18.1047 14.4279 18.164 14.9107 18.1554 15.4104C18.136 14.9047 18.0746 14.4016 17.972 13.9061Z" fill="#D4D4D4"/>
<path d="M18.724 18.5327L18.9883 19.0172C18.9883 19.0172 18.0837 19.2798 15.8712 19.2798C13.6586 19.2798 12.7574 19.0155 12.7574 19.0155L13.02 18.5345C13.05 18.4789 13.0946 18.4326 13.1489 18.4004C13.2032 18.3682 13.2652 18.3513 13.3283 18.3515L18.4157 18.3515C18.4788 18.3513 18.5408 18.3682 18.5951 18.4004C18.6494 18.4326 18.6939 18.4789 18.724 18.5345L18.724 18.5327Z" fill="#2B2120"/>
<path d="M15.8717 19.8658C17.5149 19.8658 18.4364 19.6761 18.7786 19.588C18.8232 19.5756 18.8632 19.5503 18.8935 19.5154C18.9239 19.4804 18.9433 19.4374 18.9494 19.3915L19.002 19.0594C19.0021 19.0464 18.9991 19.0335 18.9934 19.0219C18.9877 19.0102 18.9793 19 18.9689 18.9921C18.9586 18.9842 18.9465 18.9788 18.9337 18.9764C18.921 18.974 18.9078 18.9746 18.8953 18.9781C18.5974 19.0615 17.6538 19.2745 15.8717 19.2745C14.0895 19.2745 13.1476 19.061 12.8477 18.978C12.8352 18.9744 12.822 18.9738 12.8093 18.9763C12.7965 18.9787 12.7844 18.984 12.7741 18.9919C12.7637 18.9998 12.7553 19.01 12.7496 19.0217C12.7439 19.0334 12.741 19.0462 12.7411 19.0593L12.7936 19.3913C12.7997 19.4372 12.8192 19.4803 12.8496 19.5152C12.8801 19.5502 12.9201 19.5754 12.9647 19.5878C13.3068 19.6761 14.2284 19.8658 15.8717 19.8658Z" fill="#A9A9A9"/>
<path d="M13.0067 19.5525C13.1828 19.4441 13.1221 19.2442 13.0151 19.1056C13.0151 19.1056 13.5555 19.3122 15.2733 19.3512C16.9894 19.3898 17.6111 19.3441 18.8105 19.0661C18.8105 19.0661 18.4873 19.3355 18.7411 19.5049C18.6218 19.5511 18.498 19.5846 18.3717 19.6049C18.3717 19.6049 18.6871 19.3491 18.4327 19.2816C18.3617 19.2629 17.9177 19.3798 17.5026 19.4205C16.4999 19.5186 15.0294 19.5235 14.1739 19.4068C13.32 19.2916 13.2861 19.3051 13.2709 19.3595C13.2557 19.4138 13.1252 19.5172 13.3641 19.6238L13.0049 19.5493L13.0067 19.5525Z" fill="#D4D4D4"/>
<path d="M8.93614 10.3112C9.01126 10.337 9.09245 10.3393 9.16891 10.3178C9.24538 10.2964 9.31351 10.2521 9.36426 10.1911C10.2571 9.11185 10.6534 8.4115 11.1195 7.08906C11.1457 7.0141 11.1485 6.93293 11.1275 6.85633C11.1065 6.77974 11.0628 6.71133 11.002 6.6602C10.6205 6.32783 10.2127 6.02697 9.78255 5.76056C10.2217 5.99933 10.6127 6.28871 11.1742 6.75819C11.235 6.80933 11.2788 6.87773 11.2997 6.95433C11.3207 7.03093 11.3179 7.1121 11.2917 7.18706C10.8264 8.50819 10.4301 9.20854 9.53649 10.2891C9.48574 10.3501 9.41761 10.3944 9.34114 10.4158C9.26468 10.4373 9.18349 10.435 9.10837 10.4092C8.41664 10.1697 7.96723 9.9835 7.53653 9.73002C7.98622 9.96206 8.45435 10.1565 8.93614 10.3112Z" fill="#D4D4D4"/>
<path d="M4.53914 8.68741L3.98732 8.67887C3.98732 8.67887 4.20427 7.76226 5.29384 5.83662C6.38342 3.91098 7.05727 3.25679 7.05727 3.25679L7.34659 3.7222C7.38013 3.77568 7.39854 3.83727 7.39984 3.90039C7.40114 3.96351 7.38529 4.0258 7.35398 4.08062L4.84868 8.50831C4.81781 8.56338 4.77257 8.60904 4.71779 8.64043C4.66302 8.67182 4.60075 8.68776 4.53763 8.68656L4.53914 8.68741Z" fill="#2B2120"/>
<path d="M4.78373 5.54806C3.97451 6.9782 3.68581 7.87369 3.59394 8.21491C3.58283 8.25984 3.58515 8.30705 3.60061 8.35068C3.61607 8.39431 3.64399 8.43245 3.68092 8.46036L3.94405 8.66959C3.95533 8.67609 3.96796 8.67987 3.98096 8.68064C3.99395 8.68141 4.00694 8.67914 4.0189 8.67401C4.03087 8.66889 4.04147 8.66105 4.04988 8.65111C4.05829 8.64118 4.06427 8.62942 4.06734 8.61677C4.14144 8.31641 4.42081 7.39036 5.29844 5.83929C6.17607 4.28823 6.82569 3.57358 7.04564 3.35348C7.05489 3.34433 7.06189 3.33315 7.06608 3.32082C7.07027 3.3085 7.07153 3.29537 7.06976 3.28248C7.06799 3.26958 7.06324 3.25728 7.0559 3.24653C7.04855 3.23579 7.0388 3.22691 7.02742 3.22059L6.71256 3.10277C6.66958 3.08552 6.62247 3.08126 6.57709 3.09054C6.53171 3.09981 6.49005 3.1222 6.45728 3.15493C6.21192 3.40922 5.59298 4.11784 4.78373 5.54806Z" fill="#A9A9A9"/>
<path d="M6.46708 3.20913C6.47469 3.41584 6.67857 3.46144 6.85191 3.43658C6.85191 3.43658 6.40592 3.80511 5.52607 5.28099C4.64731 6.75559 4.38097 7.31917 4.03221 8.49996C4.03221 8.49996 3.95699 8.08593 3.68458 8.22344C3.70305 8.09688 3.73485 7.97262 3.77944 7.85275C3.77944 7.85275 3.84675 8.25323 4.0308 8.065C4.08195 8.0124 4.1989 7.56841 4.3679 7.18711C4.77635 6.26606 5.49623 4.98388 6.01912 4.29673C6.53985 3.61036 6.54475 3.57417 6.50496 3.53417C6.46517 3.49417 6.43946 3.32968 6.22902 3.48512L6.47075 3.20922L6.46708 3.20913Z" fill="#D4D4D4"/>
<path d="M14.893 10.3112C14.8178 10.337 14.7367 10.3393 14.6602 10.3178C14.5837 10.2964 14.5156 10.2521 14.4648 10.1911C13.572 9.11185 13.1757 8.4115 12.7096 7.08906C12.6834 7.0141 12.6806 6.93293 12.7016 6.85633C12.7226 6.77974 12.7664 6.71133 12.8271 6.6602C13.2086 6.32783 13.6164 6.02697 14.0466 5.76056C13.6074 5.99933 13.2164 6.28871 12.6549 6.75819C12.5941 6.80933 12.5503 6.87773 12.5294 6.95433C12.5084 7.03093 12.5112 7.1121 12.5374 7.18706C13.0027 8.50819 13.399 9.20854 14.2926 10.2891C14.3434 10.3501 14.4115 10.3944 14.488 10.4158C14.5644 10.4373 14.6456 10.435 14.7207 10.4092C15.4125 10.1697 15.8619 9.9835 16.2926 9.73002C15.8429 9.96206 15.3747 10.1565 14.893 10.3112Z" fill="#D4D4D4"/>
<path d="M19.29 8.68753L19.8418 8.67899C19.8418 8.67899 19.6248 7.76238 18.5353 5.83674C17.4457 3.9111 16.7718 3.25691 16.7718 3.25691L16.4825 3.72232C16.449 3.77581 16.4306 3.83739 16.4293 3.90051C16.428 3.96363 16.4438 4.02592 16.4751 4.08074L18.9804 8.50843C19.0113 8.5635 19.0565 8.60917 19.1113 8.64056C19.1661 8.67195 19.2284 8.68789 19.2915 8.68668L19.29 8.68753Z" fill="#2B2120"/>
<path d="M19.0454 5.54818C19.8546 6.97832 20.1433 7.87381 20.2352 8.21503C20.2463 8.25997 20.244 8.30717 20.2285 8.3508C20.213 8.39443 20.1851 8.43257 20.1482 8.46049L19.8851 8.66971C19.8738 8.67621 19.8611 8.67999 19.8481 8.68076C19.8352 8.68153 19.8222 8.67926 19.8102 8.67413C19.7982 8.66901 19.7876 8.66117 19.7792 8.65123C19.7708 8.6413 19.7648 8.62954 19.7618 8.61689C19.6877 8.31653 19.4083 7.39048 18.5307 5.83942C17.653 4.28835 17.0034 3.5737 16.7835 3.3536C16.7742 3.34445 16.7672 3.33327 16.763 3.32095C16.7588 3.30862 16.7576 3.29549 16.7593 3.2826C16.7611 3.2697 16.7659 3.2574 16.7732 3.24666C16.7806 3.23591 16.7903 3.22703 16.8017 3.22071L17.1165 3.1029C17.1595 3.08564 17.2066 3.08139 17.252 3.09066C17.2974 3.09993 17.3391 3.12232 17.3718 3.15505C17.6172 3.40934 18.2361 4.11797 19.0454 5.54818Z" fill="#A9A9A9"/>
<path d="M17.362 3.20926C17.3544 3.41597 17.1505 3.46156 16.9772 3.4367C16.9772 3.4367 17.4232 3.80523 18.303 5.28111C19.1818 6.75571 19.4481 7.3193 19.7969 8.50008C19.7969 8.50008 19.8721 8.08606 20.1445 8.22356C20.1261 8.097 20.0943 7.97274 20.0497 7.85287C20.0497 7.85287 19.9824 8.25335 19.7983 8.06513C19.7472 8.01253 19.6302 7.56853 19.4612 7.18724C19.0528 6.26618 18.3329 4.984 17.81 4.29685C17.2892 3.61048 17.2844 3.57429 17.3241 3.53429C17.3639 3.49429 17.3896 3.3298 17.6001 3.48524L17.3584 3.20934L17.362 3.20926Z" fill="#D4D4D4"/>
</svg>
