<svg width="28" height="28" viewBox="0 0 28 28" fill="none" xmlns="http://www.w3.org/2000/svg">
<path d="M15.2064 16.3403C15.2084 16.9847 14.6877 17.5086 14.0433 17.5106C13.3991 17.5127 12.875 16.9919 12.873 16.3477L15.2064 16.3403Z" fill="#3598DC"/>
<path d="M11.3387 7.84404L12.8423 6.33097L12.8737 16.3477L15.207 16.3404L15.1756 6.32366L16.6887 7.82727C17.1457 8.28145 17.8844 8.27915 18.3386 7.82211C18.7928 7.36508 18.7904 6.62638 18.3335 6.17221L13.995 1.86084L9.68359 6.19931L11.3387 7.84404Z" fill="#3598DC"/>
<path d="M9.68289 6.19971C9.2287 6.65675 9.231 7.39546 9.68804 7.84964C10.1451 8.30383 10.8838 8.30148 11.338 7.84444L9.68289 6.19971Z" fill="#3598DC"/>
<path d="M4.66634 14.0002C4.66634 12.7115 5.71101 11.6668 6.99967 11.6668C7.644 11.6668 8.16634 11.1445 8.16634 10.5002C8.16634 9.85584 7.644 9.3335 6.99967 9.3335C4.42234 9.3335 2.33301 11.4228 2.33301 14.0002V21.0002C2.33301 23.5774 4.42234 25.6668 6.99967 25.6668H19.833C23.0546 25.6668 25.6663 23.0551 25.6663 19.8335V14.0002C25.6663 11.4228 23.577 9.3335 20.9997 9.3335C20.3553 9.3335 19.833 9.85584 19.833 10.5002C19.833 11.1445 20.3553 11.6668 20.9997 11.6668C22.2884 11.6668 23.333 12.7115 23.333 14.0002V19.8335C23.333 21.7665 21.7661 23.3335 19.833 23.3335H6.99967C5.71101 23.3335 4.66634 22.2889 4.66634 21.0002V14.0002Z" fill="#3598DC"/>
</svg>
