<svg width="10" height="10" viewBox="0 0 10 10" fill="none" xmlns="http://www.w3.org/2000/svg">
<path d="M2.39551 0.416626C2.5681 0.416626 2.70801 0.556538 2.70801 0.729126V1.49996L3.42495 1.35657C4.11267 1.21903 4.82555 1.28448 5.47672 1.54495L5.56159 1.57889C6.21205 1.83908 6.92801 1.88767 7.60767 1.71775C7.92322 1.63887 8.22884 1.87751 8.22884 2.20275V5.27233C8.22884 5.54079 8.04613 5.77479 7.78567 5.83992L7.69634 5.86225C6.95901 6.04658 6.18238 5.99388 5.47672 5.71163C4.82555 5.45113 4.11267 5.38571 3.42495 5.52325L2.70801 5.66663V9.06246C2.70801 9.23504 2.5681 9.37496 2.39551 9.37496C2.22292 9.37496 2.08301 9.23504 2.08301 9.06246V0.729126C2.08301 0.556538 2.22292 0.416626 2.39551 0.416626Z" fill="white"/>
</svg>
