<svg xmlns="http://www.w3.org/2000/svg" width="280.308" height="273.311" viewBox="0 0 280.308 273.311">
  <g id="C6" transform="translate(-16257.358 11651.943)">
    <g id="C6_y" data-name="C6 y" transform="translate(16247.169 -11658.141)">
      <g id="Rectangle_4839" data-name="Rectangle 4839" transform="translate(33.577 25.699)" fill="#f8fff8">
        <path d="M 116.9241943359375 231.1041870117188 C 109.2262268066406 231.1041870117188 101.5341262817383 230.328857421875 94.06156158447266 228.7997589111328 C 86.78069305419922 227.3098907470703 79.61899566650391 225.0867919921875 72.77545928955078 222.1921997070312 C 66.05535888671875 219.3498229980469 59.57352828979492 215.8315887451172 53.51009368896484 211.7351989746094 C 47.50332641601562 207.6771240234375 41.85472869873047 203.0165557861328 36.72116088867188 197.8830261230469 C 31.58762741088867 192.7494659423828 26.92706108093262 187.1008605957031 22.86899375915527 181.0941009521484 C 18.7725944519043 175.0306549072266 15.25436115264893 168.548828125 12.41199398040771 161.8287200927734 C 9.517394065856934 154.9851989746094 7.294294357299805 147.823486328125 5.804427623748779 140.5426330566406 C 4.275327682495117 133.0700531005859 3.499994277954102 125.3779602050781 3.499994277954102 117.6799926757812 L 3.499994277954102 116.9241943359375 C 3.499994277954102 109.2262268066406 4.275327682495117 101.5341262817383 5.804427623748779 94.06156158447266 C 7.294294357299805 86.78069305419922 9.517394065856934 79.61899566650391 12.41199398040771 72.77545928955078 C 15.25436115264893 66.05535888671875 18.7725944519043 59.57352828979492 22.86899375915527 53.51009368896484 C 26.92706108093262 47.50332641601562 31.58762741088867 41.85472869873047 36.72116088867188 36.72116088867188 C 41.85472869873047 31.58762741088867 47.50332641601562 26.92706108093262 53.51009368896484 22.86899375915527 C 59.57352828979492 18.7725944519043 66.05535888671875 15.25436019897461 72.77545928955078 12.41199398040771 C 79.61899566650391 9.517393112182617 86.78069305419922 7.294293403625488 94.06156158447266 5.804426670074463 C 101.5341262817383 4.275326728820801 109.2262268066406 3.499993562698364 116.9241943359375 3.499993562698364 C 124.6221618652344 3.499993562698364 132.3142547607422 4.275326728820801 139.7868347167969 5.804426670074463 C 147.0676879882812 7.294293403625488 154.2294006347656 9.517393112182617 161.0729217529297 12.41199398040771 C 167.7930297851562 15.25436019897461 174.2748565673828 18.7725944519043 180.3382873535156 22.86899375915527 C 186.3450622558594 26.92706108093262 191.9936676025391 31.58762741088867 197.1272277832031 36.72116088867188 C 202.2607574462891 41.85472869873047 206.9213256835938 47.50332641601562 210.9794006347656 53.51009368896484 C 215.0757904052734 59.57352828979492 218.5940246582031 66.05535888671875 221.4364013671875 72.77545928955078 C 224.3309936523438 79.61899566650391 226.5540924072266 86.78069305419922 228.0439605712891 94.06156158447266 C 229.5730590820312 101.5341262817383 230.348388671875 109.2262268066406 230.348388671875 116.9241943359375 L 230.348388671875 117.6799926757812 C 230.348388671875 125.3779602050781 229.5730590820312 133.0700531005859 228.0439605712891 140.5426330566406 C 226.5540924072266 147.823486328125 224.3309936523438 154.9851989746094 221.4364013671875 161.8287200927734 C 218.5940246582031 168.548828125 215.0757904052734 175.0306549072266 210.9794006347656 181.0941009521484 C 206.9213256835938 187.1008605957031 202.2607574462891 192.7494659423828 197.1272277832031 197.8830261230469 C 191.9936676025391 203.0165557861328 186.3450622558594 207.6771240234375 180.3382873535156 211.7351989746094 C 174.2748565673828 215.8315887451172 167.7930297851562 219.3498229980469 161.0729217529297 222.1921997070312 C 154.2294006347656 225.0867919921875 147.0676879882812 227.3098907470703 139.7868347167969 228.7997589111328 C 132.3142547607422 230.328857421875 124.6221618652344 231.1041870117188 116.9241943359375 231.1041870117188 Z" stroke="none"/>
        <path d="M 116.9241943359375 6.999984741210938 C 56.311767578125 6.999984741210938 6.999984741210938 56.311767578125 6.999984741210938 117.6799850463867 C 6.999984741210938 178.2923736572266 56.311767578125 227.6041717529297 116.9241943359375 227.6041717529297 C 177.5365905761719 227.6041717529297 226.8483734130859 178.2923736572266 226.8483734130859 116.924201965332 C 226.8483734130859 56.311767578125 177.5365905761719 6.999984741210938 116.9241943359375 6.999984741210938 M 116.9241943359375 -1.52587890625e-05 C 181.4996643066406 -1.52587890625e-05 233.8483734130859 52.34873962402344 233.8483734130859 116.924201965332 L 233.8483734130859 117.6799850463867 C 233.8483734130859 182.2554473876953 181.4996643066406 234.6041717529297 116.9241943359375 234.6041717529297 C 52.34872436523438 234.6041717529297 -1.52587890625e-05 182.2554473876953 -1.52587890625e-05 117.6799850463867 L -1.52587890625e-05 116.924201965332 C -1.52587890625e-05 52.34873962402344 52.34872436523438 -1.52587890625e-05 116.9241943359375 -1.52587890625e-05 Z" stroke="none" fill="#29b329"/>
      </g>
      <g id="Chair_S" data-name="Chair S" transform="translate(110.802 6.197)">
        <path id="Path_7104" data-name="Path 7104" d="M34.156,15.99,30.81,7.864s11.454-4.4,39.466-4.4S109.7,7.892,109.7,7.892l-3.325,8.069a4.415,4.415,0,0,1-3.9,3.069H38.06a4.415,4.415,0,0,1-3.9-3.069Z" transform="translate(-30.583 0.176)" fill="#2b2120"/>
        <path id="Path_7105" data-name="Path 7105" d="M70.43,0C49.592,0,37.905,3.182,33.566,4.66a3.8,3.8,0,0,0-2.17,3.3l-.666,5.569c0,.938.666,1.619,1.353,1.364C35.864,13.5,47.83,9.916,70.43,9.916s34.544,3.58,38.347,4.972c.687.256,1.353-.426,1.353-1.364l-.666-5.569a3.8,3.8,0,0,0-2.17-3.3C102.955,3.182,91.268,0,70.43,0Z" transform="translate(-30.73)" fill="#a9a9a9"/>
        <path id="Path_7106" data-name="Path 7106" d="M103.6,2.623c-2.178,1.818-1.424,5.171-.1,7.5,0,0-6.679-3.466-27.911-4.12-21.211-.653-28.9.114-43.72,4.773,0,0,4-4.518.858-7.359a18.159,18.159,0,0,1,4.565-1.676s-3.895,4.29-.754,5.427c.879.313,6.365-1.648,11.5-2.33,12.4-1.648,30.571-1.733,41.145.227,10.553,1.932,10.972,1.7,11.16.8s1.8-2.642-1.152-4.432l4.439,1.25Z" transform="translate(-28.649 1.065)" fill="#d4d4d4"/>
      </g>
      <g id="Chair_S-2" data-name="Chair S" transform="translate(110.803 260.302)">
        <path id="Path_7104-2" data-name="Path 7104" d="M34.156,6.5,30.81,14.626s11.454,4.4,39.466,4.4S109.7,14.6,109.7,14.6l-3.325-8.069a4.415,4.415,0,0,0-3.9-3.069H38.06a4.415,4.415,0,0,0-3.9,3.069Z" transform="translate(-30.583 -3.46)" fill="#2b2120"/>
        <path id="Path_7105-2" data-name="Path 7105" d="M70.43,14.942c-20.838,0-32.525-3.182-36.864-4.66a3.8,3.8,0,0,1-2.17-3.3L30.73,1.418C30.73.48,31.4-.2,32.083.054,35.864,1.446,47.83,5.026,70.43,5.026s34.544-3.58,38.347-4.972c.687-.256,1.353.426,1.353,1.364l-.666,5.569a3.8,3.8,0,0,1-2.17,3.3c-4.34,1.477-16.026,4.66-36.864,4.66Z" transform="translate(-30.731 4.263)" fill="#a9a9a9"/>
        <path id="Path_7106-2" data-name="Path 7106" d="M103.6,9.584c-2.178-1.818-1.424-5.171-.1-7.5,0,0-6.679,3.466-27.911,4.12-21.211.653-28.9-.114-43.72-4.773,0,0,4,4.518.858,7.359a18.159,18.159,0,0,0,4.565,1.676s-3.895-4.29-.754-5.427c.879-.313,6.365,1.648,11.5,2.33C60.421,9.016,78.6,9.1,89.17,7.141c10.553-1.932,10.972-1.7,11.16-.8s1.8,2.642-1.152,4.432l4.439-1.25Z" transform="translate(-28.65 5.933)" fill="#d4d4d4"/>
      </g>
      <g id="Chair_S-3" data-name="Chair S" transform="translate(65.481 55.805) rotate(119)">
        <path id="Path_7104-3" data-name="Path 7104" d="M3.346,3.04,0,11.166s11.454,4.4,39.466,4.4,39.423-4.432,39.423-4.432L75.564,3.069A4.415,4.415,0,0,0,71.66,0H7.25a4.415,4.415,0,0,0-3.9,3.069Z" transform="translate(0.227 0)" fill="#2b2120"/>
        <path id="Path_7105-3" data-name="Path 7105" d="M39.7,14.942c-20.838,0-32.525-3.182-36.864-4.66a3.8,3.8,0,0,1-2.17-3.3L0,1.418C0,.48.666-.2,1.353.054,5.134,1.446,17.1,5.026,39.7,5.026S74.244,1.446,78.047.054C78.734-.2,79.4.48,79.4,1.418l-.666,5.569a3.8,3.8,0,0,1-2.17,3.3c-4.339,1.477-16.026,4.66-36.864,4.66Z" transform="translate(0 4.264)" fill="#a9a9a9"/>
        <path id="Path_7106-3" data-name="Path 7106" d="M71.736,8.154c-2.178-1.818-1.424-5.171-.1-7.5,0,0-6.679,3.466-27.911,4.12C22.509,5.427,14.825,4.66,0,0,0,0,4,4.518.858,7.359A18.159,18.159,0,0,0,5.423,9.035s-3.895-4.29-.754-5.427c.879-.313,6.365,1.648,11.5,2.33,12.4,1.648,30.571,1.733,41.145-.227,10.553-1.932,10.972-1.7,11.16-.8s1.8,2.642-1.152,4.432L71.757,8.1Z" transform="translate(3.211 7.363)" fill="#d4d4d4"/>
      </g>
      <g id="Chair_S-4" data-name="Chair S" transform="matrix(-0.485, -0.875, 0.875, -0.485, 48.683, 241.249)">
        <path id="Path_7104-4" data-name="Path 7104" d="M3.346,12.53,0,4.4S11.454,0,39.465,0,78.888,4.432,78.888,4.432L75.563,12.5a4.415,4.415,0,0,1-3.9,3.069H7.25a4.415,4.415,0,0,1-3.9-3.069Z" transform="translate(0.227 3.636)" fill="#2b2120"/>
        <path id="Path_7105-4" data-name="Path 7105" d="M39.7,0C18.862,0,7.175,3.182,2.836,4.66a3.8,3.8,0,0,0-2.17,3.3L0,13.524c0,.938.666,1.62,1.353,1.364C5.134,13.5,17.1,9.916,39.7,9.916s34.544,3.58,38.346,4.972c.687.256,1.353-.426,1.353-1.364l-.666-5.569a3.8,3.8,0,0,0-2.17-3.3C72.224,3.182,60.538,0,39.7,0Z" transform="translate(0 0)" fill="#a9a9a9"/>
        <path id="Path_7106-4" data-name="Path 7106" d="M71.736,1.193c-2.178,1.818-1.424,5.171-.1,7.5,0,0-6.679-3.466-27.911-4.12C22.509,3.921,14.825,4.688,0,9.348c0,0,4-4.518.858-7.359A18.158,18.158,0,0,1,5.423.313S1.529,4.6,4.669,5.739c.879.313,6.365-1.648,11.5-2.33,12.4-1.648,30.57-1.733,41.144.227,10.553,1.932,10.972,1.7,11.16.8S70.27,1.79,67.318,0l4.439,1.25Z" transform="translate(3.211 2.495)" fill="#d4d4d4"/>
      </g>
      <g id="Chair_S-5" data-name="Chair S" transform="matrix(0.485, 0.875, -0.875, 0.485, 252.004, 46.494)">
        <path id="Path_7104-5" data-name="Path 7104" d="M3.346,12.53,0,4.4S11.454,0,39.465,0,78.888,4.433,78.888,4.433L75.564,12.5a4.415,4.415,0,0,1-3.9,3.069H7.25a4.416,4.416,0,0,1-3.9-3.069Z" transform="translate(0.227 3.636)" fill="#2b2120"/>
        <path id="Path_7105-5" data-name="Path 7105" d="M39.7,0C18.862,0,7.175,3.183,2.836,4.66a3.8,3.8,0,0,0-2.17,3.3L0,13.525c0,.938.666,1.62,1.353,1.364C5.134,13.5,17.1,9.916,39.7,9.916s34.544,3.58,38.346,4.972c.687.256,1.353-.426,1.353-1.364l-.666-5.569a3.8,3.8,0,0,0-2.17-3.3C72.224,3.183,60.538,0,39.7,0Z" transform="translate(0 0)" fill="#a9a9a9"/>
        <path id="Path_7106-5" data-name="Path 7106" d="M71.736,1.194c-2.178,1.818-1.424,5.171-.1,7.5,0,0-6.679-3.466-27.911-4.12C22.509,3.921,14.825,4.688,0,9.348c0,0,4-4.518.858-7.359A18.158,18.158,0,0,1,5.423.313S1.529,4.6,4.669,5.74c.879.313,6.365-1.648,11.5-2.33,12.4-1.648,30.57-1.733,41.144.228,10.553,1.932,10.972,1.7,11.16.8S70.27,1.791,67.318,0l4.439,1.25Z" transform="translate(3.21 2.495)" fill="#d4d4d4"/>
      </g>
      <g id="Chair_S-6" data-name="Chair S" transform="matrix(0.485, -0.875, 0.875, 0.485, 235.204, 231.937)">
        <path id="Path_7104-6" data-name="Path 7104" d="M3.346,3.041,0,11.166s11.453,4.4,39.465,4.4,39.422-4.432,39.422-4.432L75.563,3.069A4.415,4.415,0,0,0,71.659,0H7.25a4.415,4.415,0,0,0-3.9,3.069Z" transform="translate(0.227 0)" fill="#2b2120"/>
        <path id="Path_7105-6" data-name="Path 7105" d="M39.7,14.942c-20.838,0-32.524-3.182-36.864-4.659a3.8,3.8,0,0,1-2.17-3.3L0,1.418C0,.481.666-.2,1.353.055,5.134,1.447,17.1,5.027,39.7,5.027S74.243,1.447,78.045.054C78.733-.2,79.4.481,79.4,1.418l-.666,5.569a3.8,3.8,0,0,1-2.17,3.3c-4.339,1.477-16.026,4.66-36.864,4.66Z" transform="translate(0 4.263)" fill="#a9a9a9"/>
        <path id="Path_7106-6" data-name="Path 7106" d="M71.735,8.154c-2.178-1.818-1.424-5.171-.1-7.5,0,0-6.679,3.466-27.911,4.12C22.509,5.427,14.824,4.66,0,0,0,0,4,4.518.858,7.359A18.158,18.158,0,0,0,5.423,9.035s-3.895-4.29-.754-5.427c.879-.313,6.365,1.648,11.5,2.33,12.4,1.648,30.57,1.733,41.144-.227,10.553-1.932,10.972-1.7,11.16-.8s1.8,2.642-1.152,4.432L71.756,8.1Z" transform="translate(3.21 7.363)" fill="#d4d4d4"/>
      </g>
    </g>
  </g>
</svg>
