<svg xmlns="http://www.w3.org/2000/svg" width="327.03" height="260.7" viewBox="0 0 327.03 260.7">
  <g id="S1" transform="translate(-19085 15251)">
    <rect id="Rectangle_4956" data-name="Rectangle 4956" width="327.03" height="260.7" transform="translate(19085 -15251)" fill="#fff" opacity="0"/>
    <g id="_" transform="translate(19044.373 -15243)">
      <g id="Table" transform="translate(40.626)">
        <g id="Group_5861" data-name="Group 5861" transform="translate(25.394)">
          <g id="Chair_S" data-name="Chair S" transform="translate(95.99 28)">
            <path id="Path_7120" data-name="Path 7120" d="M84.566,45.378a4.965,4.965,0,0,0,4,3.975c17.488,3.115,27.693,3.115,45.2,0a4.965,4.965,0,0,0,4-3.975A118.615,118.615,0,0,0,140.08,26.3c.107,6.338-.645,12.461-2.32,21.591a4.965,4.965,0,0,1-4,3.975c-17.488,3.115-27.693,3.115-45.2,0a4.965,4.965,0,0,1-4-3.975c-1.676-9.131-2.428-15.254-2.32-21.591A116.218,116.218,0,0,0,84.566,45.378Z" transform="translate(-71.503 30.203)" fill="#d4d4d4"/>
            <path id="Path_7122" data-name="Path 7122" d="M80.671,12.934,77.32,6.79s11.472-3.33,39.531-3.33,39.488,3.352,39.488,3.352l-3.33,6.1a4.425,4.425,0,0,1-3.91,2.32H84.582a4.425,4.425,0,0,1-3.91-2.32Z" transform="translate(-77.148 3.973)" fill="#2b2120"/>
            <path id="Path_7123" data-name="Path 7123" d="M116.942,0C96.1,0,84.416,2.406,80.076,3.523a3,3,0,0,0-2.17,2.492l-.666,4.211a1.063,1.063,0,0,0,1.353,1.031C82.375,10.2,94.341,7.5,116.942,7.5s34.546,2.707,38.349,3.76a1.063,1.063,0,0,0,1.353-1.031l-.666-4.211a3,3,0,0,0-2.17-2.492C149.469,2.406,137.782,0,116.942,0Z" transform="translate(-77.24)" fill="#a9a9a9"/>
            <path id="Path_7124" data-name="Path 7124" d="M151.974,2.332c-2.234,1.375-1.461,3.91-.107,5.672,0,0-6.853-2.621-28.638-3.115C101.465,4.395,93.581,4.975,78.37,8.5c0,0,4.1-3.416.881-5.564a23.015,23.015,0,0,1,4.684-1.268s-4,3.244-.773,4.1c.9.236,6.531-1.246,11.795-1.762,12.719-1.246,31.367-1.311,42.216.172,10.828,1.461,11.258,1.289,11.451.6s1.848-2-1.182-3.352L152,2.375Z" transform="translate(-75.942 1.642)" fill="#d4d4d4"/>
          </g>
        </g>
        <g id="Group_5862" data-name="Group 5862" transform="translate(0 42.517)">
          <rect id="Rectangle_4954" data-name="Rectangle 4954" width="319.145" height="154.083" transform="translate(3.631 3.91)" fill="#f8fff8" stroke="#29b329" stroke-width="7"/>
        </g>
      </g>
    </g>
  </g>
</svg>
