<svg xmlns="http://www.w3.org/2000/svg" width="271.662" height="244.236" viewBox="0 0 271.662 244.236">
  <g id="T6y" transform="translate(-33.856 342.566)">
    <g id="Path_6848" data-name="Path 6848" transform="translate(34.886 -353.562)" fill="#f8f8f8">
      <path d="M 243.2108917236328 232.5274200439453 L 26.96146774291992 232.5274200439453 C 24.09250259399414 232.5274200439453 21.43000221252441 231.8015899658203 19.04793167114258 230.3700866699219 C 16.82332420349121 229.033203125 14.94932460784912 227.1172027587891 13.62846755981445 224.8291931152344 C 12.30761051177979 222.5411987304688 11.58553886413574 219.960205078125 11.54032421112061 217.3652038574219 C 11.49189567565918 214.5865173339844 12.19478893280029 211.9178771972656 13.62946701049805 209.4333801269531 L 121.7541427612305 22.19319915771484 C 123.1886444091797 19.70909118652344 125.148323059082 17.76655578613281 127.5787887573242 16.41959190368652 C 129.8486175537109 15.1616268157959 132.4446411132812 14.49673366546631 135.086181640625 14.49673366546631 C 137.7277221679688 14.49673366546631 140.3237152099609 15.1616268157959 142.5935363769531 16.41959190368652 C 145.0240020751953 17.76655578613281 146.9836883544922 19.70909118652344 148.4181823730469 22.19319915771484 L 256.5429382324219 209.4333801269531 C 257.9776000976562 211.9178466796875 258.6805114746094 214.5864868164062 258.6320495605469 217.3652038574219 C 258.5868225097656 219.960205078125 257.86474609375 222.5411987304688 256.5438842773438 224.8291931152344 C 255.2230377197266 227.1172027587891 253.3490447998047 229.033203125 251.1244354248047 230.3700866699219 C 248.7423553466797 231.8015899658203 246.0798645019531 232.5274200439453 243.2108917236328 232.5274200439453 Z" stroke="none"/>
      <path d="M 135.086181640625 17.99673461914062 C 130.7862243652344 17.99673461914062 126.9353485107422 20.21981811523438 124.7850952148438 23.94349670410156 L 16.66038513183594 211.1836242675781 C 14.50981140136719 214.9078674316406 14.509521484375 219.3548583984375 16.65963745117188 223.0793609619141 C 18.80976867675781 226.8038177490234 22.66093444824219 229.0274047851562 26.96147155761719 229.0274047851562 L 243.2108917236328 229.0274047851562 C 247.5114288330078 229.0274047851562 251.3625946044922 226.8038177490234 253.5127258300781 223.0793151855469 C 255.662841796875 219.3548278808594 255.6625518798828 214.9078216552734 253.5119781494141 211.1836547851562 L 145.3872222900391 23.94345092773438 C 143.2369689941406 20.21981811523438 139.3860931396484 17.99673461914062 135.086181640625 17.99673461914062 M 135.086181640625 10.99673461914062 C 141.4493713378906 10.99673461914062 147.8125610351562 14.14546203613281 151.4490966796875 20.44294738769531 L 259.5738525390625 207.6831207275391 C 266.8480529785156 220.2799530029297 257.7571411132812 236.0274047851562 243.2108917236328 236.0274047851562 L 26.96147155761719 236.0274047851562 C 12.41519165039062 236.0274047851562 3.324310302734375 220.2799530029297 10.5985107421875 207.6831207275391 L 118.7232208251953 20.44294738769531 C 122.3597869873047 14.14546203613281 128.7229766845703 10.99673461914062 135.086181640625 10.99673461914062 Z" stroke="none" fill="#dcdb3f"/>
    </g>
    <g id="Chair_S" data-name="Chair S" transform="translate(81.607 -117.535)">
      <path id="Path_7104" data-name="Path 7104" d="M34.156,6.5,30.81,14.626s11.454,4.4,39.466,4.4S109.7,14.6,109.7,14.6l-3.325-8.069a4.415,4.415,0,0,0-3.9-3.069H38.06a4.415,4.415,0,0,0-3.9,3.069Z" transform="translate(-30.583 -3.46)" fill="#2b2120"/>
      <path id="Path_7105" data-name="Path 7105" d="M70.43,14.942c-20.838,0-32.525-3.182-36.864-4.66a3.8,3.8,0,0,1-2.17-3.3L30.73,1.418C30.73.48,31.4-.2,32.083.054,35.864,1.446,47.83,5.026,70.43,5.026s34.544-3.58,38.347-4.972c.687-.256,1.353.426,1.353,1.364l-.666,5.569a3.8,3.8,0,0,1-2.17,3.3c-4.34,1.477-16.026,4.66-36.864,4.66Z" transform="translate(-30.731 4.263)" fill="#a9a9a9"/>
      <path id="Path_7106" data-name="Path 7106" d="M103.6,9.584c-2.178-1.818-1.424-5.171-.1-7.5,0,0-6.679,3.466-27.911,4.12-21.211.653-28.9-.114-43.72-4.773,0,0,4,4.518.858,7.359a18.159,18.159,0,0,0,4.565,1.676s-3.895-4.29-.754-5.427c.879-.313,6.365,1.648,11.5,2.33C60.421,9.016,78.6,9.1,89.17,7.141c10.553-1.932,10.972-1.7,11.16-.8s1.8,2.642-1.152,4.432l4.439-1.25Z" transform="translate(-28.65 5.933)" fill="#d4d4d4"/>
    </g>
    <g id="Chair_S-2" data-name="Chair S" transform="translate(178.935 -117.535)">
      <path id="Path_7104-2" data-name="Path 7104" d="M34.156,6.5,30.81,14.626s11.454,4.4,39.466,4.4S109.7,14.6,109.7,14.6l-3.325-8.069a4.415,4.415,0,0,0-3.9-3.069H38.06a4.415,4.415,0,0,0-3.9,3.069Z" transform="translate(-30.583 -3.46)" fill="#2b2120"/>
      <path id="Path_7105-2" data-name="Path 7105" d="M70.43,14.942c-20.838,0-32.525-3.182-36.864-4.66a3.8,3.8,0,0,1-2.17-3.3L30.73,1.418C30.73.48,31.4-.2,32.083.054,35.864,1.446,47.83,5.026,70.43,5.026s34.544-3.58,38.347-4.972c.687-.256,1.353.426,1.353,1.364l-.666,5.569a3.8,3.8,0,0,1-2.17,3.3c-4.34,1.477-16.026,4.66-36.864,4.66Z" transform="translate(-30.731 4.263)" fill="#a9a9a9"/>
      <path id="Path_7106-2" data-name="Path 7106" d="M103.6,9.584c-2.178-1.818-1.424-5.171-.1-7.5,0,0-6.679,3.466-27.911,4.12-21.211.653-28.9-.114-43.72-4.773,0,0,4,4.518.858,7.359a18.159,18.159,0,0,0,4.565,1.676s-3.895-4.29-.754-5.427c.879-.313,6.365,1.648,11.5,2.33C60.421,9.016,78.6,9.1,89.17,7.141c10.553-1.932,10.972-1.7,11.16-.8s1.8,2.642-1.152,4.432l4.439-1.25Z" transform="translate(-28.65 5.933)" fill="#d4d4d4"/>
    </g>
    <g id="Chair_S-3" data-name="Chair S" transform="translate(146.521 -322.105) rotate(120)">
      <path id="Path_7104-3" data-name="Path 7104" d="M3.346,3.04,0,11.166s11.454,4.4,39.466,4.4,39.423-4.432,39.423-4.432L75.564,3.069A4.415,4.415,0,0,0,71.66,0H7.25a4.415,4.415,0,0,0-3.9,3.069Z" transform="translate(0.227 0)" fill="#2b2120"/>
      <path id="Path_7105-3" data-name="Path 7105" d="M39.7,14.942c-20.838,0-32.525-3.182-36.864-4.66a3.8,3.8,0,0,1-2.17-3.3L0,1.418C0,.48.666-.2,1.353.054,5.134,1.446,17.1,5.026,39.7,5.026S74.244,1.446,78.047.054C78.734-.2,79.4.48,79.4,1.418l-.666,5.569a3.8,3.8,0,0,1-2.17,3.3c-4.339,1.477-16.026,4.66-36.864,4.66Z" transform="translate(0 4.264)" fill="#a9a9a9"/>
      <path id="Path_7106-3" data-name="Path 7106" d="M71.736,8.154c-2.178-1.818-1.424-5.171-.1-7.5,0,0-6.679,3.466-27.911,4.12C22.509,5.427,14.825,4.66,0,0,0,0,4,4.518.858,7.359A18.159,18.159,0,0,0,5.423,9.035s-3.895-4.29-.754-5.427c.879-.313,6.365,1.648,11.5,2.33,12.4,1.648,30.571,1.733,41.145-.227,10.553-1.932,10.972-1.7,11.16-.8s1.8,2.642-1.152,4.432L71.757,8.1Z" transform="translate(3.211 7.363)" fill="#d4d4d4"/>
    </g>
    <g id="Chair_S-4" data-name="Chair S" transform="translate(90.189 -220.448) rotate(120)">
      <path id="Path_7104-4" data-name="Path 7104" d="M3.346,3.04,0,11.166s11.454,4.4,39.466,4.4,39.423-4.432,39.423-4.432L75.564,3.069A4.415,4.415,0,0,0,71.66,0H7.25a4.415,4.415,0,0,0-3.9,3.069Z" transform="translate(0.227 0)" fill="#2b2120"/>
      <path id="Path_7105-4" data-name="Path 7105" d="M39.7,14.942c-20.838,0-32.525-3.182-36.864-4.66a3.8,3.8,0,0,1-2.17-3.3L0,1.418C0,.48.666-.2,1.353.054,5.134,1.446,17.1,5.026,39.7,5.026S74.244,1.446,78.047.054C78.734-.2,79.4.48,79.4,1.418l-.666,5.569a3.8,3.8,0,0,1-2.17,3.3c-4.339,1.477-16.026,4.66-36.864,4.66Z" transform="translate(0 4.264)" fill="#a9a9a9"/>
      <path id="Path_7106-4" data-name="Path 7106" d="M71.736,8.154c-2.178-1.818-1.424-5.171-.1-7.5,0,0-6.679,3.466-27.911,4.12C22.509,5.427,14.825,4.66,0,0,0,0,4,4.518.858,7.359A18.159,18.159,0,0,0,5.423,9.035s-3.895-4.29-.754-5.427c.879-.313,6.365,1.648,11.5,2.33,12.4,1.648,30.571,1.733,41.145-.227,10.553-1.932,10.972-1.7,11.16-.8s1.8,2.642-1.152,4.432L71.757,8.1Z" transform="translate(3.211 7.363)" fill="#d4d4d4"/>
    </g>
    <g id="Chair_S-5" data-name="Chair S" transform="translate(209.487 -331.708) rotate(60)">
      <path id="Path_7104-5" data-name="Path 7104" d="M3.346,12.53,0,4.4S11.454,0,39.465,0,78.888,4.433,78.888,4.433L75.564,12.5a4.415,4.415,0,0,1-3.9,3.069H7.25a4.416,4.416,0,0,1-3.9-3.069Z" transform="translate(0.227 3.636)" fill="#2b2120"/>
      <path id="Path_7105-5" data-name="Path 7105" d="M39.7,0C18.862,0,7.175,3.183,2.836,4.66a3.8,3.8,0,0,0-2.17,3.3L0,13.525c0,.938.666,1.62,1.353,1.364C5.134,13.5,17.1,9.916,39.7,9.917s34.544,3.58,38.346,4.972c.687.256,1.353-.426,1.353-1.364l-.666-5.569a3.8,3.8,0,0,0-2.17-3.3C72.224,3.183,60.538,0,39.7,0Z" transform="translate(0 0)" fill="#a9a9a9"/>
      <path id="Path_7106-5" data-name="Path 7106" d="M71.736,1.194c-2.178,1.818-1.424,5.171-.1,7.5,0,0-6.679-3.466-27.911-4.12C22.509,3.921,14.825,4.689,0,9.348c0,0,4-4.518.858-7.359A18.158,18.158,0,0,1,5.423.313S1.528,4.6,4.669,5.74c.879.313,6.365-1.648,11.5-2.33,12.4-1.648,30.57-1.733,41.144.228,10.553,1.932,10.972,1.7,11.16.8S70.27,1.791,67.318,0l4.439,1.25Z" transform="translate(3.21 2.495)" fill="#d4d4d4"/>
    </g>
    <g id="Chair_S-6" data-name="Chair S" transform="translate(265.819 -230.051) rotate(60)">
      <path id="Path_7104-6" data-name="Path 7104" d="M3.346,12.53,0,4.4S11.454,0,39.465,0,78.888,4.433,78.888,4.433L75.564,12.5a4.415,4.415,0,0,1-3.9,3.069H7.25a4.416,4.416,0,0,1-3.9-3.069Z" transform="translate(0.227 3.636)" fill="#2b2120"/>
      <path id="Path_7105-6" data-name="Path 7105" d="M39.7,0C18.862,0,7.175,3.183,2.836,4.66a3.8,3.8,0,0,0-2.17,3.3L0,13.525c0,.938.666,1.62,1.353,1.364C5.134,13.5,17.1,9.916,39.7,9.917s34.544,3.58,38.346,4.972c.687.256,1.353-.426,1.353-1.364l-.666-5.569a3.8,3.8,0,0,0-2.17-3.3C72.224,3.183,60.538,0,39.7,0Z" transform="translate(0 0)" fill="#a9a9a9"/>
      <path id="Path_7106-6" data-name="Path 7106" d="M71.736,1.194c-2.178,1.818-1.424,5.171-.1,7.5,0,0-6.679-3.466-27.911-4.12C22.509,3.921,14.825,4.689,0,9.348c0,0,4-4.518.858-7.359A18.158,18.158,0,0,1,5.423.313S1.528,4.6,4.669,5.74c.879.313,6.365-1.648,11.5-2.33,12.4-1.648,30.57-1.733,41.144.228,10.553,1.932,10.972,1.7,11.16.8S70.27,1.791,67.318,0l4.439,1.25Z" transform="translate(3.21 2.495)" fill="#d4d4d4"/>
    </g>
  </g>
</svg>
