<?xml version="1.0" standalone="no"?>
<!DOCTYPE svg PUBLIC "-//W3C//DTD SVG 1.1//EN" "http://www.w3.org/Graphics/SVG/1.1/DTD/svg11.dtd" >
<svg xmlns="http://www.w3.org/2000/svg" xmlns:xlink="http://www.w3.org/1999/xlink" version="1.1">
<metadata>
Created by FontForge 20170731 at Fri Jul 24 22:40:31 2020
 By Aleksey,,,
Copyright (URW)++, copyright 1999 by (URW)++ Design &#38; Development; Cyrillic glyphs added by Valek Filippov, copyright 2001-2002; Vietnamese characters were added by Han The Thanh; copyright 2006, 2008 for TeX Gyre extensions by B. Jackowski and J.M. Nowacki (on behalf of TeX users groups). This work is released under the GUST Font License --  see http://tug.org/fonts/licenses/GUST-FONT-LICENSE.txt for details.
</metadata>
<defs>
<font id="TeXGyreHeros-Italic" horiz-adv-x="1138" >
  <font-face 
    font-family="TeXGyreHeros"
    font-weight="400"
    font-style="italic"
    font-stretch="normal"
    units-per-em="2048"
    panose-1="0 0 5 0 0 0 0 0 0 0"
    ascent="1638"
    descent="-410"
    x-height="1073"
    cap-height="1493"
    bbox="-1124 -582 2816 2306"
    underline-thickness="102"
    underline-position="-362"
    slope="-12"
    unicode-range="U+0020-FB04"
  />
<missing-glyph horiz-adv-x="573" 
 />
    <glyph glyph-name="I_J" unicode="IJ" horiz-adv-x="1482" 
d="M547 1493l-318 -1493h-192l317 1493h193zM1323 383q-43 -201 -178 -310.5t-338 -109.5q-160 0 -250 85.5t-90 211.5q0 46 12 98l27 121h192l-26 -125q-8 -33 -8 -69q0 -69 50.5 -112.5t133.5 -43.5q114 0 187 76t110 248l221 1040h193z" />
    <glyph glyph-name="i_j" unicode="ij" horiz-adv-x="905" 
d="M209 0h-172l227 1073h172zM535 1448l-46 -211h-213l46 211h213zM616 -223q-28 -126 -105.5 -174.5t-254.5 -48.5q-18 0 -39 6l31 145q37 -4 51 -4q78 0 109.5 28.5t50.5 114.5l260 1229h172zM989 1448l-45 -211h-213l45 211h213z" />
    <glyph glyph-name="f_k" unicode="fk" horiz-adv-x="1613" 
d="M627 936h-176l-199 -936h-172l199 936h-144l29 137h143l39 182q25 114 106 179t199 65q46 0 92 -10l-30 -141q-29 4 -56 4q-66 0 -98 -30.5t-49 -107.5l-31 -141h176zM1516 0h-197l-234 596l-219 -180l-88 -416h-172l318 1493h172l-185 -866l551 446h221l-454 -371z" />
    <glyph glyph-name="f_f" unicode="ff" horiz-adv-x="1093" 
d="M1153 936h-176l-199 -936h-172l199 936h-354l-199 -936h-172l199 936h-144l29 137h143l39 182q25 114 106 179t199 65q46 0 92 -10l-30 -141q-29 4 -56 4q-66 0 -98 -30.5t-49 -107.5l-31 -141h355l38 182q25 114 106.5 179t199.5 65q46 0 92 -10l-31 -141q-29 4 -55 4
q-66 0 -98.5 -30.5t-49.5 -107.5l-30 -141h176z" />
    <glyph glyph-name="f_i" unicode="fi" horiz-adv-x="1024" 
d="M627 936h-176l-199 -936h-172l199 936h-144l29 137h143l39 182q25 114 106 179t199 65q46 0 92 -10l-30 -141q-29 4 -56 4q-66 0 -98 -30.5t-49 -107.5l-31 -141h176zM778 0h-172l228 1073h172zM1104 1448l-45 -211h-213l45 211h213z" />
    <glyph glyph-name="f_l" unicode="fl" horiz-adv-x="1024" 
d="M627 936h-176l-199 -936h-172l199 936h-144l29 137h143l39 182q25 114 106 179t199 65q46 0 92 -10l-30 -141q-29 4 -56 4q-66 0 -98 -30.5t-49 -107.5l-31 -141h176zM1096 1493l-318 -1493h-172l318 1493h172z" />
    <glyph glyph-name="f_f_i" unicode="ffi" horiz-adv-x="1550" 
d="M1153 936h-176l-199 -936h-172l199 936h-354l-199 -936h-172l199 936h-144l29 137h143l39 182q25 114 106 179t199 65q46 0 92 -10l-30 -141q-29 4 -56 4q-66 0 -98 -30.5t-49 -107.5l-31 -141h355l38 182q25 114 106.5 179t199.5 65q46 0 92 -10l-31 -141q-29 4 -55 4
q-66 0 -98.5 -30.5t-49.5 -107.5l-30 -141h176zM1305 0h-172l227 1073h172zM1630 1448l-45 -211h-213l45 211h213z" />
    <glyph glyph-name="f_f_l" unicode="ffl" horiz-adv-x="1550" 
d="M1153 936h-176l-199 -936h-172l199 936h-354l-199 -936h-172l199 936h-144l29 137h143l39 182q25 114 106 179t199 65q46 0 92 -10l-30 -141q-29 4 -56 4q-66 0 -98 -30.5t-49 -107.5l-31 -141h355l38 182q25 114 106.5 179t199.5 65q46 0 92 -10l-31 -141q-29 4 -55 4
q-66 0 -98.5 -30.5t-49.5 -107.5l-30 -141h176zM1622 1493l-317 -1493h-172l317 1493h172z" />
    <glyph glyph-name=".notdef" horiz-adv-x="573" 
 />
    <glyph glyph-name=".null" horiz-adv-x="0" 
 />
    <glyph glyph-name="nonmarkingreturn" horiz-adv-x="682" 
 />
    <glyph glyph-name="space" unicode=" " horiz-adv-x="569" 
 />
    <glyph glyph-name="exclam" unicode="!" horiz-adv-x="569" 
d="M434 776l-137 -432h-82l47 432l152 717h172zM313 211l-45 -211h-172l45 211h172z" />
    <glyph glyph-name="quotedbl" unicode="&#x22;" horiz-adv-x="727" 
d="M504 1452l-49 -227l-113 -275h-80v275l49 227h193zM829 1452l-49 -227l-112 -275h-80v275l49 227h192z" />
    <glyph glyph-name="numbersign" unicode="#" 
d="M1227 1030l-29 -131h-215l-149 -377h219l-29 -131h-242l-170 -432h-155l170 432h-256l-170 -432h-156l170 432h-207l29 131h229l150 377h-223l26 131h248l158 397h155l-155 -397h254l157 397h156l-158 -397h193zM827 899h-254l-151 -377h256z" />
    <glyph glyph-name="dollar" unicode="$" 
d="M1055 498q0 -234 -149.5 -386.5t-397.5 -158.5l-45 -211h-121l45 211q-180 28 -264 105t-84 216q0 59 16 152h162l-2 -23q-6 -59 -6 -96q0 -84 47 -132.5t160 -80.5l119 557q-112 39 -157 59.5t-77 47.5q-92 80 -92 203q0 210 135 349t365 156l22 111h121l-23 -111
q153 -7 238.5 -89t85.5 -220q0 -45 -12 -94h-162l2 31q2 18 2 43q0 80 -50 131t-134 55l-109 -510q122 -37 166 -54.5t82 -43.5q62 -41 89.5 -92.5t27.5 -124.5zM573 829l105 492q-129 -9 -214 -94.5t-85 -200.5q0 -75 44 -120t150 -77zM874 432q0 74 -49.5 119.5
t-173.5 81.5l-114 -539q161 12 249 100.5t88 237.5z" />
    <glyph glyph-name="percent" unicode="%" horiz-adv-x="1820" 
d="M1587 1452l-1126 -1493h-135l1126 1493h135zM887 1130q0 -81 -36 -158.5t-95.5 -135t-140 -92.5t-164.5 -35q-120 0 -199.5 76.5t-79.5 193.5q0 105 61.5 202.5t162 156.5t208.5 59q120 0 201.5 -77t81.5 -190zM743 1094q0 75 -47.5 121.5t-124.5 46.5q-98 0 -177 -76.5
t-79 -173.5q0 -72 48 -120t120 -48q100 0 180 77.5t80 172.5zM1731 389q0 -108 -61 -206t-162.5 -157t-213.5 -59q-120 0 -199 77t-79 194q0 105 61.5 202t162 156t208.5 59q120 0 201.5 -76.5t81.5 -189.5zM1587 352q0 75 -47.5 121.5t-124.5 46.5q-98 0 -177 -76.5
t-79 -173.5q0 -72 48 -120t120 -48q100 0 180 77.5t80 172.5z" />
    <glyph glyph-name="ampersand" unicode="&#x26;" horiz-adv-x="1366" 
d="M1196 0h-217l-94 160q-140 -116 -243 -161.5t-226 -45.5q-161 0 -254.5 83t-93.5 226q0 116 47 209t135 168t237 160q-13 36 -18 47l-37 86q-29 72 -29 139q0 149 129.5 265t296.5 116q125 0 199 -67.5t74 -182.5q0 -134 -90.5 -238t-280.5 -190l201 -334q48 56 76 111.5
t47 132.5h162q-19 -94 -74.5 -195.5t-130.5 -179.5zM932 1176q0 62 -37.5 97.5t-103.5 35.5q-91 0 -154.5 -63t-63.5 -154q0 -43 17 -78.5t80 -124.5q141 71 201.5 136.5t60.5 150.5zM815 281l-244 407q-172 -92 -247.5 -177t-75.5 -185t60 -157.5t163 -57.5q76 0 154 38.5
t190 131.5z" />
    <glyph glyph-name="quotesingle" unicode="'" horiz-adv-x="391" 
d="M496 1452l-50 -227l-112 -275h-80v275l49 227h193z" />
    <glyph glyph-name="parenleft" unicode="(" horiz-adv-x="681" 
d="M401 -436h-112q-75 132 -117.5 311.5t-42.5 362.5q0 311 150.5 643t418.5 612h113q-258 -316 -390 -653t-132 -678q0 -308 112 -598z" />
    <glyph glyph-name="parenright" unicode=")" horiz-adv-x="681" 
d="M563 834q0 -319 -150.5 -655t-416.5 -615h-113q255 312 389 650t134 669q0 322 -113 610h113q72 -127 114.5 -306t42.5 -353z" />
    <glyph glyph-name="asterisk" unicode="*" horiz-adv-x="796" 
d="M862 1214l-231 -55l108 -186l-118 -76l-91 197l-165 -195l-97 82l189 180l-213 64l61 121l205 -82l41 229h127l-60 -229l226 77z" />
    <glyph glyph-name="plus" unicode="+" horiz-adv-x="1196" 
d="M1057 442h-389v-389h-140v389h-389v140h389v389h140v-389h389v-140z" />
    <glyph glyph-name="comma" unicode="," horiz-adv-x="569" 
d="M336 211l-53 -244q-28 -128 -95.5 -198.5t-164.5 -69.5h-13l17 78q74 0 111 48.5t59 174.5h-121l45 211h215z" />
    <glyph glyph-name="hyphen" unicode="-" horiz-adv-x="681" 
d="M586 492h-490l31 147h489z" />
    <glyph glyph-name="period" unicode="." horiz-adv-x="569" 
d="M334 211l-45 -211h-213l45 211h213z" />
    <glyph glyph-name="slash" unicode="/" horiz-adv-x="569" 
d="M786 1493l-800 -1534h-113l801 1534h112z" />
    <glyph glyph-name="zero" unicode="0" 
d="M1122 1053q0 -221 -63.5 -457.5t-161.5 -376.5q-89 -129 -193.5 -189.5t-236.5 -60.5q-165 0 -265 103t-100 293q0 221 64.5 458t161.5 379q171 250 426 250q173 0 270.5 -105.5t97.5 -293.5zM942 1032q0 124 -56.5 193t-156.5 69q-191 0 -307 -252
q-58 -127 -98.5 -317.5t-40.5 -337.5q0 -122 54.5 -191t151.5 -69q100 0 175.5 61t136.5 193q58 123 99.5 314.5t41.5 336.5z" />
    <glyph glyph-name="one" unicode="1" 
d="M918 1452l-310 -1452h-180l221 1034h-325l26 129q80 11 128.5 20t94 24.5t71.5 32t54.5 49t49.5 68t51 95.5h119z" />
    <glyph glyph-name="two" unicode="2" 
d="M1167 1100q0 -308 -405 -512l-230 -117q-285 -144 -333 -293h772l-39 -178h-965q35 129 71.5 211.5t99.5 156t146.5 131t221.5 130.5l213 106q127 63 197.5 152.5t70.5 187.5t-65 158.5t-172 60.5q-146 0 -235.5 -84t-135.5 -262h-180q60 260 199.5 382t375.5 122
q183 0 288 -96.5t105 -255.5z" />
    <glyph glyph-name="three" unicode="3" 
d="M1036 518q0 -112 -42.5 -212t-118.5 -174.5t-188.5 -118.5t-244.5 -44q-192 0 -293.5 88t-101.5 254q0 51 10 127h181l-5 -26q-6 -33 -6 -80q0 -93 66.5 -149t175.5 -56q173 0 280 100t107 265q0 88 -71.5 137t-198.5 49q-49 0 -92 -4l32 153h37q200 0 290.5 72.5
t90.5 216.5q0 83 -58.5 130.5t-158.5 47.5q-137 0 -222 -73t-122 -238h-180q65 250 200.5 359.5t348.5 109.5q169 0 270.5 -82t101.5 -217q0 -136 -58 -227.5t-189 -165.5q86 -43 122.5 -98.5t36.5 -143.5z" />
    <glyph glyph-name="four" unicode="4" 
d="M1071 508l-35 -160h-217l-74 -348h-180l74 348h-612l41 189l852 915h135l-201 -944h217zM674 508l133 631l-586 -631h453z" />
    <glyph glyph-name="five" unicode="5" 
d="M1059 604q0 -134 -49.5 -253t-132 -202t-192.5 -131.5t-228 -48.5q-186 0 -299 89.5t-113 269.5v45h180q9 -246 256 -246q175 0 286.5 117.5t111.5 306.5q0 118 -67.5 183t-190.5 65q-90 0 -151.5 -27t-154.5 -110h-163l270 759h758l-37 -178h-615l-137 -375
q144 88 287 88q173 0 277 -96t104 -256z" />
    <glyph glyph-name="six" unicode="6" 
d="M1057 555q0 -116 -47 -224.5t-124.5 -187.5t-182.5 -126.5t-216 -47.5q-183 0 -290 102t-107 279q0 193 62 425.5t151 371.5q194 305 485 305q164 0 262.5 -88t98.5 -236q0 -32 -2 -55h-180l2 10q-5 96 -58.5 153.5t-150.5 57.5q-156 0 -273 -151t-161 -410
q172 172 366 172q164 0 264.5 -96t100.5 -254zM877 524q0 100 -65 162t-169 62q-157 0 -265 -110.5t-108 -272.5q0 -107 68.5 -172.5t175.5 -65.5q153 0 258 113t105 284z" />
    <glyph glyph-name="seven" unicode="7" 
d="M1231 1255q-267 -263 -509 -616.5t-343 -638.5h-201q92 216 206 404t263 377.5t391 461.5h-784l39 178h973z" />
    <glyph glyph-name="eight" unicode="8" 
d="M1047 498q0 -106 -47.5 -204t-125.5 -169t-182.5 -113.5t-214.5 -42.5q-195 0 -310.5 90t-115.5 246q0 311 324 459l-25 20q-64 52 -85 91.5t-21 107.5q0 128 71.5 236.5t190 170.5t254.5 62q169 0 272 -84.5t103 -218.5q0 -116 -52 -201.5t-176 -163.5l-33 -20
q88 -50 130.5 -114t42.5 -152zM954 1116q0 83 -59.5 130.5t-163.5 47.5q-134 0 -220.5 -81t-86.5 -207q0 -80 58 -125t161 -45q135 0 223 81t88 199zM866 471q0 100 -71.5 156.5t-192.5 56.5q-156 0 -263.5 -100t-107.5 -248q0 -96 71.5 -152.5t186.5 -56.5
q162 0 269.5 97.5t107.5 246.5z" />
    <glyph glyph-name="nine" unicode="9" 
d="M1042 561q-73 -276 -237.5 -434t-374.5 -158q-163 0 -260.5 88t-97.5 236q0 32 2 55h178q0 -106 52.5 -163.5t150.5 -57.5q309 0 432 553q-117 -98 -186.5 -131t-178.5 -33q-166 0 -264 95.5t-98 258.5q0 104 40.5 207t111.5 186.5t179.5 136t233.5 52.5
q184 0 291.5 -106t107.5 -271q0 -209 -82 -514zM946 1061q0 102 -70.5 167.5t-175.5 65.5q-150 0 -256 -114.5t-106 -278.5q0 -109 61.5 -168t171.5 -59q156 0 265.5 112.5t109.5 274.5z" />
    <glyph glyph-name="colon" unicode=":" horiz-adv-x="569" 
d="M340 211l-45 -211h-213l45 211h213zM524 1073l-45 -211h-213l29 211h229z" />
    <glyph glyph-name="semicolon" unicode=";" horiz-adv-x="569" 
d="M516 1073l-45 -211h-213l45 211h213zM336 211l-53 -244q-28 -128 -95.5 -198.5t-164.5 -69.5h-13l17 78q74 0 111 48.5t59 174.5h-121l45 211h215z" />
    <glyph glyph-name="less" unicode="&#x3c;" horiz-adv-x="1196" 
d="M918 -141l-685 600v106l685 600v-184l-533 -469l533 -469v-184z" />
    <glyph glyph-name="equal" unicode="=" horiz-adv-x="1196" 
d="M1057 629h-918v139h918v-139zM1057 256h-918v139h918v-139z" />
    <glyph glyph-name="greater" unicode="&#x3e;" horiz-adv-x="1196" 
d="M918 459l-685 -600v184l533 469l-533 469v184l685 -600v-106z" />
    <glyph glyph-name="question" unicode="?" 
d="M1176 1208q0 -119 -70 -225.5t-227 -224.5q-115 -87 -153 -132.5t-60 -121.5l-21 -96h-184l24 112q20 92 66 146t213 188q118 94 166.5 168t48.5 162q0 78 -61 127t-158 49q-135 0 -212.5 -77.5t-111.5 -244.5h-174q47 237 184.5 358.5t358.5 121.5q175 0 273 -88.5
t98 -221.5zM604 211l-45 -211h-184l45 211h184z" />
    <glyph glyph-name="at" unicode="@" horiz-adv-x="2078" 
d="M2019 889q0 -161 -57.5 -305.5t-153 -246t-223 -161t-262.5 -59.5q-97 0 -150 34t-53 95v28q-11 -8 -43.5 -31.5t-40.5 -29t-33.5 -22.5t-33.5 -21t-28.5 -15t-31.5 -13t-29.5 -7.5t-35 -6.5t-35.5 -1q-125 0 -201 78t-76 207q0 113 59 233.5t150 214t209.5 153.5
t229.5 60q185 0 223 -182l74 135h168l-306 -573q-49 -92 -49 -119q0 -29 25 -51.5t59 -22.5q81 0 168 54t154 137t110 190t43 207q0 221 -170.5 366.5t-429.5 145.5q-185 0 -370 -83t-324 -215.5t-226 -308.5t-87 -352q0 -239 173.5 -386.5t454.5 -147.5q169 0 418 65
l27 -137q-238 -86 -502 -86q-147 0 -283 48t-240 132.5t-166.5 210.5t-62.5 273q0 140 45 281.5t125 267.5t195 236t249 189.5t293.5 125t323.5 45.5q207 0 373.5 -81.5t260 -225t93.5 -322.5zM1294 799q0 65 -36 99t-103 34q-99 0 -201.5 -80.5t-167.5 -198t-65 -223.5
q0 -76 44 -126t112 -50q72 0 149.5 60t135 145.5t95 179t37.5 160.5z" />
    <glyph glyph-name="A" unicode="A" horiz-adv-x="1366" 
d="M1235 0h-209l-55 449h-584l-252 -449h-203l850 1493h246zM950 608l-82 682l-391 -682h473z" />
    <glyph glyph-name="B" unicode="B" horiz-adv-x="1366" 
d="M1274 528q0 -149 -74 -271t-197 -189.5t-268 -67.5h-676l318 1493h606q172 0 271.5 -80.5t99.5 -216.5t-72.5 -243t-206.5 -167q107 -46 153 -105t46 -153zM1157 1149q0 91 -61.5 133.5t-192.5 42.5h-368l-103 -475h369q176 0 266 82t90 217zM1077 496q0 91 -55.5 138.5
t-161.5 47.5h-463l-110 -514h465q142 0 233.5 92.5t91.5 235.5z" />
    <glyph glyph-name="C" unicode="C" horiz-adv-x="1478" 
d="M1403 545q-130 -310 -306 -446t-446 -136q-243 0 -382.5 148t-139.5 395q0 193 70.5 391t191.5 344q240 289 598 289q217 0 345.5 -127.5t140.5 -372.5h-197q-12 168 -91 251t-233 83q-277 0 -462 -272q-78 -117 -122 -263t-44 -286q0 -186 97 -300t257 -114
q131 0 225 44.5t162 132t135 239.5h201z" />
    <glyph glyph-name="D" unicode="D" horiz-adv-x="1478" 
d="M1452 999q0 -207 -62 -393t-168.5 -318.5t-253.5 -210t-311 -77.5h-577l317 1493h578q223 0 350 -138.5t127 -355.5zM1255 983q0 160 -93 251t-257 91h-350l-248 -1157h352q175 0 311.5 105.5t210.5 291t74 418.5z" />
    <glyph glyph-name="E" unicode="E" horiz-adv-x="1366" 
d="M1153 0h-1071l317 1493h1037l-35 -168h-844l-102 -477h811l-37 -168h-809l-111 -512h879z" />
    <glyph glyph-name="F" unicode="F" horiz-adv-x="1251" 
d="M1366 1325h-809l-102 -477h710l-35 -168h-710l-146 -680h-192l317 1493h1002z" />
    <glyph glyph-name="G" unicode="G" horiz-adv-x="1593" 
d="M1522 788l-168 -788h-121l-10 176q-142 -120 -265 -166.5t-284 -46.5q-248 0 -399.5 154t-151.5 428q0 143 42 286t123 268t190.5 222t254 153t303.5 56q239 0 378.5 -124.5t139.5 -330.5v-12v-23h-186q-3 153 -105.5 238.5t-263.5 85.5q-143 0 -270.5 -65.5
t-216.5 -173.5t-141 -251.5t-52 -295.5q0 -216 106 -332.5t316 -116.5q201 0 360 120.5t204 317.5l12 54h-455l37 167h623z" />
    <glyph glyph-name="H" unicode="H" horiz-adv-x="1478" 
d="M1534 1493l-317 -1493h-193l145 680h-763l-146 -680h-192l317 1493h193l-138 -645h764l137 645h193z" />
    <glyph glyph-name="I" unicode="I" horiz-adv-x="569" 
d="M612 1493l-317 -1493h-193l318 1493h192z" />
    <glyph glyph-name="J" unicode="J" horiz-adv-x="1024" 
d="M852 383q-43 -201 -178 -310.5t-338 -109.5q-160 0 -250 85.5t-90 211.5q0 46 12 98l27 121h192l-26 -125q-8 -33 -8 -69q0 -69 50.5 -112.5t133.5 -43.5q114 0 187 76t110 248l221 1040h192z" />
    <glyph glyph-name="K" unicode="K" horiz-adv-x="1366" 
d="M1563 1493l-740 -610l422 -883h-225l-344 770l-316 -260l-108 -510h-193l318 1493h192l-161 -764l909 764h246z" />
    <glyph glyph-name="L" unicode="L" 
d="M991 0h-930l318 1493h192l-282 -1325h737z" />
    <glyph glyph-name="M" unicode="M" horiz-adv-x="1705" 
d="M1774 1493l-318 -1493h-182l264 1239l-684 -1239h-199l-157 1239l-265 -1239h-182l318 1493h264l164 -1284l708 1284h269z" />
    <glyph glyph-name="N" unicode="N" horiz-adv-x="1478" 
d="M1538 1493l-317 -1493h-217l-510 1210l-258 -1210h-183l318 1493h213l512 -1225l260 1225h182z" />
    <glyph glyph-name="O" unicode="O" horiz-adv-x="1593" 
d="M1595 963q0 -154 -40.5 -301.5t-119 -273.5t-185.5 -221.5t-249 -149.5t-301 -54q-274 0 -430.5 152.5t-156.5 433.5q0 124 31.5 247.5t87.5 231t137.5 200.5t178 159.5t213 104.5t238.5 38q279 0 437.5 -149.5t158.5 -417.5zM1399 926q0 207 -113.5 322.5t-310.5 115.5
q-142 0 -267.5 -67.5t-212 -178.5t-136.5 -255.5t-50 -297.5q0 -207 114 -321.5t304 -114.5q143 0 270 67.5t214 178t137.5 255t50.5 296.5z" />
    <glyph glyph-name="P" unicode="P" horiz-adv-x="1366" 
d="M1399 1163q0 -138 -64.5 -259t-185 -196t-270.5 -75h-467l-136 -633h-192l317 1493h619q187 0 283 -83.5t96 -246.5zM1202 1126q0 97 -63 148t-183 51h-397l-113 -524h398q157 0 257.5 94t100.5 231z" />
    <glyph glyph-name="Q" unicode="Q" horiz-adv-x="1593" 
d="M1401 8l-123 -119l-178 179q-113 -60 -198.5 -82.5t-203.5 -22.5q-276 0 -430.5 155.5t-154.5 432.5q0 148 42.5 292.5t123 267.5t187.5 217.5t245.5 148t287.5 53.5q282 0 439 -154t157 -430q0 -221 -92.5 -424t-261.5 -356zM1399 926q0 209 -114.5 323.5t-309.5 114.5
q-141 0 -266.5 -67.5t-212 -178.5t-137 -255.5t-50.5 -295.5q0 -206 113.5 -322t314.5 -116q63 0 116 12.5t128 46.5l-127 127l119 115l151 -149q133 129 204 295.5t71 349.5z" />
    <glyph glyph-name="R" unicode="R" horiz-adv-x="1478" 
d="M1298 47l-10 -47h-231q-8 57 -8 96q0 49 6 83t43 188q16 72 16 122q0 75 -53.5 114.5t-153.5 39.5h-489l-137 -643h-193l318 1493h688q197 0 289 -76t92 -239q0 -152 -70 -255.5t-217 -185.5q72 -47 97.5 -88t25.5 -108q0 -62 -43 -283q-13 -70 -13 -102q0 -69 43 -109z
M1278 1143q0 93 -56 137.5t-188 44.5h-471l-110 -514h473q171 0 261.5 93t90.5 239z" />
    <glyph glyph-name="S" unicode="S" horiz-adv-x="1366" 
d="M1270 496q0 -86 -50 -187.5t-128 -173.5q-184 -172 -517 -172q-232 0 -362.5 104t-130.5 289q0 61 18 129h179q-9 -59 -9 -84q0 -139 82.5 -205.5t255.5 -66.5q205 0 335 89.5t130 219.5q0 72 -54.5 121t-176.5 84l-350 100q-103 29 -165.5 105t-62.5 172q0 78 42.5 175
t105.5 161q168 174 487 174q214 0 338.5 -95.5t124.5 -252.5q0 -39 -16 -115h-181q9 61 9 74q0 223 -312 223q-176 0 -288.5 -83t-112.5 -208q0 -67 44 -104.5t163 -71.5l352 -100q115 -34 182.5 -116t67.5 -185z" />
    <glyph glyph-name="T" unicode="T" horiz-adv-x="1251" 
d="M1395 1325h-488l-282 -1325h-193l283 1325h-494l35 168h1174z" />
    <glyph glyph-name="U" unicode="U" horiz-adv-x="1478" 
d="M1536 1493l-221 -1038q-47 -224 -230.5 -358t-441.5 -134q-219 0 -354 102.5t-135 262.5q0 60 28 196l207 969h193l-222 -1038q-10 -41 -10 -90q0 -106 91 -171t239 -65q173 0 291.5 87t150.5 239l221 1038h193z" />
    <glyph glyph-name="V" unicode="V" horiz-adv-x="1366" 
d="M1536 1493l-836 -1493h-204l-220 1493h199l170 -1264l688 1264h203z" />
    <glyph glyph-name="W" unicode="W" horiz-adv-x="1933" 
d="M2118 1493l-697 -1493h-209l-84 1212l-593 -1212h-275v1493h236v-1212l589 1212h197l84 -1212l539 1212h213z" />
    <glyph glyph-name="X" unicode="X" horiz-adv-x="1366" 
d="M1229 0h-236l-274 623l-541 -623h-235l694 766l-342 727h231l256 -584l508 584h234l-662 -727z" />
    <glyph glyph-name="Y" unicode="Y" horiz-adv-x="1366" 
d="M1569 1493l-754 -907l-125 -586h-192l125 586l-381 907h229l279 -731l591 731h228z" />
    <glyph glyph-name="Z" unicode="Z" horiz-adv-x="1251" 
d="M1094 0h-1139l37 172l1136 1153h-831l35 168h1075l-37 -172l-1139 -1153h897z" />
    <glyph glyph-name="bracketleft" unicode="[" horiz-adv-x="569" 
d="M696 1346h-209l-348 -1635h209l-31 -147h-380l409 1929h381z" />
    <glyph glyph-name="backslash" unicode="\" horiz-adv-x="569" 
d="M471 -41h-113l-159 1534h112z" />
    <glyph glyph-name="bracketright" unicode="]" horiz-adv-x="569" 
d="M233 -436h-383l31 147h211l348 1635h-211l31 147h383z" />
    <glyph glyph-name="asciicircum" unicode="^" horiz-adv-x="960" 
d="M913 674h-141l-119 612l-372 -612h-148l479 778h150z" />
    <glyph glyph-name="underscore" unicode="_" 
d="M1026 -260l-22 -102h-1227l22 102h1227z" />
    <glyph glyph-name="grave" unicode="`" horiz-adv-x="681" 
d="M553 1190h-123l-240 303h230z" />
    <glyph glyph-name="a" unicode="a" 
d="M1008 0q-26 -4 -47 -8.5t-28.5 -6t-15.5 -2.5t-18 -1q-80 0 -121 23.5t-41 82.5l2 31q-109 -91 -202 -120.5t-207 -29.5q-139 0 -218 66t-79 188q0 89 43 162.5t123 124.5q74 47 162.5 67t297.5 41q110 9 153.5 34t53.5 87l6 37q1 6 2 15t2 14.5t1 9.5q0 57 -62.5 94
t-155.5 37q-114 0 -181.5 -46t-98.5 -144h-172q29 170 156.5 259t341.5 89q161 0 258.5 -64t97.5 -168q0 -20 -12 -75l-125 -588q-2 -6 -2 -21q0 -59 77 -59q17 0 35 4zM821 528q-64 -22 -104 -29.5t-195 -29.5q-163 -23 -236 -76t-73 -149q0 -127 184 -127q135 0 251 70
t136 165z" />
    <glyph glyph-name="b" unicode="b" 
d="M1102 702q0 -109 -26.5 -216t-78.5 -200t-123.5 -164t-167 -112t-202.5 -41q-111 0 -184.5 47.5t-120.5 151.5l-37 -168h-154l318 1493h172l-119 -563q98 104 172.5 139t187.5 35q155 0 259 -115t104 -287zM922 664q0 132 -64 207t-176 75q-79 0 -152.5 -43t-129 -117
t-88.5 -179.5t-33 -223.5q0 -120 62 -188t167 -68q110 0 205 70t152 194t57 273z" />
    <glyph glyph-name="c" unicode="c" horiz-adv-x="1024" 
d="M958 369q-61 -213 -187.5 -306.5t-330.5 -93.5q-176 0 -280.5 108.5t-104.5 278.5q0 215 77 385t219.5 266.5t326.5 96.5q157 0 255.5 -89.5t98.5 -211.5q0 -3 -0.5 -10.5l-1.5 -22.5t-2 -27l-2 -30h-172q2 18 2 45q0 88 -56 138t-153 50q-119 0 -214.5 -81.5
t-146 -210.5t-50.5 -275q0 -119 63 -185.5t170 -66.5q229 0 317 242h172z" />
    <glyph glyph-name="d" unicode="d" 
d="M1229 1493l-318 -1493h-166l35 164q-44 -86 -155.5 -140.5t-223.5 -54.5q-161 0 -256.5 104t-95.5 283q0 160 45 299t123 237.5t188 155t236 56.5q108 0 175.5 -43t117.5 -143l123 575h172zM866 670q0 131 -63.5 203.5t-177.5 72.5q-109 0 -200.5 -76.5t-143.5 -202.5
t-52 -270q0 -131 63.5 -200.5t178.5 -69.5q106 0 197.5 75t144.5 200t53 268z" />
    <glyph glyph-name="e" unicode="e" 
d="M1053 487h-791q-13 -49 -10 -94q0 -129 66.5 -197.5t189.5 -68.5q101 0 181.5 52t133.5 147h172q-47 -164 -188.5 -260.5t-327.5 -96.5q-182 0 -294.5 114t-112.5 279q0 124 49 274t121 247q76 103 197 162t255 59q166 0 278.5 -101t112.5 -249q0 -88 -28 -240zM901 635
q4 50 4 59q0 116 -64 184t-173 68q-124 0 -227.5 -87.5t-141.5 -223.5h602z" />
    <glyph glyph-name="f" unicode="f" horiz-adv-x="569" 
d="M627 936h-176l-199 -936h-172l199 936h-144l29 137h143l39 182q25 114 106 179t199 65q46 0 92 -10l-30 -141q-29 4 -56 4q-66 0 -98 -30.5t-49 -107.5l-31 -141h176z" />
    <glyph glyph-name="g" unicode="g" 
d="M938 174q-41 -194 -88.5 -301.5t-124.5 -181.5q-69 -66 -173 -101.5t-226 -35.5q-165 0 -264 71t-99 189q0 20 2 36l2 27h172v-29q0 -69 58.5 -108t162.5 -39q163 0 253.5 90t134.5 299l8 41q-156 -162 -353 -162q-157 0 -255.5 105t-98.5 272q0 117 28 229t82 207
t126.5 167.5t167.5 113.5t200 41q197 0 285 -191l35 160h155zM858 694q0 115 -59 183.5t-158 68.5q-117 0 -213 -82t-147.5 -211.5t-51.5 -273.5q0 -121 60.5 -191.5t163.5 -70.5q118 0 212 81.5t143.5 212.5t49.5 283z" />
    <glyph glyph-name="h" unicode="h" 
d="M1065 770l-164 -770h-172l150 702q12 55 12 80q0 78 -48 126t-126 48q-140 0 -242 -98t-137 -266l-125 -592h-172l317 1493h172l-116 -553q97 91 182.5 127.5t200.5 36.5q129 0 202.5 -68.5t73.5 -189.5q0 -40 -8 -76z" />
    <glyph glyph-name="i" unicode="i" horiz-adv-x="454" 
d="M211 0h-172l227 1073h172zM537 1448l-45 -211h-213l45 211h213z" />
    <glyph glyph-name="j" unicode="j" horiz-adv-x="454" 
d="M164 -223q-28 -126 -106 -174.5t-255 -48.5q-18 0 -39 6l31 145q37 -4 51 -4q78 0 109.5 28.5t50.5 114.5l260 1229h172zM537 1448l-45 -211h-213l45 211h213z" />
    <glyph glyph-name="k" unicode="k" horiz-adv-x="1024" 
d="M926 0h-197l-233 596l-220 -180l-88 -416h-172l318 1493h172l-184 -866l550 446h222l-455 -371z" />
    <glyph glyph-name="l" unicode="l" horiz-adv-x="454" 
d="M526 1493l-317 -1493h-172l317 1493h172z" />
    <glyph glyph-name="m" unicode="m" horiz-adv-x="1705" 
d="M1468 0h-172l148 698q18 70 18 101q0 73 -41.5 115t-113.5 42q-112 0 -204.5 -81t-117.5 -201l-143 -674h-172l157 739q9 40 9 76q0 63 -46.5 102t-121.5 39q-103 0 -194 -82.5t-116 -199.5l-143 -674h-172l227 1073h156l-27 -133q98 92 179 128t186 36q199 0 248 -170
q176 170 370 170q125 0 192.5 -69t67.5 -158q0 -67 -12 -113z" />
    <glyph glyph-name="n" unicode="n" 
d="M1065 770l-164 -770h-172l152 715q12 66 12 76q0 71 -51 118t-127 47q-138 0 -240 -98t-137 -266l-125 -592h-172l227 1073h156l-27 -133q159 164 398 164q127 0 202.5 -69.5t75.5 -186.5q0 -42 -8 -78z" />
    <glyph glyph-name="o" unicode="o" 
d="M1077 721q0 -212 -77.5 -383t-220.5 -270t-326 -99q-173 0 -281.5 103t-108.5 272q0 152 43.5 290t122 242.5t196.5 166t259 61.5q180 0 286.5 -108t106.5 -275zM897 682q0 125 -63 194.5t-177 69.5q-118 0 -213.5 -78.5t-147.5 -206.5t-52 -276q0 -122 63.5 -190
t173.5 -68q119 0 215 75t148.5 201.5t52.5 278.5z" />
    <glyph glyph-name="p" unicode="p" 
d="M1098 705q0 -204 -74.5 -371.5t-211.5 -266t-308 -98.5q-108 0 -176.5 42t-118.5 136l-125 -583h-172l321 1509h166l-37 -172q40 86 153.5 144.5t225.5 58.5q164 0 260.5 -107.5t96.5 -291.5zM918 664q0 132 -64.5 207t-179.5 75q-109 0 -202 -79.5t-145.5 -208.5
t-52.5 -273q0 -122 66 -190t180 -68q112 0 204.5 75t143 198t50.5 264z" />
    <glyph glyph-name="q" unicode="q" 
d="M1141 1073l-322 -1509h-172l123 571q-106 -102 -176.5 -134t-183.5 -32q-156 0 -260.5 111t-104.5 282q0 138 42.5 270t118.5 237.5t191.5 170t249.5 64.5q112 0 189 -53.5t112 -153.5l39 176h154zM868 682q0 121 -61 192.5t-164 71.5q-172 0 -295 -160.5t-123 -396.5
q0 -122 66 -192t176 -70q105 0 196.5 70t148 199t56.5 286z" />
    <glyph glyph-name="r" unicode="r" horiz-adv-x="681" 
d="M754 924h-21q-160 0 -262.5 -93t-140.5 -274l-119 -557h-172l227 1073h156l-35 -168q95 109 172 154t166 45q25 0 66 -6z" />
    <glyph glyph-name="s" unicode="s" horiz-adv-x="1024" 
d="M911 371q0 -183 -137 -292.5t-366 -109.5q-179 0 -280 69.5t-101 192.5q0 49 12 105h182q-4 -40 -4 -51q0 -76 57.5 -117t163.5 -41q121 0 207 55.5t86 141.5q0 40 -28 69t-115 51l-152 39q-158 40 -220 93t-62 147q0 165 131 273t342 108q149 0 242.5 -67.5t93.5 -174.5
q0 -32 -13 -88h-172q2 16 2 45q0 60 -49 93.5t-139 33.5q-116 0 -187 -49.5t-71 -128.5t174 -123l156 -39q135 -34 191 -87.5t56 -147.5z" />
    <glyph glyph-name="t" unicode="t" horiz-adv-x="569" 
d="M451 150l-33 -150q-51 -14 -133 -14q-85 0 -134 43t-49 118q0 29 7 64l155 725h-145l28 137h146l63 295h172l-63 -295h182l-29 -137h-182l-153 -719q-4 -24 -4 -29q0 -25 19.5 -40t53.5 -15q22 0 99 17z" />
    <glyph glyph-name="u" unicode="u" 
d="M887 0h-156l27 125q-89 -81 -182 -118.5t-211 -37.5q-132 0 -207.5 60t-75.5 164q0 39 6 69l172 811h172l-158 -743q-6 -30 -6 -56q0 -72 50 -114.5t133 -42.5q131 0 231 99.5t135 264.5l125 592h172z" />
    <glyph glyph-name="v" unicode="v" horiz-adv-x="1024" 
d="M1122 1073l-637 -1073h-186l-152 1073h189l100 -864l500 864h186z" />
    <glyph glyph-name="w" unicode="w" horiz-adv-x="1478" 
d="M1577 1073l-541 -1073h-219v856l-399 -856h-197l-82 1073h226v-835l387 835h237v-835l402 835h186z" />
    <glyph glyph-name="x" unicode="x" horiz-adv-x="1024" 
d="M866 0h-192l-185 410l-356 -410h-201l490 547l-242 526h191l180 -393l342 393h199l-478 -526z" />
    <glyph glyph-name="y" unicode="y" horiz-adv-x="1024" 
d="M1106 1073l-754 -1298q-66 -114 -147.5 -167.5t-190.5 -53.5q-54 0 -100 20l33 154q83 -9 90 -9q57 0 90 21.5t74 85.5l106 166l-139 1081h184l94 -833l478 833h182z" />
    <glyph glyph-name="z" unicode="z" horiz-adv-x="1024" 
d="M836 0h-875l37 152l809 774h-602l31 147h802l-37 -153l-802 -773h667z" />
    <glyph glyph-name="braceleft" unicode="{" horiz-adv-x="684" 
d="M371 -436h-97q-83 0 -129.5 42.5t-46.5 119.5q0 50 13 110l71 340q19 87 19 137q0 62 -30 99.5t-87 46.5l31 141q90 15 138.5 80t78.5 203l74 340q30 135 103.5 202.5t174.5 67.5h96l-28 -133h-33q-76 0 -109.5 -28.5t-50.5 -108.5l-80 -371q-22 -109 -78.5 -192
t-142.5 -130q57 -37 77.5 -78.5t20.5 -119.5q0 -66 -12 -125l-80 -371q-8 -33 -8 -67q0 -37 26.5 -53.5t84.5 -16.5h32z" />
    <glyph glyph-name="bar" unicode="|" horiz-adv-x="532" 
d="M336 -436h-139v1929h139v-1929z" />
    <glyph glyph-name="braceright" unicode="}" horiz-adv-x="684" 
d="M561 600l-31 -143q-174 -26 -217 -283l-73 -340q-31 -142 -100.5 -206t-178.5 -64h-96l29 133h32q76 0 109.5 28.5t50.5 108.5l80 371q26 138 73 206t148 115q-98 85 -98 215q0 53 12 111l80 371q8 33 8 67q0 37 -26 53.5t-84 16.5h-33l28 133h97q78 0 127 -46.5
t49 -121.5q0 -43 -12 -102l-72 -340q-19 -97 -19 -148q0 -57 30 -91.5t87 -43.5z" />
    <glyph glyph-name="asciitilde" unicode="~" horiz-adv-x="1196" 
d="M1114 842q-24 -138 -100 -215.5t-178 -77.5q-83 0 -152 53l-174 129q-45 31 -80 31q-95 0 -145 -162h-107q38 144 111 220.5t172 76.5q53 0 104 -33l209 -141q52 -35 96 -35q54 0 87.5 37.5t50.5 116.5h106z" />
    <glyph glyph-name="uni00A0" unicode="&#xa0;" horiz-adv-x="569" 
 />
    <glyph glyph-name="exclamdown" unicode="&#xa1;" horiz-adv-x="569" 
d="M178 -420h-172l152 717l137 432h82l-47 -432zM496 1073l-45 -211h-172l45 211h172z" />
    <glyph glyph-name="cent" unicode="&#xa2;" 
d="M1022 369q-54 -202 -175.5 -303t-326.5 -113l-43 -199h-82l43 201q-158 17 -251 124t-93 271q0 198 70.5 362t205.5 268t312 122l39 184h82l-39 -184q135 0 233.5 -88t98.5 -211q0 -3 -0.5 -10.5l-1.5 -22.5t-2 -27l-2 -30h-172q2 18 2 47q0 157 -164 184l-25 4
l-178 -839q109 12 179.5 73.5t117.5 186.5h172zM473 115l174 827q-109 -20 -195.5 -106.5t-132 -208t-45.5 -252.5q0 -108 53.5 -178t145.5 -82z" />
    <glyph glyph-name="sterling" unicode="&#xa3;" 
d="M1010 63q-134 -110 -291 -110q-56 0 -118.5 16t-166.5 56q-64 22 -129 22q-107 0 -242 -76l-75 135q356 234 356 449q0 36 -20 102h-232l25 113h170q-13 37 -27.5 75.5t-20.5 54.5t-10 37.5t-4 45.5q0 130 81 248.5t215 190t282 71.5q170 0 275.5 -84.5t105.5 -222.5
q0 -51 -19 -168h-180q19 72 19 117q0 92 -64.5 146t-173.5 54q-146 0 -245 -94.5t-99 -232.5q1 -24 -1 -28t3 -23t8 -27.5t14 -40.5t21 -62l18 -57h328l-25 -113h-280l2 -22q4 -54 4 -55q0 -71 -37 -150q-37 -84 -84.5 -130t-216.5 -175q161 80 273 80q52 0 108 -19
q128 -43 209 -43q47 0 87 13.5t105 50.5z" />
    <glyph glyph-name="currency" unicode="&#xa4;" 
d="M1221 1137l-138 -111q78 -117 39 -307q-40 -181 -168 -309l86 -115l-112 -92l-88 119q-143 -113 -328 -113q-182 0 -283 113l-137 -119l-72 92l136 115q-78 126 -37 309q38 188 166 307l-88 111l118 98l93 -115q68 50 152 77.5t167 27.5t155 -27.5t119 -77.5l142 115z
M973 719q31 146 -50.5 254t-226.5 108t-271 -108t-157 -254q-21 -97 7.5 -181.5t100 -135t167.5 -50.5q146 0 271.5 109t158.5 258z" />
    <glyph glyph-name="yen" unicode="&#xa5;" 
d="M1323 1452l-567 -727h315l-22 -104h-353l-34 -158h352l-21 -105h-354l-76 -358h-180l76 358h-357l23 105h356l35 158h-358l22 104h316l-267 727h174l238 -659l508 659h174z" />
    <glyph glyph-name="brokenbar" unicode="&#xa6;" horiz-adv-x="532" 
d="M336 721h-139v772h139v-772zM336 -436h-139v772h139v-772z" />
    <glyph glyph-name="section" unicode="&#xa7;" 
d="M1042 547q0 -133 -81.5 -245t-219.5 -157q34 -46 48 -86t14 -92q0 -71 -34.5 -143t-93 -129.5t-142.5 -94t-175 -36.5q-150 0 -240.5 77t-90.5 205q0 49 22 125h174q-16 -57 -16 -92q0 -69 50.5 -113.5t127.5 -44.5q94 0 161.5 62t67.5 147q0 45 -17.5 78t-59.5 70
l-297 254q-70 60 -99.5 112t-29.5 117q0 62 27.5 132t70.5 120q35 39 68 62t126 73q-53 67 -53 158q0 98 62 188t164.5 144.5t214.5 54.5q138 0 225.5 -77t87.5 -199q0 -21 -3 -35t-11 -42.5t-15 -66.5h-172q21 62 21 105q0 72 -46.5 114.5t-123.5 42.5q-86 0 -150.5 -61
t-64.5 -141q0 -36 17 -61t69 -66l260 -207q103 -83 130 -129t27 -123zM862 473q0 46 -29 96t-79 90l-269 218q-107 -62 -150.5 -116.5t-43.5 -127.5q0 -50 19 -84t71 -80l283 -248q198 103 198 252z" />
    <glyph glyph-name="dieresis" unicode="&#xa8;" horiz-adv-x="681" 
d="M428 1237h-186l45 209h186zM760 1237h-187l45 209h187z" />
    <glyph glyph-name="copyright" unicode="&#xa9;" horiz-adv-x="1509" 
d="M1470 684q0 -193 -96 -357.5t-260.5 -260t-357.5 -95.5q-145 0 -277 56.5t-227.5 152t-152 227.5t-56.5 277t56.5 277t152 228t227.5 153t277 57q193 0 357.5 -96t260.5 -261t96 -358zM1382 684q0 127 -49.5 243.5t-133.5 200.5t-200 133.5t-243 49.5q-170 0 -314 -84
t-227.5 -228.5t-83.5 -314.5t83.5 -314t227.5 -227.5t314 -83.5q127 0 243 49.5t200 133t133.5 199.5t49.5 243zM1157 827h-131q-8 91 -53.5 136t-134.5 45q-158 0 -263 -144q-43 -62 -67 -138.5t-23 -147.5q3 -97 60 -157.5t147 -60.5q112 0 176.5 51t120.5 173h135
q-75 -175 -179.5 -251.5t-268.5 -76.5q-147 0 -233 81t-89 216q-2 105 39 213t111 186q142 160 356 160q132 0 211 -72.5t86 -212.5z" />
    <glyph glyph-name="ordfeminine" unicode="&#xaa;" horiz-adv-x="757" 
d="M729 725l-22 -104h-590l22 104h590zM764 829l-21 -4q-35 -8 -53 -8q-87 0 -96 88q-94 -88 -223 -88q-94 0 -144.5 43t-50.5 121q0 118 103 182q44 28 98.5 41t175.5 25q69 8 89 18.5t30 48.5l4 17q4 20 4 30q0 7 -1 13.5t-8.5 18t-19.5 19.5t-37.5 14.5t-60.5 6.5
q-130 0 -164 -117h-115q37 131 107 176.5t207 45.5q98 0 155.5 -36.5t57.5 -99.5q0 -30 -2 -36l-84 -390l-2 -14q0 -11 11 -20t24 -9q10 1 18 3l16 2zM621 1055l20 104q-42 -14 -104 -22q-77 -11 -125.5 -24t-72.5 -32t-32 -38t-8 -48q0 -75 109 -75q69 0 136.5 43t76.5 92z
" />
    <glyph glyph-name="guillemotleft" unicode="&#xab;" 
d="M492 385l-37 -168l-256 248l39 182l362 250l-37 -170l-248 -172zM911 385l-37 -168l-256 248l39 182l363 250l-37 -170l-248 -172z" />
    <glyph glyph-name="logicalnot" unicode="&#xac;" horiz-adv-x="1196" 
d="M1057 326h-139v303h-779v139h918v-442z" />
    <glyph glyph-name="uni00AD" unicode="&#xad;" horiz-adv-x="681" 
d="M586 492h-490l31 147h489z" />
    <glyph glyph-name="registered" unicode="&#xae;" horiz-adv-x="1509" 
d="M1470 684q0 -193 -96 -357.5t-260.5 -260t-357.5 -95.5q-145 0 -277 56.5t-227.5 152t-152 227.5t-56.5 277t56.5 277t152 228t227.5 153t277 57q193 0 357.5 -96t260.5 -261t96 -358zM1382 684q0 127 -49.5 243.5t-133.5 200.5t-200 133.5t-243 49.5q-170 0 -314 -84
t-227.5 -228.5t-83.5 -314.5t83.5 -314t227.5 -227.5t314 -83.5q127 0 243 49.5t200 133t133.5 199.5t49.5 243zM1167 915q1 -81 -36.5 -136t-118.5 -99q38 -24 51.5 -46.5t13.5 -58.5q0 -34 -22 -153q-6 -34 -6 -53q3 -37 28 -56l-8 -37h-149q-7 47 -7 58q-2 26 1.5 45
t23.5 102q8 31 8 64q0 76 -117 76h-280l-74 -345h-129l174 816h412q120 0 176.5 -43t58.5 -134zM1036 895q-2 46 -34 68t-105 22h-270l-56 -258h271q96 0 146 47t48 121z" />
    <glyph glyph-name="macron" unicode="&#xaf;" horiz-adv-x="681" 
d="M817 1413l-31 -141h-563l31 141h563z" />
    <glyph glyph-name="degree" unicode="&#xb0;" horiz-adv-x="819" 
d="M848 1141q-26 -127 -130.5 -213t-232.5 -86q-127 0 -194 85.5t-41 213.5q28 128 131.5 213.5t230.5 85.5q128 0 196 -86t40 -213zM750 1141q19 82 -28 146.5t-128 64.5t-154 -64t-92 -147q-17 -83 29 -147t127 -64t155 64t91 147z" />
    <glyph glyph-name="plusminus" unicode="&#xb1;" horiz-adv-x="1196" 
d="M1057 582h-389v-318h-140v318h-389v139h389v389h140v-389h389v-139zM1057 0h-918v139h918v-139z" />
    <glyph glyph-name="two.superior" unicode="&#xb2;" horiz-adv-x="681" 
d="M770 1225q-30 -144 -223 -232l-125 -59q-65 -29 -100 -60t-62 -83h412l-23 -105h-547q34 131 95.5 200t203.5 136l119 57q116 55 135 142q12 58 -23 96.5t-100 38.5q-74 0 -121.5 -41t-74.5 -137h-111q34 139 115 206.5t215 67.5q117 0 177 -63.5t38 -163.5z" />
    <glyph glyph-name="three.superior" unicode="&#xb3;" horiz-adv-x="681" 
d="M711 903q-25 -111 -114 -176t-216 -65q-131 0 -188 66.5t-31 189.5h112q-14 -85 16.5 -123.5t112.5 -38.5q75 0 127.5 39t67.5 108q16 79 -29.5 104t-167.5 25l21 92q115 0 161 23t60 86q12 57 -18 90t-93 33q-77 0 -120.5 -37t-61.5 -123h-112q62 256 315 256
q115 0 170 -58.5t33 -158.5q-21 -106 -135 -152q117 -45 90 -180z" />
    <glyph glyph-name="acute" unicode="&#xb4;" horiz-adv-x="681" 
d="M922 1493l-369 -303h-123l262 303h230z" />
    <glyph glyph-name="mu" unicode="&#xb5;" 
d="M1032 100l-28 -129q-27 -5 -51 -10t-34.5 -6.5t-25.5 -1.5q-83 0 -118.5 30t-35.5 101q0 15 6 39q-164 -170 -374 -170q-57 0 -95.5 13.5t-70.5 45.5l-99 -463h-172l324 1524h172l-158 -745q-6 -30 -6 -62q0 -76 47 -120t129 -44q132 0 233 99.5t136 263.5l129 608h172
l-190 -893q-2 -6 -2 -22q0 -64 77 -64q11 0 35 6z" />
    <glyph glyph-name="paragraph" unicode="&#xb6;" horiz-adv-x="1099" 
d="M1284 1493l-29 -131h-114l-367 -1727h-131l367 1727h-170l-367 -1727h-131l190 895q-158 4 -247.5 101t-89.5 262q0 114 48.5 224.5t127.5 192.5t185 132.5t216 50.5h512z" />
    <glyph glyph-name="periodcentered" unicode="&#xb7;" horiz-adv-x="569" 
d="M391 512q0 -44 -31 -75t-75 -31t-75.5 31t-31.5 75t31.5 75t75.5 31t75 -31t31 -75z" />
    <glyph glyph-name="cedilla" unicode="&#xb8;" horiz-adv-x="681" 
d="M438 -248q0 -104 -82.5 -163.5t-214.5 -59.5q-59 0 -111 15t-130 55l57 77q115 -59 193 -59q57 0 93 31.5t36 81.5q0 34 -18.5 55.5t-45.5 21.5q-29 0 -55 -8l-47 13l104 198h105l-64 -121h43q56 0 96.5 -41.5t40.5 -95.5z" />
    <glyph glyph-name="one.superior" unicode="&#xb9;" horiz-adv-x="681" 
d="M475 686h-110l112 533h-178l18 84l27 2q97 6 137 33.5t82 113.5h76z" />
    <glyph glyph-name="ordmasculine" unicode="&#xba;" horiz-adv-x="747" 
d="M692 725l-22 -104h-539l23 104h538zM823 1284q0 -196 -109 -331.5t-280 -135.5q-103 0 -167 62.5t-64 162.5q0 206 106.5 342t276.5 136q113 0 175 -64.5t62 -171.5zM700 1264q0 69 -35.5 109t-97.5 40q-101 0 -171 -98t-70 -240q0 -72 36 -111.5t101 -39.5
q100 0 168.5 98.5t68.5 241.5z" />
    <glyph glyph-name="guillemotright" unicode="&#xbb;" 
d="M551 649l-39 -182l-367 -250l37 170l252 172l-180 170l37 168zM958 649l-38 -182l-367 -250l37 170l252 172l-180 170l36 168z" />
    <glyph glyph-name="onequarter" unicode="&#xbc;" horiz-adv-x="1708" 
d="M498 686h-111l113 533h-178l18 84l27 2q97 6 137 33.5t82 113.5h76zM1602 1452l-1246 -1503h-118l1245 1503h119zM1507 180h-121l-38 -180h-111l39 180h-340l22 107l469 479h82l-102 -490h121zM1296 276l64 306l-297 -306h233z" />
    <glyph glyph-name="onehalf" unicode="&#xbd;" horiz-adv-x="1708" 
d="M498 686h-111l113 533h-178l18 84l27 2q97 6 137 33.5t82 113.5h76zM1511 1452l-1245 -1503h-119l1246 1503h118zM1575 539q-30 -144 -223 -232l-125 -59q-65 -29 -100 -60.5t-62 -83.5h412l-23 -104h-547q34 130 95 199.5t204 138.5l117 55q119 55 135 142
q13 58 -22 96.5t-101 38.5q-73 0 -120 -41t-74 -137h-113q34 139 115 206.5t215 67.5q117 0 178 -63.5t39 -163.5z" />
    <glyph glyph-name="threequarters" unicode="&#xbe;" horiz-adv-x="1708" 
d="M772 903q-25 -111 -114 -176t-216 -65q-131 0 -188 66.5t-31 189.5h113q-14 -85 16.5 -123.5t112.5 -38.5q75 0 127 39t67 108q16 79 -29 104t-167 25l20 92q115 0 161.5 23t60.5 86q12 57 -18 90t-93 33q-77 0 -120.5 -37t-61.5 -123h-113q62 256 315 256
q115 0 170 -58.5t33 -158.5q-21 -106 -135 -152q117 -45 90 -180zM1642 1452l-1245 -1503h-118l1245 1503h118zM1487 180h-121l-39 -180h-110l38 180h-340l23 107l469 479h82l-103 -490h121zM1276 276l63 306l-297 -306h234z" />
    <glyph glyph-name="questiondown" unicode="&#xbf;" 
d="M899 35q-47 -236 -184.5 -357.5t-358.5 -121.5q-175 0 -272.5 88t-97.5 221q0 119 70 225.5t227 224.5q115 87 153 132.5t60 121.5l20 97h184l-24 -113q-20 -92 -66 -146t-213 -188q-118 -94 -166.5 -168t-48.5 -162q0 -78 61 -127t158 -49q135 0 212.5 77.5t111.5 244.5
h174zM786 1073l-45 -211h-184l45 211h184z" />
    <glyph glyph-name="Agrave" unicode="&#xc0;" horiz-adv-x="1366" 
d="M1235 0h-209l-55 449h-584l-252 -449h-203l850 1493h246zM950 608l-82 682l-391 -682h473zM1001 1604h-147l-326 272h275z" />
    <glyph glyph-name="Aacute" unicode="&#xc1;" horiz-adv-x="1366" 
d="M1235 0h-209l-55 449h-584l-252 -449h-203l850 1493h246zM950 608l-82 682l-391 -682h473zM1444 1876l-443 -272h-147l315 272h275z" />
    <glyph glyph-name="Acircumflex" unicode="&#xc2;" horiz-adv-x="1366" 
d="M1235 0h-209l-55 449h-584l-252 -449h-203l850 1493h246zM950 608l-82 682l-391 -682h473zM1280 1604h-154l-137 182l-256 -182h-158l316 276h233z" />
    <glyph glyph-name="Atilde" unicode="&#xc3;" horiz-adv-x="1366" 
d="M1235 0h-209l-55 449h-584l-252 -449h-203l850 1493h246zM950 608l-82 682l-391 -682h473zM1292 1851q-32 -100 -92 -159.5t-129 -59.5q-34 0 -73.5 10t-137.5 44q-34 12 -55 12q-34 0 -53 -14t-50 -54h-108q38 113 88 162t125 49q14 0 132 -32.5t146 -32.5q31 0 51 15.5
t48 59.5h108z" />
    <glyph glyph-name="Adieresis" unicode="&#xc4;" horiz-adv-x="1366" 
d="M1235 0h-209l-55 449h-584l-252 -449h-203l850 1493h246zM950 608l-82 682l-391 -682h473zM862 1636h-186l45 209h186zM1194 1636h-186l45 209h186z" />
    <glyph glyph-name="Aring" unicode="&#xc5;" horiz-adv-x="1366" 
d="M1235 0h-209l-55 449h-584l-252 -449h-203l850 1493h246zM950 608l-82 682l-391 -682h473zM1167 1819q0 -95 -74.5 -169.5t-170.5 -74.5q-67 0 -113.5 46t-46.5 112q0 89 76 162t168 73q69 0 115 -43t46 -106zM1065 1790q0 34 -22 57t-54 23q-47 0 -85 -37t-38 -80
q0 -35 22 -57.5t56 -22.5q45 0 83 37t38 80z" />
    <glyph glyph-name="AE" unicode="&#xc6;" horiz-adv-x="2048" 
d="M1843 0h-987l92 438h-551l-266 -438h-211l930 1493h1274l-35 -168h-760l-100 -477h719l-37 -168h-719l-109 -512h795zM985 604l152 721h-205l-434 -721h487z" />
    <glyph glyph-name="Ccedilla" unicode="&#xc7;" horiz-adv-x="1478" 
d="M1403 545q-125 -295 -288 -431.5t-408 -148.5l-39 -76h43q56 0 96.5 -41.5t40.5 -95.5q0 -104 -82.5 -163.5t-214.5 -59.5q-59 0 -111.5 15t-130.5 55l58 77q115 -59 192 -59q57 0 93 31.5t36 81.5q0 35 -18 56t-45 21q-30 0 -56 -8l-47 13l80 153q-221 15 -347 161
t-126 380q0 193 70.5 391t191.5 344q240 289 598 289q217 0 345.5 -127.5t140.5 -372.5h-197q-12 168 -91 251t-233 83q-277 0 -462 -272q-78 -117 -122 -263t-44 -286q0 -186 97 -300t257 -114q131 0 225 44.5t162 132t135 239.5h201z" />
    <glyph glyph-name="Egrave" unicode="&#xc8;" horiz-adv-x="1366" 
d="M1153 0h-1071l317 1493h1037l-35 -168h-844l-102 -477h811l-37 -168h-809l-111 -512h879zM1014 1604h-148l-325 272h274z" />
    <glyph glyph-name="Eacute" unicode="&#xc9;" horiz-adv-x="1366" 
d="M1153 0h-1071l317 1493h1037l-35 -168h-844l-102 -477h811l-37 -168h-809l-111 -512h879zM1456 1876l-442 -272h-148l316 272h274z" />
    <glyph glyph-name="Ecircumflex" unicode="&#xca;" horiz-adv-x="1366" 
d="M1153 0h-1071l317 1493h1037l-35 -168h-844l-102 -477h811l-37 -168h-809l-111 -512h879zM1292 1604h-153l-138 182l-256 -182h-157l315 276h234z" />
    <glyph glyph-name="Edieresis" unicode="&#xcb;" horiz-adv-x="1366" 
d="M1153 0h-1071l317 1493h1037l-35 -168h-844l-102 -477h811l-37 -168h-809l-111 -512h879zM874 1636h-186l45 209h187zM1206 1636h-186l45 209h186z" />
    <glyph glyph-name="Igrave" unicode="&#xcc;" horiz-adv-x="569" 
d="M612 1493l-317 -1493h-193l318 1493h192zM635 1604h-148l-325 272h274z" />
    <glyph glyph-name="Iacute" unicode="&#xcd;" horiz-adv-x="569" 
d="M612 1493l-317 -1493h-193l318 1493h192zM1032 1876l-442 -272h-148l316 272h274z" />
    <glyph glyph-name="Icircumflex" unicode="&#xce;" horiz-adv-x="569" 
d="M612 1493l-317 -1493h-193l318 1493h192zM891 1604h-154l-137 182l-256 -182h-158l316 276h233z" />
    <glyph glyph-name="Idieresis" unicode="&#xcf;" horiz-adv-x="569" 
d="M612 1493l-317 -1493h-193l318 1493h192zM473 1636h-186l45 209h186zM805 1636h-187l46 209h186z" />
    <glyph glyph-name="Eth" unicode="&#xd0;" horiz-adv-x="1478" 
d="M1452 999q0 -207 -62 -393t-168.5 -318.5t-253.5 -210t-311 -77.5h-577l147 698h-139l27 138h143l139 657h578q223 0 350 -138.5t127 -355.5zM1255 983q0 161 -93 251.5t-257 90.5h-350l-104 -489h340l-29 -138h-342l-113 -530h352q175 0 311.5 106t210.5 291.5t74 417.5
z" />
    <glyph glyph-name="Ntilde" unicode="&#xd1;" horiz-adv-x="1478" 
d="M1538 1493l-317 -1493h-217l-510 1210l-258 -1210h-183l318 1493h213l512 -1225l260 1225h182zM1341 1851q-32 -100 -92 -159.5t-129 -59.5q-34 0 -73.5 10t-137.5 44q-35 12 -55 12q-34 0 -52.5 -13.5t-49.5 -54.5h-109q38 113 88 162t125 49q14 0 132.5 -32.5
t146.5 -32.5q31 0 50.5 15t47.5 60h108z" />
    <glyph glyph-name="Ograve" unicode="&#xd2;" horiz-adv-x="1593" 
d="M1595 963q0 -154 -40.5 -301.5t-119 -273.5t-185.5 -221.5t-249 -149.5t-301 -54q-274 0 -430.5 152.5t-156.5 433.5q0 124 31.5 247.5t87.5 231t137.5 200.5t178 159.5t213 104.5t238.5 38q279 0 437.5 -149.5t158.5 -417.5zM1399 926q0 207 -113.5 322.5t-310.5 115.5
q-142 0 -267.5 -67.5t-212 -178.5t-136.5 -255.5t-50 -297.5q0 -207 114 -321.5t304 -114.5q143 0 270 67.5t214 178t137.5 255t50.5 296.5zM1090 1604h-148l-326 272h275z" />
    <glyph glyph-name="Oacute" unicode="&#xd3;" horiz-adv-x="1593" 
d="M1595 963q0 -154 -40.5 -301.5t-119 -273.5t-185.5 -221.5t-249 -149.5t-301 -54q-274 0 -430.5 152.5t-156.5 433.5q0 124 31.5 247.5t87.5 231t137.5 200.5t178 159.5t213 104.5t238.5 38q279 0 437.5 -149.5t158.5 -417.5zM1399 926q0 207 -113.5 322.5t-310.5 115.5
q-142 0 -267.5 -67.5t-212 -178.5t-136.5 -255.5t-50 -297.5q0 -207 114 -321.5t304 -114.5q143 0 270 67.5t214 178t137.5 255t50.5 296.5zM1530 1876l-443 -272h-147l315 272h275z" />
    <glyph glyph-name="Ocircumflex" unicode="&#xd4;" horiz-adv-x="1593" 
d="M1595 963q0 -154 -40.5 -301.5t-119 -273.5t-185.5 -221.5t-249 -149.5t-301 -54q-274 0 -430.5 152.5t-156.5 433.5q0 124 31.5 247.5t87.5 231t137.5 200.5t178 159.5t213 104.5t238.5 38q279 0 437.5 -149.5t158.5 -417.5zM1399 926q0 207 -113.5 322.5t-310.5 115.5
q-142 0 -267.5 -67.5t-212 -178.5t-136.5 -255.5t-50 -297.5q0 -207 114 -321.5t304 -114.5q143 0 270 67.5t214 178t137.5 255t50.5 296.5zM1366 1604h-154l-137 182l-256 -182h-157l315 276h233z" />
    <glyph glyph-name="Otilde" unicode="&#xd5;" horiz-adv-x="1593" 
d="M1595 963q0 -154 -40.5 -301.5t-119 -273.5t-185.5 -221.5t-249 -149.5t-301 -54q-274 0 -430.5 152.5t-156.5 433.5q0 124 31.5 247.5t87.5 231t137.5 200.5t178 159.5t213 104.5t238.5 38q279 0 437.5 -149.5t158.5 -417.5zM1399 926q0 207 -113.5 322.5t-310.5 115.5
q-142 0 -267.5 -67.5t-212 -178.5t-136.5 -255.5t-50 -297.5q0 -207 114 -321.5t304 -114.5q143 0 270 67.5t214 178t137.5 255t50.5 296.5zM1380 1851q-32 -100 -92 -159.5t-129 -59.5q-34 0 -73.5 10t-137.5 44q-35 12 -55 12q-34 0 -52.5 -13.5t-49.5 -54.5h-109
q38 113 88 162t125 49q14 0 132.5 -32.5t146.5 -32.5q31 0 50.5 15t47.5 60h108z" />
    <glyph glyph-name="Odieresis" unicode="&#xd6;" horiz-adv-x="1593" 
d="M1595 963q0 -154 -40.5 -301.5t-119 -273.5t-185.5 -221.5t-249 -149.5t-301 -54q-274 0 -430.5 152.5t-156.5 433.5q0 124 31.5 247.5t87.5 231t137.5 200.5t178 159.5t213 104.5t238.5 38q279 0 437.5 -149.5t158.5 -417.5zM1399 926q0 207 -113.5 322.5t-310.5 115.5
q-142 0 -267.5 -67.5t-212 -178.5t-136.5 -255.5t-50 -297.5q0 -207 114 -321.5t304 -114.5q143 0 270 67.5t214 178t137.5 255t50.5 296.5zM950 1636h-186l45 209h186zM1282 1636h-186l45 209h186z" />
    <glyph glyph-name="multiply" unicode="&#xd7;" horiz-adv-x="1196" 
d="M971 238l-99 -99l-274 275l-274 -275l-99 99l275 274l-275 274l99 99l274 -275l274 275l99 -99l-275 -274z" />
    <glyph glyph-name="Oslash" unicode="&#xd8;" horiz-adv-x="1593" 
d="M1724 1450l-202 -178q73 -125 73 -309q0 -154 -40.5 -301.5t-119 -273.5t-185.5 -221.5t-249 -149.5t-301 -54q-299 0 -454 178l-197 -174l-65 76l204 180q-75 135 -75 326q0 124 31.5 247.5t87.5 231t137.5 200.5t178 159.5t213 104.5t238.5 38q306 0 465 -176l193 172z
M1399 926q0 117 -37 204l-965 -856q114 -145 330 -145q143 0 270 67.5t214 178t137.5 255t50.5 296.5zM1311 1219q-111 145 -336 145q-142 0 -267.5 -67.5t-212 -178.5t-136.5 -255.5t-50 -297.5q0 -116 37 -200z" />
    <glyph glyph-name="Ugrave" unicode="&#xd9;" horiz-adv-x="1478" 
d="M1536 1493l-221 -1038q-47 -224 -230.5 -358t-441.5 -134q-219 0 -354 102.5t-135 262.5q0 60 28 196l207 969h193l-222 -1038q-10 -41 -10 -90q0 -106 91 -171t239 -65q173 0 291.5 87t150.5 239l221 1038h193zM1059 1604h-148l-325 272h274z" />
    <glyph glyph-name="Uacute" unicode="&#xda;" horiz-adv-x="1478" 
d="M1536 1493l-221 -1038q-47 -224 -230.5 -358t-441.5 -134q-219 0 -354 102.5t-135 262.5q0 60 28 196l207 969h193l-222 -1038q-10 -41 -10 -90q0 -106 91 -171t239 -65q173 0 291.5 87t150.5 239l221 1038h193zM1501 1876l-442 -272h-148l316 272h274z" />
    <glyph glyph-name="Ucircumflex" unicode="&#xdb;" horiz-adv-x="1478" 
d="M1536 1493l-221 -1038q-47 -224 -230.5 -358t-441.5 -134q-219 0 -354 102.5t-135 262.5q0 60 28 196l207 969h193l-222 -1038q-10 -41 -10 -90q0 -106 91 -171t239 -65q173 0 291.5 87t150.5 239l221 1038h193zM1337 1604h-153l-137 182l-256 -182h-158l315 276h234z
" />
    <glyph glyph-name="Udieresis" unicode="&#xdc;" horiz-adv-x="1478" 
d="M1536 1493l-221 -1038q-47 -224 -230.5 -358t-441.5 -134q-219 0 -354 102.5t-135 262.5q0 60 28 196l207 969h193l-222 -1038q-10 -41 -10 -90q0 -106 91 -171t239 -65q173 0 291.5 87t150.5 239l221 1038h193zM920 1636h-187l45 209h187zM1251 1636h-186l45 209h186z
" />
    <glyph glyph-name="Yacute" unicode="&#xdd;" horiz-adv-x="1366" 
d="M1569 1493l-754 -907l-125 -586h-192l125 586l-381 907h229l279 -731l591 731h228zM1450 1876l-442 -272h-148l316 272h274z" />
    <glyph glyph-name="Thorn" unicode="&#xde;" horiz-adv-x="1366" 
d="M1348 922q0 -138 -64.5 -259t-185.5 -196.5t-271 -75.5h-467l-84 -391h-192l317 1493h193l-51 -242h426q187 0 283 -83t96 -246zM1151 885q0 97 -63 147.5t-183 50.5h-399l-111 -524h398q157 0 257.5 94.5t100.5 231.5z" />
    <glyph glyph-name="germandbls" unicode="&#xdf;" horiz-adv-x="1251" 
d="M1151 449q-47 -225 -199.5 -357.5t-363.5 -132.5q-97 0 -170 8l37 170q82 -10 153 -10q151 0 262 113.5t111 277.5q0 110 -83.5 153.5t-250.5 43.5l35 168q83 0 162.5 31.5t134.5 94t55 140.5q0 84 -73.5 134t-180.5 50q-117 0 -216 -65t-120 -166l-233 -1102h-170
l233 1102q35 168 190.5 279.5t344.5 111.5q111 0 203.5 -37t148.5 -108.5t56 -163.5q0 -118 -77.5 -219.5t-195.5 -143.5q100 -29 157.5 -108.5t57.5 -184.5q0 -43 -8 -79z" />
    <glyph glyph-name="agrave" unicode="&#xe0;" 
d="M1008 0q-26 -4 -47 -8.5t-28.5 -6t-15.5 -2.5t-18 -1q-80 0 -121 23.5t-41 82.5l2 31q-109 -91 -202 -120.5t-207 -29.5q-139 0 -218 66t-79 188q0 89 43 162.5t123 124.5q74 47 162.5 67t297.5 41q110 9 153.5 34t53.5 87l6 37q1 6 2 15t2 14.5t1 9.5q0 57 -62.5 94
t-155.5 37q-114 0 -181.5 -46t-98.5 -144h-172q29 170 156.5 259t341.5 89q161 0 258.5 -64t97.5 -168q0 -20 -12 -75l-125 -588q-2 -6 -2 -21q0 -59 77 -59q17 0 35 4zM821 528q-64 -22 -104 -29.5t-195 -29.5q-163 -23 -236 -76t-73 -149q0 -127 184 -127q135 0 251 70
t136 165zM784 1190h-122l-240 303h229z" />
    <glyph glyph-name="aacute" unicode="&#xe1;" 
d="M1008 0q-26 -4 -47 -8.5t-28.5 -6t-15.5 -2.5t-18 -1q-80 0 -121 23.5t-41 82.5l2 31q-109 -91 -202 -120.5t-207 -29.5q-139 0 -218 66t-79 188q0 89 43 162.5t123 124.5q74 47 162.5 67t297.5 41q110 9 153.5 34t53.5 87l6 37q1 6 2 15t2 14.5t1 9.5q0 57 -62.5 94
t-155.5 37q-114 0 -181.5 -46t-98.5 -144h-172q29 170 156.5 259t341.5 89q161 0 258.5 -64t97.5 -168q0 -20 -12 -75l-125 -588q-2 -6 -2 -21q0 -59 77 -59q17 0 35 4zM821 528q-64 -22 -104 -29.5t-195 -29.5q-163 -23 -236 -76t-73 -149q0 -127 184 -127q135 0 251 70
t136 165zM1151 1493l-369 -303h-123l263 303h229z" />
    <glyph glyph-name="acircumflex" unicode="&#xe2;" 
d="M1008 0q-26 -4 -47 -8.5t-28.5 -6t-15.5 -2.5t-18 -1q-80 0 -121 23.5t-41 82.5l2 31q-109 -91 -202 -120.5t-207 -29.5q-139 0 -218 66t-79 188q0 89 43 162.5t123 124.5q74 47 162.5 67t297.5 41q110 9 153.5 34t53.5 87l6 37q1 6 2 15t2 14.5t1 9.5q0 57 -62.5 94
t-155.5 37q-114 0 -181.5 -46t-98.5 -144h-172q29 170 156.5 259t341.5 89q161 0 258.5 -64t97.5 -168q0 -20 -12 -75l-125 -588q-2 -6 -2 -21q0 -59 77 -59q17 0 35 4zM821 528q-64 -22 -104 -29.5t-195 -29.5q-163 -23 -236 -76t-73 -149q0 -127 184 -127q135 0 251 70
t136 165zM1014 1188h-129l-115 203l-213 -203h-131l262 307h195z" />
    <glyph glyph-name="atilde" unicode="&#xe3;" 
d="M1008 0q-26 -4 -47 -8.5t-28.5 -6t-15.5 -2.5t-18 -1q-80 0 -121 23.5t-41 82.5l2 31q-109 -91 -202 -120.5t-207 -29.5q-139 0 -218 66t-79 188q0 89 43 162.5t123 124.5q74 47 162.5 67t297.5 41q110 9 153.5 34t53.5 87l6 37q1 6 2 15t2 14.5t1 9.5q0 57 -62.5 94
t-155.5 37q-114 0 -181.5 -46t-98.5 -144h-172q29 170 156.5 259t341.5 89q161 0 258.5 -64t97.5 -168q0 -20 -12 -75l-125 -588q-2 -6 -2 -21q0 -59 77 -59q17 0 35 4zM821 528q-64 -22 -104 -29.5t-195 -29.5q-163 -23 -236 -76t-73 -149q0 -127 184 -127q135 0 251 70
t136 165zM1087 1452q-32 -100 -92 -159.5t-129 -59.5q-34 0 -74.5 10t-136.5 43q-35 12 -55 12q-35 0 -53.5 -13.5t-48.5 -53.5h-109q38 113 88 162t125 49q14 0 132.5 -33t146.5 -33q30 0 50 15.5t48 60.5h108z" />
    <glyph glyph-name="adieresis" unicode="&#xe4;" 
d="M1008 0q-26 -4 -47 -8.5t-28.5 -6t-15.5 -2.5t-18 -1q-80 0 -121 23.5t-41 82.5l2 31q-109 -91 -202 -120.5t-207 -29.5q-139 0 -218 66t-79 188q0 89 43 162.5t123 124.5q74 47 162.5 67t297.5 41q110 9 153.5 34t53.5 87l6 37q1 6 2 15t2 14.5t1 9.5q0 57 -62.5 94
t-155.5 37q-114 0 -181.5 -46t-98.5 -144h-172q29 170 156.5 259t341.5 89q161 0 258.5 -64t97.5 -168q0 -20 -12 -75l-125 -588q-2 -6 -2 -21q0 -59 77 -59q17 0 35 4zM821 528q-64 -22 -104 -29.5t-195 -29.5q-163 -23 -236 -76t-73 -149q0 -127 184 -127q135 0 251 70
t136 165zM657 1237h-186l45 209h186zM989 1237h-186l45 209h186z" />
    <glyph glyph-name="aring" unicode="&#xe5;" 
d="M1008 0q-26 -4 -47 -8.5t-28.5 -6t-15.5 -2.5t-18 -1q-80 0 -121 23.5t-41 82.5l2 31q-109 -91 -202 -120.5t-207 -29.5q-139 0 -218 66t-79 188q0 89 43 162.5t123 124.5q74 47 162.5 67t297.5 41q110 9 153.5 34t53.5 87l6 37q1 6 2 15t2 14.5t1 9.5q0 57 -62.5 94
t-155.5 37q-114 0 -181.5 -46t-98.5 -144h-172q29 170 156.5 259t341.5 89q161 0 258.5 -64t97.5 -168q0 -20 -12 -75l-125 -588q-2 -6 -2 -21q0 -59 77 -59q17 0 35 4zM821 528q-64 -22 -104 -29.5t-195 -29.5q-163 -23 -236 -76t-73 -149q0 -127 184 -127q135 0 251 70
t136 165zM956 1389q0 -95 -74 -169.5t-171 -74.5q-67 0 -113.5 46t-46.5 112q0 89 76 162t168 73q69 0 115 -43t46 -106zM854 1360q0 34 -22 57t-54 23q-47 0 -85 -37t-38 -80q0 -35 22 -57.5t56 -22.5q45 0 83 37t38 80z" />
    <glyph glyph-name="ae" unicode="&#xe6;" horiz-adv-x="1820" 
d="M1737 479h-791q-10 -46 -10 -108v-37q3 -75 74 -141t186 -66q100 0 180 52t133 147h172q-46 -157 -190 -257t-328 -100q-123 0 -209.5 51t-146.5 158q-103 -100 -232 -154.5t-262 -54.5q-136 0 -215.5 64t-79.5 182q0 89 45 167t123 128q74 46 162 65.5t293 38.5
q109 9 150.5 34t54.5 91l10 52q4 28 4 38q0 54 -57.5 85.5t-155.5 31.5q-122 0 -189.5 -44.5t-99.5 -145.5h-172q25 89 48.5 137.5t60.5 85.5q61 60 164 92.5t231 32.5q113 0 207 -38t119 -95q69 62 169 97.5t204 35.5q157 0 270 -102.5t113 -243.5q0 -86 -29 -244zM801 526
q-58 -21 -99.5 -29t-191.5 -28q-166 -23 -237.5 -76.5t-71.5 -148.5q0 -127 186 -127q129 0 243 71.5t134 163.5zM1585 627q6 47 6 67q0 116 -63.5 184t-171.5 68q-128 0 -227 -84.5t-146 -234.5h602z" />
    <glyph glyph-name="ccedilla" unicode="&#xe7;" horiz-adv-x="1024" 
d="M958 369q-59 -201 -175 -295.5t-298 -102.5l-43 -82h43q56 0 97 -42t41 -95q0 -104 -82.5 -163.5t-214.5 -59.5q-59 0 -111.5 15t-130.5 55l57 77q115 -59 193 -59q57 0 93 31.5t36 81.5q0 34 -18.5 55.5t-45.5 21.5q-29 0 -55 -8l-47 13l84 161q-151 19 -238.5 123.5
t-87.5 259.5q0 215 77 385t219.5 266.5t326.5 96.5q157 0 255.5 -89.5t98.5 -211.5q0 -3 -0.5 -10.5l-1.5 -22.5t-2 -27l-2 -30h-172q2 18 2 45q0 88 -56 138t-153 50q-119 0 -214.5 -81.5t-146 -210.5t-50.5 -275q0 -119 63 -185.5t170 -66.5q229 0 317 242h172z" />
    <glyph glyph-name="egrave" unicode="&#xe8;" 
d="M1053 487h-791q-13 -49 -10 -94q0 -129 66.5 -197.5t189.5 -68.5q101 0 181.5 52t133.5 147h172q-47 -164 -188.5 -260.5t-327.5 -96.5q-182 0 -294.5 114t-112.5 279q0 124 49 274t121 247q76 103 197 162t255 59q166 0 278.5 -101t112.5 -249q0 -88 -28 -240zM901 635
q4 50 4 59q0 116 -64 184t-173 68q-124 0 -227.5 -87.5t-141.5 -223.5h602zM782 1190h-123l-239 303h229z" />
    <glyph glyph-name="eacute" unicode="&#xe9;" 
d="M1053 487h-791q-13 -49 -10 -94q0 -129 66.5 -197.5t189.5 -68.5q101 0 181.5 52t133.5 147h172q-47 -164 -188.5 -260.5t-327.5 -96.5q-182 0 -294.5 114t-112.5 279q0 124 49 274t121 247q76 103 197 162t255 59q166 0 278.5 -101t112.5 -249q0 -88 -28 -240zM901 635
q4 50 4 59q0 116 -64 184t-173 68q-124 0 -227.5 -87.5t-141.5 -223.5h602zM1149 1493l-369 -303h-123l263 303h229z" />
    <glyph glyph-name="ecircumflex" unicode="&#xea;" 
d="M1053 487h-791q-13 -49 -10 -94q0 -129 66.5 -197.5t189.5 -68.5q101 0 181.5 52t133.5 147h172q-47 -164 -188.5 -260.5t-327.5 -96.5q-182 0 -294.5 114t-112.5 279q0 124 49 274t121 247q76 103 197 162t255 59q166 0 278.5 -101t112.5 -249q0 -88 -28 -240zM901 635
q4 50 4 59q0 116 -64 184t-173 68q-124 0 -227.5 -87.5t-141.5 -223.5h602zM1012 1188h-129l-115 203l-213 -203h-131l262 307h195z" />
    <glyph glyph-name="edieresis" unicode="&#xeb;" 
d="M1053 487h-791q-13 -49 -10 -94q0 -129 66.5 -197.5t189.5 -68.5q101 0 181.5 52t133.5 147h172q-47 -164 -188.5 -260.5t-327.5 -96.5q-182 0 -294.5 114t-112.5 279q0 124 49 274t121 247q76 103 197 162t255 59q166 0 278.5 -101t112.5 -249q0 -88 -28 -240zM901 635
q4 50 4 59q0 116 -64 184t-173 68q-124 0 -227.5 -87.5t-141.5 -223.5h602zM655 1237h-186l45 209h186zM987 1237h-186l45 209h186z" />
    <glyph glyph-name="igrave" unicode="&#xec;" horiz-adv-x="569" 
d="M268 0h-172l228 1073h172zM522 1190h-123l-239 303h229z" />
    <glyph glyph-name="iacute" unicode="&#xed;" horiz-adv-x="569" 
d="M268 0h-172l228 1073h172zM842 1493l-369 -303h-123l262 303h230z" />
    <glyph glyph-name="icircumflex" unicode="&#xee;" horiz-adv-x="569" 
d="M268 0h-172l228 1073h172zM727 1188h-129l-115 203l-213 -203h-131l262 307h195z" />
    <glyph glyph-name="idieresis" unicode="&#xef;" horiz-adv-x="569" 
d="M268 0h-172l228 1073h172zM371 1237h-187l45 209h187zM702 1237h-186l45 209h187z" />
    <glyph glyph-name="eth" unicode="&#xf0;" 
d="M1077 711q0 -204 -77.5 -373t-219.5 -269t-319 -100q-182 0 -288.5 108t-106.5 275q-1 111 24 219.5t75.5 202.5t120.5 165.5t165 113t202 41.5q40 0 66.5 -6.5t68.5 -28.5q-49 63 -82 99.5t-90 88.5l-204 -92l-66 80l182 84q-23 20 -35 29t-18.5 12t-32 20.5t-67.5 49.5
l86 92l45 -29q40 -24 65.5 -40t35.5 -23t30 -22t33 -24l202 89l80 -78l-194 -84q319 -273 319 -600zM897 682q0 125 -63 194.5t-177 69.5q-118 0 -213 -76.5t-146.5 -202.5t-51.5 -274q0 -123 63 -194.5t172 -71.5q119 0 215 75t148.5 201.5t52.5 278.5z" />
    <glyph glyph-name="ntilde" unicode="&#xf1;" 
d="M1065 770l-164 -770h-172l152 715q12 66 12 76q0 71 -51 118t-127 47q-138 0 -240 -98t-137 -266l-125 -592h-172l227 1073h156l-27 -133q159 164 398 164q127 0 202.5 -69.5t75.5 -186.5q0 -42 -8 -78zM1085 1452q-32 -100 -92 -159.5t-129 -59.5q-34 0 -74.5 10
t-136.5 43q-34 12 -55 12q-35 0 -53.5 -13.5t-48.5 -53.5h-109q38 113 88 162t125 49q14 0 132.5 -33t146.5 -33q30 0 50 15.5t48 60.5h108z" />
    <glyph glyph-name="ograve" unicode="&#xf2;" 
d="M1077 721q0 -212 -77.5 -383t-220.5 -270t-326 -99q-173 0 -281.5 103t-108.5 272q0 152 43.5 290t122 242.5t196.5 166t259 61.5q180 0 286.5 -108t106.5 -275zM897 682q0 125 -63 194.5t-177 69.5q-118 0 -213.5 -78.5t-147.5 -206.5t-52 -276q0 -122 63.5 -190
t173.5 -68q119 0 215 75t148.5 201.5t52.5 278.5zM764 1190h-123l-240 303h230z" />
    <glyph glyph-name="oacute" unicode="&#xf3;" 
d="M1077 721q0 -212 -77.5 -383t-220.5 -270t-326 -99q-173 0 -281.5 103t-108.5 272q0 152 43.5 290t122 242.5t196.5 166t259 61.5q180 0 286.5 -108t106.5 -275zM897 682q0 125 -63 194.5t-177 69.5q-118 0 -213.5 -78.5t-147.5 -206.5t-52 -276q0 -122 63.5 -190
t173.5 -68q119 0 215 75t148.5 201.5t52.5 278.5zM1130 1493l-368 -303h-123l262 303h229z" />
    <glyph glyph-name="ocircumflex" unicode="&#xf4;" 
d="M1077 721q0 -212 -77.5 -383t-220.5 -270t-326 -99q-173 0 -281.5 103t-108.5 272q0 152 43.5 290t122 242.5t196.5 166t259 61.5q180 0 286.5 -108t106.5 -275zM897 682q0 125 -63 194.5t-177 69.5q-118 0 -213.5 -78.5t-147.5 -206.5t-52 -276q0 -122 63.5 -190
t173.5 -68q119 0 215 75t148.5 201.5t52.5 278.5zM993 1188h-129l-114 203l-213 -203h-131l262 307h194z" />
    <glyph glyph-name="otilde" unicode="&#xf5;" 
d="M1077 721q0 -212 -77.5 -383t-220.5 -270t-326 -99q-173 0 -281.5 103t-108.5 272q0 152 43.5 290t122 242.5t196.5 166t259 61.5q180 0 286.5 -108t106.5 -275zM897 682q0 125 -63 194.5t-177 69.5q-118 0 -213.5 -78.5t-147.5 -206.5t-52 -276q0 -122 63.5 -190
t173.5 -68q119 0 215 75t148.5 201.5t52.5 278.5zM1067 1452q-32 -100 -92 -159.5t-129 -59.5q-34 0 -74.5 10t-136.5 43q-35 12 -55 12q-35 0 -54 -13.5t-49 -53.5h-108q38 113 88 162t125 49q14 0 132 -33t146 -33q30 0 50 15.5t48 60.5h109z" />
    <glyph glyph-name="odieresis" unicode="&#xf6;" 
d="M1077 721q0 -212 -77.5 -383t-220.5 -270t-326 -99q-173 0 -281.5 103t-108.5 272q0 152 43.5 290t122 242.5t196.5 166t259 61.5q180 0 286.5 -108t106.5 -275zM897 682q0 125 -63 194.5t-177 69.5q-118 0 -213.5 -78.5t-147.5 -206.5t-52 -276q0 -122 63.5 -190
t173.5 -68q119 0 215 75t148.5 201.5t52.5 278.5zM637 1237h-186l45 209h186zM969 1237h-187l45 209h187z" />
    <glyph glyph-name="divide" unicode="&#xf7;" horiz-adv-x="1196" 
d="M1057 442h-918v140h918v-140zM705 885q0 -43 -31.5 -75t-75.5 -32t-75 32t-31 75q0 44 31 75t75 31t75.5 -31t31.5 -75zM705 139q0 -44 -31.5 -75t-75.5 -31t-75 31t-31 75q0 43 31 75t75 32t75.5 -32t31.5 -75z" />
    <glyph glyph-name="oslash" unicode="&#xf8;" horiz-adv-x="1251" 
d="M1161 1030l-127 -121q43 -82 43 -188q0 -212 -77.5 -383t-220.5 -270t-326 -99q-184 0 -295 117l-115 -106l-63 63l124 119q-41 77 -41 182q0 152 43.5 290t122 242.5t196.5 166t259 61.5q188 0 297 -119l119 109zM897 682q0 42 -10 90l-594 -559q64 -86 188 -86
q119 0 215 75t148.5 201.5t52.5 278.5zM848 858q-63 88 -191 88q-118 0 -213.5 -78.5t-147.5 -206.5t-52 -276q0 -52 10 -86z" />
    <glyph glyph-name="ugrave" unicode="&#xf9;" 
d="M887 0h-156l27 125q-89 -81 -182 -118.5t-211 -37.5q-132 0 -207.5 60t-75.5 164q0 39 6 69l172 811h172l-158 -743q-6 -30 -6 -56q0 -72 50 -114.5t133 -42.5q131 0 231 99.5t135 264.5l125 592h172zM782 1190h-123l-239 303h229z" />
    <glyph glyph-name="uacute" unicode="&#xfa;" 
d="M887 0h-156l27 125q-89 -81 -182 -118.5t-211 -37.5q-132 0 -207.5 60t-75.5 164q0 39 6 69l172 811h172l-158 -743q-6 -30 -6 -56q0 -72 50 -114.5t133 -42.5q131 0 231 99.5t135 264.5l125 592h172zM1149 1493l-369 -303h-123l263 303h229z" />
    <glyph glyph-name="ucircumflex" unicode="&#xfb;" 
d="M887 0h-156l27 125q-89 -81 -182 -118.5t-211 -37.5q-132 0 -207.5 60t-75.5 164q0 39 6 69l172 811h172l-158 -743q-6 -30 -6 -56q0 -72 50 -114.5t133 -42.5q131 0 231 99.5t135 264.5l125 592h172zM1012 1188h-129l-115 203l-213 -203h-131l262 307h195z" />
    <glyph glyph-name="udieresis" unicode="&#xfc;" 
d="M887 0h-156l27 125q-89 -81 -182 -118.5t-211 -37.5q-132 0 -207.5 60t-75.5 164q0 39 6 69l172 811h172l-158 -743q-6 -30 -6 -56q0 -72 50 -114.5t133 -42.5q131 0 231 99.5t135 264.5l125 592h172zM655 1237h-186l45 209h186zM987 1237h-186l45 209h186z" />
    <glyph glyph-name="yacute" unicode="&#xfd;" horiz-adv-x="1024" 
d="M1106 1073l-754 -1298q-66 -114 -147.5 -167.5t-190.5 -53.5q-54 0 -100 20l33 154q83 -9 90 -9q57 0 90 21.5t74 85.5l106 166l-139 1081h184l94 -833l478 833h182zM1092 1493l-369 -303h-123l262 303h230z" />
    <glyph glyph-name="thorn" unicode="&#xfe;" 
d="M1098 705q1 -146 -42.5 -280.5t-121 -235t-190 -160.5t-240.5 -60q-109 0 -177.5 43.5t-115.5 143.5l-127 -592h-172l410 1929h172l-125 -592q46 89 150.5 146t221.5 57q164 0 260.5 -107.5t96.5 -291.5zM918 664q0 132 -64.5 207t-179.5 75q-110 0 -202 -77.5
t-144 -204.5t-52 -271q0 -123 65.5 -194.5t178.5 -71.5q112 0 205.5 79t144 202t48.5 256z" />
    <glyph glyph-name="ydieresis" unicode="&#xff;" horiz-adv-x="1024" 
d="M1106 1073l-754 -1298q-66 -114 -147.5 -167.5t-190.5 -53.5q-54 0 -100 20l33 154q83 -9 90 -9q57 0 90 21.5t74 85.5l106 166l-139 1081h184l94 -833l478 833h182zM598 1237h-186l45 209h186zM930 1237h-187l45 209h187z" />
    <glyph glyph-name="Amacron" unicode="&#x100;" horiz-adv-x="1366" 
d="M1235 0h-209l-55 449h-584l-252 -449h-203l850 1493h246zM950 608l-82 682l-391 -682h473zM1249 1812l-30 -141h-564l31 141h563z" />
    <glyph glyph-name="amacron" unicode="&#x101;" 
d="M1008 0q-26 -4 -47 -8.5t-28.5 -6t-15.5 -2.5t-18 -1q-80 0 -121 23.5t-41 82.5l2 31q-109 -91 -202 -120.5t-207 -29.5q-139 0 -218 66t-79 188q0 89 43 162.5t123 124.5q74 47 162.5 67t297.5 41q110 9 153.5 34t53.5 87l6 37q1 6 2 15t2 14.5t1 9.5q0 57 -62.5 94
t-155.5 37q-114 0 -181.5 -46t-98.5 -144h-172q29 170 156.5 259t341.5 89q161 0 258.5 -64t97.5 -168q0 -20 -12 -75l-125 -588q-2 -6 -2 -21q0 -59 77 -59q17 0 35 4zM821 528q-64 -22 -104 -29.5t-195 -29.5q-163 -23 -236 -76t-73 -149q0 -127 184 -127q135 0 251 70
t136 165zM1047 1413l-31 -141h-563l30 141h564z" />
    <glyph glyph-name="Abreve" unicode="&#x102;" horiz-adv-x="1366" 
d="M1235 0h-209l-55 449h-584l-252 -449h-203l850 1493h246zM950 608l-82 682l-391 -682h473zM1354 1864q-43 -115 -164.5 -179.5t-280.5 -64.5q-134 0 -220.5 55t-86.5 131q0 21 12 58h131v-21q0 -38 55 -61t146 -23q109 0 180.5 28t90.5 77h137z" />
    <glyph glyph-name="abreve" unicode="&#x103;" 
d="M1008 0q-26 -4 -47 -8.5t-28.5 -6t-15.5 -2.5t-18 -1q-80 0 -121 23.5t-41 82.5l2 31q-109 -91 -202 -120.5t-207 -29.5q-139 0 -218 66t-79 188q0 89 43 162.5t123 124.5q74 47 162.5 67t297.5 41q110 9 153.5 34t53.5 87l6 37q1 6 2 15t2 14.5t1 9.5q0 57 -62.5 94
t-155.5 37q-114 0 -181.5 -46t-98.5 -144h-172q29 170 156.5 259t341.5 89q161 0 258.5 -64t97.5 -168q0 -20 -12 -75l-125 -588q-2 -6 -2 -21q0 -59 77 -59q17 0 35 4zM821 528q-64 -22 -104 -29.5t-195 -29.5q-163 -23 -236 -76t-73 -149q0 -127 184 -127q135 0 251 70
t136 165zM1090 1481q-35 -140 -133 -208.5t-234 -68.5q-116 0 -188 56t-72 147q0 25 10 74h109v-27q0 -46 46.5 -74t121.5 -28q91 0 150.5 34t74.5 95h115z" />
    <glyph glyph-name="Aogonek" unicode="&#x104;" horiz-adv-x="1366" 
d="M1135 -471h-103q-85 0 -141.5 44t-56.5 116q0 90 52.5 175t139.5 136l-55 449h-584l-252 -449h-203l850 1493h246l207 -1493q-86 0 -184 -109q-54 -61 -54 -118q0 -84 66 -84h100zM950 608l-82 682l-391 -682h473z" />
    <glyph glyph-name="aogonek" unicode="&#x105;" 
d="M907 -471h-102q-85 0 -142 44t-57 116q0 166 205 303q-74 19 -74 96l2 31q-109 -91 -202 -120.5t-207 -29.5q-139 0 -218 66t-79 188q0 89 43 162.5t123 124.5q74 47 162.5 67t297.5 41q110 9 153.5 34t53.5 87l6 37q1 6 2 15t2 14.5t1 9.5q0 57 -62.5 94t-155.5 37
q-114 0 -181.5 -46t-98.5 -144h-172q29 170 156.5 259t341.5 89q161 0 258.5 -64t97.5 -168q0 -20 -12 -75l-125 -588q-2 -6 -2 -21q0 -59 77 -59q17 0 35 4l-26 -133l-47 -8q-26 -6 -52.5 -23.5t-43.5 -34t-42 -43.5q-53 -59 -53 -118q0 -84 66 -84h100zM821 528
q-64 -22 -104 -29.5t-195 -29.5q-163 -23 -236 -76t-73 -149q0 -127 184 -127q135 0 251 70t136 165z" />
    <glyph glyph-name="Cacute" unicode="&#x106;" horiz-adv-x="1478" 
d="M1403 545q-130 -310 -306 -446t-446 -136q-243 0 -382.5 148t-139.5 395q0 193 70.5 391t191.5 344q240 289 598 289q217 0 345.5 -127.5t140.5 -372.5h-197q-12 168 -91 251t-233 83q-277 0 -462 -272q-78 -117 -122 -263t-44 -286q0 -186 97 -300t257 -114
q131 0 225 44.5t162 132t135 239.5h201zM1520 1876l-443 -272h-147l315 272h275z" />
    <glyph glyph-name="cacute" unicode="&#x107;" horiz-adv-x="1024" 
d="M958 369q-61 -213 -187.5 -306.5t-330.5 -93.5q-176 0 -280.5 108.5t-104.5 278.5q0 215 77 385t219.5 266.5t326.5 96.5q157 0 255.5 -89.5t98.5 -211.5q0 -3 -0.5 -10.5l-1.5 -22.5t-2 -27l-2 -30h-172q2 18 2 45q0 88 -56 138t-153 50q-119 0 -214.5 -81.5
t-146 -210.5t-50.5 -275q0 -119 63 -185.5t170 -66.5q229 0 317 242h172zM1092 1493l-369 -303h-123l262 303h230z" />
    <glyph glyph-name="Ccircumflex" unicode="&#x108;" horiz-adv-x="1478" 
d="M1403 545q-130 -310 -306 -446t-446 -136q-243 0 -382.5 148t-139.5 395q0 193 70.5 391t191.5 344q240 289 598 289q217 0 345.5 -127.5t140.5 -372.5h-197q-12 168 -91 251t-233 83q-277 0 -462 -272q-78 -117 -122 -263t-44 -286q0 -186 97 -300t257 -114
q131 0 225 44.5t162 132t135 239.5h201zM1356 1604h-154l-137 182l-256 -182h-158l316 276h233z" />
    <glyph glyph-name="ccircumflex" unicode="&#x109;" horiz-adv-x="1024" 
d="M958 369q-61 -213 -187.5 -306.5t-330.5 -93.5q-176 0 -280.5 108.5t-104.5 278.5q0 215 77 385t219.5 266.5t326.5 96.5q157 0 255.5 -89.5t98.5 -211.5q0 -3 -0.5 -10.5l-1.5 -22.5t-2 -27l-2 -30h-172q2 18 2 45q0 88 -56 138t-153 50q-119 0 -214.5 -81.5
t-146 -210.5t-50.5 -275q0 -119 63 -185.5t170 -66.5q229 0 317 242h172zM954 1188h-129l-114 203l-213 -203h-131l262 307h194z" />
    <glyph glyph-name="Cdotaccent" unicode="&#x10a;" horiz-adv-x="1478" 
d="M1403 545q-130 -310 -306 -446t-446 -136q-243 0 -382.5 148t-139.5 395q0 193 70.5 391t191.5 344q240 289 598 289q217 0 345.5 -127.5t140.5 -372.5h-197q-12 168 -91 251t-233 83q-277 0 -462 -272q-78 -117 -122 -263t-44 -286q0 -186 97 -300t257 -114
q131 0 225 44.5t162 132t135 239.5h201zM1163 1847l-45 -211h-213l45 211h213z" />
    <glyph glyph-name="cdotaccent" unicode="&#x10b;" horiz-adv-x="1024" 
d="M958 369q-61 -213 -187.5 -306.5t-330.5 -93.5q-176 0 -280.5 108.5t-104.5 278.5q0 215 77 385t219.5 266.5t326.5 96.5q157 0 255.5 -89.5t98.5 -211.5q0 -3 -0.5 -10.5l-1.5 -22.5t-2 -27l-2 -30h-172q2 18 2 45q0 88 -56 138t-153 50q-119 0 -214.5 -81.5
t-146 -210.5t-50.5 -275q0 -119 63 -185.5t170 -66.5q229 0 317 242h172zM821 1448l-45 -211h-213l45 211h213z" />
    <glyph glyph-name="Ccaron" unicode="&#x10c;" horiz-adv-x="1478" 
d="M1403 545q-130 -310 -306 -446t-446 -136q-243 0 -382.5 148t-139.5 395q0 193 70.5 391t191.5 344q240 289 598 289q217 0 345.5 -127.5t140.5 -372.5h-197q-12 168 -91 251t-233 83q-277 0 -462 -272q-78 -117 -122 -263t-44 -286q0 -186 97 -300t257 -114
q131 0 225 44.5t162 132t135 239.5h201zM1417 1880l-315 -276h-234l-155 276h153l138 -182l256 182h157z" />
    <glyph glyph-name="ccaron" unicode="&#x10d;" horiz-adv-x="1024" 
d="M958 369q-61 -213 -187.5 -306.5t-330.5 -93.5q-176 0 -280.5 108.5t-104.5 278.5q0 215 77 385t219.5 266.5t326.5 96.5q157 0 255.5 -89.5t98.5 -211.5q0 -3 -0.5 -10.5l-1.5 -22.5t-2 -27l-2 -30h-172q2 18 2 45q0 88 -56 138t-153 50q-119 0 -214.5 -81.5
t-146 -210.5t-50.5 -275q0 -119 63 -185.5t170 -66.5q229 0 317 242h172zM1020 1495l-262 -307h-195l-131 307h129l115 -203l213 203h131z" />
    <glyph glyph-name="Dcaron" unicode="&#x10e;" horiz-adv-x="1478" 
d="M1452 999q0 -207 -62 -393t-168.5 -318.5t-253.5 -210t-311 -77.5h-577l317 1493h578q223 0 350 -138.5t127 -355.5zM1255 983q0 160 -93 251t-257 91h-350l-248 -1157h352q175 0 311.5 105.5t210.5 291t74 418.5zM1376 1880l-315 -276h-234l-155 276h153l138 -182
l256 182h157z" />
    <glyph glyph-name="dcaron" unicode="&#x10f;" 
d="M1229 1493l-318 -1493h-166l35 164q-44 -86 -155.5 -140.5t-223.5 -54.5q-161 0 -256.5 104t-95.5 283q0 160 45 299t123 237.5t188 155t236 56.5q108 0 175.5 -43t117.5 -143l123 575h172zM866 670q0 131 -63.5 203.5t-177.5 72.5q-109 0 -200.5 -76.5t-143.5 -202.5
t-52 -270q0 -131 63.5 -200.5t178.5 -69.5q106 0 197.5 75t144.5 200t53 268zM1534 1303q-28 -126 -97.5 -197.5t-166.5 -71.5l16 78q118 0 152 180h-113l43 201h205z" />
    <glyph glyph-name="Dcroat" unicode="&#x110;" horiz-adv-x="1478" 
d="M1452 999q0 -207 -62 -393t-168.5 -318.5t-253.5 -210t-311 -77.5h-577l147 698h-139l27 138h143l139 657h578q223 0 350 -138.5t127 -355.5zM1255 983q0 161 -93 251.5t-257 90.5h-350l-104 -489h340l-29 -138h-342l-113 -530h352q175 0 311.5 106t210.5 291.5t74 417.5
z" />
    <glyph glyph-name="dcroat" unicode="&#x111;" 
d="M1298 1229h-127l-260 -1229h-166l37 172q-22 -44 -46.5 -71t-69.5 -54q-131 -78 -265 -78q-161 0 -256.5 104t-95.5 283q0 155 47 301t129 244q79 97 188 150t228 53q107 0 175.5 -43t117.5 -143l65 311h-307l25 108h307l33 156h172l-33 -156h125zM866 670
q0 131 -63.5 203.5t-177.5 72.5q-193 0 -308 -207q-88 -166 -88 -342q0 -131 63.5 -200.5t178.5 -69.5q187 0 303 199q92 160 92 344z" />
    <glyph glyph-name="Emacron" unicode="&#x112;" horiz-adv-x="1366" 
d="M1153 0h-1071l317 1493h1037l-35 -168h-844l-102 -477h811l-37 -168h-809l-111 -512h879zM1262 1812l-31 -141h-563l30 141h564z" />
    <glyph glyph-name="emacron" unicode="&#x113;" 
d="M1053 487h-791q-13 -49 -10 -94q0 -129 66.5 -197.5t189.5 -68.5q101 0 181.5 52t133.5 147h172q-47 -164 -188.5 -260.5t-327.5 -96.5q-182 0 -294.5 114t-112.5 279q0 124 49 274t121 247q76 103 197 162t255 59q166 0 278.5 -101t112.5 -249q0 -88 -28 -240zM901 635
q4 50 4 59q0 116 -64 184t-173 68q-124 0 -227.5 -87.5t-141.5 -223.5h602zM1044 1413l-30 -141h-563l30 141h563z" />
    <glyph glyph-name="Ebreve" unicode="&#x114;" horiz-adv-x="1366" 
d="M1153 0h-1071l317 1493h1037l-35 -168h-844l-102 -477h811l-37 -168h-809l-111 -512h879zM1366 1864q-43 -115 -164 -179.5t-280 -64.5q-134 0 -221 55t-87 131q0 18 13 58h131v-21q0 -38 54.5 -61t145.5 -23q109 0 180.5 28t90.5 77h137z" />
    <glyph glyph-name="ebreve" unicode="&#x115;" 
d="M1053 487h-791q-13 -49 -10 -94q0 -129 66.5 -197.5t189.5 -68.5q101 0 181.5 52t133.5 147h172q-47 -164 -188.5 -260.5t-327.5 -96.5q-182 0 -294.5 114t-112.5 279q0 124 49 274t121 247q76 103 197 162t255 59q166 0 278.5 -101t112.5 -249q0 -88 -28 -240zM901 635
q4 50 4 59q0 116 -64 184t-173 68q-124 0 -227.5 -87.5t-141.5 -223.5h602zM1087 1481q-35 -140 -132.5 -208.5t-233.5 -68.5q-116 0 -188 56t-72 147q0 25 10 74h109v-27q0 -46 46.5 -74t121.5 -28q91 0 150.5 34t74.5 95h114z" />
    <glyph glyph-name="Edotaccent" unicode="&#x116;" horiz-adv-x="1366" 
d="M1153 0h-1071l317 1493h1037l-35 -168h-844l-102 -477h811l-37 -168h-809l-111 -512h879zM1098 1847l-45 -211h-213l45 211h213z" />
    <glyph glyph-name="edotaccent" unicode="&#x117;" 
d="M1053 487h-791q-13 -49 -10 -94q0 -129 66.5 -197.5t189.5 -68.5q101 0 181.5 52t133.5 147h172q-47 -164 -188.5 -260.5t-327.5 -96.5q-182 0 -294.5 114t-112.5 279q0 124 49 274t121 247q76 103 197 162t255 59q166 0 278.5 -101t112.5 -249q0 -88 -28 -240zM901 635
q4 50 4 59q0 116 -64 184t-173 68q-124 0 -227.5 -87.5t-141.5 -223.5h602zM879 1448l-45 -211h-213l45 211h213z" />
    <glyph glyph-name="Eogonek" unicode="&#x118;" horiz-adv-x="1366" 
d="M1053 -471h-103q-85 0 -141.5 44t-56.5 116q0 174 219 311h-889l317 1493h1037l-35 -168h-844l-102 -477h811l-37 -168h-809l-111 -512h879l-35 -168q-86 0 -184 -109q-54 -61 -54 -118q0 -84 66 -84h100z" />
    <glyph glyph-name="eogonek" unicode="&#x119;" 
d="M1053 487h-791q-13 -49 -10 -94q0 -129 66.5 -197.5t189.5 -68.5q101 0 181.5 52t133.5 147h172q-33 -115 -114 -198.5t-195 -123.5q-94 -33 -159.5 -95.5t-65.5 -135.5q0 -84 65 -84h101l-29 -160h-102q-85 0 -142 44t-57 116q0 154 174 280q-180 3 -289.5 116.5
t-109.5 276.5q0 124 49 274t121 247q76 103 197 162t255 59q166 0 278.5 -101t112.5 -249q0 -88 -28 -240zM901 635q4 50 4 59q0 116 -64 184t-173 68q-124 0 -227.5 -87.5t-141.5 -223.5h602z" />
    <glyph glyph-name="Ecaron" unicode="&#x11a;" horiz-adv-x="1366" 
d="M1153 0h-1071l317 1493h1037l-35 -168h-844l-102 -477h811l-37 -168h-809l-111 -512h879zM1352 1880l-316 -276h-233l-156 276h154l137 -182l256 182h158z" />
    <glyph glyph-name="ecaron" unicode="&#x11b;" 
d="M1053 487h-791q-13 -49 -10 -94q0 -129 66.5 -197.5t189.5 -68.5q101 0 181.5 52t133.5 147h172q-47 -164 -188.5 -260.5t-327.5 -96.5q-182 0 -294.5 114t-112.5 279q0 124 49 274t121 247q76 103 197 162t255 59q166 0 278.5 -101t112.5 -249q0 -88 -28 -240zM901 635
q4 50 4 59q0 116 -64 184t-173 68q-124 0 -227.5 -87.5t-141.5 -223.5h602zM1077 1495l-262 -307h-194l-132 307h129l115 -203l213 203h131z" />
    <glyph glyph-name="Gcircumflex" unicode="&#x11c;" horiz-adv-x="1593" 
d="M1522 788l-168 -788h-121l-10 176q-142 -120 -265 -166.5t-284 -46.5q-248 0 -399.5 154t-151.5 428q0 143 42 286t123 268t190.5 222t254 153t303.5 56q239 0 378.5 -124.5t139.5 -330.5v-12v-23h-186q-3 153 -105.5 238.5t-263.5 85.5q-143 0 -270.5 -65.5
t-216.5 -173.5t-141 -251.5t-52 -295.5q0 -216 106 -332.5t316 -116.5q201 0 360 120.5t204 317.5l12 54h-455l37 167h623zM1403 1604h-154l-137 182l-256 -182h-158l316 276h233z" />
    <glyph glyph-name="gcircumflex" unicode="&#x11d;" 
d="M938 174q-41 -194 -88.5 -301.5t-124.5 -181.5q-69 -66 -173 -101.5t-226 -35.5q-165 0 -264 71t-99 189q0 20 2 36l2 27h172v-29q0 -69 58.5 -108t162.5 -39q163 0 253.5 90t134.5 299l8 41q-156 -162 -353 -162q-157 0 -255.5 105t-98.5 272q0 117 28 229t82 207
t126.5 167.5t167.5 113.5t200 41q197 0 285 -191l35 160h155zM858 694q0 115 -59 183.5t-158 68.5q-117 0 -213 -82t-147.5 -211.5t-51.5 -273.5q0 -121 60.5 -191.5t163.5 -70.5q118 0 212 81.5t143.5 212.5t49.5 283zM1012 1188h-129l-115 203l-213 -203h-131l262 307h195
z" />
    <glyph glyph-name="Gbreve" unicode="&#x11e;" horiz-adv-x="1593" 
d="M1522 788l-168 -788h-121l-10 176q-142 -120 -265 -166.5t-284 -46.5q-248 0 -399.5 154t-151.5 428q0 143 42 286t123 268t190.5 222t254 153t303.5 56q239 0 378.5 -124.5t139.5 -330.5v-12v-23h-186q-3 153 -105.5 238.5t-263.5 85.5q-143 0 -270.5 -65.5
t-216.5 -173.5t-141 -251.5t-52 -295.5q0 -216 106 -332.5t316 -116.5q201 0 360 120.5t204 317.5l12 54h-455l37 167h623zM1477 1864q-43 -115 -164.5 -179.5t-280.5 -64.5q-134 0 -220.5 55t-86.5 131q0 21 12 58h131v-21q0 -38 55 -61t146 -23q109 0 180 27.5t90 77.5
h138z" />
    <glyph glyph-name="gbreve" unicode="&#x11f;" 
d="M938 174q-41 -194 -88.5 -301.5t-124.5 -181.5q-69 -66 -173 -101.5t-226 -35.5q-165 0 -264 71t-99 189q0 20 2 36l2 27h172v-29q0 -69 58.5 -108t162.5 -39q163 0 253.5 90t134.5 299l8 41q-156 -162 -353 -162q-157 0 -255.5 105t-98.5 272q0 117 28 229t82 207
t126.5 167.5t167.5 113.5t200 41q197 0 285 -191l35 160h155zM858 694q0 115 -59 183.5t-158 68.5q-117 0 -213 -82t-147.5 -211.5t-51.5 -273.5q0 -121 60.5 -191.5t163.5 -70.5q118 0 212 81.5t143.5 212.5t49.5 283zM1087 1481q-35 -140 -132.5 -208.5t-233.5 -68.5
q-116 0 -188 56t-72 147q0 25 10 74h109v-27q0 -46 46.5 -74t121.5 -28q91 0 150.5 34t74.5 95h114z" />
    <glyph glyph-name="Gdotaccent" unicode="&#x120;" horiz-adv-x="1593" 
d="M1522 788l-168 -788h-121l-10 176q-142 -120 -265 -166.5t-284 -46.5q-248 0 -399.5 154t-151.5 428q0 143 42 286t123 268t190.5 222t254 153t303.5 56q239 0 378.5 -124.5t139.5 -330.5v-12v-23h-186q-3 153 -105.5 238.5t-263.5 85.5q-143 0 -270.5 -65.5
t-216.5 -173.5t-141 -251.5t-52 -295.5q0 -216 106 -332.5t316 -116.5q201 0 360 120.5t204 317.5l12 54h-455l37 167h623zM1210 1847l-45 -211h-213l45 211h213z" />
    <glyph glyph-name="gdotaccent" unicode="&#x121;" 
d="M938 174q-41 -194 -88.5 -301.5t-124.5 -181.5q-69 -66 -173 -101.5t-226 -35.5q-165 0 -264 71t-99 189q0 20 2 36l2 27h172v-29q0 -69 58.5 -108t162.5 -39q163 0 253.5 90t134.5 299l8 41q-156 -162 -353 -162q-157 0 -255.5 105t-98.5 272q0 117 28 229t82 207
t126.5 167.5t167.5 113.5t200 41q197 0 285 -191l35 160h155zM858 694q0 115 -59 183.5t-158 68.5q-117 0 -213 -82t-147.5 -211.5t-51.5 -273.5q0 -121 60.5 -191.5t163.5 -70.5q118 0 212 81.5t143.5 212.5t49.5 283zM879 1448l-45 -211h-213l45 211h213z" />
    <glyph glyph-name="Gcommaaccent" unicode="&#x122;" horiz-adv-x="1593" 
d="M1522 788l-168 -788h-121l-10 176q-142 -120 -265 -166.5t-284 -46.5q-248 0 -399.5 154t-151.5 428q0 143 42 286t123 268t190.5 222t254 153t303.5 56q239 0 378.5 -124.5t139.5 -330.5v-12v-23h-186q-3 153 -105.5 238.5t-263.5 85.5q-143 0 -270.5 -65.5
t-216.5 -173.5t-141 -251.5t-52 -295.5q0 -216 106 -332.5t316 -116.5q201 0 360 120.5t204 317.5l12 54h-455l37 167h623zM745 -313q-28 -126 -97.5 -197.5t-166.5 -71.5l17 78q117 0 151 180h-112l43 201h204z" />
    <glyph glyph-name="gcommaaccent" unicode="&#x123;" 
d="M903 1563q-117 0 -151 -181h112l-43 -200h-205l39 190q28 126 98 197t167 71zM938 174q-41 -194 -88.5 -301.5t-124.5 -181.5q-69 -66 -173 -101.5t-226 -35.5q-165 0 -264 71t-99 189q0 20 2 36l2 27h172v-29q0 -69 58.5 -108t162.5 -39q163 0 253.5 90t134.5 299l8 41
q-156 -162 -353 -162q-157 0 -255.5 105t-98.5 272q0 117 28 229t82 207t126.5 167.5t167.5 113.5t200 41q197 0 285 -191l35 160h155zM858 694q0 115 -59 183.5t-158 68.5q-117 0 -213 -82t-147.5 -211.5t-51.5 -273.5q0 -121 60.5 -191.5t163.5 -70.5q118 0 212 81.5
t143.5 212.5t49.5 283z" />
    <glyph glyph-name="Hcircumflex" unicode="&#x124;" horiz-adv-x="1478" 
d="M1534 1493l-317 -1493h-193l145 680h-763l-146 -680h-192l317 1493h193l-138 -645h764l137 645h193zM1335 1604h-153l-138 182l-256 -182h-157l315 276h234z" />
    <glyph glyph-name="hcircumflex" unicode="&#x125;" 
d="M1065 770l-164 -770h-172l150 702q12 55 12 80q0 78 -48 126t-126 48q-140 0 -242 -98t-137 -266l-125 -592h-172l317 1493h172l-116 -553q97 91 182.5 127.5t200.5 36.5q129 0 202.5 -68.5t73.5 -189.5q0 -40 -8 -76zM1159 1604h-153l-138 182l-256 -182h-157l315 276
h234z" />
    <glyph glyph-name="Hbar" unicode="&#x126;" horiz-adv-x="1478" 
d="M1554 1147h-94l-243 -1147h-193l145 680h-763l-146 -680h-192l243 1147h-94l21 94h94l53 252h193l-54 -252h764l53 252h193l-53 -252h94zM1268 1147h-764l-64 -299h764z" />
    <glyph glyph-name="hbar" unicode="&#x127;" horiz-adv-x="1222" 
d="M1145 770l-164 -770h-172l149 702q13 60 13 80q0 78 -48 126t-126 48q-140 0 -242 -98t-137 -266l-125 -592h-172l225 1057l-92 -35l22 102l91 35l71 334h172l-55 -264l274 104l-20 -100l-277 -105l-38 -188q97 91 182.5 127.5t200.5 36.5q129 0 202.5 -68.5t73.5 -189.5
q0 -40 -8 -76z" />
    <glyph glyph-name="Itilde" unicode="&#x128;" horiz-adv-x="569" 
d="M612 1493l-317 -1493h-193l318 1493h192zM903 1851q-32 -100 -92 -159.5t-129 -59.5q-34 0 -73.5 10t-137.5 44q-34 12 -55 12q-34 0 -53 -14t-50 -54h-108q38 113 88 162t125 49q14 0 132 -32.5t146 -32.5q31 0 51 15.5t48 59.5h108z" />
    <glyph glyph-name="itilde" unicode="&#x129;" horiz-adv-x="569" 
d="M268 0h-172l228 1073h172zM801 1452q-32 -100 -92 -159.5t-129 -59.5q-34 0 -74.5 10t-136.5 43q-35 12 -56 12q-35 0 -53.5 -13.5t-48.5 -53.5h-109q38 113 88 162t125 49q14 0 132.5 -33t146.5 -33q30 0 50 15.5t48 60.5h109z" />
    <glyph glyph-name="Imacron" unicode="&#x12a;" horiz-adv-x="569" 
d="M612 1493l-317 -1493h-193l318 1493h192zM860 1812l-31 -141h-563l31 141h563z" />
    <glyph glyph-name="imacron" unicode="&#x12b;" horiz-adv-x="569" 
d="M268 0h-172l228 1073h172zM760 1413l-31 -141h-563l31 141h563z" />
    <glyph glyph-name="Ibreve" unicode="&#x12c;" horiz-adv-x="569" 
d="M612 1493l-317 -1493h-193l318 1493h192zM965 1864q-43 -115 -164.5 -179.5t-280.5 -64.5q-134 0 -220.5 55t-86.5 131q0 21 12 58h131v-21q0 -38 55 -61t146 -23q109 0 180 27.5t90 77.5h138z" />
    <glyph glyph-name="ibreve" unicode="&#x12d;" horiz-adv-x="569" 
d="M268 0h-172l228 1073h172zM803 1481q-35 -140 -133 -208.5t-234 -68.5q-116 0 -188 56t-72 147q0 25 10 74h109v-27q0 -46 46.5 -74t121.5 -28q91 0 150.5 34t74.5 95h115z" />
    <glyph glyph-name="Iogonek" unicode="&#x12e;" horiz-adv-x="569" 
d="M236 -471h-103q-85 0 -142 44t-57 116q0 174 220 311h-52l318 1493h192l-317 -1493q-82 -42 -143 -109q-54 -61 -54 -118q0 -84 66 -84h100z" />
    <glyph glyph-name="iogonek" unicode="&#x12f;" horiz-adv-x="569" 
d="M229 -471h-102q-85 0 -142 44t-57 116q0 174 219 311h-51l228 1073h172l-228 -1073q-65 -45 -123 -109q-53 -59 -53 -118q0 -84 66 -84h100zM594 1448l-45 -211h-213l45 211h213z" />
    <glyph glyph-name="Idotaccent" unicode="&#x130;" horiz-adv-x="569" 
d="M612 1493l-317 -1493h-193l318 1493h192zM696 1847l-45 -211h-213l45 211h213z" />
    <glyph glyph-name="dotlessi" unicode="&#x131;" horiz-adv-x="454" 
d="M211 0h-172l227 1073h172z" />
    <glyph glyph-name="Jcircumflex" unicode="&#x134;" horiz-adv-x="1024" 
d="M852 383q-43 -201 -178 -310.5t-338 -109.5q-160 0 -250 85.5t-90 211.5q0 46 12 98l27 121h192l-26 -125q-8 -33 -8 -69q0 -69 50.5 -112.5t133.5 -43.5q114 0 187 76t110 248l221 1040h192zM1366 1604h-154l-137 182l-256 -182h-157l315 276h233z" />
    <glyph glyph-name="jcircumflex" unicode="&#x135;" horiz-adv-x="454" 
d="M164 -223q-28 -126 -106 -174.5t-255 -48.5q-18 0 -39 6l31 145q37 -4 51 -4q78 0 109.5 28.5t50.5 114.5l260 1229h172zM670 1188h-129l-115 203l-213 -203h-131l262 307h195z" />
    <glyph glyph-name="Kcommaaccent" unicode="&#x136;" horiz-adv-x="1366" 
d="M1563 1493l-740 -610l422 -883h-225l-344 770l-316 -260l-108 -510h-193l318 1493h192l-161 -764l909 764h246zM670 -313q-28 -126 -97.5 -197.5t-166.5 -71.5l16 78q117 0 151 180h-112l43 201h205z" />
    <glyph glyph-name="kcommaaccent" unicode="&#x137;" horiz-adv-x="1024" 
d="M926 0h-197l-233 596l-220 -180l-88 -416h-172l318 1493h172l-184 -866l550 446h222l-455 -371zM444 -313q-28 -126 -97.5 -197.5t-166.5 -71.5l17 78q117 0 151 180h-112l43 201h204z" />
    <glyph glyph-name="Lacute" unicode="&#x139;" 
d="M991 0h-930l318 1493h192l-282 -1325h737zM991 1876l-442 -272h-148l316 272h274z" />
    <glyph glyph-name="lacute" unicode="&#x13a;" horiz-adv-x="454" 
d="M526 1493l-317 -1493h-172l317 1493h172zM967 1876l-443 -272h-147l315 272h275z" />
    <glyph glyph-name="Lcommaaccent" unicode="&#x13b;" 
d="M991 0h-930l318 1493h192l-282 -1325h737zM561 -313q-28 -126 -97.5 -197.5t-166.5 -71.5l16 78q118 0 152 180h-113l43 201h205z" />
    <glyph glyph-name="lcommaaccent" unicode="&#x13c;" horiz-adv-x="454" 
d="M526 1493l-317 -1493h-172l317 1493h172zM160 -313q-28 -126 -97.5 -197.5t-166.5 -71.5l16 78q117 0 151 180h-112l43 201h205z" />
    <glyph glyph-name="Lcaron" unicode="&#x13d;" 
d="M991 0h-930l318 1493h192l-282 -1325h737zM877 1303q-28 -126 -98 -197.5t-167 -71.5l17 78q117 0 151 180h-112l43 201h204z" />
    <glyph glyph-name="lcaron" unicode="&#x13e;" horiz-adv-x="454" 
d="M526 1493l-317 -1493h-172l317 1493h172zM831 1303q-28 -126 -97.5 -197.5t-166.5 -71.5l17 78q117 0 151 180h-112l43 201h204z" />
    <glyph glyph-name="Ldot" unicode="&#x13f;" 
d="M991 0h-930l318 1493h192l-282 -1325h737zM1022 885l-45 -211h-213l45 211h213z" />
    <glyph glyph-name="ldot" unicode="&#x140;" horiz-adv-x="663" 
d="M526 1493l-317 -1493h-172l317 1493h172zM750 885l-45 -211h-213l45 211h213z" />
    <glyph glyph-name="Lslash" unicode="&#x141;" horiz-adv-x="1286" 
d="M1077 0h-930l105 492l-160 -132l43 197l158 131l172 805h192l-135 -635l309 254l-43 -197l-309 -253l-104 -494h737z" />
    <glyph glyph-name="lslash" unicode="&#x142;" horiz-adv-x="624" 
d="M680 1167l-41 -188l-170 -164l-174 -815h-172l125 588l-158 -152l41 191l158 149l151 717h172l-104 -489z" />
    <glyph glyph-name="Nacute" unicode="&#x143;" horiz-adv-x="1478" 
d="M1538 1493l-317 -1493h-217l-510 1210l-258 -1210h-183l318 1493h213l512 -1225l260 1225h182zM1493 1876l-442 -272h-148l316 272h274z" />
    <glyph glyph-name="nacute" unicode="&#x144;" 
d="M1065 770l-164 -770h-172l152 715q12 66 12 76q0 71 -51 118t-127 47q-138 0 -240 -98t-137 -266l-125 -592h-172l227 1073h156l-27 -133q159 164 398 164q127 0 202.5 -69.5t75.5 -186.5q0 -42 -8 -78zM1149 1493l-369 -303h-123l263 303h229z" />
    <glyph glyph-name="Ncommaaccent" unicode="&#x145;" horiz-adv-x="1478" 
d="M1538 1493l-317 -1493h-217l-510 1210l-258 -1210h-183l318 1493h213l512 -1225l260 1225h182zM672 -313q-28 -126 -97.5 -197.5t-166.5 -71.5l16 78q117 0 151 180h-112l43 201h205z" />
    <glyph glyph-name="ncommaaccent" unicode="&#x146;" 
d="M1065 770l-164 -770h-172l152 715q12 66 12 76q0 71 -51 118t-127 47q-138 0 -240 -98t-137 -266l-125 -592h-172l227 1073h156l-27 -133q159 164 398 164q127 0 202.5 -69.5t75.5 -186.5q0 -42 -8 -78zM502 -313q-28 -126 -97.5 -197.5t-166.5 -71.5l16 78
q118 0 152 180h-113l43 201h205z" />
    <glyph glyph-name="Ncaron" unicode="&#x147;" horiz-adv-x="1478" 
d="M1538 1493l-317 -1493h-217l-510 1210l-258 -1210h-183l318 1493h213l512 -1225l260 1225h182zM1389 1880l-316 -276h-233l-156 276h154l137 -182l256 182h158z" />
    <glyph glyph-name="ncaron" unicode="&#x148;" 
d="M1065 770l-164 -770h-172l152 715q12 66 12 76q0 71 -51 118t-127 47q-138 0 -240 -98t-137 -266l-125 -592h-172l227 1073h156l-27 -133q159 164 398 164q127 0 202.5 -69.5t75.5 -186.5q0 -42 -8 -78zM1077 1495l-262 -307h-194l-132 307h129l115 -203l213 203h131z
" />
    <glyph glyph-name="Eng" unicode="&#x14a;" horiz-adv-x="1478" 
d="M1200 -98q-43 -201 -178 -310.5t-338 -109.5q-160 0 -250 85.5t-90 211.5q0 45 12 98l193 -4q-8 -33 -8 -70q0 -69 50.5 -112t133.5 -43q96 0 178.5 51t100.5 133l22 113l-532 1265l-258 -1210h-183l318 1493h213l512 -1225l260 1225h182z" />
    <glyph glyph-name="eng" unicode="&#x14b;" 
d="M854 -223q-28 -126 -105.5 -174.5t-254.5 -48.5q-18 0 -39 6l30 145q37 -4 52 -4q78 0 109 28t50 115l185 871q12 66 12 76q0 71 -51 118t-127 47q-138 0 -240 -98t-137 -266l-125 -592h-172l227 1073h156l-27 -133q159 164 398 164q127 0 202.5 -69.5t75.5 -186.5
q0 -42 -8 -78z" />
    <glyph glyph-name="Omacron" unicode="&#x14c;" horiz-adv-x="1593" 
d="M1595 963q0 -154 -40.5 -301.5t-119 -273.5t-185.5 -221.5t-249 -149.5t-301 -54q-274 0 -430.5 152.5t-156.5 433.5q0 124 31.5 247.5t87.5 231t137.5 200.5t178 159.5t213 104.5t238.5 38q279 0 437.5 -149.5t158.5 -417.5zM1399 926q0 207 -113.5 322.5t-310.5 115.5
q-142 0 -267.5 -67.5t-212 -178.5t-136.5 -255.5t-50 -297.5q0 -207 114 -321.5t304 -114.5q143 0 270 67.5t214 178t137.5 255t50.5 296.5zM1337 1812l-30 -141h-564l31 141h563z" />
    <glyph glyph-name="omacron" unicode="&#x14d;" 
d="M1077 721q0 -212 -77.5 -383t-220.5 -270t-326 -99q-173 0 -281.5 103t-108.5 272q0 152 43.5 290t122 242.5t196.5 166t259 61.5q180 0 286.5 -108t106.5 -275zM897 682q0 125 -63 194.5t-177 69.5q-118 0 -213.5 -78.5t-147.5 -206.5t-52 -276q0 -122 63.5 -190
t173.5 -68q119 0 215 75t148.5 201.5t52.5 278.5zM1026 1413l-31 -141h-563l31 141h563z" />
    <glyph glyph-name="Obreve" unicode="&#x14e;" horiz-adv-x="1593" 
d="M1595 963q0 -154 -40.5 -301.5t-119 -273.5t-185.5 -221.5t-249 -149.5t-301 -54q-274 0 -430.5 152.5t-156.5 433.5q0 124 31.5 247.5t87.5 231t137.5 200.5t178 159.5t213 104.5t238.5 38q279 0 437.5 -149.5t158.5 -417.5zM1399 926q0 207 -113.5 322.5t-310.5 115.5
q-142 0 -267.5 -67.5t-212 -178.5t-136.5 -255.5t-50 -297.5q0 -207 114 -321.5t304 -114.5q143 0 270 67.5t214 178t137.5 255t50.5 296.5zM1440 1864q-43 -115 -164.5 -179.5t-280.5 -64.5q-134 0 -220.5 55t-86.5 131q0 21 12 58h131v-21q0 -38 55 -61t146 -23
q109 0 180.5 28t90.5 77h137z" />
    <glyph glyph-name="obreve" unicode="&#x14f;" 
d="M1077 721q0 -212 -77.5 -383t-220.5 -270t-326 -99q-173 0 -281.5 103t-108.5 272q0 152 43.5 290t122 242.5t196.5 166t259 61.5q180 0 286.5 -108t106.5 -275zM897 682q0 125 -63 194.5t-177 69.5q-118 0 -213.5 -78.5t-147.5 -206.5t-52 -276q0 -122 63.5 -190
t173.5 -68q119 0 215 75t148.5 201.5t52.5 278.5zM1069 1481q-35 -140 -133 -208.5t-234 -68.5q-116 0 -188 56t-72 147q0 20 11 74h108v-27q0 -46 46.5 -74t121.5 -28q91 0 150.5 34t74.5 95h115z" />
    <glyph glyph-name="Ohungarumlaut" unicode="&#x150;" horiz-adv-x="1593" 
d="M1595 963q0 -154 -40.5 -301.5t-119 -273.5t-185.5 -221.5t-249 -149.5t-301 -54q-274 0 -430.5 152.5t-156.5 433.5q0 124 31.5 247.5t87.5 231t137.5 200.5t178 159.5t213 104.5t238.5 38q279 0 437.5 -149.5t158.5 -417.5zM1399 926q0 207 -113.5 322.5t-310.5 115.5
q-142 0 -267.5 -67.5t-212 -178.5t-136.5 -255.5t-50 -297.5q0 -207 114 -321.5t304 -114.5q143 0 270 67.5t214 178t137.5 255t50.5 296.5zM1239 1915l-369 -307h-122l262 307h229zM1616 1915l-369 -307h-123l262 307h230z" />
    <glyph glyph-name="ohungarumlaut" unicode="&#x151;" 
d="M1077 721q0 -212 -77.5 -383t-220.5 -270t-326 -99q-173 0 -281.5 103t-108.5 272q0 152 43.5 290t122 242.5t196.5 166t259 61.5q180 0 286.5 -108t106.5 -275zM897 682q0 125 -63 194.5t-177 69.5q-118 0 -213.5 -78.5t-147.5 -206.5t-52 -276q0 -122 63.5 -190
t173.5 -68q119 0 215 75t148.5 201.5t52.5 278.5zM924 1495l-369 -307h-123l262 307h230zM1300 1495l-368 -307h-123l262 307h229z" />
    <glyph glyph-name="OE" unicode="&#x152;" horiz-adv-x="2048" 
d="M1858 0h-889l37 174q-88 -107 -189 -156t-235 -49q-216 0 -347 129t-131 351q0 175 41 338.5t116 295t174.5 230t222.5 152t255 53.5q128 0 210.5 -43.5t129.5 -137.5l33 156h881l-35 -168h-688l-105 -487h670l-37 -168h-667l-109 -502h696zM1204 1104
q-29 126 -108.5 187t-214.5 61q-134 0 -244 -71.5t-188 -209.5q-61 -107 -104.5 -287.5t-43.5 -328.5q0 -154 86 -237t236 -83q255 0 430 254z" />
    <glyph glyph-name="oe" unicode="&#x153;" horiz-adv-x="1933" 
d="M1841 479h-790q-15 -79 -15 -119q3 -103 74.5 -168t189.5 -65q100 0 180.5 52t133.5 147h172q-46 -157 -190 -257t-328 -100q-119 0 -217.5 55t-143.5 164q-77 -103 -193 -161t-249 -58q-183 0 -286 109.5t-103 275.5q0 125 42 265.5t111 244.5q77 116 195.5 178
t263.5 62q261 0 352 -211q66 91 192.5 151t252.5 60q166 0 278.5 -101t112.5 -249q0 -82 -29 -240zM895 684q0 123 -63.5 192.5t-174.5 69.5q-110 0 -203.5 -75.5t-146.5 -204.5t-51 -279q0 -120 61.5 -190t167.5 -70q118 0 212 73.5t146 200.5t52 283zM1690 627q6 44 6 65
q0 116 -64 185t-170 69q-126 0 -230.5 -89t-144.5 -230h603z" />
    <glyph glyph-name="Racute" unicode="&#x154;" horiz-adv-x="1478" 
d="M1298 47l-10 -47h-231q-8 57 -8 96q0 49 6 83t43 188q16 72 16 122q0 75 -53.5 114.5t-153.5 39.5h-489l-137 -643h-193l318 1493h688q197 0 289 -76t92 -239q0 -152 -70 -255.5t-217 -185.5q72 -47 97.5 -88t25.5 -108q0 -62 -43 -283q-13 -70 -13 -102q0 -69 43 -109z
M1278 1143q0 93 -56 137.5t-188 44.5h-471l-110 -514h473q171 0 261.5 93t90.5 239zM1456 1876l-442 -272h-148l316 272h274z" />
    <glyph glyph-name="racute" unicode="&#x155;" horiz-adv-x="681" 
d="M754 924h-21q-160 0 -262.5 -93t-140.5 -274l-119 -557h-172l227 1073h156l-35 -168q95 109 172 154t166 45q25 0 66 -6zM893 1493l-369 -303h-123l263 303h229z" />
    <glyph glyph-name="Rcommaaccent" unicode="&#x156;" horiz-adv-x="1478" 
d="M1298 47l-10 -47h-231q-8 57 -8 96q0 49 6 83t43 188q16 72 16 122q0 75 -53.5 114.5t-153.5 39.5h-489l-137 -643h-193l318 1493h688q197 0 289 -76t92 -239q0 -152 -70 -255.5t-217 -185.5q72 -47 97.5 -88t25.5 -108q0 -62 -43 -283q-13 -70 -13 -102q0 -69 43 -109z
M1278 1143q0 93 -56 137.5t-188 44.5h-471l-110 -514h473q171 0 261.5 93t90.5 239zM635 -313q-28 -126 -97.5 -197.5t-166.5 -71.5l16 78q118 0 152 180h-113l43 201h205z" />
    <glyph glyph-name="rcommaaccent" unicode="&#x157;" horiz-adv-x="681" 
d="M754 924h-21q-160 0 -262.5 -93t-140.5 -274l-119 -557h-172l227 1073h156l-35 -168q95 109 172 154t166 45q25 0 66 -6zM160 -313q-28 -126 -97.5 -197.5t-166.5 -71.5l16 78q117 0 151 180h-112l43 201h205z" />
    <glyph glyph-name="Rcaron" unicode="&#x158;" horiz-adv-x="1478" 
d="M1298 47l-10 -47h-231q-8 57 -8 96q0 49 6 83t43 188q16 72 16 122q0 75 -53.5 114.5t-153.5 39.5h-489l-137 -643h-193l318 1493h688q197 0 289 -76t92 -239q0 -152 -70 -255.5t-217 -185.5q72 -47 97.5 -88t25.5 -108q0 -62 -43 -283q-13 -70 -13 -102q0 -69 43 -109z
M1278 1143q0 93 -56 137.5t-188 44.5h-471l-110 -514h473q171 0 261.5 93t90.5 239zM1352 1880l-316 -276h-233l-156 276h154l137 -182l256 182h158z" />
    <glyph glyph-name="rcaron" unicode="&#x159;" horiz-adv-x="681" 
d="M754 924h-21q-160 0 -262.5 -93t-140.5 -274l-119 -557h-172l227 1073h156l-35 -168q95 109 172 154t166 45q25 0 66 -6zM821 1495l-262 -307h-194l-132 307h129l115 -203l213 203h131z" />
    <glyph glyph-name="Sacute" unicode="&#x15a;" horiz-adv-x="1366" 
d="M1270 496q0 -86 -50 -187.5t-128 -173.5q-184 -172 -517 -172q-232 0 -362.5 104t-130.5 289q0 61 18 129h179q-9 -59 -9 -84q0 -139 82.5 -205.5t255.5 -66.5q205 0 335 89.5t130 219.5q0 72 -54.5 121t-176.5 84l-350 100q-103 29 -165.5 105t-62.5 172q0 78 42.5 175
t105.5 161q168 174 487 174q214 0 338.5 -95.5t124.5 -252.5q0 -39 -16 -115h-181q9 61 9 74q0 223 -312 223q-176 0 -288.5 -83t-112.5 -208q0 -67 44 -104.5t163 -71.5l352 -100q115 -34 182.5 -116t67.5 -185zM1436 1876l-443 -272h-147l315 272h275z" />
    <glyph glyph-name="sacute" unicode="&#x15b;" horiz-adv-x="1024" 
d="M911 371q0 -183 -137 -292.5t-366 -109.5q-179 0 -280 69.5t-101 192.5q0 49 12 105h182q-4 -40 -4 -51q0 -76 57.5 -117t163.5 -41q121 0 207 55.5t86 141.5q0 40 -28 69t-115 51l-152 39q-158 40 -220 93t-62 147q0 165 131 273t342 108q149 0 242.5 -67.5t93.5 -174.5
q0 -32 -13 -88h-172q2 16 2 45q0 60 -49 93.5t-139 33.5q-116 0 -187 -49.5t-71 -128.5t174 -123l156 -39q135 -34 191 -87.5t56 -147.5zM1092 1493l-369 -303h-123l262 303h230z" />
    <glyph glyph-name="Scircumflex" unicode="&#x15c;" horiz-adv-x="1366" 
d="M1270 496q0 -86 -50 -187.5t-128 -173.5q-184 -172 -517 -172q-232 0 -362.5 104t-130.5 289q0 61 18 129h179q-9 -59 -9 -84q0 -139 82.5 -205.5t255.5 -66.5q205 0 335 89.5t130 219.5q0 72 -54.5 121t-176.5 84l-350 100q-103 29 -165.5 105t-62.5 172q0 78 42.5 175
t105.5 161q168 174 487 174q214 0 338.5 -95.5t124.5 -252.5q0 -39 -16 -115h-181q9 61 9 74q0 223 -312 223q-176 0 -288.5 -83t-112.5 -208q0 -67 44 -104.5t163 -71.5l352 -100q115 -34 182.5 -116t67.5 -185zM1272 1604h-154l-137 182l-256 -182h-158l316 276h233z" />
    <glyph glyph-name="scircumflex" unicode="&#x15d;" horiz-adv-x="1024" 
d="M911 371q0 -183 -137 -292.5t-366 -109.5q-179 0 -280 69.5t-101 192.5q0 49 12 105h182q-4 -40 -4 -51q0 -76 57.5 -117t163.5 -41q121 0 207 55.5t86 141.5q0 40 -28 69t-115 51l-152 39q-158 40 -220 93t-62 147q0 165 131 273t342 108q149 0 242.5 -67.5t93.5 -174.5
q0 -32 -13 -88h-172q2 16 2 45q0 60 -49 93.5t-139 33.5q-116 0 -187 -49.5t-71 -128.5t174 -123l156 -39q135 -34 191 -87.5t56 -147.5zM954 1188h-129l-114 203l-213 -203h-131l262 307h194z" />
    <glyph glyph-name="Scedilla" unicode="&#x15e;" horiz-adv-x="1366" 
d="M1270 496q0 -86 -50 -187.5t-128 -173.5q-165 -154 -457 -170l-39 -76h43q56 0 96.5 -41.5t40.5 -95.5q0 -104 -82.5 -163.5t-214.5 -59.5q-59 0 -111 15t-130 55l57 77q115 -59 192 -59q57 0 93 31.5t36 81.5q0 35 -18 56t-45 21q-29 0 -55 -8l-47 13l79 153
q-212 9 -330 112.5t-118 278.5q0 61 18 129h179q-9 -59 -9 -84q0 -139 82.5 -205.5t255.5 -66.5q205 0 335 89.5t130 219.5q0 72 -54.5 121t-176.5 84l-350 100q-103 29 -165.5 105t-62.5 172q0 78 42.5 175t105.5 161q168 174 487 174q214 0 338.5 -95.5t124.5 -252.5
q0 -39 -16 -115h-181q9 61 9 74q0 223 -312 223q-176 0 -288.5 -83t-112.5 -208q0 -67 44 -104.5t163 -71.5l352 -100q115 -34 182.5 -116t67.5 -185z" />
    <glyph glyph-name="scedilla" unicode="&#x15f;" horiz-adv-x="1024" 
d="M911 371q0 -175 -127 -284t-340 -118l-43 -80h43q56 0 97 -42t41 -95q0 -104 -82.5 -163.5t-214.5 -59.5q-59 0 -111.5 15t-130.5 55l57 77q115 -59 193 -59q57 0 93 31.5t36 81.5q0 34 -18.5 55.5t-45.5 21.5q-29 0 -55 -8l-47 13l84 159q-148 14 -230.5 82t-82.5 178
q0 49 12 105h182q-4 -40 -4 -51q0 -76 57.5 -117t163.5 -41q121 0 207 55.5t86 141.5q0 40 -28 69t-115 51l-152 39q-158 40 -220 93t-62 147q0 165 131 273t342 108q149 0 242.5 -67.5t93.5 -174.5q0 -32 -13 -88h-172q2 16 2 45q0 60 -49 93.5t-139 33.5
q-116 0 -187 -49.5t-71 -128.5t174 -123l156 -39q135 -34 191 -87.5t56 -147.5z" />
    <glyph glyph-name="Scaron" unicode="&#x160;" horiz-adv-x="1366" 
d="M1270 496q0 -86 -50 -187.5t-128 -173.5q-184 -172 -517 -172q-232 0 -362.5 104t-130.5 289q0 61 18 129h179q-9 -59 -9 -84q0 -139 82.5 -205.5t255.5 -66.5q205 0 335 89.5t130 219.5q0 72 -54.5 121t-176.5 84l-350 100q-103 29 -165.5 105t-62.5 172q0 78 42.5 175
t105.5 161q168 174 487 174q214 0 338.5 -95.5t124.5 -252.5q0 -39 -16 -115h-181q9 61 9 74q0 223 -312 223q-176 0 -288.5 -83t-112.5 -208q0 -67 44 -104.5t163 -71.5l352 -100q115 -34 182.5 -116t67.5 -185zM1331 1880l-315 -276h-234l-155 276h153l138 -182l256 182
h157z" />
    <glyph glyph-name="scaron" unicode="&#x161;" horiz-adv-x="1024" 
d="M911 371q0 -183 -137 -292.5t-366 -109.5q-179 0 -280 69.5t-101 192.5q0 49 12 105h182q-4 -40 -4 -51q0 -76 57.5 -117t163.5 -41q121 0 207 55.5t86 141.5q0 40 -28 69t-115 51l-152 39q-158 40 -220 93t-62 147q0 165 131 273t342 108q149 0 242.5 -67.5t93.5 -174.5
q0 -32 -13 -88h-172q2 16 2 45q0 60 -49 93.5t-139 33.5q-116 0 -187 -49.5t-71 -128.5t174 -123l156 -39q135 -34 191 -87.5t56 -147.5zM1020 1495l-262 -307h-195l-131 307h129l115 -203l213 203h131z" />
    <glyph glyph-name="Tcedilla" unicode="&#x162;" horiz-adv-x="1251" 
d="M1395 1325h-488l-282 -1325h-64l-57 -111h43q56 0 96.5 -41.5t40.5 -95.5q0 -104 -82.5 -163.5t-214.5 -59.5q-59 0 -111.5 15t-130.5 55l58 77q115 -59 192 -59q57 0 93 31.5t36 81.5q0 35 -18 56t-45 21q-29 0 -55 -8l-48 13l99 188h-25l283 1325h-494l35 168h1174z
" />
    <glyph glyph-name="tcedilla" unicode="&#x163;" horiz-adv-x="569" 
d="M397 -248q0 -104 -82.5 -163.5t-214.5 -59.5q-59 0 -111 15t-130 55l57 77q115 -59 193 -59q57 0 93 31.5t36 81.5q0 34 -18.5 55.5t-45.5 21.5q-29 0 -55 -8l-47 13l104 198h2q-76 44 -76 137q0 29 7 64l155 725h-145l28 137h146l63 295h172l-63 -295h182l-29 -137h-182
l-153 -719q-4 -24 -4 -29q0 -25 19.5 -40t53.5 -15q22 0 99 17l-33 -150q-51 -14 -133 -14h-17l-51 -97h43q56 0 96.5 -41.5t40.5 -95.5z" />
    <glyph glyph-name="Tcaron" unicode="&#x164;" horiz-adv-x="1251" 
d="M1395 1325h-488l-282 -1325h-193l283 1325h-494l35 168h1174zM1280 1880l-315 -276h-234l-156 276h154l137 -182l256 182h158z" />
    <glyph glyph-name="tcaron" unicode="&#x165;" horiz-adv-x="569" 
d="M451 150l-33 -150q-51 -14 -133 -14q-85 0 -134 43t-49 118q0 29 7 64l155 725h-145l28 137h146l63 295h172l-63 -295h182l-29 -137h-182l-153 -719q-4 -24 -4 -29q0 -25 19.5 -40t53.5 -15q22 0 99 17zM815 1411q-28 -126 -97.5 -197t-166.5 -71l16 78q118 0 152 180
h-113l43 201h205z" />
    <glyph glyph-name="Utilde" unicode="&#x168;" horiz-adv-x="1478" 
d="M1536 1493l-221 -1038q-47 -224 -230.5 -358t-441.5 -134q-219 0 -354 102.5t-135 262.5q0 60 28 196l207 969h193l-222 -1038q-10 -41 -10 -90q0 -106 91 -171t239 -65q173 0 291.5 87t150.5 239l221 1038h193zM1350 1851q-32 -100 -92.5 -159.5t-129.5 -59.5
q-34 0 -72.5 10t-137.5 44q-34 12 -56 12q-34 0 -52.5 -13.5t-49.5 -54.5h-109q38 113 88 162t125 49q14 0 132.5 -32.5t146.5 -32.5q31 0 50.5 15t47.5 60h109z" />
    <glyph glyph-name="utilde" unicode="&#x169;" 
d="M887 0h-156l27 125q-89 -81 -182 -118.5t-211 -37.5q-132 0 -207.5 60t-75.5 164q0 39 6 69l172 811h172l-158 -743q-6 -30 -6 -56q0 -72 50 -114.5t133 -42.5q131 0 231 99.5t135 264.5l125 592h172zM1085 1452q-32 -100 -92 -159.5t-129 -59.5q-34 0 -74.5 10
t-136.5 43q-34 12 -55 12q-35 0 -53.5 -13.5t-48.5 -53.5h-109q38 113 88 162t125 49q14 0 132.5 -33t146.5 -33q30 0 50 15.5t48 60.5h108z" />
    <glyph glyph-name="Umacron" unicode="&#x16a;" horiz-adv-x="1478" 
d="M1536 1493l-221 -1038q-47 -224 -230.5 -358t-441.5 -134q-219 0 -354 102.5t-135 262.5q0 60 28 196l207 969h193l-222 -1038q-10 -41 -10 -90q0 -106 91 -171t239 -65q173 0 291.5 87t150.5 239l221 1038h193zM1307 1812l-31 -141h-563l30 141h564z" />
    <glyph glyph-name="umacron" unicode="&#x16b;" 
d="M887 0h-156l27 125q-89 -81 -182 -118.5t-211 -37.5q-132 0 -207.5 60t-75.5 164q0 39 6 69l172 811h172l-158 -743q-6 -30 -6 -56q0 -72 50 -114.5t133 -42.5q131 0 231 99.5t135 264.5l125 592h172zM1044 1413l-30 -141h-563l30 141h563z" />
    <glyph glyph-name="Ubreve" unicode="&#x16c;" horiz-adv-x="1478" 
d="M1536 1493l-221 -1038q-47 -224 -230.5 -358t-441.5 -134q-219 0 -354 102.5t-135 262.5q0 60 28 196l207 969h193l-222 -1038q-10 -41 -10 -90q0 -106 91 -171t239 -65q173 0 291.5 87t150.5 239l221 1038h193zM1411 1864q-43 -115 -164 -179.5t-280 -64.5
q-134 0 -221 55t-87 131q0 18 13 58h131v-21q0 -38 55 -61t146 -23q109 0 180 27.5t90 77.5h137z" />
    <glyph glyph-name="ubreve" unicode="&#x16d;" 
d="M887 0h-156l27 125q-89 -81 -182 -118.5t-211 -37.5q-132 0 -207.5 60t-75.5 164q0 39 6 69l172 811h172l-158 -743q-6 -30 -6 -56q0 -72 50 -114.5t133 -42.5q131 0 231 99.5t135 264.5l125 592h172zM1087 1481q-35 -140 -132.5 -208.5t-233.5 -68.5q-116 0 -188 56
t-72 147q0 25 10 74h109v-27q0 -46 46.5 -74t121.5 -28q91 0 150.5 34t74.5 95h114z" />
    <glyph glyph-name="Uring" unicode="&#x16e;" horiz-adv-x="1478" 
d="M1536 1493l-221 -1038q-47 -224 -230.5 -358t-441.5 -134q-219 0 -354 102.5t-135 262.5q0 60 28 196l207 969h193l-222 -1038q-10 -41 -10 -90q0 -106 91 -171t239 -65q173 0 291.5 87t150.5 239l221 1038h193zM1225 1819q0 -95 -74.5 -169.5t-171.5 -74.5
q-67 0 -113.5 46t-46.5 112q0 89 76 162t168 73q69 0 115.5 -43t46.5 -106zM1122 1790q0 34 -21.5 57t-53.5 23q-47 0 -85 -37t-38 -80q0 -35 21.5 -57.5t55.5 -22.5q45 0 83 37t38 80z" />
    <glyph glyph-name="uring" unicode="&#x16f;" 
d="M887 0h-156l27 125q-89 -81 -182 -118.5t-211 -37.5q-132 0 -207.5 60t-75.5 164q0 39 6 69l172 811h172l-158 -743q-6 -30 -6 -56q0 -72 50 -114.5t133 -42.5q131 0 231 99.5t135 264.5l125 592h172zM954 1389q0 -95 -74 -169.5t-171 -74.5q-67 0 -113.5 46t-46.5 112
q0 89 76 162t168 73q69 0 115 -43t46 -106zM852 1360q0 34 -22 57t-54 23q-47 0 -85 -37t-38 -80q0 -35 22 -57.5t56 -22.5q45 0 83 37t38 80z" />
    <glyph glyph-name="Uhungarumlaut" unicode="&#x170;" horiz-adv-x="1478" 
d="M1536 1493l-221 -1038q-47 -224 -230.5 -358t-441.5 -134q-219 0 -354 102.5t-135 262.5q0 60 28 196l207 969h193l-222 -1038q-10 -41 -10 -90q0 -106 91 -171t239 -65q173 0 291.5 87t150.5 239l221 1038h193zM1210 1915l-368 -307h-123l262 307h229zM1587 1915
l-368 -307h-123l262 307h229z" />
    <glyph glyph-name="uhungarumlaut" unicode="&#x171;" 
d="M887 0h-156l27 125q-89 -81 -182 -118.5t-211 -37.5q-132 0 -207.5 60t-75.5 164q0 39 6 69l172 811h172l-158 -743q-6 -30 -6 -56q0 -72 50 -114.5t133 -42.5q131 0 231 99.5t135 264.5l125 592h172zM942 1495l-369 -307h-122l262 307h229zM1319 1495l-369 -307h-123
l263 307h229z" />
    <glyph glyph-name="Uogonek" unicode="&#x172;" horiz-adv-x="1478" 
d="M1536 1493l-221 -1038q-38 -179 -163.5 -301.5t-311.5 -167.5q-84 -21 -142.5 -81t-58.5 -132q0 -84 66 -84h100l-29 -160h-102q-85 0 -142 44t-57 116q0 151 164 274q-218 1 -351.5 103t-133.5 262q0 60 28 196l207 969h193l-222 -1038q-10 -41 -10 -90q0 -106 91 -171
t239 -65q173 0 291.5 87t150.5 239l221 1038h193z" />
    <glyph glyph-name="uogonek" unicode="&#x173;" 
d="M807 -471h-102q-85 0 -142 44t-57 116q0 94 63 176q66 85 162 135l27 125q-89 -81 -182 -118.5t-211 -37.5q-132 0 -207.5 60t-75.5 164q0 39 6 69l172 811h172l-158 -743q-6 -30 -6 -56q0 -72 50 -114.5t133 -42.5q131 0 231 99.5t135 264.5l125 592h172l-227 -1073
q-91 -30 -164 -109q-53 -59 -53 -118q0 -84 65 -84h101z" />
    <glyph glyph-name="Wcircumflex" unicode="&#x174;" horiz-adv-x="1933" 
d="M2118 1493l-697 -1493h-209l-84 1212l-593 -1212h-275v1493h236v-1212l589 1212h197l84 -1212l539 1212h213zM1559 1604h-154l-137 182l-256 -182h-158l315 276h234z" />
    <glyph glyph-name="wcircumflex" unicode="&#x175;" horiz-adv-x="1478" 
d="M1577 1073l-541 -1073h-219v856l-399 -856h-197l-82 1073h226v-835l387 835h237v-835l402 835h186zM1182 1188h-129l-115 203l-213 -203h-131l262 307h195z" />
    <glyph glyph-name="Ycircumflex" unicode="&#x176;" horiz-adv-x="1366" 
d="M1569 1493l-754 -907l-125 -586h-192l125 586l-381 907h229l279 -731l591 731h228zM1286 1604h-153l-138 182l-256 -182h-157l315 276h233z" />
    <glyph glyph-name="ycircumflex" unicode="&#x177;" horiz-adv-x="1024" 
d="M1106 1073l-754 -1298q-66 -114 -147.5 -167.5t-190.5 -53.5q-54 0 -100 20l33 154q83 -9 90 -9q57 0 90 21.5t74 85.5l106 166l-139 1081h184l94 -833l478 833h182zM954 1188h-129l-114 203l-213 -203h-131l262 307h194z" />
    <glyph glyph-name="Ydieresis" unicode="&#x178;" horiz-adv-x="1366" 
d="M1569 1493l-754 -907l-125 -586h-192l125 586l-381 907h229l279 -731l591 731h228zM868 1636h-186l45 209h186zM1200 1636h-186l45 209h186z" />
    <glyph glyph-name="Zacute" unicode="&#x179;" horiz-adv-x="1251" 
d="M1094 0h-1139l37 172l1136 1153h-831l35 168h1075l-37 -172l-1139 -1153h897zM1409 1876l-442 -272h-148l316 272h274z" />
    <glyph glyph-name="zacute" unicode="&#x17a;" horiz-adv-x="1024" 
d="M836 0h-875l37 152l809 774h-602l31 147h802l-37 -153l-802 -773h667zM1092 1493l-369 -303h-123l262 303h230z" />
    <glyph glyph-name="Zdotaccent" unicode="&#x17b;" horiz-adv-x="1251" 
d="M1094 0h-1139l37 172l1136 1153h-831l35 168h1075l-37 -172l-1139 -1153h897zM1051 1847l-45 -211h-213l45 211h213z" />
    <glyph glyph-name="zdotaccent" unicode="&#x17c;" horiz-adv-x="1024" 
d="M836 0h-875l37 152l809 774h-602l31 147h802l-37 -153l-802 -773h667zM821 1448l-45 -211h-213l45 211h213z" />
    <glyph glyph-name="Zcaron" unicode="&#x17d;" horiz-adv-x="1251" 
d="M1094 0h-1139l37 172l1136 1153h-831l35 168h1075l-37 -172l-1139 -1153h897zM1305 1880l-316 -276h-233l-156 276h154l137 -182l256 182h158z" />
    <glyph glyph-name="zcaron" unicode="&#x17e;" horiz-adv-x="1024" 
d="M836 0h-875l37 152l809 774h-602l31 147h802l-37 -153l-802 -773h667zM1020 1495l-262 -307h-195l-131 307h129l115 -203l213 203h131z" />
    <glyph glyph-name="longs" unicode="&#x17f;" horiz-adv-x="569" 
d="M743 1489l-30 -141q-29 4 -56 4q-66 0 -98 -30.5t-49 -107.5l-258 -1214h-172l266 1255q25 114 106 179t199 65q46 0 92 -10z" />
    <glyph glyph-name="Ereversed" unicode="&#x18e;" horiz-adv-x="1366" 
d="M1153 0h-1071l37 168h878l107 512h-809l35 168h811l100 477h-844l37 168h1036z" />
    <glyph glyph-name="florin" unicode="&#x192;" 
d="M1323 1473l-94 -160q-52 41 -99 41q-143 0 -247 -262l-56 -142h232l-31 -147h-260l-324 -813q-86 -217 -209 -320.5t-296 -103.5q-57 0 -107 20l72 176q46 -38 102 -38q152 0 244 233l338 846h-230l31 147h256l88 211q66 158 185 254t251 96q82 0 154 -38z" />
    <glyph glyph-name="Ohorn" unicode="&#x1a0;" horiz-adv-x="1593" 
d="M1593 950q0 -242 -105.5 -463.5t-285.5 -359.5q-206 -158 -500 -158q-130 0 -247 42t-191 116q-70 70 -109.5 183t-39.5 245q-3 184 73.5 373t212.5 329q249 261 596 261q139 0 256.5 -41.5t192.5 -116.5q28 -34 29 -35q84 52 120 168h-86l45 211h193l-43 -205
q-49 -172 -180 -248q69 -138 69 -301zM1397 913q0 181 -84 291q-53 68 -144.5 108t-195.5 40q-145 0 -275 -68.5t-219 -191.5q-81 -112 -126 -251.5t-42 -269.5q0 -181 84 -288q54 -68 144.5 -108t189.5 -40q149 0 279 67.5t219 192.5q82 110 126 244.5t44 273.5z" />
    <glyph glyph-name="ohorn" unicode="&#x1a1;" horiz-adv-x="1206" 
d="M1243 1079q-49 -172 -180 -248q14 -65 14 -110q0 -134 -43.5 -275.5t-113.5 -238.5q-173 -238 -467 -238q-172 0 -279.5 106.5t-107.5 276.5q0 131 43 273.5t112 240.5q78 114 199 176t264 62q178 0 281 -100q40 -43 65 -89q75 57 105 158h-86l45 211h192zM897 682
q0 50 -12 94h-4l2 10q-23 77 -81 118.5t-145 41.5q-101 0 -184.5 -55.5t-140.5 -159.5q-86 -159 -86 -338q0 -123 63 -194.5t172 -71.5q211 0 330 215q86 159 86 340z" />
    <glyph glyph-name="Uhorn" unicode="&#x1af;" horiz-adv-x="1597" 
d="M1765 1499q-20 -70 -53 -124t-74 -87t-80.5 -52.5t-82.5 -29.5l-158 -745q-47 -224 -230.5 -358t-441.5 -134q-245 0 -377 119q-49 44 -80.5 113.5t-31.5 132.5q0 60 28 196l205 963h193l-220 -1032q-10 -55 -10 -90q0 -106 91 -171t239 -65q173 0 291.5 87t150.5 239
l219 1032h193l-41 -190q122 52 162 190h-86l45 211h192z" />
    <glyph glyph-name="uhorn" unicode="&#x1b0;" horiz-adv-x="1263" 
d="M1348 1079q-20 -70 -54 -125t-76 -88t-82 -52.5t-83 -29.5l-166 -784h-156l29 133q-90 -87 -182.5 -125.5t-212.5 -38.5q-132 0 -207.5 60t-75.5 164q0 39 6 69l172 811h172l-158 -743q-6 -30 -6 -56q0 -72 50 -114.5t133 -42.5q131 0 231 99.5t135 264.5l125 592h172
l-41 -192q124 53 166 192h-86l45 211h193z" />
    <glyph glyph-name="eturned" unicode="&#x1dd;" 
d="M1083 711q0 -124 -49 -274t-121 -247q-76 -103 -197 -162t-255 -59q-166 0 -278.5 101t-112.5 249q0 88 28 240l4 27h791q13 49 10 94q0 130 -66 198t-188 68q-203 0 -317 -198h-172q47 164 189 260t329 96q182 0 293.5 -114t111.5 -279zM856 438h-602q-4 -50 -4 -59
q0 -116 64 -184t173 -68q124 0 227.5 87.5t141.5 223.5z" />
    <glyph glyph-name="Gcaron" unicode="&#x1e6;" horiz-adv-x="1593" 
d="M1522 788l-168 -788h-121l-10 176q-142 -120 -265 -166.5t-284 -46.5q-248 0 -399.5 154t-151.5 428q0 143 42 286t123 268t190.5 222t254 153t303.5 56q239 0 378.5 -124.5t139.5 -330.5v-12v-23h-186q-3 153 -105.5 238.5t-263.5 85.5q-143 0 -270.5 -65.5
t-216.5 -173.5t-141 -251.5t-52 -295.5q0 -216 106 -332.5t316 -116.5q201 0 360 120.5t204 317.5l12 54h-455l37 167h623zM1464 1880l-315 -276h-234l-155 276h153l138 -182l256 182h157z" />
    <glyph glyph-name="gcaron" unicode="&#x1e7;" 
d="M938 174q-41 -194 -88.5 -301.5t-124.5 -181.5q-69 -66 -173 -101.5t-226 -35.5q-165 0 -264 71t-99 189q0 20 2 36l2 27h172v-29q0 -69 58.5 -108t162.5 -39q163 0 253.5 90t134.5 299l8 41q-156 -162 -353 -162q-157 0 -255.5 105t-98.5 272q0 117 28 229t82 207
t126.5 167.5t167.5 113.5t200 41q197 0 285 -191l35 160h155zM858 694q0 115 -59 183.5t-158 68.5q-117 0 -213 -82t-147.5 -211.5t-51.5 -273.5q0 -121 60.5 -191.5t163.5 -70.5q118 0 212 81.5t143.5 212.5t49.5 283zM1077 1495l-262 -307h-194l-132 307h129l115 -203
l213 203h131z" />
    <glyph glyph-name="Oogonek" unicode="&#x1ea;" horiz-adv-x="1593" 
d="M1595 963q0 -220 -79 -419t-231.5 -346.5t-352.5 -203.5q-96 -27 -165 -87t-69 -134q0 -84 66 -84h100l-28 -160h-103q-85 0 -141.5 44t-56.5 116q0 153 165 274q-274 0 -430.5 152.5t-156.5 433.5q0 124 31.5 247.5t87.5 231t137.5 200.5t178 159.5t213 104.5t238.5 38
q279 0 437.5 -149.5t158.5 -417.5zM1399 926q0 207 -113.5 322.5t-310.5 115.5q-142 0 -267.5 -67.5t-212 -178.5t-136.5 -255.5t-50 -297.5q0 -207 114 -321.5t304 -114.5q143 0 270 67.5t214 178t137.5 255t50.5 296.5z" />
    <glyph glyph-name="oogonek" unicode="&#x1eb;" 
d="M1077 721q0 -239 -99 -424t-271 -270q-236 -115 -236 -254q0 -84 66 -84h100l-29 -160h-102q-85 0 -142 44t-57 116q0 154 174 280h-28q-173 0 -281.5 103t-108.5 272q0 152 43.5 290t122 242.5t196.5 166t259 61.5q180 0 286.5 -108t106.5 -275zM897 682
q0 125 -63 194.5t-177 69.5q-118 0 -213.5 -78.5t-147.5 -206.5t-52 -276q0 -122 63.5 -190t173.5 -68q119 0 215 75t148.5 201.5t52.5 278.5z" />
    <glyph glyph-name="Gacute" unicode="&#x1f4;" horiz-adv-x="1593" 
d="M1522 788l-168 -788h-121l-10 176q-142 -120 -265 -166.5t-284 -46.5q-248 0 -399.5 154t-151.5 428q0 143 42 286t123 268t190.5 222t254 153t303.5 56q239 0 378.5 -124.5t139.5 -330.5v-12v-23h-186q-3 153 -105.5 238.5t-263.5 85.5q-143 0 -270.5 -65.5
t-216.5 -173.5t-141 -251.5t-52 -295.5q0 -216 106 -332.5t316 -116.5q201 0 360 120.5t204 317.5l12 54h-455l37 167h623zM1567 1876l-443 -272h-147l315 272h275z" />
    <glyph glyph-name="gacute" unicode="&#x1f5;" 
d="M938 174q-41 -194 -88.5 -301.5t-124.5 -181.5q-69 -66 -173 -101.5t-226 -35.5q-165 0 -264 71t-99 189q0 20 2 36l2 27h172v-29q0 -69 58.5 -108t162.5 -39q163 0 253.5 90t134.5 299l8 41q-156 -162 -353 -162q-157 0 -255.5 105t-98.5 272q0 117 28 229t82 207
t126.5 167.5t167.5 113.5t200 41q197 0 285 -191l35 160h155zM858 694q0 115 -59 183.5t-158 68.5q-117 0 -213 -82t-147.5 -211.5t-51.5 -273.5q0 -121 60.5 -191.5t163.5 -70.5q118 0 212 81.5t143.5 212.5t49.5 283zM1149 1493l-369 -303h-123l263 303h229z" />
    <glyph glyph-name="Aringacute" unicode="&#x1fa;" horiz-adv-x="1366" 
d="M1235 0h-209l-55 449h-584l-252 -449h-203l850 1493h246zM950 608l-82 682l-391 -682h473zM1530 2281l-443 -272h-147l315 272h275zM1167 1819q0 -95 -74.5 -169.5t-170.5 -74.5q-67 0 -113.5 46t-46.5 112q0 89 76 162t168 73q69 0 115 -43t46 -106zM1065 1790
q0 34 -22 57t-54 23q-47 0 -85 -37t-38 -80q0 -35 22 -57.5t56 -22.5q45 0 83 37t38 80z" />
    <glyph glyph-name="aringacute" unicode="&#x1fb;" 
d="M1008 0q-26 -4 -47 -8.5t-28.5 -6t-15.5 -2.5t-18 -1q-80 0 -121 23.5t-41 82.5l2 31q-109 -91 -202 -120.5t-207 -29.5q-139 0 -218 66t-79 188q0 89 43 162.5t123 124.5q74 47 162.5 67t297.5 41q110 9 153.5 34t53.5 87l6 37q1 6 2 15t2 14.5t1 9.5q0 57 -62.5 94
t-155.5 37q-114 0 -181.5 -46t-98.5 -144h-172q29 170 156.5 259t341.5 89q161 0 258.5 -64t97.5 -168q0 -20 -12 -75l-125 -588q-2 -6 -2 -21q0 -59 77 -59q17 0 35 4zM821 528q-64 -22 -104 -29.5t-195 -29.5q-163 -23 -236 -76t-73 -149q0 -127 184 -127q135 0 251 70
t136 165zM1323 1862l-442 -273h-148l316 273h274zM961 1399q0 -95 -74.5 -169.5t-171.5 -74.5q-67 0 -113.5 46t-46.5 112q0 89 76 162t168 73q69 0 115.5 -43t46.5 -106zM858 1370q0 34 -22 57t-54 23q-47 0 -85 -37t-38 -80q0 -35 22 -57.5t56 -22.5q45 0 83 37t38 80z
" />
    <glyph glyph-name="AEacute" unicode="&#x1fc;" horiz-adv-x="2048" 
d="M1843 0h-987l92 438h-551l-266 -438h-211l930 1493h1274l-35 -168h-760l-100 -477h719l-37 -168h-719l-109 -512h795zM985 604l152 721h-205l-434 -721h487zM1808 1876l-442 -272h-147l315 272h274z" />
    <glyph glyph-name="aeacute" unicode="&#x1fd;" horiz-adv-x="1820" 
d="M1737 479h-791q-10 -46 -10 -108v-37q3 -75 74 -141t186 -66q100 0 180 52t133 147h172q-46 -157 -190 -257t-328 -100q-123 0 -209.5 51t-146.5 158q-103 -100 -232 -154.5t-262 -54.5q-136 0 -215.5 64t-79.5 182q0 89 45 167t123 128q74 46 162 65.5t293 38.5
q109 9 150.5 34t54.5 91l10 52q4 28 4 38q0 54 -57.5 85.5t-155.5 31.5q-122 0 -189.5 -44.5t-99.5 -145.5h-172q25 89 48.5 137.5t60.5 85.5q61 60 164 92.5t231 32.5q113 0 207 -38t119 -95q69 62 169 97.5t204 35.5q157 0 270 -102.5t113 -243.5q0 -86 -29 -244zM801 526
q-58 -21 -99.5 -29t-191.5 -28q-166 -23 -237.5 -76.5t-71.5 -148.5q0 -127 186 -127q129 0 243 71.5t134 163.5zM1585 627q6 47 6 67q0 116 -63.5 184t-171.5 68q-128 0 -227 -84.5t-146 -234.5h602zM1491 1493l-369 -303h-123l263 303h229z" />
    <glyph glyph-name="Oslashacute" unicode="&#x1fe;" horiz-adv-x="1593" 
d="M1724 1450l-202 -178q73 -125 73 -309q0 -154 -40.5 -301.5t-119 -273.5t-185.5 -221.5t-249 -149.5t-301 -54q-299 0 -454 178l-197 -174l-65 76l204 180q-75 135 -75 326q0 124 31.5 247.5t87.5 231t137.5 200.5t178 159.5t213 104.5t238.5 38q306 0 465 -176l193 172z
M1399 926q0 117 -37 204l-965 -856q114 -145 330 -145q143 0 270 67.5t214 178t137.5 255t50.5 296.5zM1311 1219q-111 145 -336 145q-142 0 -267.5 -67.5t-212 -178.5t-136.5 -255.5t-50 -297.5q0 -116 37 -200zM1550 1876l-442 -272h-147l315 272h274z" />
    <glyph glyph-name="oslashacute" unicode="&#x1ff;" horiz-adv-x="1251" 
d="M1161 1030l-127 -121q43 -82 43 -188q0 -212 -77.5 -383t-220.5 -270t-326 -99q-184 0 -295 117l-115 -106l-63 63l124 119q-41 77 -41 182q0 152 43.5 290t122 242.5t196.5 166t259 61.5q188 0 297 -119l119 109zM897 682q0 42 -10 90l-594 -559q64 -86 188 -86
q119 0 215 75t148.5 201.5t52.5 278.5zM848 858q-63 88 -191 88q-118 0 -213.5 -78.5t-147.5 -206.5t-52 -276q0 -52 10 -86zM1206 1493l-368 -303h-123l262 303h229z" />
    <glyph glyph-name="Adblgrave" unicode="&#x200;" horiz-adv-x="1366" 
d="M1235 0h-209l-55 449h-584l-252 -449h-203l850 1493h246zM950 608l-82 682l-391 -682h473zM1198 1608h-123l-239 307h229zM821 1608h-123l-239 307h229z" />
    <glyph glyph-name="adblgrave" unicode="&#x201;" 
d="M1008 0q-26 -4 -47 -8.5t-28.5 -6t-15.5 -2.5t-18 -1q-80 0 -121 23.5t-41 82.5l2 31q-109 -91 -202 -120.5t-207 -29.5q-139 0 -218 66t-79 188q0 89 43 162.5t123 124.5q74 47 162.5 67t297.5 41q110 9 153.5 34t53.5 87l6 37q1 6 2 15t2 14.5t1 9.5q0 57 -62.5 94
t-155.5 37q-114 0 -181.5 -46t-98.5 -144h-172q29 170 156.5 259t341.5 89q161 0 258.5 -64t97.5 -168q0 -20 -12 -75l-125 -588q-2 -6 -2 -21q0 -59 77 -59q17 0 35 4zM821 528q-64 -22 -104 -29.5t-195 -29.5q-163 -23 -236 -76t-73 -149q0 -127 184 -127q135 0 251 70
t136 165zM991 1188h-123l-239 307h229zM614 1188h-122l-240 307h229z" />
    <glyph glyph-name="Edblgrave" unicode="&#x204;" horiz-adv-x="1366" 
d="M1153 0h-1071l317 1493h1037l-35 -168h-844l-102 -477h811l-37 -168h-809l-111 -512h879zM1210 1608h-123l-239 307h229zM834 1608h-123l-240 307h229z" />
    <glyph glyph-name="edblgrave" unicode="&#x205;" 
d="M1053 487h-791q-13 -49 -10 -94q0 -129 66.5 -197.5t189.5 -68.5q101 0 181.5 52t133.5 147h172q-47 -164 -188.5 -260.5t-327.5 -96.5q-182 0 -294.5 114t-112.5 279q0 124 49 274t121 247q76 103 197 162t255 59q166 0 278.5 -101t112.5 -249q0 -88 -28 -240zM901 635
q4 50 4 59q0 116 -64 184t-173 68q-124 0 -227.5 -87.5t-141.5 -223.5h602zM989 1188h-123l-239 307h229zM612 1188h-123l-239 307h229z" />
    <glyph glyph-name="Idblgrave" unicode="&#x208;" horiz-adv-x="569" 
d="M612 1493l-317 -1493h-193l318 1493h192zM809 1608h-123l-240 307h230zM432 1608h-123l-239 307h229z" />
    <glyph glyph-name="idblgrave" unicode="&#x209;" horiz-adv-x="569" 
d="M268 0h-172l228 1073h172zM705 1188h-123l-240 307h229zM328 1188h-123l-240 307h230z" />
    <glyph glyph-name="Odblgrave" unicode="&#x20c;" horiz-adv-x="1593" 
d="M1595 963q0 -154 -40.5 -301.5t-119 -273.5t-185.5 -221.5t-249 -149.5t-301 -54q-274 0 -430.5 152.5t-156.5 433.5q0 124 31.5 247.5t87.5 231t137.5 200.5t178 159.5t213 104.5t238.5 38q279 0 437.5 -149.5t158.5 -417.5zM1399 926q0 207 -113.5 322.5t-310.5 115.5
q-142 0 -267.5 -67.5t-212 -178.5t-136.5 -255.5t-50 -297.5q0 -207 114 -321.5t304 -114.5q143 0 270 67.5t214 178t137.5 255t50.5 296.5zM1286 1608h-123l-239 307h229zM909 1608h-123l-239 307h229z" />
    <glyph glyph-name="odblgrave" unicode="&#x20d;" 
d="M1077 721q0 -212 -77.5 -383t-220.5 -270t-326 -99q-173 0 -281.5 103t-108.5 272q0 152 43.5 290t122 242.5t196.5 166t259 61.5q180 0 286.5 -108t106.5 -275zM897 682q0 125 -63 194.5t-177 69.5q-118 0 -213.5 -78.5t-147.5 -206.5t-52 -276q0 -122 63.5 -190
t173.5 -68q119 0 215 75t148.5 201.5t52.5 278.5zM971 1188h-123l-240 307h230zM594 1188h-123l-240 307h230z" />
    <glyph glyph-name="Rdblgrave" unicode="&#x210;" horiz-adv-x="1478" 
d="M1298 47l-10 -47h-231q-8 57 -8 96q0 49 6 83t43 188q16 72 16 122q0 75 -53.5 114.5t-153.5 39.5h-489l-137 -643h-193l318 1493h688q197 0 289 -76t92 -239q0 -152 -70 -255.5t-217 -185.5q72 -47 97.5 -88t25.5 -108q0 -62 -43 -283q-13 -70 -13 -102q0 -69 43 -109z
M1278 1143q0 93 -56 137.5t-188 44.5h-471l-110 -514h473q171 0 261.5 93t90.5 239zM1210 1608h-123l-239 307h229zM834 1608h-123l-240 307h229z" />
    <glyph glyph-name="rdblgrave" unicode="&#x211;" horiz-adv-x="681" 
d="M754 924h-21q-160 0 -262.5 -93t-140.5 -274l-119 -557h-172l227 1073h156l-35 -168q95 109 172 154t166 45q25 0 66 -6zM733 1188h-123l-239 307h229zM356 1188h-123l-239 307h229z" />
    <glyph glyph-name="Udblgrave" unicode="&#x214;" horiz-adv-x="1478" 
d="M1536 1493l-221 -1038q-47 -224 -230.5 -358t-441.5 -134q-219 0 -354 102.5t-135 262.5q0 60 28 196l207 969h193l-222 -1038q-10 -41 -10 -90q0 -106 91 -171t239 -65q173 0 291.5 87t150.5 239l221 1038h193zM1255 1608h-122l-240 307h229zM879 1608h-123l-240 307
h229z" />
    <glyph glyph-name="udblgrave" unicode="&#x215;" 
d="M887 0h-156l27 125q-89 -81 -182 -118.5t-211 -37.5q-132 0 -207.5 60t-75.5 164q0 39 6 69l172 811h172l-158 -743q-6 -30 -6 -56q0 -72 50 -114.5t133 -42.5q131 0 231 99.5t135 264.5l125 592h172zM989 1188h-123l-239 307h229zM612 1188h-123l-239 307h229z" />
    <glyph glyph-name="uni0218" unicode="&#x218;" horiz-adv-x="1366" 
d="M1270 496q0 -86 -50 -187.5t-128 -173.5q-184 -172 -517 -172q-232 0 -362.5 104t-130.5 289q0 61 18 129h179q-9 -59 -9 -84q0 -139 82.5 -205.5t255.5 -66.5q205 0 335 89.5t130 219.5q0 72 -54.5 121t-176.5 84l-350 100q-103 29 -165.5 105t-62.5 172q0 78 42.5 175
t105.5 161q168 174 487 174q214 0 338.5 -95.5t124.5 -252.5q0 -39 -16 -115h-181q9 61 9 74q0 223 -312 223q-176 0 -288.5 -83t-112.5 -208q0 -67 44 -104.5t163 -71.5l352 -100q115 -34 182.5 -116t67.5 -185zM614 -313q-28 -126 -97.5 -197.5t-166.5 -71.5l17 78
q117 0 151 180h-112l43 201h204z" />
    <glyph glyph-name="uni0219" unicode="&#x219;" horiz-adv-x="1024" 
d="M911 371q0 -183 -137 -292.5t-366 -109.5q-179 0 -280 69.5t-101 192.5q0 49 12 105h182q-4 -40 -4 -51q0 -76 57.5 -117t163.5 -41q121 0 207 55.5t86 141.5q0 40 -28 69t-115 51l-152 39q-158 40 -220 93t-62 147q0 165 131 273t342 108q149 0 242.5 -67.5t93.5 -174.5
q0 -32 -13 -88h-172q2 16 2 45q0 60 -49 93.5t-139 33.5q-116 0 -187 -49.5t-71 -128.5t174 -123l156 -39q135 -34 191 -87.5t56 -147.5zM444 -313q-28 -126 -97.5 -197.5t-166.5 -71.5l17 78q117 0 151 180h-112l43 201h204z" />
    <glyph glyph-name="uni021A" unicode="&#x21a;" horiz-adv-x="1251" 
d="M1395 1325h-488l-282 -1325h-193l283 1325h-494l35 168h1174zM563 -313q-28 -126 -97.5 -197.5t-166.5 -71.5l16 78q118 0 152 180h-113l43 201h205z" />
    <glyph glyph-name="uni021B" unicode="&#x21b;" horiz-adv-x="569" 
d="M451 150l-33 -150q-51 -14 -133 -14q-85 0 -134 43t-49 118q0 29 7 64l155 725h-145l28 137h146l63 295h172l-63 -295h182l-29 -137h-182l-153 -719q-4 -24 -4 -29q0 -25 19.5 -40t53.5 -15q22 0 99 17zM272 -313q-28 -126 -97.5 -197.5t-166.5 -71.5l17 78
q117 0 151 180h-113l43 201h205z" />
    <glyph glyph-name="ereversed" unicode="&#x258;" 
d="M1010 362q-70 -165 -230.5 -279t-343.5 -114q-186 0 -287 96.5t-79 260.5h172q14 -96 72 -147.5t159 -51.5q122 0 218 68t153 198q20 45 28 94h-790l8 27q36 155 72 240q63 148 218.5 249t321.5 101q134 0 230.5 -59t128.5 -162q31 -96 17 -247t-68 -274zM899 635
q19 136 -47 223.5t-190 87.5q-109 0 -202 -68t-143 -184q-6 -14 -20 -59h602z" />
    <glyph glyph-name="schwa" unicode="&#x259;" 
d="M1083 711q0 -124 -49 -274t-121 -247q-76 -103 -197 -162t-255 -59q-166 0 -278.5 101t-112.5 249q0 88 28 240l4 27h791q13 49 10 94q0 130 -66 198t-188 68q-203 0 -317 -198h-172q47 164 189 260t329 96q182 0 293.5 -114t111.5 -279zM856 438h-602q-4 -50 -4 -59
q0 -116 64 -184t173 -68q124 0 227.5 87.5t141.5 223.5z" />
    <glyph glyph-name="ringhalfright" unicode="&#x2be;" horiz-adv-x="927" 
d="M920 1169q-2 -227 -122.5 -372.5t-314.5 -145.5q-111 0 -179.5 63.5t-70.5 149.5l1 14q2 15 2 27l2 21q0 7 6 12.5t14 5.5h115q14 0 14 -14q-2 -10 -2 -29q-1 -52 32.5 -82.5t92.5 -30.5q112 0 183 108t71 251q0 73 -38 114.5t-103 41.5q-136 0 -193 -148q-7 -14 -18 -14
h-115q-7 0 -11.5 5t-2.5 13q45 150 134 215.5t232 65.5q124 0 197.5 -76t73.5 -195z" />
    <glyph glyph-name="ringhalfleft" unicode="&#x2bf;" horiz-adv-x="927" 
d="M885 932q-45 -150 -133.5 -215.5t-231.5 -65.5q-124 0 -198 76t-72 195q0 227 120 372.5t314 145.5q111 0 180.5 -63.5t69.5 -149.5l-1 -15q-1 -14 -1 -26l-2 -21q0 -7 -6.5 -12.5t-14.5 -5.5h-114q-13 0 -13 14q3 16 0 29q1 52 -32.5 82.5t-92.5 30.5q-112 0 -183 -108
t-71 -251q0 -73 38.5 -114.5t103.5 -41.5q138 0 192 148q7 14 21 14h114q17 0 13 -18z" />
    <glyph glyph-name="circumflex" unicode="&#x2c6;" horiz-adv-x="681" 
d="M784 1188h-129l-114 203l-213 -203h-131l262 307h194z" />
    <glyph glyph-name="caron" unicode="&#x2c7;" horiz-adv-x="681" 
d="M850 1495l-262 -307h-195l-131 307h129l115 -203l213 203h131z" />
    <glyph glyph-name="breve" unicode="&#x2d8;" horiz-adv-x="681" 
d="M860 1481q-35 -140 -132.5 -208.5t-233.5 -68.5q-116 0 -188.5 56t-72.5 147q0 20 11 74h108v-27q0 -46 46.5 -74t121.5 -28q91 0 150.5 34t74.5 95h115z" />
    <glyph glyph-name="dotaccent" unicode="&#x2d9;" horiz-adv-x="681" 
d="M651 1448l-45 -211h-213l45 211h213z" />
    <glyph glyph-name="ring" unicode="&#x2da;" horiz-adv-x="681" 
d="M727 1389q0 -95 -74.5 -169.5t-171.5 -74.5q-67 0 -113 46t-46 112q0 89 75.5 162t167.5 73q69 0 115.5 -43t46.5 -106zM625 1360q0 34 -22 57t-54 23q-47 0 -85 -37t-38 -80q0 -35 22 -57.5t56 -22.5q45 0 83 37t38 80z" />
    <glyph glyph-name="ogonek" unicode="&#x2db;" horiz-adv-x="681" 
d="M403 -471h-102q-85 0 -142 44t-57 116q0 174 220 311h133q-92 -61 -140.5 -114.5t-48.5 -112.5q0 -84 66 -84h100z" />
    <glyph glyph-name="tilde" unicode="&#x2dc;" horiz-adv-x="681" 
d="M858 1452q-32 -100 -92 -159.5t-129 -59.5q-34 0 -74.5 10t-136.5 43q-34 12 -55 12q-35 0 -54 -13.5t-49 -53.5h-108q38 113 88 162t125 49q14 0 132 -33t146 -33q31 0 51 15.5t48 60.5h108z" />
    <glyph glyph-name="hungarumlaut" unicode="&#x2dd;" horiz-adv-x="681" 
d="M715 1495l-369 -307h-123l262 307h230zM1092 1495l-369 -307h-123l262 307h230z" />
    <glyph glyph-name="uni0300" unicode="&#x300;" horiz-adv-x="0" 
d="M-356 1190h-123l-240 303h230z" />
    <glyph glyph-name="uni0301" unicode="&#x301;" horiz-adv-x="0" 
d="M12 1493l-368 -303h-123l262 303h229z" />
    <glyph glyph-name="uni0302" unicode="&#x302;" horiz-adv-x="0" 
d="M-125 1188h-129l-115 203l-213 -203h-131l262 307h195z" />
    <glyph glyph-name="uni0303" unicode="&#x303;" horiz-adv-x="0" 
d="M-51 1452q-32 -100 -92 -159.5t-129 -59.5q-34 0 -74.5 10t-136.5 43q-35 12 -56 12q-35 0 -53.5 -13.5t-48.5 -53.5h-109q38 113 88 162t125 49q14 0 132.5 -33t146.5 -33q30 0 50 15.5t48 60.5h109z" />
    <glyph glyph-name="uni0304" unicode="&#x304;" horiz-adv-x="0" 
d="M-92 1413l-31 -141h-563l31 141h563z" />
    <glyph glyph-name="uni0306" unicode="&#x306;" horiz-adv-x="0" 
d="M-49 1481q-35 -140 -133 -208.5t-234 -68.5q-116 0 -188 56t-72 147q0 25 10 74h109v-27q0 -46 46.5 -74t121.5 -28q91 0 150.5 34t74.5 95h115z" />
    <glyph glyph-name="uni0307" unicode="&#x307;" horiz-adv-x="0" 
d="M-258 1448l-45 -211h-213l45 211h213z" />
    <glyph glyph-name="uni0308" unicode="&#x308;" horiz-adv-x="0" 
d="M-481 1237h-187l45 209h187zM-150 1237h-186l45 209h187z" />
    <glyph glyph-name="uni0309" unicode="&#x309;" horiz-adv-x="0" 
d="M-150 1470q0 -49 -32.5 -90.5t-106.5 -85.5q-46 -27 -61.5 -40.5t-24.5 -36.5l-12 -48h-119l19 68q10 35 32 56t99 73q48 30 67 50.5t19 43.5q0 19 -22 30t-56 11q-51 0 -81.5 -27t-45.5 -85h-115q49 208 260 208q83 0 131.5 -35t48.5 -92z" />
    <glyph glyph-name="uni030A" unicode="&#x30a;" horiz-adv-x="0" 
d="M-182 1389q0 -95 -74.5 -169.5t-171.5 -74.5q-67 0 -113.5 46t-46.5 112q0 89 76 162t168 73q69 0 115.5 -43t46.5 -106zM-285 1360q0 34 -21.5 57t-53.5 23q-47 0 -85 -37t-38 -80q0 -35 21.5 -57.5t55.5 -22.5q45 0 83 37t38 80z" />
    <glyph glyph-name="uni030B" unicode="&#x30b;" horiz-adv-x="0" 
d="M-195 1495l-368 -307h-123l262 307h229zM182 1495l-368 -307h-123l262 307h229z" />
    <glyph glyph-name="uni030C" unicode="&#x30c;" horiz-adv-x="0" 
d="M-59 1495l-263 -307h-194l-131 307h129l115 -203l213 203h131z" />
    <glyph glyph-name="uni030F" unicode="&#x30f;" horiz-adv-x="0" 
d="M-150 1188h-122l-240 307h229zM-526 1188h-123l-240 307h230z" />
    <glyph glyph-name="uni0311" unicode="&#x311;" horiz-adv-x="0" 
d="M-109 1204h-108v27q0 46 -46.5 74t-121.5 28q-91 0 -150.5 -34t-74.5 -95h-115q35 140 133 208.5t234 68.5q116 0 188 -56t72 -147q0 -20 -11 -74z" />
    <glyph glyph-name="uni0323" unicode="&#x323;" horiz-adv-x="0" 
d="M-600 -162l-45 -211h-213l45 211h213z" />
    <glyph glyph-name="uni0326" unicode="&#x326;" horiz-adv-x="0" 
d="M-633 -313q-28 -126 -97.5 -197.5t-166.5 -71.5l16 78q118 0 152 180h-113l43 201h205z" />
    <glyph glyph-name="uni032E" unicode="&#x32e;" horiz-adv-x="0" 
d="M-332 -145q-43 -115 -164 -179.5t-280 -64.5q-134 0 -220.5 55t-86.5 131q0 21 12 58h131v-21q0 -38 55 -61t146 -23q109 0 180 27.5t90 77.5h137z" />
    <glyph glyph-name="uni032F" unicode="&#x32f;" horiz-adv-x="0" 
d="M-373 -332q0 -20 -12 -57h-131v20q0 38 -55 61t-146 23q-109 0 -180 -27.5t-90 -76.5h-137q43 115 164 179.5t280 64.5q134 0 220.5 -55.5t86.5 -131.5z" />
    <glyph glyph-name="uni0330" unicode="&#x330;" horiz-adv-x="0" 
d="M-393 -158q-32 -100 -92 -159.5t-129 -59.5q-34 0 -74.5 10t-136.5 43q-37 13 -56 13q-34 0 -52.5 -13.5t-49.5 -54.5h-109q38 113 88 162t125 49q14 0 132.5 -32.5t146.5 -32.5q31 0 50.5 15t47.5 60h109z" />
    <glyph glyph-name="uni0331" unicode="&#x331;" horiz-adv-x="0" 
d="M-434 -197l-31 -141h-563l31 141h563z" />
    <glyph glyph-name="uni0332" unicode="&#x332;" horiz-adv-x="0" 
d="M-434 -197l-31 -141h-563l31 141h563z" />
    <glyph glyph-name="Alpha" unicode="&#x391;" horiz-adv-x="1366" 
d="M1235 0h-209l-55 449h-584l-252 -449h-203l850 1493h246zM950 608l-82 682l-391 -682h473z" />
    <glyph glyph-name="Beta" unicode="&#x392;" horiz-adv-x="1366" 
d="M1274 528q0 -149 -74 -271t-197 -189.5t-268 -67.5h-676l318 1493h606q172 0 271.5 -80.5t99.5 -216.5t-72.5 -243t-206.5 -167q107 -46 153 -105t46 -153zM1157 1149q0 91 -61.5 133.5t-192.5 42.5h-368l-103 -475h369q176 0 266 82t90 217zM1077 496q0 91 -55.5 138.5
t-161.5 47.5h-463l-110 -514h465q142 0 233.5 92.5t91.5 235.5z" />
    <glyph glyph-name="Gamma" unicode="&#x393;" horiz-adv-x="1251" 
d="M1366 1325h-809l-283 -1325h-192l317 1493h1002z" />
    <glyph glyph-name="Delta" unicode="&#x394;" horiz-adv-x="1458" 
d="M1360 0h-1466l968 1464h152zM1137 168l-250 1057l-699 -1057h949z" />
    <glyph glyph-name="Epsilon" unicode="&#x395;" horiz-adv-x="1366" 
d="M1153 0h-1071l317 1493h1037l-35 -168h-844l-102 -477h811l-37 -168h-809l-111 -512h879z" />
    <glyph glyph-name="Zeta" unicode="&#x396;" horiz-adv-x="1251" 
d="M1094 0h-1139l37 172l1136 1153h-831l35 168h1075l-37 -172l-1139 -1153h897z" />
    <glyph glyph-name="Eta" unicode="&#x397;" horiz-adv-x="1478" 
d="M1534 1493l-317 -1493h-193l145 680h-763l-146 -680h-192l317 1493h193l-138 -645h764l137 645h193z" />
    <glyph glyph-name="Theta" unicode="&#x398;" horiz-adv-x="1593" 
d="M1595 963q0 -154 -40.5 -301.5t-119 -273.5t-185.5 -221.5t-249 -149.5t-301 -54q-274 0 -430.5 152.5t-156.5 433.5q0 124 31.5 247.5t87.5 231t137.5 200.5t178 159.5t213 104.5t238.5 38q279 0 437.5 -149.5t158.5 -417.5zM1399 926q0 207 -113.5 322.5t-310.5 115.5
q-142 0 -267.5 -67.5t-212 -178.5t-136.5 -255.5t-50 -297.5q0 -207 114 -321.5t304 -114.5q143 0 270 67.5t214 178t137.5 255t50.5 296.5zM1243 664h-815l37 167h815z" />
    <glyph glyph-name="Iota" unicode="&#x399;" horiz-adv-x="569" 
d="M612 1493l-317 -1493h-193l318 1493h192z" />
    <glyph glyph-name="Kappa" unicode="&#x39a;" horiz-adv-x="1366" 
d="M1563 1493l-740 -610l422 -883h-225l-344 770l-316 -260l-108 -510h-193l318 1493h192l-161 -764l909 764h246z" />
    <glyph glyph-name="Lambda" unicode="&#x39b;" horiz-adv-x="1366" 
d="M1235 0h-209l-158 1290l-733 -1290h-203l850 1493h246z" />
    <glyph glyph-name="Mu" unicode="&#x39c;" horiz-adv-x="1705" 
d="M1774 1493l-318 -1493h-182l264 1239l-684 -1239h-199l-157 1239l-265 -1239h-182l318 1493h264l164 -1284l708 1284h269z" />
    <glyph glyph-name="Nu" unicode="&#x39d;" horiz-adv-x="1478" 
d="M1538 1493l-317 -1493h-217l-510 1210l-258 -1210h-183l318 1493h213l512 -1225l260 1225h182z" />
    <glyph glyph-name="Xi" unicode="&#x39e;" horiz-adv-x="1478" 
d="M1573 1305h-1319l41 188h1319zM1245 664h-934l35 167h934zM1296 0h-1319l41 188h1319z" />
    <glyph glyph-name="Omicron" unicode="&#x39f;" horiz-adv-x="1593" 
d="M1595 963q0 -154 -40.5 -301.5t-119 -273.5t-185.5 -221.5t-249 -149.5t-301 -54q-274 0 -430.5 152.5t-156.5 433.5q0 124 31.5 247.5t87.5 231t137.5 200.5t178 159.5t213 104.5t238.5 38q279 0 437.5 -149.5t158.5 -417.5zM1399 926q0 207 -113.5 322.5t-310.5 115.5
q-142 0 -267.5 -67.5t-212 -178.5t-136.5 -255.5t-50 -297.5q0 -207 114 -321.5t304 -114.5q143 0 270 67.5t214 178t137.5 255t50.5 296.5z" />
    <glyph glyph-name="Pi" unicode="&#x3a0;" horiz-adv-x="1271" 
d="M1425 1493l-317 -1493h-190l282 1325h-768l-282 -1325h-191l317 1493h1149z" />
    <glyph glyph-name="Rho" unicode="&#x3a1;" horiz-adv-x="1366" 
d="M1399 1163q0 -138 -64.5 -259t-185 -196t-270.5 -75h-467l-136 -633h-192l317 1493h619q187 0 283 -83.5t96 -246.5zM1202 1126q0 97 -63 148t-183 51h-397l-113 -524h398q157 0 257.5 94t100.5 231z" />
    <glyph glyph-name="Sigma" unicode="&#x3a3;" horiz-adv-x="1232" 
d="M1069 0h-1110l33 152l721 596l-469 593l32 152h1108l-34 -168h-856l456 -577l-702 -580h856z" />
    <glyph glyph-name="Tau" unicode="&#x3a4;" horiz-adv-x="1251" 
d="M1395 1325h-488l-282 -1325h-193l283 1325h-494l35 168h1174z" />
    <glyph glyph-name="Upsilon" unicode="&#x3a5;" horiz-adv-x="1366" 
d="M1569 1493l-754 -907l-125 -586h-192l125 586l-381 907h229l279 -731l591 731h228z" />
    <glyph glyph-name="Phi" unicode="&#x3a6;" horiz-adv-x="1558" 
d="M1475 748q-26 -126 -124.5 -225t-231 -153.5t-283.5 -68.5l-64 -301h-192l63 301q-107 10 -196.5 45t-153.5 90t-91 136t-7 176q26 125 124.5 223.5t231 152.5t283.5 68l63 301h193l-64 -301q107 -10 196.5 -44.5t153.5 -89.5t91.5 -135t7.5 -175zM1298 748
q13 63 -5.5 114.5t-63 86.5t-104 56.5t-132.5 30.5l-125 -579q164 19 284 93t146 198zM801 1036q-105 -12 -193 -45.5t-153.5 -96.5t-83.5 -146q-26 -124 62.5 -198t242.5 -93z" />
    <glyph glyph-name="Chi" unicode="&#x3a7;" horiz-adv-x="1366" 
d="M1229 0h-236l-274 623l-541 -623h-235l694 766l-342 727h231l256 -584l508 584h234l-662 -727z" />
    <glyph glyph-name="Psi" unicode="&#x3a8;" horiz-adv-x="1525" 
d="M1511 1073q-32 -152 -130 -283t-236.5 -216t-290.5 -107l-98 -467h-193l99 467q-142 22 -244.5 107t-144 216t-9.5 283l90 420h176l-90 -420q-35 -162 37.5 -288t218.5 -160l185 868h192l-184 -868q159 34 285 160t161 288l88 420h176z" />
    <glyph glyph-name="Omega" unicode="&#x3a9;" horiz-adv-x="1556" 
d="M1430 168l-37 -168h-598l88 412q118 31 219 114.5t163 202t62 244.5q0 163 -100.5 270t-263.5 107q-107 0 -211 -49.5t-182.5 -129.5t-126.5 -187.5t-48 -217.5q0 -129 67 -224.5t181 -129.5l-86 -412h-598l35 168h407l29 137q-108 66 -168.5 178.5t-60.5 249.5
q0 121 44 240t121.5 215.5t177 171.5t217.5 116.5t236 41.5q230 0 377.5 -146t147.5 -366q0 -217 -134 -408.5t-337 -292.5l-29 -137h408z" />
    <glyph glyph-name="alpha" unicode="&#x3b1;" horiz-adv-x="1576" 
d="M1343 45l-155 -90q-42 91 -72 342q-114 -147 -249 -234.5t-279 -87.5q-112 0 -205.5 42t-153.5 113t-83.5 170.5t-0.5 209.5q25 118 91 226t156.5 187.5t204 127t228.5 47.5q287 0 389 -367q182 340 222 387l116 -90q-58 -66 -301 -518q10 -103 18.5 -167.5t27.5 -150.5
t46 -147zM1094 510q-46 432 -301 432q-165 0 -304 -128t-176 -304q-34 -158 57 -268.5t251 -110.5q137 0 258 106.5t215 272.5z" />
    <glyph glyph-name="beta" unicode="&#x3b2;" horiz-adv-x="1124" 
d="M1057 569q0 -261 -169 -430.5t-431 -169.5q-142 0 -224 94l-114 -534h-172l334 1573q39 183 171 287t306 104q173 0 272.5 -80.5t99.5 -220.5q0 -123 -63.5 -219t-181.5 -148q172 -75 172 -256zM877 514q0 201 -254 201h-64l37 168q152 0 253 77.5t101 196.5
q0 83 -53.5 130.5t-148.5 47.5q-119 0 -194.5 -59.5t-100.5 -173.5l-185 -869q86 -98 230 -98q161 0 270 108t109 271z" />
    <glyph glyph-name="gamma" unicode="&#x3b3;" horiz-adv-x="1312" 
d="M1300 1073l-663 -1087l-98 -457h-168l98 457l-203 1087h178l158 -848l520 848h178z" />
    <glyph glyph-name="delta" unicode="&#x3b4;" horiz-adv-x="1124" 
d="M1059 457q-44 -204 -220.5 -346t-383.5 -142q-181 0 -295.5 108t-114.5 277q0 107 45 200t123.5 159.5t178 112t214.5 67.5q-76 76 -115.5 144t-39.5 155q0 137 110.5 219t265.5 82q91 0 165 -38t118 -107l-106 -86q-75 94 -205 94q-82 0 -129 -36t-47 -110q0 -20 4 -39
t8.5 -34.5t17 -34.5t19 -30.5t25.5 -30.5t26.5 -27t31 -28t29.5 -25t33 -26t31 -24q217 -175 217 -381q0 -44 -6 -73zM864 457q6 27 6 69q0 82 -35.5 149.5t-101.5 108.5q-91 0 -179 -29.5t-157 -80.5t-111 -127.5t-42 -163.5q0 -108 67.5 -176t177.5 -68q130 0 238 92.5
t137 225.5z" />
    <glyph glyph-name="epsilon" unicode="&#x3b5;" horiz-adv-x="1247" 
d="M1016 49q-257 -115 -461 -115q-138 0 -248 50t-166 146.5t-30 219.5q36 171 239 240q-142 71 -108 227q21 98 101 173.5t186.5 113t220.5 37.5q215 0 440 -117l-76 -115q-156 76 -397 76q-112 0 -200.5 -42.5t-106.5 -125.5q-9 -43 3 -74t50 -50t73.5 -30t103 -15.5
t107.5 -5.5t117 -1l-26 -125q-60 0 -92 -0.5t-89.5 -2t-91.5 -6t-81 -12t-76 -20t-58.5 -29.5t-46.5 -41.5t-24 -54.5q-17 -80 23.5 -140.5t116 -90t169.5 -29.5q233 0 397 74z" />
    <glyph glyph-name="zeta" unicode="&#x3b6;" horiz-adv-x="1069" 
d="M864 -152q-28 -128 -140 -216.5t-243 -88.5l29 140q64 0 118 49t68 116q14 65 -19.5 111.5t-96.5 46.5h-76q-132 0 -224 73.5t-125 195t-3 262.5q55 256 231 474t424 349h-481l26 125h860l-26 -125h-105q-185 -51 -345.5 -174.5t-268.5 -292t-148 -356.5
q-17 -73 -8.5 -141t34.5 -120t76 -83t116 -31h75q131 0 205.5 -92t46.5 -222z" />
    <glyph glyph-name="eta" unicode="&#x3b7;" 
d="M797 -471h-168l252 1186q20 95 -32.5 161t-146.5 66q-96 0 -185.5 -48.5t-149.5 -127.5l-162 -766h-168l227 1073h168l-18 -90q150 115 321 115q106 0 186 -50.5t115 -139t13 -193.5z" />
    <glyph glyph-name="theta" unicode="&#x3b8;" horiz-adv-x="1189" 
d="M1102 721q-31 -144 -85.5 -273.5t-130.5 -237t-179.5 -171.5t-219.5 -64t-192.5 64t-106.5 171.5t-29 237t31 273.5q26 121 64 232.5t94.5 216t124 180.5t156 122t186.5 46t167 -46t104 -122t47 -180.5t3.5 -215.5t-34.5 -233zM950 799q15 77 22.5 139.5t10 130t-8 117.5
t-32 91.5t-63 63t-99.5 21.5q-69 0 -127.5 -33t-99 -84t-76 -128.5t-58 -150.5t-44.5 -167h575zM915 643h-573q-89 -512 178 -512q270 0 395 512z" />
    <glyph glyph-name="iota" unicode="&#x3b9;" horiz-adv-x="724" 
d="M479 -25q-131 0 -198 103t-37 244l159 751h168l-159 -751q-16 -76 10.5 -133.5t89.5 -57.5z" />
    <glyph glyph-name="kappa" unicode="&#x3ba;" horiz-adv-x="1024" 
d="M926 0h-197l-233 596l-220 -180l-88 -416h-172l228 1073h172l-94 -446l550 446h222l-455 -371z" />
    <glyph glyph-name="lambda" unicode="&#x3bb;" horiz-adv-x="1402" 
d="M1163 0h-180l-131 776l-623 -776h-192l782 973l-12 74q-21 127 -101.5 209.5t-203.5 82.5l30 140q174 0 294.5 -105t150.5 -274z" />
    <glyph glyph-name="mu.greek" unicode="&#x3bc;" horiz-adv-x="1417" 
d="M1036 0h-168l21 94q-135 -119 -289 -119q-153 0 -235 119l-121 -565h-168l327 1544h168l-143 -682q3 -116 55.5 -188t151.5 -72q98 0 181.5 72.5t135.5 187.5l144 682h168z" />
    <glyph glyph-name="nu" unicode="&#x3bd;" horiz-adv-x="1169" 
d="M1149 715q-51 -240 -221.5 -442.5t-407.5 -305.5l-104 43l-221 1063h180l190 -911q160 92 270.5 239t145.5 314q39 174 45 358h170q-6 -174 -47 -358z" />
    <glyph glyph-name="xi" unicode="&#x3be;" 
d="M864 -152q-28 -128 -140 -216.5t-243 -88.5l29 140q64 0 118 49t68 116q14 65 -19.5 111.5t-96.5 46.5h-76q-191 0 -301.5 127t-71.5 311q25 116 110 210t208 151q-87 49 -126.5 128.5t-17.5 180.5q28 147 182 246h-161l26 125h860l-26 -125h-383q-126 -20 -217.5 -83.5
t-112.5 -162.5q-16 -75 22.5 -131t109.5 -82.5t159 -26.5l-31 -139q-97 0 -188.5 -35t-159 -102.5t-86.5 -153.5q-25 -119 45 -200.5t193 -81.5h75q131 0 205.5 -92t46.5 -222z" />
    <glyph glyph-name="omicron" unicode="&#x3bf;" 
d="M1077 721q0 -212 -77.5 -383t-220.5 -270t-326 -99q-173 0 -281.5 103t-108.5 272q0 152 43.5 290t122 242.5t196.5 166t259 61.5q180 0 286.5 -108t106.5 -275zM897 682q0 125 -63 194.5t-177 69.5q-118 0 -213.5 -78.5t-147.5 -206.5t-52 -276q0 -122 63.5 -190
t173.5 -68q119 0 215 75t148.5 201.5t52.5 278.5z" />
    <glyph glyph-name="pi" unicode="&#x3c0;" horiz-adv-x="1376" 
d="M1411 936h-205l-198 -936h-170l198 936h-340l-198 -936h-170l198 936q-119 0 -186.5 -56.5t-93.5 -177.5h-137q24 110 65 182t107.5 114t151.5 58.5t208 16.5h799z" />
    <glyph glyph-name="rho" unicode="&#x3c1;" horiz-adv-x="1302" 
d="M1176 537q-31 -149 -125 -278t-229 -206.5t-277 -77.5q-189 0 -320 125l-121 -571h-167l215 1008q31 149 124.5 277.5t228 206t277.5 77.5t245 -77.5t141 -206t8 -277.5zM1008 537q35 164 -37.5 284.5t-220.5 120.5q-149 0 -272.5 -120.5t-158.5 -284.5l-53 -248
q44 -76 126.5 -117t185.5 -41q148 0 271.5 121t158.5 285z" />
    <glyph glyph-name="uni03C2" unicode="&#x3c2;" 
d="M864 -152q-28 -128 -140 -216.5t-243 -88.5l29 140q64 0 118 49t68 116q14 65 -19.5 111.5t-96.5 46.5h-76q-133 0 -225 76.5t-123.5 201.5t-1.5 269q30 143 115.5 267.5t209.5 201t256 76.5q139 0 229 -90t89 -228l-154 -30q0 85 -55.5 138.5t-141.5 53.5
q-89 0 -170 -56t-134.5 -144t-75.5 -189q-18 -75 -10.5 -145.5t32.5 -125t75.5 -87.5t117.5 -33h75q131 0 205.5 -92t46.5 -222z" />
    <glyph glyph-name="sigma" unicode="&#x3c3;" horiz-adv-x="1329" 
d="M1376 1028q-151 -39 -315 -55q86 -106 86 -252q0 -212 -77.5 -383t-221 -270t-326.5 -99q-173 0 -281 103t-108 272q0 152 43.5 290t122 242.5t196.5 166t259 61.5q61 0 127 -17q188 14 485 93zM967 682q0 125 -63 194.5t-177 69.5q-118 0 -214 -78.5t-148 -206.5
t-52 -276q0 -122 64 -190t174 -68q119 0 215 75t148.5 201.5t52.5 278.5z" />
    <glyph glyph-name="tau" unicode="&#x3c4;" horiz-adv-x="1021" 
d="M973 911h-287l-125 -589q-16 -77 9.5 -134t88.5 -57l-32 -156q-86 0 -147 48.5t-83.5 128t-3.5 170.5l125 589h-287l33 156h744z" />
    <glyph glyph-name="upsilon" unicode="&#x3c5;" 
d="M1006 512q-22 -105 -77.5 -203t-131 -171.5t-172 -118t-195.5 -44.5q-107 0 -188 50.5t-116 139t-13 193.5l151 715h168l-151 -715q-20 -95 34 -161t150 -66q130 0 235.5 113.5t137.5 267.5q57 261 57 561h170q3 -277 -59 -561z" />
    <glyph glyph-name="phi" unicode="&#x3c6;" horiz-adv-x="1757" 
d="M1630 537q-25 -117 -100.5 -218t-181 -171t-232.5 -113.5t-260 -54.5l-96 -451h-168l96 451q-129 11 -238 54.5t-184.5 113.5t-107 171t-6.5 218q38 181 175.5 330.5t325.5 217.5l25 -131q-135 -50 -232 -164.5t-127 -252.5q-19 -86 5.5 -158.5t82 -122t138 -80.5
t176.5 -41l80 377q24 113 73.5 217t117.5 187t158.5 132.5t186.5 49.5q76 0 136 -31t96.5 -84t58 -124.5t20 -153t-17.5 -168.5zM1462 537q16 78 17 148t-14.5 129t-56 93.5t-103.5 34.5q-65 0 -122 -37t-98 -100.5t-69.5 -136.5t-46.5 -156l-80 -377q100 10 193.5 41
t172 80.5t133.5 122t74 158.5z" />
    <glyph glyph-name="chi" unicode="&#x3c7;" horiz-adv-x="1323" 
d="M981 -471h-188l-205 602l-463 -602h-188l591 772l-264 772h189l206 -602l461 602h189l-592 -772z" />
    <glyph glyph-name="psi" unicode="&#x3c8;" horiz-adv-x="1478" 
d="M1313 358q-18 -86 -75.5 -156t-140 -115.5t-179 -72t-201.5 -34.5l-96 -451h-168l96 451q-102 8 -187 34.5t-148.5 72t-91 115.5t-9.5 156l151 715h168l-151 -715q-12 -56 7.5 -98.5t64.5 -68t101.5 -39.5t127.5 -19l288 1360h168l-288 -1360q73 5 135 19t117.5 39.5
t93 68t49.5 98.5l151 715h168z" />
    <glyph glyph-name="omega" unicode="&#x3c9;" horiz-adv-x="1550" 
d="M1427 563q-24 -113 -66.5 -215t-102 -187t-141 -135.5t-173.5 -50.5q-192 0 -237 209q-133 -209 -316 -209q-92 0 -152 50.5t-84 135.5t-23.5 187t24.5 215q49 225 241 510h127q-130 -195 -200 -510q-10 -49 -17 -88t-12 -86t-4.5 -82t7.5 -69.5t22 -57t41.5 -36
t62.5 -13.5q178 0 272 289q9 142 45 295h168q-14 -65 -21.5 -102t-19 -99.5t-14 -100.5t-5 -88t6 -80t22 -59t39 -42t60.5 -13q50 0 92 26.5t70.5 66t52.5 101t38.5 114.5t29.5 124q68 305 16 510h129q72 -283 22 -510z" />
    <glyph glyph-name="uni03D1" unicode="&#x3d1;" horiz-adv-x="1277" 
d="M1206 797h-139l-94 -439q-23 -109 -101.5 -199t-187.5 -140t-223 -50q-86 0 -158.5 29.5t-120 81t-67 124t-2.5 154.5l75 357h168l-75 -357q-20 -96 44.5 -158.5t170.5 -62.5q107 0 198 62.5t111 158.5l94 443q-111 5 -195.5 16.5t-166 38t-129.5 66.5t-70 104.5
t-4 149.5q34 157 169.5 267.5t293.5 110.5q121 0 206 -66.5t116.5 -176.5t4.5 -238l-30 -151h139zM956 1073q17 68 11 132.5t-27 115t-65.5 81t-104.5 30.5q-102 0 -190.5 -75.5t-110.5 -180.5q-14 -67 16 -115t99 -75t150.5 -40.5t191.5 -19.5z" />
    <glyph glyph-name="uni03D5" unicode="&#x3d5;" horiz-adv-x="1435" 
d="M1309 537q-45 -213 -220.5 -372t-392.5 -190l-94 -446h-172l96 446q-204 31 -311.5 190t-62.5 372t220 371.5t392 189.5l84 395h172l-84 -395q203 -31 310.5 -189.5t62.5 -371.5zM1141 537q30 143 -39 252t-203 139l-166 -783q146 30 262 139.5t146 252.5zM727 928
q-147 -30 -262.5 -139t-145.5 -252t39 -252.5t203 -139.5z" />
    <glyph glyph-name="uni03D6" unicode="&#x3d6;" horiz-adv-x="1550" 
d="M1427 563q-24 -113 -66.5 -215t-102 -187t-141 -135.5t-173.5 -50.5q-192 0 -237 209q-133 -209 -316 -209q-92 0 -152 50.5t-84 135.5t-23.5 187t24.5 215q49 225 241 510h127q-130 -195 -200 -510q-10 -49 -17 -88t-12 -86t-4.5 -82t7.5 -69.5t22 -57t41.5 -36
t62.5 -13.5q178 0 272 289q9 142 45 295h168q-14 -65 -21.5 -102t-19 -99.5t-14 -100.5t-5 -88t6 -80t22 -59t39 -42t60.5 -13q50 0 92 26.5t70.5 66t52.5 101t38.5 114.5t29.5 124q25 114 35 217.5t2 202.5t-37.5 170.5t-91.5 115.5t-152 44q-237 0 -488 -82l-14 104
q263 86 524 86q111 0 195 -48t133 -130t73 -192t20 -233.5t-32 -254.5z" />
    <glyph glyph-name="epsilon.alt" unicode="&#x3f5;" horiz-adv-x="1024" 
d="M924 268q-67 -157 -186.5 -228t-297.5 -71q-176 0 -280.5 108.5t-104.5 278.5q0 215 77 385t219.5 266.5t326.5 96.5q157 0 254.5 -88.5t99.5 -210.5h-180q-15 66 -68.5 103.5t-136.5 37.5q-130 0 -229.5 -94.5t-147.5 -245.5h439l-29 -139h-440q-4 -58 -4 -88
q0 -119 63 -185.5t170 -66.5q177 0 268 141h187z" />
    <glyph glyph-name="uni0400" unicode="&#x400;" horiz-adv-x="1366" 
d="M1004 1640h-109l-256 304h217zM1153 0h-1071l317 1493h1037l-35 -168h-844l-102 -477h811l-37 -168h-809l-111 -512h879z" />
    <glyph glyph-name="afii10023" unicode="&#x401;" horiz-adv-x="1366" 
d="M1153 0h-1071l317 1493h1037l-35 -168h-844l-102 -477h811l-37 -168h-809l-111 -512h879zM932 1872l-45 -211h-213l45 211h213zM1262 1872l-45 -211h-213l45 211h213z" />
    <glyph glyph-name="afii10051" unicode="&#x402;" horiz-adv-x="1404" 
d="M1198 0q-14 -64 -36 -112t-60 -89.5t-98.5 -63.5t-141.5 -22h-170l47 168h86q48 0 81.5 10t53.5 30.5t30 43t18 55.5l116 527q9 34 9 63q0 138 -183 138h-407l-160 -748h-190l280 1325h-410l35 168h1008l-35 -168h-407l-86 -410h409q163 0 249.5 -78.5t86.5 -207.5
q0 -49 -10 -88z" />
    <glyph glyph-name="afii10052" unicode="&#x403;" horiz-adv-x="1251" 
d="M1362 1944l-369 -304h-123l263 304h229zM1366 1325h-811l-283 -1325h-190l317 1493h1002z" />
    <glyph glyph-name="afii10053" unicode="&#x404;" horiz-adv-x="1468" 
d="M1462 926h-196q8 141 -19 231q-26 92 -106.5 142.5t-200.5 50.5q-212 0 -374 -150.5t-228 -408.5h749l-34 -168h-746q-4 -31 -4 -93q0 -194 94 -301.5t267 -107.5q90 0 174.5 25.5t140.5 68.5q49 38 85 89.5t71 135.5h194q-97 -246 -265.5 -366.5t-414.5 -120.5
q-267 0 -402.5 150t-135.5 415q0 261 102 473t268 352q204 175 494 175q493 0 493 -484q0 -49 -6 -108z" />
    <glyph glyph-name="afii10054" unicode="&#x405;" horiz-adv-x="1366" 
d="M1100 410q-20 -97 -84 -189.5t-152 -152.5q-176 -115 -444 -115q-170 0 -286.5 54.5t-170.5 158.5q-32 61 -37 133.5t15 175.5h180q-32 -130 29 -229q77 -125 317 -125q185 0 289 63q55 34 96 91t53 116q19 88 -35.5 146.5t-187.5 95.5l-348 98q-277 76 -219 348
q43 203 209.5 321t412.5 118q258 0 376.5 -121.5t72.5 -341.5h-180q29 146 -50.5 224.5t-257.5 78.5q-151 0 -257.5 -69t-131.5 -183q-17 -86 28 -135t173 -86l352 -101q143 -41 205 -138.5t33 -235.5z" />
    <glyph glyph-name="afii10055" unicode="&#x406;" horiz-adv-x="569" 
d="M612 1493l-317 -1493h-193l318 1493h192z" />
    <glyph glyph-name="afii10056" unicode="&#x407;" horiz-adv-x="569" 
d="M612 1493l-317 -1493h-193l318 1493h192zM524 1858l-45 -211h-213l45 211h213zM854 1858l-45 -211h-213l45 211h213z" />
    <glyph glyph-name="afii10057" unicode="&#x408;" horiz-adv-x="1024" 
d="M850 373q-43 -201 -178 -310.5t-338 -109.5q-146 0 -228 65q-52 43 -82 104.5t-30 127.5q0 46 12 98l29 131h192l-28 -135q-9 -38 -9 -70q0 -69 51 -112t134 -43q57 0 110 24t90 66q33 38 55.5 92t41.5 141l223 1051h192z" />
    <glyph glyph-name="afii10058" unicode="&#x409;" horiz-adv-x="2226" 
d="M2073 479q0 -116 -46.5 -196t-136.5 -158q-142 -125 -352 -125h-674l283 1325h-537l-100 -465q-30 -136 -66 -252.5t-89.5 -231.5t-116 -195.5t-147.5 -130.5t-181 -50l41 193q220 0 364 663l138 637h919l-135 -643h369q237 0 352 -96t115 -275zM1886 489q0 72 -37 121
q-51 72 -184 72h-465l-108 -514h464q132 0 213 72q117 99 117 249z" />
    <glyph glyph-name="afii10059" unicode="&#x40a;" horiz-adv-x="2383" 
d="M2230 483q0 -139 -75.5 -251t-196.5 -172t-260 -60h-674l143 680h-764l-143 -680h-192l315 1493h190l-135 -645h766l135 645h191l-135 -643h368q244 0 355.5 -93.5t111.5 -273.5zM2044 485q0 96 -56 146.5t-165 50.5h-465l-109 -514h465q147 0 238.5 92t91.5 225z" />
    <glyph glyph-name="afii10060" unicode="&#x40b;" horiz-adv-x="1323" 
d="M1116 0h-190l116 547q9 34 9 63q0 138 -183 138h-325l-160 -748h-190l280 1325h-410l35 168h1008l-35 -168h-407l-86 -410h327q163 0 249.5 -78.5t86.5 -207.5q0 -49 -10 -88z" />
    <glyph glyph-name="afii10061" unicode="&#x40c;" horiz-adv-x="1359" 
d="M1430 1944l-369 -304h-123l262 304h230zM1264 0h-244l-629 664l-141 -664h-191l318 1493h190l-137 -645l881 645h245l-997 -725z" />
    <glyph glyph-name="uni040D" unicode="&#x40d;" horiz-adv-x="1497" 
d="M1055 1640h-109l-256 304h217zM1552 1493l-317 -1493h-180l258 1210l-1030 -1210h-215l317 1493h180l-260 -1221l1041 1221h206z" />
    <glyph glyph-name="afii10062" unicode="&#x40e;" horiz-adv-x="1085" 
d="M1034 1917q-17 -68 -37.5 -106t-56.5 -70q-51 -46 -124.5 -73.5t-147.5 -27.5q-116 0 -188 56t-72 147q0 25 10 74h108v-16v-11q0 -46 46.5 -74t121.5 -28q91 0 151 34t75 95h114zM1243 1493l-1069 -1493h-231l370 500l-284 993h231l213 -776l543 776h227z" />
    <glyph glyph-name="afii10145" unicode="&#x40f;" horiz-adv-x="1478" 
d="M1534 1493l-317 -1493h-476l-59 -276h-164l60 276h-510l317 1493h193l-283 -1325h764l282 1325h193z" />
    <glyph glyph-name="afii10017" unicode="&#x410;" horiz-adv-x="1366" 
d="M1235 0h-209l-55 449h-584l-252 -449h-203l850 1493h246zM950 608l-82 682l-391 -682h473z" />
    <glyph glyph-name="afii10018" unicode="&#x411;" horiz-adv-x="1308" 
d="M1266 487q0 -119 -48 -203.5t-133 -158.5q-142 -125 -352 -125h-674l318 1493h1001l-35 -168h-811l-102 -475h369q240 1 353.5 -90.5t113.5 -272.5zM1081 487q0 72 -39 123q-51 72 -182 72h-465l-110 -514h465q134 0 215 72q116 97 116 247z" />
    <glyph glyph-name="afii10019" unicode="&#x412;" horiz-adv-x="1366" 
d="M1274 528q0 -205 -133 -350q-160 -178 -406 -178h-676l318 1493h606q106 0 175.5 -24.5t121.5 -79.5q74 -80 74 -193q0 -136 -72.5 -243t-206.5 -167q107 -46 153 -105t46 -153zM1157 1149q0 91 -61.5 133.5t-192.5 42.5h-368l-103 -475h369q101 0 166.5 22t111.5 72
q78 84 78 205zM1077 496q0 91 -55.5 138.5t-161.5 47.5h-463l-110 -514h465q87 0 148 28t108 89q69 94 69 211z" />
    <glyph glyph-name="afii10020" unicode="&#x413;" horiz-adv-x="1251" 
d="M1366 1325h-811l-283 -1325h-190l317 1493h1002z" />
    <glyph glyph-name="afii10021" unicode="&#x414;" horiz-adv-x="1671" 
d="M1200 168l246 1157h-537l-102 -489q-113 -467 -285 -668h678zM1577 152l-92 -428h-164l59 276h-1196l-59 -276h-164l92 428h189q65 28 120 89.5t99.5 155.5t79 200t69.5 245l144 651h921l-284 -1341h186z" />
    <glyph glyph-name="afii10022" unicode="&#x415;" horiz-adv-x="1366" 
d="M1153 0h-1071l317 1493h1037l-35 -168h-844l-102 -477h811l-37 -168h-809l-111 -512h879z" />
    <glyph glyph-name="afii10024" unicode="&#x416;" horiz-adv-x="1837" 
d="M1755 0h-225l-445 664l-141 -664h-190l141 664l-727 -664h-225l829 768l-434 725h246l354 -631l133 631h191l-134 -631l621 631h246l-742 -725z" />
    <glyph glyph-name="afii10025" unicode="&#x417;" horiz-adv-x="1335" 
d="M1227 492q0 -175 -89 -298t-242 -182t-357 -59q-223 0 -359.5 97t-136.5 282q0 55 16 143h181q-13 -54 -13 -90q0 -130 95 -197t264 -67q192 0 317 84t125 221q0 88 -77.5 159.5t-202.5 71.5h-222l35 168h180q92 0 183 48.5t148.5 126t57.5 157.5q0 93 -76.5 147
t-209.5 54q-178 0 -291 -78.5t-145 -224.5h-181q47 220 217 341.5t428 121.5q213 0 331 -89.5t118 -248.5q0 -148 -79.5 -254.5t-213.5 -159.5q199 -81 199 -274z" />
    <glyph glyph-name="afii10026" unicode="&#x418;" horiz-adv-x="1497" 
d="M1552 1493l-317 -1493h-180l258 1210l-1030 -1210h-215l317 1493h180l-260 -1221l1041 1221h206z" />
    <glyph glyph-name="afii10027" unicode="&#x419;" horiz-adv-x="1497" 
d="M1366 1901q-18 -69 -38 -107t-56 -70q-51 -46 -124.5 -73t-148.5 -27q-116 0 -188 56t-72 147q0 20 11 74h108v-17v-10q0 -46 46.5 -74t121.5 -28q91 0 150.5 34t74.5 95h115zM1552 1493l-317 -1493h-180l258 1210l-1030 -1210h-215l317 1493h180l-260 -1221l1041 1221
h206z" />
    <glyph glyph-name="afii10028" unicode="&#x41a;" horiz-adv-x="1359" 
d="M1264 0h-244l-629 664l-141 -664h-191l318 1493h190l-137 -645l881 645h245l-997 -725z" />
    <glyph glyph-name="afii10029" unicode="&#x41b;" horiz-adv-x="1323" 
d="M1059 0h-193l281 1325h-537l-100 -465q-28 -114 -57.5 -210.5t-69 -198.5t-87.5 -179.5t-105 -141t-128.5 -97t-152.5 -33.5l41 193q61 0 114.5 49t97.5 144t80 206.5t72 263.5l138 637h921z" />
    <glyph glyph-name="afii10030" unicode="&#x41c;" horiz-adv-x="1705" 
d="M1774 1493l-318 -1493h-182l264 1239l-684 -1239h-199l-157 1239l-265 -1239h-182l318 1493h264l164 -1284l708 1284h269z" />
    <glyph glyph-name="afii10031" unicode="&#x41d;" horiz-adv-x="1478" 
d="M1534 1493l-317 -1493h-193l145 680h-763l-146 -680h-192l317 1493h193l-138 -645h764l137 645h193z" />
    <glyph glyph-name="afii10032" unicode="&#x41e;" horiz-adv-x="1593" 
d="M1593 950q0 -243 -107.5 -472t-287.5 -367q-206 -158 -500 -158q-130 0 -247 42t-191 116q-70 70 -109.5 183t-39.5 245q0 195 77 386t213 332q249 261 596 261q139 0 256.5 -41.5t192.5 -116.5q68 -69 107.5 -179t39.5 -231zM1397 913q0 181 -84 291q-53 68 -144.5 108
t-195.5 40q-145 0 -275 -68.5t-219 -191.5q-82 -112 -127 -254t-45 -283q0 -182 84 -289q54 -68 144 -107.5t190 -39.5q149 0 279 67.5t219 192.5q82 110 128 252t46 282z" />
    <glyph glyph-name="afii10033" unicode="&#x41f;" horiz-adv-x="1478" 
d="M1534 1493l-317 -1493h-193l283 1325h-764l-283 -1325h-192l317 1493h1149z" />
    <glyph glyph-name="afii10034" unicode="&#x420;" horiz-adv-x="1366" 
d="M1399 1163q0 -125 -53 -236.5t-150 -187.5q-132 -106 -317 -106h-467l-136 -633h-192l317 1493h619q187 0 283 -83.5t96 -246.5zM1202 1126q0 97 -63 148t-183 51h-397l-113 -524h398q98 0 166.5 30t119.5 95q72 93 72 200z" />
    <glyph glyph-name="afii10035" unicode="&#x421;" horiz-adv-x="1478" 
d="M1403 545q-59 -139 -104 -223.5t-101 -145.5q-99 -108 -242 -165.5t-307 -57.5q-268 0 -405 174q-117 148 -117 369q0 192 70.5 389.5t191.5 343.5q240 289 598 289q293 0 422 -220q58 -104 66 -268h-197q-12 166 -91.5 244t-234.5 78q-278 0 -463 -273
q-78 -117 -121.5 -262t-43.5 -285q0 -186 97 -299.5t257 -113.5q122 0 230.5 53t172.5 145q51 68 121 228h201z" />
    <glyph glyph-name="afii10036" unicode="&#x422;" horiz-adv-x="1251" 
d="M1395 1325h-488l-282 -1325h-193l283 1325h-494l35 168h1174z" />
    <glyph glyph-name="afii10037" unicode="&#x423;" horiz-adv-x="1085" 
d="M1243 1493l-1069 -1493h-231l370 500l-284 993h231l213 -776l543 776h227z" />
    <glyph glyph-name="afii10038" unicode="&#x424;" horiz-adv-x="1824" 
d="M1767 932q1 -125 -22.5 -228t-66 -178.5t-105 -133.5t-134.5 -95.5t-160.5 -61t-178 -33t-191.5 -9.5l-41 -193h-192l39 193q-66 0 -118 2.5t-119 12t-117 26t-101.5 46.5t-84.5 71.5t-54 103t-21 139.5q0 152 41 272t115 200.5t181 133.5t233.5 76.5t279.5 23.5l43 193
h193l-41 -193q54 0 86.5 -0.5t90 -4t94.5 -10t88 -19t84.5 -30.5t70.5 -46.5t58 -64t35.5 -85t14.5 -108.5zM756 385l153 723q-58 0 -109 -3.5t-114 -15.5t-113.5 -32t-101 -55.5t-84.5 -82.5t-55 -117.5t-21 -156.5q0 -63 15.5 -109.5t51.5 -74t68 -44t91.5 -23t94.5 -8
t103 -1.5h21zM1554 856q0 41 -10 75t-25 58.5t-41.5 44t-49 31.5t-60 20.5t-63 13t-69 6.5t-66.5 2.5t-66 0.5l-154 -723q43 0 77 1t84.5 6.5t90.5 14.5t87.5 26t84 40.5t72 60t58 81t36.5 106.5t14 135z" />
    <glyph glyph-name="afii10039" unicode="&#x425;" horiz-adv-x="1366" 
d="M1229 0h-225l-287 616l-539 -616h-235l694 766l-342 727h231l252 -575l512 575h234l-662 -727z" />
    <glyph glyph-name="afii10040" unicode="&#x426;" horiz-adv-x="1478" 
d="M1438 152l-92 -428h-164l59 276h-1173l317 1493h193l-283 -1325h764l282 1325h193l-285 -1341h189z" />
    <glyph glyph-name="afii10041" unicode="&#x427;" horiz-adv-x="1314" 
d="M1313 1493l-318 -1493h-190l123 578h-369q-163 0 -249.5 78.5t-86.5 207.5q0 49 10 88l115 541h191l-117 -547q-8 -31 -8 -63q0 -138 182 -138h367l159 748h191z" />
    <glyph glyph-name="afii10042" unicode="&#x428;" horiz-adv-x="1712" 
d="M1710 1493l-317 -1493h-1373l318 1493h192l-282 -1325h397l283 1325h192l-282 -1325h397l283 1325h192z" />
    <glyph glyph-name="afii10043" unicode="&#x429;" horiz-adv-x="1714" 
d="M1614 152l-92 -428h-164l59 276h-1397l318 1493h192l-282 -1325h397l283 1325h192l-282 -1325h397l283 1325h192l-285 -1341h189z" />
    <glyph glyph-name="afii10044" unicode="&#x42a;" horiz-adv-x="1773" 
d="M1620 481q0 -119 -45.5 -198t-136.5 -158q-142 -125 -353 -125h-673l280 1325h-471l35 168h664l-136 -643h369q244 0 355.5 -91.5t111.5 -277.5zM1434 489q0 72 -37 121q-51 72 -185 72h-464l-109 -514h465q132 0 213 72q117 99 117 249z" />
    <glyph glyph-name="afii10045" unicode="&#x42b;" horiz-adv-x="1814" 
d="M1870 1493l-318 -1493h-192l317 1493h193zM1274 483q0 -117 -46 -199.5t-134 -158.5q-142 -125 -353 -125h-673l317 1493h190l-137 -643h369q238 0 352.5 -94.5t114.5 -272.5zM1090 487q0 72 -39 123q-51 72 -183 72h-465l-110 -514h465q134 0 215 72q117 98 117 247z
" />
    <glyph glyph-name="afii10046" unicode="&#x42c;" horiz-adv-x="1429" 
d="M1276 479q0 -116 -46.5 -196.5t-135.5 -157.5q-142 -125 -353 -125h-673l317 1493h190l-135 -643h369q237 0 352 -96t115 -275zM1090 489q0 72 -37 121q-51 72 -185 72h-465l-108 -514h465q132 0 213 72q117 99 117 249z" />
    <glyph glyph-name="afii10047" unicode="&#x42d;" horiz-adv-x="1468" 
d="M1468 952q0 -261 -102 -473t-268 -352q-203 -174 -494 -174q-493 0 -493 483q0 50 6 109h196q-8 -142 19 -232q26 -92 106.5 -142t200.5 -50q212 0 374 150.5t228 408.5h-749l34 168h746q4 31 4 92q0 194 -94 302t-267 108q-90 0 -174.5 -26t-140.5 -69
q-49 -38 -85 -89.5t-71 -135.5h-194q192 488 680 488q267 0 402.5 -150t135.5 -416z" />
    <glyph glyph-name="afii10048" unicode="&#x42e;" horiz-adv-x="2148" 
d="M2148 944q0 -271 -113.5 -486t-299.5 -347q-218 -158 -496 -158q-270 0 -423.5 154.5t-153.5 418.5q0 74 12 154h-318l-143 -680h-193l318 1493h190l-137 -645h324q97 303 329.5 486.5t524.5 183.5q273 0 426 -153.5t153 -420.5zM1954 911q0 204 -110.5 321.5
t-309.5 117.5q-133 0 -258.5 -63.5t-218 -169.5t-148 -252.5t-55.5 -305.5q0 -202 111.5 -320t308.5 -118q181 0 337.5 106.5t249.5 289t93 394.5z" />
    <glyph glyph-name="afii10049" unicode="&#x42f;" horiz-adv-x="1415" 
d="M1470 1493l-317 -1493h-190l137 643h-228l-704 -643h-225l696 645q-375 17 -375 361q0 82 26.5 153t63 116t90.5 93q142 125 353 125h673zM1245 1325h-465q-134 0 -215 -72q-116 -97 -116 -247q0 -73 38 -123q51 -72 183 -72h465z" />
    <glyph glyph-name="afii10065" unicode="&#x430;" 
d="M1001 -29q-24 -4 -28 -6q-51 -12 -80 -12q-73 0 -114.5 36t-41.5 99v8v15q-63 -56 -97 -78t-83 -39q-112 -41 -231 -41q-138 0 -216.5 69.5t-78.5 192.5q0 89 44 166.5t124 128.5q75 47 164.5 68t295.5 40q112 10 152.5 34t54.5 87l6 37q1 6 2 15t2 14.5t1 9.5
q0 57 -62.5 94t-155.5 37q-65 0 -125 -21t-94 -55q-37 -37 -61 -114h-172q29 170 156.5 259t341.5 89q161 0 258.5 -64t97.5 -168q0 -20 -12 -75l-131 -617q-3 -9 -3 -20q0 -60 78 -60q17 0 35 4zM821 528q-64 -22 -104 -29.5t-195 -29.5q-147 -21 -211 -61
q-46 -28 -73 -74.5t-27 -97.5q0 -65 47.5 -100.5t134.5 -35.5q135 0 251 70.5t136 165.5z" />
    <glyph glyph-name="afii10066" unicode="&#x431;" 
d="M1057 715q0 -200 -79.5 -374t-225 -281t-322.5 -107q-187 0 -286 102.5t-99 290.5q0 83 21 182q26 124 56.5 233t77 225t99 202t123.5 148t151 77q13 2 131 20t185 33q47 11 88.5 46t50.5 75l152 2q-7 -33 -11.5 -52t-14.5 -47.5t-22.5 -45.5t-33.5 -39.5t-48.5 -37.5
t-67 -30t-89.5 -26q-34 -8 -86.5 -18t-91.5 -19t-80 -23q-19 -6 -36 -15.5t-29.5 -17t-27 -22.5t-22.5 -23t-22.5 -27.5t-19.5 -27.5t-21 -32.5t-21 -32.5q111 51 236 51q187 0 286 -100.5t99 -288.5zM874 674q0 131 -60 201.5t-173 70.5q-112 0 -208 -79.5t-151 -209
t-55 -274.5q0 -130 61.5 -201t174.5 -71q108 0 203.5 78.5t151.5 209t56 275.5z" />
    <glyph glyph-name="afii10067" unicode="&#x432;" horiz-adv-x="1101" 
d="M971 377q0 -164 -137 -287q-106 -90 -254 -90h-539l229 1075h490q123 0 191.5 -54.5t68.5 -154.5q0 -102 -57 -187.5t-142 -111.5q73 -20 111.5 -71t38.5 -119zM838 805q0 24 -8.5 39t-30.5 37q-42 39 -148 39h-241l-64 -291h242q108 0 164 37q86 58 86 139zM788 377
q0 34 -30 55q-53 41 -133 41h-312l-67 -317h311q95 0 154 53q77 65 77 168z" />
    <glyph glyph-name="afii10068" unicode="&#x433;" horiz-adv-x="880" 
d="M840 918h-432l-195 -918h-172l227 1073h604z" />
    <glyph glyph-name="afii10069" unicode="&#x434;" horiz-adv-x="1310" 
d="M971 -246h-144l52 246h-824l-51 -246h-143l80 377h116q125 13 256 479l111 463h694l-198 -942h131zM752 156l161 762h-352l-69 -312q-78 -298 -193 -450h453z" />
    <glyph glyph-name="afii10070" unicode="&#x435;" 
d="M1051 479h-791q-10 -39 -10 -94q0 -131 66.5 -202.5t187.5 -71.5q206 0 319 215h172q-47 -166 -191.5 -269.5t-328.5 -103.5q-173 0 -278 102q-60 57 -93.5 136.5t-33.5 162.5q0 125 50 278.5t122 250.5q76 103 197 162t255 59q166 0 278.5 -101t112.5 -249
q0 -88 -28 -240zM899 627q6 49 6 67q0 116 -64 184t-173 68q-124 0 -227.5 -89t-143.5 -230h602z" />
    <glyph glyph-name="afii10072" unicode="&#x436;" horiz-adv-x="1675" 
d="M1581 0h-211l-434 442l-94 -442h-170l94 442l-623 -442h-211l738 541l-445 532h219l359 -455l96 455h170l-96 -455l551 455h219l-670 -532z" />
    <glyph glyph-name="afii10073" unicode="&#x437;" horiz-adv-x="1013" 
d="M903 346q0 -182 -144 -287.5t-378 -105.5q-361 0 -361 270q0 32 11 96h180q-4 -56 0.5 -84.5t19.5 -52.5q52 -71 197 -71q115 0 198 54.5t83 137.5q0 58 -48 104t-126 46h-152l33 155h127q105 0 172 58t67 133q0 62 -53.5 104.5t-142.5 42.5q-208 0 -252 -172h-180
q35 159 153.5 244.5t304.5 85.5q164 0 257.5 -69t93.5 -189q0 -99 -51.5 -177t-139.5 -122q65 -32 98 -84t33 -117z" />
    <glyph glyph-name="afii10074" unicode="&#x438;" horiz-adv-x="1146" 
d="M895 0h-170l178 846l-659 -846h-203l227 1073h172l-180 -846l662 846h200z" />
    <glyph glyph-name="afii10075" unicode="&#x439;" horiz-adv-x="1146" 
d="M1116 1493q-17 -68 -37.5 -106t-56.5 -70q-51 -46 -124 -73t-148 -27q-116 0 -188.5 56t-72.5 146q0 20 11 74h108v-16v-11q0 -46 46.5 -74t121.5 -28q91 0 150.5 34t74.5 95h115zM895 0h-170l178 846l-659 -846h-203l227 1073h172l-180 -846l662 846h200z" />
    <glyph glyph-name="afii10076" unicode="&#x43a;" horiz-adv-x="1044" 
d="M950 0h-211l-434 442l-94 -442h-170l227 1073h170l-96 -455l551 455h219l-670 -532z" />
    <glyph glyph-name="afii10077" unicode="&#x43b;" 
d="M1010 1073l-230 -1073h-172l197 918h-352l-78 -336q-26 -94 -54.5 -171.5t-69 -156.5t-86.5 -132.5t-108 -87.5t-131 -34l35 164q72 0 130 107t112 307l112 495h695z" />
    <glyph glyph-name="afii10078" unicode="&#x43c;" horiz-adv-x="1271" 
d="M1020 0h-172l151 713l-381 -537h-102l-151 537l-152 -713h-172l227 1073h172l183 -637l452 637h172z" />
    <glyph glyph-name="afii10079" unicode="&#x43d;" horiz-adv-x="1148" 
d="M897 0h-172l100 477h-512l-100 -477h-172l227 1073h172l-94 -440h512l94 440h172z" />
    <glyph glyph-name="afii10080" unicode="&#x43e;" 
d="M1077 721q0 -134 -46 -284t-116 -247q-173 -237 -466 -237q-172 0 -280 106.5t-108 276.5q0 130 45.5 281t114.5 249q78 114 199 176t264 62q178 0 281 -100q54 -52 83 -126.5t29 -156.5zM897 682q0 125 -63 194.5t-177 69.5q-101 0 -184.5 -55.5t-140.5 -159.5
q-41 -77 -65.5 -172t-24.5 -182q0 -123 63 -194.5t172 -71.5q211 0 330 215q90 167 90 356z" />
    <glyph glyph-name="afii10081" unicode="&#x43f;" horiz-adv-x="1146" 
d="M895 0h-172l195 918h-510l-195 -918h-172l227 1073h854z" />
    <glyph glyph-name="afii10082" unicode="&#x440;" 
d="M1098 705q0 -151 -48.5 -299.5t-131.5 -249.5q-78 -97 -188 -150t-230 -53q-109 0 -177.5 43.5t-115.5 142.5l-123 -575h-172l321 1509h166l-37 -172q21 42 44.5 67.5t72.5 55.5q124 80 262 80q164 0 260.5 -107.5t96.5 -291.5zM918 664q0 132 -64.5 207t-179.5 75
q-190 0 -305 -207q-97 -169 -97 -362q0 -123 65.5 -194.5t178.5 -71.5q198 0 311 206q42 77 66.5 170.5t24.5 176.5z" />
    <glyph glyph-name="afii10083" unicode="&#x441;" horiz-adv-x="1024" 
d="M958 369q-47 -165 -118 -246q-144 -170 -404 -170q-192 0 -293 127q-90 114 -90 268q0 141 47 292t119 245q81 105 201 162t258 57q172 0 264 -96q40 -42 65 -98t25 -107q0 -3 -0.5 -10.5l-1.5 -22.5t-2 -27l-2 -30h-172q2 18 2 45q0 88 -56 138t-153 50
q-189 0 -303 -182q-51 -79 -81 -186.5t-30 -206.5q0 -120 63 -190t169 -70q110 0 192.5 66t128.5 192h172z" />
    <glyph glyph-name="afii10084" unicode="&#x442;" horiz-adv-x="819" 
d="M864 918h-295l-194 -918h-172l194 918h-295l33 155h762z" />
    <glyph glyph-name="afii10085" unicode="&#x443;" horiz-adv-x="1024" 
d="M1106 1073l-754 -1298q-66 -114 -147.5 -167.5t-190.5 -53.5q-54 0 -100 20l33 154q83 -9 90 -9q57 0 90 21.5t74 85.5l106 166l-139 1081h184l94 -833l478 833h182z" />
    <glyph glyph-name="afii10086" unicode="&#x444;" horiz-adv-x="1875" 
d="M1835 711q0 -196 -79 -370t-218 -281t-303 -107q-104 0 -175 38.5t-122 121.5l-119 -559h-170l121 569q-78 -88 -166.5 -129t-200.5 -41q-172 0 -266 102t-94 283q0 156 49.5 298t132 244.5t195.5 163t235 60.5q105 0 180 -52t103 -141l100 469h170l-100 -469
q64 93 161.5 143t207.5 50q171 0 264.5 -104t93.5 -289zM1653 662q0 133 -62.5 207.5t-175.5 74.5q-105 0 -199 -78t-150 -206.5t-56 -270.5q0 -129 60 -202.5t167 -73.5q111 0 207.5 76t152.5 203t56 270zM872 670q0 130 -58.5 202t-166.5 72q-109 0 -206 -77t-154.5 -204
t-57.5 -268q0 -131 63.5 -206.5t176.5 -75.5q102 0 196 78.5t150.5 207.5t56.5 271z" />
    <glyph glyph-name="afii10087" unicode="&#x445;" horiz-adv-x="1024" 
d="M866 0h-192l-185 410l-356 -410h-201l490 547l-242 526h191l180 -393l342 393h199l-478 -526z" />
    <glyph glyph-name="afii10088" unicode="&#x446;" horiz-adv-x="1146" 
d="M1008 -246h-144l54 246h-877l227 1073h172l-194 -917h510l194 917h172l-198 -942h163z" />
    <glyph glyph-name="afii10089" unicode="&#x447;" horiz-adv-x="1017" 
d="M766 0h-172l90 426h-240q-274 0 -274 225q0 31 12 105l68 317h172l-72 -338q-6 -27 -6 -53q0 -100 113 -100h260l104 491h172z" />
    <glyph glyph-name="afii10090" unicode="&#x448;" horiz-adv-x="1423" 
d="M1171 0h-1130l227 1073h172l-194 -917h307l195 917h172l-195 -917h307l195 917h172z" />
    <glyph glyph-name="afii10091" unicode="&#x449;" horiz-adv-x="1423" 
d="M1282 -246h-143l53 246h-1151l227 1073h172l-194 -917h307l195 917h172l-195 -917h307l195 917h172l-201 -942h164z" />
    <glyph glyph-name="afii10092" unicode="&#x44a;" horiz-adv-x="1310" 
d="M1208 379q0 -170 -137 -289q-103 -90 -252 -90h-538l194 918h-375l33 155l547 2l-94 -446h241q195 0 288 -60.5t93 -189.5zM1026 377q0 46 -48 71t-114 25h-311l-68 -317h312q103 0 166 61.5t63 159.5z" />
    <glyph glyph-name="afii10093" unicode="&#x44b;" horiz-adv-x="1503" 
d="M1251 0h-170l228 1073h170zM969 383q0 -172 -138 -293q-103 -90 -251 -90h-539l227 1075h172l-94 -446h242q200 0 290.5 -59t90.5 -187zM786 375q0 47 -47.5 72.5t-113.5 25.5h-312l-67 -317h311q100 0 164.5 64.5t64.5 154.5z" />
    <glyph glyph-name="afii10094" unicode="&#x44c;" horiz-adv-x="1071" 
d="M969 383q0 -172 -138 -293q-103 -90 -251 -90h-539l227 1075h172l-94 -446h242q202 0 291.5 -58.5t89.5 -187.5zM786 377q0 46 -47.5 71t-113.5 25h-312l-67 -317h311q102 0 165.5 64.5t63.5 156.5z" />
    <glyph glyph-name="afii10095" unicode="&#x44d;" horiz-adv-x="1093" 
d="M1012 518q-56 -260 -217 -412.5t-379 -152.5q-170 0 -262.5 87t-92.5 245q0 33 7 84h172v-27q0 -231 206 -231q133 0 233 97t146 269l-463 -2l31 158h459q2 14 2 45q0 128 -58.5 198t-168.5 70q-107 0 -185 -60t-118 -173h-172q43 146 120 231q73 76 174 118t213 42
q176 0 274.5 -108t98.5 -298q0 -86 -20 -180z" />
    <glyph glyph-name="afii10096" unicode="&#x44e;" horiz-adv-x="1572" 
d="M1548 715q0 -162 -41.5 -300t-119 -241.5t-198 -162t-269.5 -58.5q-90 0 -159.5 24t-111 62.5t-68 91.5t-36.5 104.5t-10 108.5q0 68 14 133h-232l-104 -477h-172l229 1073h172l-92 -440h236q7 36 28.5 87t69 120.5t109.5 126.5t159.5 97t210.5 40q187 0 286 -100.5
t99 -288.5zM1366 676q0 129 -61 199.5t-175 70.5q-112 0 -207 -76.5t-149.5 -206t-54.5 -280.5q0 -130 61 -201t174 -71q110 0 205.5 77.5t151 208t55.5 279.5z" />
    <glyph glyph-name="afii10097" unicode="&#x44f;" horiz-adv-x="1155" 
d="M1130 1075l-229 -1075h-172l96 446h-57l-627 -446h-211l609 449q-173 6 -254.5 65t-81.5 178q0 168 113.5 275.5t275.5 107.5h538zM926 920h-312q-101 0 -165 -65.5t-64 -156.5q0 -35 29 -55q53 -41 133 -41h311z" />
    <glyph glyph-name="uni0450" unicode="&#x450;" 
d="M774 1227h-108l-256 303h217zM1051 479h-791q-10 -39 -10 -94q0 -131 66.5 -202.5t187.5 -71.5q206 0 319 215h172q-47 -166 -191.5 -269.5t-328.5 -103.5q-173 0 -278 102q-60 57 -93.5 136.5t-33.5 162.5q0 125 50 278.5t122 250.5q76 103 197 162t255 59
q166 0 278.5 -101t112.5 -249q0 -88 -28 -240zM899 627q6 49 6 67q0 116 -64 184t-173 68q-124 0 -227.5 -89t-143.5 -230h602z" />
    <glyph glyph-name="afii10071" unicode="&#x451;" 
d="M1051 479h-791q-10 -39 -10 -94q0 -131 66.5 -202.5t187.5 -71.5q206 0 319 215h172q-47 -166 -191.5 -269.5t-328.5 -103.5q-173 0 -278 102q-60 57 -93.5 136.5t-33.5 162.5q0 125 50 278.5t122 250.5q76 103 197 162t255 59q166 0 278.5 -101t112.5 -249
q0 -88 -28 -240zM899 627q6 49 6 67q0 116 -64 184t-173 68q-124 0 -227.5 -89t-143.5 -230h602zM717 1464l-45 -211h-213l45 211h213zM1047 1464l-46 -211h-213l46 211h213z" />
    <glyph glyph-name="afii10099" unicode="&#x452;" 
d="M1057 729l-156 -729q-15 -70 -36 -114.5t-61 -79t-104.5 -49.5t-160.5 -15l24 113q76 0 113 34.5t53 110.5l141 662q13 60 13 79q0 78 -48 126t-126 48q-139 0 -240.5 -97.5t-138.5 -266.5l-117 -551h-172l266 1253h-166l31 142h166l20 98h172l-20 -98h328l-31 -142h-328
l-73 -354q97 91 182 127.5t200 36.5q129 0 203 -68.5t74 -189.5q0 -40 -8 -76z" />
    <glyph glyph-name="afii10100" unicode="&#x453;" horiz-adv-x="880" 
d="M1034 1530l-368 -303h-123l262 303h229zM840 918h-432l-195 -918h-172l227 1073h604z" />
    <glyph glyph-name="afii10101" unicode="&#x454;" horiz-adv-x="1093" 
d="M1026 688h-172v27q0 231 -207 231q-133 0 -233 -97t-146 -269l463 2l-31 -158h-458q-2 -14 -2 -45q0 -128 58.5 -198t168.5 -70q107 0 185 60t118 173h172q-43 -144 -121 -231q-73 -76 -174 -118t-213 -42q-176 0 -274.5 107.5t-98.5 297.5q0 82 21 181q56 260 217 412.5
t379 152.5q170 0 262 -86.5t92 -245.5q0 -40 -6 -84z" />
    <glyph glyph-name="afii10102" unicode="&#x455;" horiz-adv-x="1024" 
d="M788 293q-34 -155 -174 -247.5t-342 -92.5q-211 0 -296.5 90t-53.5 276h180q-4 -55 0.5 -84t20.5 -53q52 -71 199 -71q112 0 190.5 46.5t93.5 121.5q12 59 -18.5 93t-114.5 56l-151 39q-181 46 -242 114.5t-33 194.5q31 149 162 238.5t319 89.5q186 0 268.5 -85.5
t51.5 -244.5h-180q14 85 -32 128.5t-149 43.5q-104 0 -174.5 -44t-85.5 -118q-12 -57 27 -92.5t139 -60.5l156 -39q151 -38 207.5 -108.5t31.5 -190.5z" />
    <glyph glyph-name="afii10103" unicode="&#x456;" horiz-adv-x="454" 
d="M205 0h-172l227 1073h172zM522 1493l-45 -211h-172l45 211h172z" />
    <glyph glyph-name="afii10104" unicode="&#x457;" horiz-adv-x="569" 
d="M262 0h-172l229 1079h173zM426 1450l-45 -211h-213l45 211h213zM756 1450l-45 -211h-213l45 211h213z" />
    <glyph glyph-name="afii10105" unicode="&#x458;" horiz-adv-x="454" 
d="M164 -223q-28 -126 -106 -174.5t-255 -48.5q-18 0 -39 6l31 145q37 -4 51 -4q78 0 109.5 28.5t50.5 114.5l260 1229h172zM528 1493l-45 -211h-172l45 211h172z" />
    <glyph glyph-name="afii10106" unicode="&#x459;" horiz-adv-x="1609" 
d="M1536 383q0 -173 -137 -293q-103 -90 -252 -90h-539l197 918h-352l-78 -336q-21 -92 -49.5 -173t-69 -157.5t-88 -131t-110 -87.5t-132.5 -33l35 164q74 0 136.5 111.5t105.5 302.5l112 495l693 2l-95 -446h242q202 0 291.5 -58.5t89.5 -187.5zM1354 377q0 46 -48 71
t-114 25h-311l-68 -317h311q102 0 166 64.5t64 156.5z" />
    <glyph glyph-name="afii10107" unicode="&#x45a;" horiz-adv-x="1630" 
d="M1538 383q0 -173 -137 -293q-103 -90 -252 -90h-539l103 477h-512l-103 -477h-172l230 1073h172l-95 -440h512l95 440l170 2l-95 -446h242q202 0 291.5 -58.5t89.5 -187.5zM1356 377q0 46 -48 71t-114 25h-311l-68 -317h311q102 0 166 64.5t64 156.5z" />
    <glyph glyph-name="afii10108" unicode="&#x45b;" 
d="M1065 729l-164 -729h-172l150 662q12 55 12 79q0 78 -48 126t-126 48q-139 0 -240.5 -97.5t-138.5 -266.5l-125 -551h-172l266 1253h-166l31 142h166l20 98h172l-20 -98h328l-31 -142h-328l-65 -354q97 91 182.5 127.5t200.5 36.5q129 0 202.5 -68.5t73.5 -189.5
q0 -40 -8 -76z" />
    <glyph glyph-name="afii10109" unicode="&#x45c;" horiz-adv-x="1044" 
d="M1153 1530l-369 -303h-122l262 303h229zM950 0h-211l-434 442l-94 -442h-170l227 1073h170l-96 -455l551 455h219l-670 -532z" />
    <glyph glyph-name="uni045D" unicode="&#x45d;" horiz-adv-x="1146" 
d="M782 1227h-108l-256 303h217zM895 0h-170l178 846l-659 -846h-203l227 1073h172l-180 -846l662 846h200z" />
    <glyph glyph-name="afii10110" unicode="&#x45e;" horiz-adv-x="1024" 
d="M1036 1503q-17 -68 -37.5 -106t-56.5 -70q-51 -46 -124 -73t-148 -27q-116 0 -188 56t-72 147q0 24 10 73h108v-16v-10q0 -46 46.5 -74.5t121.5 -28.5q91 0 151 34t75 95h114zM1106 1073l-754 -1298q-66 -114 -147.5 -167.5t-190.5 -53.5q-54 0 -100 20l33 154
q83 -9 90 -9q57 0 90 21.5t74 85.5l106 166l-139 1081h184l94 -833l478 833h182z" />
    <glyph glyph-name="afii10193" unicode="&#x45f;" horiz-adv-x="1146" 
d="M895 0h-336l-51 -246h-143l53 246h-377l227 1073h172l-194 -917h510l194 917h172z" />
    <glyph glyph-name="uni048C" unicode="&#x48c;" horiz-adv-x="1429" 
d="M1081 424q25 115 -28 186q-51 72 -185 72h-465l-108 -514h465q132 0 213 72q87 74 108 184zM1274 426q-38 -178 -180 -301q-142 -125 -353 -125h-673l235 1108h-180l31 141h180l51 244h190l-51 -244h193l-31 -141h-192l-54 -258h369q264 1 373.5 -107.5t91.5 -316.5z" />
    <glyph glyph-name="uni048D" unicode="&#x48d;" horiz-adv-x="1071" 
d="M778 317q11 37 8.5 65.5t-28.5 49.5q-53 41 -133 41h-312l-67 -317h311q96 0 152 53q31 25 45.5 47.5t23.5 60.5zM963 307q-27 -126 -132 -217q-103 -90 -251 -90h-539l164 778h-193l31 142h193l32 155h172l-32 -155h198l-31 -142h-198l-31 -149h242q227 1 314.5 -76
t60.5 -246z" />
    <glyph glyph-name="uni048E" unicode="&#x48e;" horiz-adv-x="1366" 
d="M1188 1063q26 123 -36 192.5t-198 69.5h-397l-113 -524h398q78 0 143 24l-121 121l123 78l119 -121q61 64 82 160zM1384 625l-120 -78l-146 145q-112 -59 -239 -59h-469l-136 -633h-190l317 1493h617q221 0 316.5 -113.5t49.5 -324.5q-37 -174 -151 -279z" />
    <glyph glyph-name="uni048F" unicode="&#x48f;" 
d="M901 522q40 192 -21 307t-202 115q-135 0 -241 -113.5t-146 -302.5t18 -302t193 -113q122 0 223 88l-147 149l120 78l119 -119q57 95 84 213zM1098 29l-123 -78l-133 135q-152 -133 -344 -133q-104 0 -174 38t-121 122l-119 -559h-172l324 1519h157l-35 -162
q161 193 383 193q214 0 304.5 -158t31.5 -428q-42 -195 -141 -328z" />
    <glyph glyph-name="afii10050" unicode="&#x490;" horiz-adv-x="1251" 
d="M1264 1690l-78 -365h-811l-283 -1325h-190l317 1493l811 -2l43 199h191z" />
    <glyph glyph-name="afii10098" unicode="&#x491;" horiz-adv-x="880" 
d="M782 1288l-80 -370h-432l-194 -918h-172l229 1073h432l45 215h172z" />
    <glyph glyph-name="uni0492" unicode="&#x492;" horiz-adv-x="1251" 
d="M1366 1325h-811l-63 -293h188l-31 -141h-186l-191 -891h-190l188 891h-184l31 141h184l98 461h1002z" />
    <glyph glyph-name="uni0493" unicode="&#x493;" horiz-adv-x="880" 
d="M840 918h-432l-37 -179h211l-31 -141h-211l-127 -598h-172l127 598h-180l30 141h179l71 334h604z" />
    <glyph glyph-name="uni0494" unicode="&#x494;" horiz-adv-x="1251" 
d="M1366 1325h-813l-86 -410h328q163 0 249 -78.5t86 -207.5q0 -49 -10 -88l-114 -541q-14 -64 -36 -112t-60 -89.5t-98.5 -63.5t-141.5 -22h-170l47 168h86q91 0 128.5 35t53.5 104l117 527q8 31 8 63q0 138 -182 138h-326l-160 -748h-190l317 1493h1002z" />
    <glyph glyph-name="uni0495" unicode="&#x495;" horiz-adv-x="880" 
d="M737 0q-15 -70 -36 -114.5t-61 -79t-104.5 -49.5t-160.5 -15l24 113q76 0 113 34.5t53 110.5l49 231q13 60 13 80q0 78 -48 126t-126 48h-138l-102 -485h-172l227 1073h604l-32 -155h-432l-60 -285h184q129 0 203 -68.5t74 -189.5q0 -40 -8 -76z" />
    <glyph glyph-name="uni0496" unicode="&#x496;" horiz-adv-x="1837" 
d="M1788 152l-92 -428h-164l59 276h-61l-445 664l-141 -664h-190l141 664l-727 -664h-225l829 768l-434 725h246l354 -631l133 631h191l-134 -631l621 631h246l-742 -725l404 -616h131z" />
    <glyph glyph-name="uni0497" unicode="&#x497;" horiz-adv-x="1675" 
d="M1530 -246h-144l54 246h-70l-434 442l-94 -442h-170l94 442l-623 -442h-211l738 541l-445 532h219l359 -455l96 455h170l-96 -455l551 455h219l-670 -532l385 -410h152z" />
    <glyph glyph-name="uni0498" unicode="&#x498;" horiz-adv-x="1335" 
d="M1227 492q0 -246 -167.5 -384t-451.5 -153l41 -25q121 -79 121 -196q0 -72 -72 -113t-202 -41q-75 0 -140 21l-18 92q65 -21 143 -21q60 0 97.5 25t37.5 65q0 56 -41 103q-24 27 -50 46t-79 46q-186 19 -294.5 114.5t-108.5 260.5q0 55 16 143h181q-13 -54 -13 -90
q0 -130 95 -197t264 -67q192 0 317 84t125 221q0 88 -77.5 159.5t-202.5 71.5h-222l35 168h180q92 0 183 48.5t148.5 126t57.5 157.5q0 93 -76.5 147t-209.5 54q-178 0 -291 -78.5t-145 -224.5h-181q47 220 217 341.5t428 121.5q213 0 331 -89.5t118 -248.5
q0 -148 -79.5 -254.5t-213.5 -159.5q199 -81 199 -274z" />
    <glyph glyph-name="uni0499" unicode="&#x499;" horiz-adv-x="1013" 
d="M903 346q0 -166 -122.5 -269.5t-325.5 -121.5l43 -25q120 -78 120 -196q0 -72 -72 -113t-202 -41q-74 0 -139 21l-19 92q65 -21 144 -21q60 0 97.5 25t37.5 65q0 56 -41 103q-24 27 -50 46t-79 46q-275 30 -275 266q0 32 11 96h180q-4 -56 0.5 -84.5t19.5 -52.5
q52 -71 197 -71q115 0 198 54.5t83 137.5q0 58 -48 104t-126 46h-152l33 155h127q105 0 172 58t67 133q0 62 -53.5 104.5t-142.5 42.5q-208 0 -252 -172h-180q35 159 153.5 244.5t304.5 85.5q164 0 257.5 -69t93.5 -189q0 -99 -51.5 -177t-139.5 -122q65 -32 98 -84t33 -117
z" />
    <glyph glyph-name="uni049A" unicode="&#x49a;" horiz-adv-x="1359" 
d="M1278 152l-92 -428h-164l59 276h-61l-629 664l-141 -664h-191l318 1493h190l-137 -645l881 645h245l-997 -725l551 -616h168z" />
    <glyph glyph-name="uni049B" unicode="&#x49b;" horiz-adv-x="1044" 
d="M897 -246h-143l53 246h-68l-434 442l-94 -442h-170l227 1073h170l-96 -455l551 455h219l-670 -532l385 -410h150z" />
    <glyph glyph-name="uni049C" unicode="&#x49c;" horiz-adv-x="1359" 
d="M1264 0h-244l-373 393l-35 -162h-172l66 312l-115 121l-141 -664h-191l318 1493h190l-137 -645l166 123l72 334h172l-39 -187l510 375h245l-800 -582l-62 -290z" />
    <glyph glyph-name="uni049D" unicode="&#x49d;" horiz-adv-x="1044" 
d="M950 0h-211l-266 270l-22 -106h-132l46 217l-60 61l-94 -442h-170l227 1073h170l-96 -455l88 74l55 258h131l-26 -127l303 250h219l-565 -448l-33 -160z" />
    <glyph glyph-name="uni049E" unicode="&#x49e;" horiz-adv-x="1359" 
d="M1245 0h-225l-629 664l-141 -664h-191l248 1165h-188l31 142h188l39 186h190l-39 -186h185l-31 -142h-184l-68 -317l881 645h245l-997 -725z" />
    <glyph glyph-name="uni049F" unicode="&#x49f;" horiz-adv-x="1044" 
d="M950 0h-211l-434 442l-94 -442h-170l172 813h-131l31 121h127l28 139h170l-28 -139h122l-30 -121h-119l-41 -195l551 455h219l-670 -532z" />
    <glyph glyph-name="uni04A0" unicode="&#x4a0;" horiz-adv-x="1441" 
d="M1346 0h-244l-629 664l-141 -664h-193l281 1325h-471l35 168h663l-135 -645l881 645h245l-997 -725z" />
    <glyph glyph-name="uni04A1" unicode="&#x4a1;" horiz-adv-x="1265" 
d="M1171 0h-210l-435 442l-94 -442h-170l195 918h-375l33 155l547 2l-99 -457l551 455h219l-669 -532z" />
    <glyph glyph-name="uni04A2" unicode="&#x4a2;" horiz-adv-x="1478" 
d="M1413 152l-92 -428h-164l60 276h-193l145 680h-763l-146 -680h-192l317 1493h190l-137 -645h766l137 645h193l-287 -1341h166z" />
    <glyph glyph-name="uni04A3" unicode="&#x4a3;" horiz-adv-x="1148" 
d="M987 -246h-143l53 246h-172l100 477h-512l-100 -477h-172l227 1073h172l-94 -440h512l94 440h172l-200 -942h143z" />
    <glyph glyph-name="uni04A4" unicode="&#x4a4;" horiz-adv-x="2068" 
d="M2183 1325h-688l-283 -1325h-188l145 680h-763l-146 -680h-192l317 1493h193l-138 -645h764l135 645h879z" />
    <glyph glyph-name="uni04A5" unicode="&#x4a5;" horiz-adv-x="1542" 
d="M1501 918h-411l-195 -918h-170l100 477h-512l-100 -477h-172l227 1073h172l-94 -440h512l92 440h584z" />
    <glyph glyph-name="uni04A6" unicode="&#x4a6;" horiz-adv-x="2172" 
d="M1954 0q-14 -64 -36 -112t-60 -89.5t-98.5 -63.5t-141.5 -22h-170l47 168h86q91 0 128.5 35t53.5 104l117 527q8 31 8 63q0 138 -182 138h-326l-159 -748h-197l283 1325h-764l-283 -1325h-192l317 1493h1149l-119 -578h328q163 0 249.5 -78.5t86.5 -207.5q0 -45 -11 -88z
" />
    <glyph glyph-name="uni04A7" unicode="&#x4a7;" horiz-adv-x="1644" 
d="M1417 0q-15 -70 -36 -114.5t-61 -79t-104.5 -49.5t-160.5 -15l24 113q76 0 113 34.5t53 110.5l49 231q13 60 13 80q0 78 -48 126t-126 48h-138l-102 -485h-170l195 918h-510l-195 -918h-172l227 1073h854l-94 -440h184q129 0 203 -68.5t74 -189.5q0 -40 -8 -76z" />
    <glyph glyph-name="uni04A8" unicode="&#x4a8;" horiz-adv-x="1478" 
d="M1403 545q-59 -139 -104 -223.5t-101 -145.5q-99 -108 -242 -165.5t-307 -57.5q-268 0 -405 174q-117 148 -117 369q0 192 70.5 389.5t191.5 343.5q240 289 598 289q293 0 422 -220q58 -104 66 -268h-197q-12 166 -91.5 244t-234.5 78q-278 0 -463 -273
q-78 -117 -121.5 -262t-43.5 -285q0 -186 97 -299.5t257 -113.5q122 0 230.5 53t172.5 145q51 68 121 228h201z" />
    <glyph glyph-name="uni04A9" unicode="&#x4a9;" horiz-adv-x="1024" 
d="M958 369q-47 -165 -118 -246q-144 -170 -404 -170q-192 0 -293 127q-90 114 -90 268q0 141 47 292t119 245q81 105 201 162t258 57q172 0 264 -96q40 -42 65 -98t25 -107q0 -3 -0.5 -10.5l-1.5 -22.5t-2 -27l-2 -30h-172q2 18 2 45q0 88 -56 138t-153 50
q-189 0 -303 -182q-51 -79 -81 -186.5t-30 -206.5q0 -120 63 -190t169 -70q110 0 192.5 66t128.5 192h172z" />
    <glyph glyph-name="uni04AA" unicode="&#x4aa;" horiz-adv-x="1478" 
d="M1403 545q-59 -139 -104 -223.5t-101 -145.5q-89 -96 -212 -152.5t-267 -68.5l43 -25q121 -79 121 -196q0 -72 -72.5 -113t-202.5 -41q-74 0 -139 21l-18 92q65 -21 143 -21q60 0 97.5 25t37.5 65q0 56 -41 103q-24 27 -50 46t-79 46q-198 24 -315 170q-117 148 -117 369
q0 192 70.5 389.5t191.5 343.5q240 289 598 289q293 0 422 -220q58 -104 66 -268h-197q-12 166 -91.5 244t-234.5 78q-278 0 -463 -273q-78 -117 -121.5 -262t-43.5 -285q0 -186 97 -299.5t257 -113.5q122 0 230.5 53t172.5 145q51 68 121 228h201z" />
    <glyph glyph-name="uni04AB" unicode="&#x4ab;" horiz-adv-x="1024" 
d="M958 369q-47 -165 -118 -246q-124 -145 -336 -166q24 -12 45 -27q121 -79 121 -196q0 -72 -72.5 -113t-202.5 -41q-75 0 -139 21l-18 92q65 -21 143 -21q60 0 97.5 25t37.5 65q0 56 -41 103q-23 28 -51 47.5t-86 48.5q-118 24 -195 119q-90 114 -90 268q0 141 47 292
t119 245q81 105 201 162t258 57q172 0 264 -96q40 -42 65 -98t25 -107q0 -3 -0.5 -10.5l-1.5 -22.5t-2 -27l-2 -30h-172q2 18 2 45q0 88 -56 138t-153 50q-189 0 -303 -182q-51 -79 -81 -186.5t-30 -206.5q0 -120 63 -190t169 -70q110 0 192.5 66t128.5 192h172z" />
    <glyph glyph-name="uni04AC" unicode="&#x4ac;" horiz-adv-x="1251" 
d="M1393 1325h-490l-250 -1173h164l-92 -428h-164l60 276h-191l283 1325h-492l35 168h1171z" />
    <glyph glyph-name="uni04AD" unicode="&#x4ad;" horiz-adv-x="819" 
d="M864 918h-295l-168 -787h144l-80 -377h-143l53 246h-172l194 918h-295l33 155h762z" />
    <glyph glyph-name="uni04AE" unicode="&#x4ae;" horiz-adv-x="1366" 
d="M1569 1493l-754 -907l-125 -586h-192l125 586l-381 907h229l279 -731l591 731h228z" />
    <glyph glyph-name="uni04AF" unicode="&#x4af;" horiz-adv-x="1366" 
d="M1382 1073l-606 -897l-84 -586h-190l84 586l-367 897h236l256 -717l444 717h227z" />
    <glyph glyph-name="uni04B0" unicode="&#x4b0;" horiz-adv-x="1366" 
d="M1550 1493l-739 -907l-10 -54h450l-28 -143h-451l-78 -389h-190l78 389h-451l29 143h450l11 54l-398 907h236l295 -727l569 727h227z" />
    <glyph glyph-name="uni04B1" unicode="&#x4b1;" horiz-adv-x="1366" 
d="M1206 33h-450l-64 -443h-190l63 443h-450l20 143h451l-365 897h236l254 -717l446 717h227l-608 -897h451z" />
    <glyph glyph-name="uni04B2" unicode="&#x4b2;" horiz-adv-x="1361" 
d="M1260 152l-93 -428h-163l59 276h-72l-274 623l-543 -623h-231l692 766l-342 727h231l258 -586l510 586h228l-658 -727l293 -614h105z" />
    <glyph glyph-name="uni04B3" unicode="&#x4b3;" horiz-adv-x="1015" 
d="M813 -246h-143l53 246h-55l-183 412l-358 -412h-195l494 547l-246 526h195l176 -389l340 389h192l-471 -518l195 -424h86z" />
    <glyph glyph-name="uni04B4" unicode="&#x4b4;" horiz-adv-x="1800" 
d="M1759 152l-92 -428h-164l60 276h-1172l283 1325h-453l35 168h1092l-35 -168h-447l-250 -1157h764l283 1325h192l-284 -1341h188z" />
    <glyph glyph-name="uni04B5" unicode="&#x4b5;" horiz-adv-x="1288" 
d="M1149 -246h-143l53 246h-877l195 918h-275l33 155h721l-33 -155h-274l-162 -762h510l195 917h172l-199 -942h164z" />
    <glyph glyph-name="uni04B6" unicode="&#x4b6;" horiz-adv-x="1314" 
d="M1217 152l-93 -428h-163l59 276h-215l123 578h-369q-163 0 -249.5 78.5t-86.5 207.5q0 49 10 88l115 541h191l-117 -547q-8 -31 -8 -63q0 -138 182 -138h367l159 748h191l-285 -1341h189z" />
    <glyph glyph-name="uni04B7" unicode="&#x4b7;" horiz-adv-x="1017" 
d="M879 -246h-144l53 246h-194l90 426h-240q-274 0 -274 225q0 31 12 105l68 317h172l-72 -338q-6 -27 -6 -53q0 -100 113 -100h260l104 491h172l-198 -942h163z" />
    <glyph glyph-name="uni04B8" unicode="&#x4b8;" horiz-adv-x="1314" 
d="M1313 1493l-318 -1493h-190l123 578h-174l-58 -271h-172l58 271h-23q-163 0 -249.5 78.5t-86.5 207.5q0 49 10 88l115 541h191l-117 -547q-8 -31 -8 -63q0 -138 182 -138h20l58 267h172l-58 -267h175l159 748h191z" />
    <glyph glyph-name="uni04B9" unicode="&#x4b9;" horiz-adv-x="1017" 
d="M766 0h-172l90 426h-123l-41 -195h-143l41 195q-248 11 -248 225q0 31 12 105l68 317h172l-72 -338q-6 -27 -6 -53q0 -97 107 -100l45 211h143l-45 -211h123l104 491h172z" />
    <glyph glyph-name="uni04BA" unicode="&#x4ba;" horiz-adv-x="1314" 
d="M1188 0h-191l117 547q8 31 8 63q0 138 -182 138h-367l-159 -748h-191l318 1493h190l-123 -578h369q163 0 249.5 -78.5t86.5 -207.5q0 -49 -10 -88z" />
    <glyph glyph-name="uni04BB" unicode="&#x4bb;" horiz-adv-x="1017" 
d="M981 317l-68 -317h-172l72 338q6 27 6 53q0 101 -112 101h-261l-104 -492h-172l227 1073h172l-90 -426h240q274 0 274 -225q0 -31 -12 -105z" />
    <glyph glyph-name="uni04BC" unicode="&#x4bc;" horiz-adv-x="1478" 
d="M1274 1030q-12 166 -91.5 244t-234.5 78q-278 0 -463 -273l-30 -49h819zM1475 862h-1096q-60 -163 -60 -330q0 -186 97.5 -299.5t257.5 -113.5q122 0 230.5 53t172.5 145q51 68 121 228h201q-59 -139 -104 -223.5t-101 -145.5q-99 -108 -242 -165.5t-307 -57.5
q-268 0 -405 174q-117 148 -117 369q0 177 61 366q-47 2 -100 26t-98.5 64t-75 98.5t-29.5 120.5q0 84 28 175t71 147q49 64 120.5 98.5t155.5 34.5q102 0 158 -59q53 -53 53 -123q0 -17 -2 -35v-18h-105q2 10 2 26q0 52 -33.5 82.5t-90.5 30.5q-115 0 -183 -109
q-30 -47 -48.5 -111.5t-18.5 -123.5q0 -72 38 -114t101 -42h129q59 115 129 199q240 289 598 289q293 0 422 -220q34 -62 52 -154.5t18 -281.5z" />
    <glyph glyph-name="uni04BD" unicode="&#x4bd;" horiz-adv-x="1239" 
d="M1079 713q2 18 2 45q0 88 -56 138t-153 50q-189 0 -303 -182q-18 -30 -28 -51h538zM1225 557h-742q-24 -94 -24 -186q0 -120 62.5 -190t168.5 -70q111 0 193.5 66t128.5 192h172q-47 -163 -119 -246q-144 -170 -403 -170q-192 0 -293 127q-90 114 -90 268q0 104 24 209
q-76 5 -136 50.5t-88 100.5t-28 101q0 56 19 116t49 99q67 86 182 86q70 0 107 -37q36 -41 36 -82q-2 -12 -2 -24l-2 -13h-67v19q0 35 -22 55.5t-62 20.5q-74 0 -121 -74q-43 -68 -43 -158q0 -48 25 -76t69 -28h131q42 102 94 172q81 105 201 162t258 57q172 0 264 -96
q40 -42 65 -98t25 -107q0 -60 -9.5 -133.5t-22.5 -112.5z" />
    <glyph glyph-name="uni04BE" unicode="&#x4be;" horiz-adv-x="1478" 
d="M1274 1030q-12 166 -91.5 244t-234.5 78q-278 0 -463 -273l-30 -49h819zM1475 862h-1096q-60 -163 -60 -330q0 -186 97.5 -299.5t257.5 -113.5q122 0 230.5 53t172.5 145q51 68 121 228h201q-59 -139 -104 -223.5t-101 -145.5q-181 -196 -475 -221l43 -25
q121 -79 121 -196q0 -72 -72.5 -113t-202.5 -41q-74 0 -139 21l-18 92q65 -21 143 -21q60 0 97.5 25t37.5 65q0 56 -41 103q-24 27 -50 46t-79 46q-203 24 -319 170q-117 148 -117 369q0 177 61 366q-47 2 -100 26t-98.5 64t-75 98.5t-29.5 120.5q0 84 28 175t71 147
q49 64 120.5 98.5t155.5 34.5q102 0 158 -59q53 -53 53 -123q0 -17 -2 -35v-18h-105q2 10 2 26q0 52 -33.5 82.5t-90.5 30.5q-115 0 -183 -109q-30 -47 -48.5 -111.5t-18.5 -123.5q0 -72 38 -114t101 -42h129q59 115 129 199q240 289 598 289q293 0 422 -220
q34 -62 52 -154.5t18 -281.5z" />
    <glyph glyph-name="uni04BF" unicode="&#x4bf;" horiz-adv-x="1239" 
d="M1079 713q2 18 2 45q0 88 -56 138t-153 50q-189 0 -303 -182q-18 -30 -28 -51h538zM1225 557h-742q-24 -94 -24 -186q0 -120 62.5 -190t168.5 -70q111 0 193.5 66t128.5 192h172q-47 -163 -119 -246q-123 -145 -330 -166q24 -12 45 -27q121 -79 121 -196q0 -72 -72 -113
t-202 -41q-75 0 -140 21l-18 92q65 -21 143 -21q60 0 98 25t38 65q0 56 -41 103q-23 27 -49.5 45.5t-84.5 48.5q-128 24 -204 121q-90 114 -90 268q0 104 24 209q-76 5 -136 50.5t-88 100.5t-28 101q0 56 19 116t49 99q67 86 182 86q70 0 107 -37q36 -41 36 -82
q-2 -12 -2 -24l-2 -13h-67v19q0 35 -22 55.5t-62 20.5q-74 0 -121 -74q-43 -68 -43 -158q0 -48 25 -76t69 -28h131q42 102 94 172q81 105 201 162t258 57q172 0 264 -96q40 -42 65 -98t25 -107q0 -60 -9.5 -133.5t-22.5 -112.5z" />
    <glyph glyph-name="uni04C0" unicode="&#x4c0;" horiz-adv-x="569" 
d="M612 1493l-317 -1493h-193l318 1493h192z" />
    <glyph glyph-name="uni04C1" unicode="&#x4c1;" horiz-adv-x="1837" 
d="M1565 1917q-17 -68 -37.5 -106t-57.5 -70q-51 -46 -124.5 -73.5t-147.5 -27.5q-116 0 -188 56t-72 147q0 25 10 74h109v-16v-11q0 -46 46.5 -74t121.5 -28q91 0 150.5 34t74.5 95h115zM1755 0h-225l-445 664l-141 -664h-190l141 664l-727 -664h-225l829 768l-434 725h246
l354 -631l133 631h191l-134 -631l621 631h246l-742 -725z" />
    <glyph glyph-name="uni04C2" unicode="&#x4c2;" horiz-adv-x="1675" 
d="M1384 1503q-17 -68 -37.5 -106t-56.5 -70q-51 -46 -124 -73t-148 -27q-116 0 -188 56t-72 147q0 24 10 73h109v-16v-10q0 -46 46 -74.5t121 -28.5q91 0 151 34t75 95h114zM1581 0h-211l-434 442l-94 -442h-170l94 442l-623 -442h-211l738 541l-445 532h219l359 -455
l96 455h170l-96 -455l551 455h219l-670 -532z" />
    <glyph glyph-name="uni04C3" unicode="&#x4c3;" horiz-adv-x="1359" 
d="M1556 1493l-997 -725h320q72 -1 137 -28t109 -70t70 -97.5t26 -109.5q0 -31 -4 -45l-68 -418q-13 -64 -35 -112.5t-60 -89.5t-99 -63t-142 -22h-170l47 168h86q91 0 128.5 35t53.5 104l82 392q2 6 2 22q0 61 -58 114.5t-146 53.5h-459l-129 -602h-191l318 1493h190
l-137 -645l881 645h245z" />
    <glyph glyph-name="uni04C4" unicode="&#x4c4;" horiz-adv-x="1044" 
d="M1112 1073l-670 -532h185q77 0 130 -19t80.5 -54.5t38.5 -77t11 -97.5q0 -40 -8 -76l-39 -217q-15 -70 -36 -114.5t-61.5 -79t-105 -49.5t-160.5 -15l25 113q76 0 113 34.5t53 110.5l41 190q12 55 12 80q0 38 -14.5 65t-39.5 40.5t-51 19.5t-55 6h-264l-86 -401h-170
l227 1073h170l-96 -455l551 455h219z" />
    <glyph glyph-name="uni04C7" unicode="&#x4c7;" horiz-adv-x="1478" 
d="M1534 1493l-317 -1493q-13 -64 -35 -112.5t-60 -89.5t-99 -63t-142 -22h-170l47 168h86q89 0 129.5 36t50.5 83l145 680h-763l-146 -680h-192l317 1493h193l-138 -645h764l137 645h193z" />
    <glyph glyph-name="uni04C8" unicode="&#x4c8;" horiz-adv-x="1148" 
d="M897 0q-15 -70 -36 -114.5t-61 -79t-104.5 -49.5t-160.5 -15l24 113q76 0 113 34.5t53 110.5l100 477h-512l-100 -477h-172l227 1073h172l-94 -440h512l94 440h172z" />
    <glyph glyph-name="uni04CB" unicode="&#x4cb;" horiz-adv-x="1314" 
d="M1313 1493l-318 -1493h-213l-61 -276h-164l92 428h189l90 426h-369q-163 0 -249.5 78.5t-86.5 207.5q0 49 10 88l115 541h191l-117 -547q-8 -31 -8 -63q0 -138 182 -138h367l159 748h191z" />
    <glyph glyph-name="uni04CC" unicode="&#x4cc;" horiz-adv-x="1017" 
d="M766 0h-193l-53 -246h-143l80 377h164l63 295h-240q-274 0 -274 225q0 31 12 105l68 317h172l-72 -338q-6 -27 -6 -53q0 -100 113 -100h260l104 491h172z" />
    <glyph glyph-name="uni04D0" unicode="&#x4d0;" horiz-adv-x="1366" 
d="M1305 1917q-17 -68 -37.5 -106t-57.5 -70q-51 -46 -124.5 -73.5t-147.5 -27.5q-116 0 -188 56t-72 147q0 25 10 74h109v-16v-11q0 -46 46.5 -74t121.5 -28q91 0 150.5 34t74.5 95h115zM1235 0h-209l-55 449h-584l-252 -449h-203l850 1493h246zM950 608l-82 682l-391 -682
h473z" />
    <glyph glyph-name="uni04D1" unicode="&#x4d1;" 
d="M1098 1503q-17 -68 -37.5 -106t-56.5 -70q-51 -46 -124.5 -73t-148.5 -27q-116 0 -188 56t-72 147q0 24 10 73h109v-16v-10q0 -46 46.5 -74.5t121.5 -28.5q91 0 150.5 34t74.5 95h115zM1001 -29q-24 -4 -28 -6q-51 -12 -80 -12q-73 0 -114.5 36t-41.5 99v8v15
q-63 -56 -97 -78t-83 -39q-112 -41 -231 -41q-138 0 -216.5 69.5t-78.5 192.5q0 89 44 166.5t124 128.5q75 47 164.5 68t295.5 40q112 10 152.5 34t54.5 87l6 37q1 6 2 15t2 14.5t1 9.5q0 57 -62.5 94t-155.5 37q-65 0 -125 -21t-94 -55q-37 -37 -61 -114h-172
q29 170 156.5 259t341.5 89q161 0 258.5 -64t97.5 -168q0 -20 -12 -75l-131 -617q-3 -9 -3 -20q0 -60 78 -60q17 0 35 4zM821 528q-64 -22 -104 -29.5t-195 -29.5q-147 -21 -211 -61q-46 -28 -73 -74.5t-27 -97.5q0 -65 47.5 -100.5t134.5 -35.5q135 0 251 70.5t136 165.5z
" />
    <glyph glyph-name="uni04D2" unicode="&#x4d2;" horiz-adv-x="1366" 
d="M924 1851l-45 -211h-213l45 211h213zM1253 1851l-45 -211h-213l45 211h213zM1235 0h-209l-55 449h-584l-252 -449h-203l850 1493h246zM950 608l-82 682l-391 -682h473z" />
    <glyph glyph-name="uni04D3" unicode="&#x4d3;" 
d="M717 1438l-45 -211h-213l45 211h213zM1047 1438l-46 -211h-213l46 211h213zM1001 -29q-24 -4 -28 -6q-51 -12 -80 -12q-73 0 -114.5 36t-41.5 99v8v15q-63 -56 -97 -78t-83 -39q-112 -41 -231 -41q-138 0 -216.5 69.5t-78.5 192.5q0 89 44 166.5t124 128.5
q75 47 164.5 68t295.5 40q112 10 152.5 34t54.5 87l6 37q1 6 2 15t2 14.5t1 9.5q0 57 -62.5 94t-155.5 37q-65 0 -125 -21t-94 -55q-37 -37 -61 -114h-172q29 170 156.5 259t341.5 89q161 0 258.5 -64t97.5 -168q0 -20 -12 -75l-131 -617q-3 -9 -3 -20q0 -60 78 -60
q17 0 35 4zM821 528q-64 -22 -104 -29.5t-195 -29.5q-147 -21 -211 -61q-46 -28 -73 -74.5t-27 -97.5q0 -65 47.5 -100.5t134.5 -35.5q135 0 251 70.5t136 165.5z" />
    <glyph glyph-name="uni04D4" unicode="&#x4d4;" horiz-adv-x="2048" 
d="M1843 0h-987l92 438h-551l-266 -438h-211l930 1493h1274l-35 -168h-760l-100 -477h719l-37 -168h-719l-109 -512h795zM985 604l152 721h-205l-434 -721h487z" />
    <glyph glyph-name="uni04D5" unicode="&#x4d5;" horiz-adv-x="1820" 
d="M1737 479h-791q-10 -46 -10 -108v-25v-12q0 -43 24.5 -90.5t63.5 -81.5q60 -51 168 -51q204 0 317 215h172q-50 -168 -193 -270.5t-329 -102.5q-123 0 -209.5 51t-146.5 158q-103 -100 -232 -154.5t-262 -54.5t-212 71t-79 191q0 89 45 167t123 128q76 46 166 66.5
t289 37.5q110 11 150 35t55 90l10 52q4 28 4 38q0 54 -57.5 85.5t-155.5 31.5q-122 0 -189.5 -44.5t-99.5 -145.5h-172q25 89 48.5 137.5t60.5 85.5q63 60 165.5 92.5t229.5 32.5q97 0 159 -18.5t118 -63.5q43 -36 49 -51q69 62 169 97.5t204 35.5q157 0 270 -102.5
t113 -243.5q0 -86 -29 -244zM801 526q-55 -20 -93.5 -27t-197.5 -30q-145 -19 -211 -61q-46 -29 -73 -75t-27 -97q0 -66 47.5 -101t136.5 -35q84 0 167 33t140 88t70 115zM1585 627q6 47 6 67q0 116 -63.5 184t-171.5 68q-128 0 -227 -84.5t-146 -234.5h602z" />
    <glyph glyph-name="uni04D6" unicode="&#x4d6;" horiz-adv-x="1366" 
d="M1317 1917q-17 -68 -37.5 -106t-56.5 -70q-51 -46 -125 -73.5t-148 -27.5q-116 0 -188 56t-72 147q0 25 10 74h109v-16v-11q0 -46 46.5 -74t121.5 -28q91 0 150.5 34t74.5 95h115zM1153 0h-1071l317 1493h1037l-35 -168h-844l-102 -477h811l-37 -168h-809l-111 -512h879z
" />
    <glyph glyph-name="uni04D7" unicode="&#x4d7;" 
d="M1087 1503q-17 -68 -37.5 -106t-56.5 -70q-51 -46 -124 -73t-148 -27q-116 0 -188 56t-72 147q0 24 10 73h109v-16v-10q0 -46 46.5 -74.5t121.5 -28.5q91 0 150.5 34t74.5 95h114zM1051 479h-791q-10 -39 -10 -94q0 -131 66.5 -202.5t187.5 -71.5q206 0 319 215h172
q-47 -166 -191.5 -269.5t-328.5 -103.5q-173 0 -278 102q-60 57 -93.5 136.5t-33.5 162.5q0 125 50 278.5t122 250.5q76 103 197 162t255 59q166 0 278.5 -101t112.5 -249q0 -88 -28 -240zM899 627q6 49 6 67q0 116 -64 184t-173 68q-124 0 -227.5 -89t-143.5 -230h602z" />
    <glyph glyph-name="uni04D8" unicode="&#x4d8;" horiz-adv-x="1478" 
d="M1475 975q0 -192 -71 -389.5t-192 -343.5q-240 -289 -598 -289q-292 0 -421 219q-34 62 -52 154.5t-18 281.5h1096q59 160 59 330q0 186 -97 300t-257 114q-122 0 -231 -53.5t-173 -145.5q-52 -69 -121 -227h-200q59 140 103.5 223.5t100.5 144.5q99 108 242 166t307 58
q268 0 406 -175q117 -148 117 -368zM1143 440h-819q12 -166 91 -243.5t234 -77.5q278 0 463 272z" />
    <glyph glyph-name="afii10846" unicode="&#x4d9;" horiz-adv-x="1013" 
d="M1032 709q0 -141 -47 -292t-119 -245q-82 -105 -201 -162t-257 -57q-173 0 -265 96q-40 42 -65 98t-25 107q0 59 10 133t23 113h741q25 98 25 186q0 120 -62.5 190t-168.5 70q-111 0 -193.5 -66t-128.5 -192h-172q47 163 119 246q144 170 403 170q192 0 293 -127
q90 -114 90 -268zM770 344h-539q-2 -18 -2 -45q0 -88 56 -138t153 -50q189 0 303 182q22 35 29 51z" />
    <glyph glyph-name="uni04DA" unicode="&#x4da;" horiz-adv-x="1478" 
d="M965 1851l-45 -211h-213l45 211h213zM1294 1851l-45 -211h-213l45 211h213zM1475 975q0 -192 -71 -389.5t-192 -343.5q-240 -289 -598 -289q-292 0 -421 219q-34 62 -52 154.5t-18 281.5h1096q59 160 59 330q0 186 -97 300t-257 114q-122 0 -231 -53.5t-173 -145.5
q-52 -69 -121 -227h-200q59 140 103.5 223.5t100.5 144.5q99 108 242 166t307 58q268 0 406 -175q117 -148 117 -368zM1143 440h-819q12 -166 91 -243.5t234 -77.5q278 0 463 272z" />
    <glyph glyph-name="uni04DB" unicode="&#x4db;" horiz-adv-x="1013" 
d="M662 1438l-46 -211h-213l46 211h213zM991 1438l-45 -211h-213l45 211h213zM1032 709q0 -141 -47 -292t-119 -245q-82 -105 -201 -162t-257 -57q-173 0 -265 96q-40 42 -65 98t-25 107q0 59 10 133t23 113h741q25 98 25 186q0 120 -62.5 190t-168.5 70q-111 0 -193.5 -66
t-128.5 -192h-172q47 163 119 246q144 170 403 170q192 0 293 -127q90 -114 90 -268zM770 344h-539q-2 -18 -2 -45q0 -88 56 -138t153 -50q189 0 303 182q22 35 29 51z" />
    <glyph glyph-name="uni04DC" unicode="&#x4dc;" horiz-adv-x="1837" 
d="M1184 1851l-45 -211h-213l45 211h213zM1513 1851l-45 -211h-213l45 211h213zM1755 0h-225l-445 664l-141 -664h-190l141 664l-727 -664h-225l829 768l-434 725h246l354 -631l133 631h191l-134 -631l621 631h246l-742 -725z" />
    <glyph glyph-name="uni04DD" unicode="&#x4dd;" horiz-adv-x="1675" 
d="M1004 1438l-46 -211h-213l46 211h213zM1333 1438l-45 -211h-213l45 211h213zM1581 0h-211l-434 442l-94 -442h-170l94 442l-623 -442h-211l738 541l-445 532h219l359 -455l96 455h170l-96 -455l551 455h219l-670 -532z" />
    <glyph glyph-name="uni04DE" unicode="&#x4de;" horiz-adv-x="1335" 
d="M885 1851l-45 -211h-213l45 211h213zM1214 1851l-45 -211h-213l45 211h213zM1227 492q0 -175 -89 -298t-242 -182t-357 -59q-223 0 -359.5 97t-136.5 282q0 55 16 143h181q-13 -54 -13 -90q0 -130 95 -197t264 -67q192 0 317 84t125 221q0 88 -77.5 159.5t-202.5 71.5
h-222l35 168h180q92 0 183 48.5t148.5 126t57.5 157.5q0 93 -76.5 147t-209.5 54q-178 0 -291 -78.5t-145 -224.5h-181q47 220 217 341.5t428 121.5q213 0 331 -89.5t118 -248.5q0 -148 -79.5 -254.5t-213.5 -159.5q199 -81 199 -274z" />
    <glyph glyph-name="uni04DF" unicode="&#x4df;" horiz-adv-x="1013" 
d="M625 1438l-45 -211h-213l45 211h213zM954 1438l-45 -211h-213l45 211h213zM903 346q0 -182 -144 -287.5t-378 -105.5q-361 0 -361 270q0 32 11 96h180q-4 -56 0.5 -84.5t19.5 -52.5q52 -71 197 -71q115 0 198 54.5t83 137.5q0 58 -48 104t-126 46h-152l33 155h127
q105 0 172 58t67 133q0 62 -53.5 104.5t-142.5 42.5q-208 0 -252 -172h-180q35 159 153.5 244.5t304.5 85.5q164 0 257.5 -69t93.5 -189q0 -99 -51.5 -177t-139.5 -122q65 -32 98 -84t33 -117z" />
    <glyph glyph-name="uni04E0" unicode="&#x4e0;" horiz-adv-x="1335" 
d="M1227 492q0 -175 -89 -298t-242 -182t-357 -59q-223 0 -359.5 97t-136.5 282q0 55 16 143h181q-13 -54 -13 -90q0 -130 95 -197t264 -67q192 0 317 84t125 221q0 88 -77.5 159.5t-202.5 71.5h-222l35 168h180q92 0 183 48.5t148.5 126t57.5 157.5q0 93 -76.5 147
t-209.5 54q-178 0 -291 -78.5t-145 -224.5h-181q47 220 217 341.5t428 121.5q213 0 331 -89.5t118 -248.5q0 -148 -79.5 -254.5t-213.5 -159.5q199 -81 199 -274z" />
    <glyph glyph-name="uni04E1" unicode="&#x4e1;" horiz-adv-x="1013" 
d="M903 346q0 -182 -144 -287.5t-378 -105.5q-361 0 -361 270q0 32 11 96h180q-4 -56 0.5 -84.5t19.5 -52.5q52 -71 197 -71q115 0 198 54.5t83 137.5q0 58 -48 104t-126 46h-152l33 155h127q105 0 172 58t67 133q0 62 -53.5 104.5t-142.5 42.5q-208 0 -252 -172h-180
q35 159 153.5 244.5t304.5 85.5q164 0 257.5 -69t93.5 -189q0 -99 -51.5 -177t-139.5 -122q65 -32 98 -84t33 -117z" />
    <glyph glyph-name="uni04E2" unicode="&#x4e2;" horiz-adv-x="1497" 
d="M1313 1782l-31 -142h-563l31 142h563zM1552 1493l-317 -1493h-180l258 1210l-1030 -1210h-215l317 1493h180l-260 -1221l1041 1221h206z" />
    <glyph glyph-name="uni04E3" unicode="&#x4e3;" horiz-adv-x="1146" 
d="M1040 1368l-30 -141h-564l31 141h563zM895 0h-170l178 846l-659 -846h-203l227 1073h172l-180 -846l662 846h200z" />
    <glyph glyph-name="uni04E4" unicode="&#x4e4;" horiz-adv-x="1497" 
d="M987 1851l-45 -211h-213l45 211h213zM1317 1851l-45 -211h-213l45 211h213zM1552 1493l-317 -1493h-180l258 1210l-1030 -1210h-215l317 1493h180l-260 -1221l1041 1221h206z" />
    <glyph glyph-name="uni04E5" unicode="&#x4e5;" horiz-adv-x="1146" 
d="M715 1438l-45 -211h-213l45 211h213zM1044 1438l-45 -211h-213l45 211h213zM895 0h-170l178 846l-659 -846h-203l227 1073h172l-180 -846l662 846h200z" />
    <glyph glyph-name="uni04E6" unicode="&#x4e6;" horiz-adv-x="1593" 
d="M1010 1851l-45 -211h-213l45 211h213zM1339 1851l-45 -211h-213l45 211h213zM1593 950q0 -243 -107.5 -472t-287.5 -367q-206 -158 -500 -158q-130 0 -247 42t-191 116q-70 70 -109.5 183t-39.5 245q0 195 77 386t213 332q249 261 596 261q139 0 256.5 -41.5
t192.5 -116.5q68 -69 107.5 -179t39.5 -231zM1397 913q0 181 -84 291q-53 68 -144.5 108t-195.5 40q-145 0 -275 -68.5t-219 -191.5q-82 -112 -127 -254t-45 -283q0 -182 84 -289q54 -68 144 -107.5t190 -39.5q149 0 279 67.5t219 192.5q82 110 128 252t46 282z" />
    <glyph glyph-name="uni04E7" unicode="&#x4e7;" 
d="M696 1438l-45 -211h-213l45 211h213zM1026 1438l-45 -211h-213l45 211h213zM1077 721q0 -134 -46 -284t-116 -247q-173 -237 -466 -237q-172 0 -280 106.5t-108 276.5q0 130 45.5 281t114.5 249q78 114 199 176t264 62q178 0 281 -100q54 -52 83 -126.5t29 -156.5z
M897 682q0 125 -63 194.5t-177 69.5q-101 0 -184.5 -55.5t-140.5 -159.5q-41 -77 -65.5 -172t-24.5 -182q0 -123 63 -194.5t172 -71.5q211 0 330 215q90 167 90 356z" />
    <glyph glyph-name="uni04E8" unicode="&#x4e8;" horiz-adv-x="1597" 
d="M1573 723q-38 -184 -141.5 -347t-247.5 -265q-218 -158 -496 -158q-213 0 -356 97.5t-195 275.5t-4 409q75 350 319.5 566.5t565.5 216.5q217 0 360.5 -98t194.5 -278.5t0 -418.5zM1397 813q31 247 -80 392t-334 145q-220 0 -393.5 -146t-245.5 -391h1053zM1368 672
h-1055q-37 -251 74.5 -401t335.5 -150t400.5 151.5t244.5 399.5z" />
    <glyph glyph-name="uni04E9" unicode="&#x4e9;" horiz-adv-x="1134" 
d="M1051 520q-55 -264 -218 -415.5t-389 -151.5q-228 0 -323.5 152t-38.5 423q57 270 218.5 423t387.5 153q232 0 327.5 -153t35.5 -431zM885 600q20 164 -40.5 255t-189.5 91q-128 0 -227 -92t-149 -254h606zM856 459h-608q-20 -164 41 -256t190 -92t229.5 93t147.5 255z
" />
    <glyph glyph-name="uni04EA" unicode="&#x4ea;" horiz-adv-x="1597" 
d="M1030 1851l-45 -211h-213l45 211h213zM1360 1851l-45 -211h-213l45 211h213zM1573 723q-38 -184 -141.5 -347t-247.5 -265q-218 -158 -496 -158q-213 0 -356 97.5t-195 275.5t-4 409q75 350 319.5 566.5t565.5 216.5q217 0 360.5 -98t194.5 -278.5t0 -418.5zM1397 813
q31 247 -80 392t-334 145q-220 0 -393.5 -146t-245.5 -391h1053zM1368 672h-1055q-37 -251 74.5 -401t335.5 -150t400.5 151.5t244.5 399.5z" />
    <glyph glyph-name="uni04EB" unicode="&#x4eb;" horiz-adv-x="1134" 
d="M700 1438l-45 -211h-213l45 211h213zM1030 1438l-45 -211h-213l45 211h213zM1051 520q-55 -264 -218 -415.5t-389 -151.5q-228 0 -323.5 152t-38.5 423q57 270 218.5 423t387.5 153q232 0 327.5 -153t35.5 -431zM885 600q20 164 -40.5 255t-189.5 91q-128 0 -227 -92
t-149 -254h606zM856 459h-608q-20 -164 41 -256t190 -92t229.5 93t147.5 255z" />
    <glyph glyph-name="uni04EC" unicode="&#x4ec;" horiz-adv-x="1468" 
d="M942 1851l-45 -211h-213l45 211h213zM1272 1851l-45 -211h-213l45 211h213zM1468 952q0 -261 -102 -473t-268 -352q-203 -174 -494 -174q-493 0 -493 483q0 50 6 109h196q-8 -142 19 -232q26 -92 106.5 -142t200.5 -50q212 0 374 150.5t228 408.5h-749l34 168h746
q4 31 4 92q0 194 -94 302t-267 108q-90 0 -174.5 -26t-140.5 -69q-49 -38 -85 -89.5t-71 -135.5h-194q192 488 680 488q267 0 402.5 -150t135.5 -416z" />
    <glyph glyph-name="uni04ED" unicode="&#x4ed;" horiz-adv-x="1093" 
d="M672 1438l-45 -211h-213l45 211h213zM1001 1438l-45 -211h-213l45 211h213zM1012 518q-56 -260 -217 -412.5t-379 -152.5q-170 0 -262.5 87t-92.5 245q0 33 7 84h172v-27q0 -231 206 -231q133 0 233 97t146 269l-463 -2l31 158h459q2 14 2 45q0 128 -58.5 198t-168.5 70
q-107 0 -185 -60t-118 -173h-172q43 146 120 231q73 76 174 118t213 42q176 0 274.5 -108t98.5 -298q0 -86 -20 -180z" />
    </font>
</defs>
</svg>
