<?xml version="1.0" standalone="no"?>
<!DOCTYPE svg PUBLIC "-//W3C//DTD SVG 1.1//EN" "http://www.w3.org/Graphics/SVG/1.1/DTD/svg11.dtd" >
<svg xmlns="http://www.w3.org/2000/svg" xmlns:xlink="http://www.w3.org/1999/xlink" version="1.1">
<metadata>
Created by FontForge 20170731 at Fri Jul 24 22:40:36 2020
 By Aleksey,,,
Copyright (URW)++, copyright 1999 by (URW)++ Design &#38; Development; Cyrillic glyphs added by Valek Filippov, copyright 2001-2002; Vietnamese characters were added by Han The Thanh; copyright 2006, 2008 for TeX Gyre extensions by B. Jackowski and J.M. Nowacki (on behalf of TeX users groups). This work is released under the GUST Font License --  see http://tug.org/fonts/licenses/GUST-FONT-LICENSE.txt for details.
</metadata>
<defs>
<font id="TeXGyreHeros-Regular" horiz-adv-x="1138" >
  <font-face 
    font-family="TeXGyreHeros"
    font-weight="400"
    font-stretch="normal"
    units-per-em="2048"
    panose-1="0 0 5 0 0 0 0 0 0 0"
    ascent="1638"
    descent="-410"
    x-height="1073"
    cap-height="1493"
    bbox="-1083 -582 2771 2351"
    underline-thickness="102"
    underline-position="-362"
    unicode-range="U+0020-FB04"
  />
<missing-glyph horiz-adv-x="573" 
 />
    <glyph glyph-name="I_J" unicode="IJ" horiz-adv-x="1480" 
d="M330 0h-191v1493h191v-1493zM1341 383q0 -194 -113 -307t-308 -113q-194 0 -303 106t-109 289v121h190v-86q0 -130 58 -200t166 -70q114 0 171.5 76t57.5 254v1040h190v-1110z" />
    <glyph glyph-name="i_j" unicode="ij" horiz-adv-x="903" 
d="M309 0h-170v1073h170v-1073zM332 1235h-213v213h213v-213zM764 -223q0 -109 -74.5 -166t-218.5 -57q-27 0 -57 6v145l41 -2q76 -4 107.5 29.5t31.5 111.5v1229h170v-1296zM786 1235h-213v213h213v-213z" />
    <glyph glyph-name="f_k" unicode="fk" horiz-adv-x="1613" 
d="M528 934h-178v-934h-170v934h-143v139h143v182q0 115 66.5 179.5t185.5 64.5q47 0 96 -10v-141q-39 2 -59 2q-119 0 -119 -109v-168h178v-139zM1618 0h-211l-363 582l-165 -164v-418h-170v1493h170v-875l454 455h219l-372 -371z" />
    <glyph glyph-name="f_f" unicode="ff" horiz-adv-x="1093" 
d="M1057 934h-178v-934h-170v934h-359v-934h-170v934h-143v139h143v182q0 115 66.5 179.5t185.5 64.5q47 0 96 -10v-141q-39 2 -59 2q-119 0 -119 -109v-168h359v182q0 115 66.5 179.5t185.5 64.5q47 0 96 -10v-141q-39 2 -60 2q-118 0 -118 -109v-168h178v-139z" />
    <glyph glyph-name="f_i" unicode="fi" horiz-adv-x="1024" 
d="M528 934h-178v-934h-170v934h-143v139h143v182q0 115 66.5 179.5t185.5 64.5q47 0 96 -10v-141q-39 2 -59 2q-119 0 -119 -109v-168h178v-139zM879 0h-170v1073h170v-1073zM901 1235h-213v213h213v-213z" />
    <glyph glyph-name="f_l" unicode="fl" horiz-adv-x="1024" 
d="M528 934h-178v-934h-170v934h-143v139h143v182q0 115 66.5 179.5t185.5 64.5q47 0 96 -10v-141q-39 2 -59 2q-119 0 -119 -109v-168h178v-139zM879 0h-170v1493h170v-1493z" />
    <glyph glyph-name="f_f_i" unicode="ffi" horiz-adv-x="1552" 
d="M1057 934h-178v-934h-170v934h-359v-934h-170v934h-143v139h143v182q0 115 66.5 179.5t185.5 64.5q47 0 96 -10v-141q-39 2 -59 2q-119 0 -119 -109v-168h359v182q0 115 66.5 179.5t185.5 64.5q47 0 96 -10v-141q-39 2 -60 2q-118 0 -118 -109v-168h178v-139zM1407 0
h-170v1073h170v-1073zM1430 1235h-213v213h213v-213z" />
    <glyph glyph-name="f_f_l" unicode="ffl" horiz-adv-x="1552" 
d="M1057 934h-178v-934h-170v934h-359v-934h-170v934h-143v139h143v182q0 115 66.5 179.5t185.5 64.5q47 0 96 -10v-141q-39 2 -59 2q-119 0 -119 -109v-168h359v182q0 115 66.5 179.5t185.5 64.5q47 0 96 -10v-141q-39 2 -60 2q-118 0 -118 -109v-168h178v-139zM1407 0
h-170v1493h170v-1493z" />
    <glyph glyph-name=".notdef" horiz-adv-x="573" 
 />
    <glyph glyph-name=".null" horiz-adv-x="0" 
 />
    <glyph glyph-name="nonmarkingreturn" horiz-adv-x="682" 
 />
    <glyph glyph-name="space" unicode=" " horiz-adv-x="569" 
 />
    <glyph glyph-name="exclam" unicode="!" horiz-adv-x="569" 
d="M371 801l-45 -457h-80l-45 457v692h170v-692zM371 0h-172v213h172v-213z" />
    <glyph glyph-name="quotedbl" unicode="&#x22;" horiz-adv-x="727" 
d="M297 1225l-55 -275h-80l-56 275v227h191v-227zM625 1225l-56 -275h-80l-55 275v227h191v-227z" />
    <glyph glyph-name="numbersign" unicode="#" 
d="M1110 887h-217l-64 -357h215v-139h-239l-80 -432h-156l78 432h-254l-80 -432h-155l78 432h-207v139h233l64 357h-222v139h248l74 401h156l-74 -401h256l72 401h157l-73 -401h190v-139zM737 887h-254l-65 -357h256z" />
    <glyph glyph-name="dollar" unicode="$" 
d="M1061 399q0 -196 -114.5 -313.5t-328.5 -132.5v-211h-120v211q-207 12 -319.5 126t-112.5 312q0 5 1 17t1 18h161q11 -107 19.5 -145t32.5 -70q70 -97 217 -117v557q-112 34 -165 56t-93 51q-146 106 -146 299q0 175 103.5 279.5t300.5 129.5v111h120v-111
q186 -13 292 -120.5t106 -282.5h-162q-1 112 -67 183.5t-169 76.5v-510q142 -43 185.5 -59t83.5 -39q174 -99 174 -316zM498 829v492q-114 -15 -176 -79t-62 -165q0 -94 58.5 -155t179.5 -93zM893 375q0 101 -59 156.5t-216 101.5v-539q132 15 203.5 91.5t71.5 189.5z" />
    <glyph glyph-name="percent" unicode="%" horiz-adv-x="1820" 
d="M758 1049q0 -141 -103 -244t-245 -103q-145 0 -248 103t-103 248q0 144 103 247t246 103q148 0 249 -102.5t101 -251.5zM616 1051q0 88 -60 148.5t-148 60.5q-85 0 -146 -60.5t-61 -146.5q0 -85 61.5 -146t147.5 -61q85 0 145.5 60t60.5 145zM1382 1452l-809 -1493h-135
l809 1493h135zM1759 307q0 -141 -103.5 -243.5t-244.5 -102.5q-145 0 -247.5 102.5t-102.5 247.5q0 143 102.5 245.5t245.5 102.5q148 0 249 -102t101 -250zM1618 307q0 88 -60.5 148.5t-148.5 60.5q-85 0 -146 -60t-61 -145q0 -86 61.5 -146.5t147.5 -60.5q85 0 146 60
t61 143z" />
    <glyph glyph-name="ampersand" unicode="&#x26;" horiz-adv-x="1366" 
d="M1305 0h-224l-127 160q-128 -125 -213 -166t-215 -41q-189 0 -304.5 111.5t-115.5 295.5q0 140 71 233.5t261 203.5q-96 120 -131 190.5t-35 142.5q0 135 102.5 228.5t248.5 93.5t239.5 -90.5t93.5 -231.5q0 -110 -61.5 -187.5t-220.5 -168.5l272 -334q64 116 64 244h164
q0 -192 -119 -375zM795 1135q0 75 -51 124.5t-128 49.5q-80 0 -128 -48.5t-48 -127.5q0 -54 25.5 -99t118.5 -151q120 75 165.5 129t45.5 123zM856 281l-328 409q-139 -89 -194 -158.5t-55 -156.5q0 -107 79 -184.5t189 -77.5q80 0 151.5 39t157.5 129z" />
    <glyph glyph-name="quotesingle" unicode="'" horiz-adv-x="391" 
d="M291 1225l-55 -275h-82l-56 275v227h193v-227z" />
    <glyph glyph-name="parenleft" unicode="(" horiz-adv-x="681" 
d="M596 -434h-113q-154 201 -243.5 461t-89.5 503q0 242 90 502t243 461h113q-135 -218 -208 -468.5t-73 -494.5q0 -245 73 -494.5t208 -469.5z" />
    <glyph glyph-name="parenright" unicode=")" horiz-adv-x="681" 
d="M524 528q0 -242 -90 -501.5t-244 -460.5h-112q135 218 207.5 467.5t72.5 494.5q0 246 -72.5 495.5t-207.5 469.5h112q154 -201 244 -461.5t90 -503.5z" />
    <glyph glyph-name="asterisk" unicode="*" horiz-adv-x="796" 
d="M702 1221l-221 -62l144 -182l-105 -74l-127 191l-129 -191l-102 74l141 182l-221 62l39 120l207 -77v229h118v-229l218 77z" />
    <glyph glyph-name="plus" unicode="+" horiz-adv-x="1196" 
d="M1057 442h-389v-389h-140v389h-389v140h389v389h140v-389h389v-140z" />
    <glyph glyph-name="comma" unicode="," horiz-adv-x="569" 
d="M393 -33q0 -268 -215 -268v78q72 3 97.5 41.5t25.5 144.5v37h-123v213h215v-246z" />
    <glyph glyph-name="hyphen" unicode="-" horiz-adv-x="681" 
d="M582 492h-488v147h488v-147z" />
    <glyph glyph-name="period" unicode="." horiz-adv-x="569" 
d="M391 0h-213v213h213v-213z" />
    <glyph glyph-name="slash" unicode="/" horiz-adv-x="569" 
d="M582 1493l-486 -1534h-112l485 1534h113z" />
    <glyph glyph-name="zero" unicode="0" 
d="M1038 698q0 -357 -122 -543t-353 -186q-234 0 -354.5 188t-120.5 554q0 365 120 553t355 188q475 0 475 -754zM854 715q0 577 -291 577q-147 0 -219 -143t-72 -440q0 -590 287 -590q151 0 223 144t72 452z" />
    <glyph glyph-name="one" unicode="1" 
d="M711 0h-181v1034h-321v129q75 9 121 17.5t87.5 24t64.5 32.5t44.5 49t35 69t30.5 97h119v-1452z" />
    <glyph glyph-name="two" unicode="2" 
d="M1047 1026q0 -134 -78 -245t-230 -193l-204 -111q-134 -78 -192 -144t-71 -155h764v-178h-966q8 163 46.5 269t122 189t238.5 171l189 106q196 112 196 287q0 117 -82 194.5t-205 77.5q-136 0 -209 -83t-83 -263h-181q14 504 480 504q205 0 335 -120.5t130 -305.5z" />
    <glyph glyph-name="three" unicode="3" 
d="M1036 422q0 -206 -133.5 -329.5t-357.5 -123.5q-225 0 -343.5 114t-135.5 355h180q9 -158 83 -233.5t222 -75.5q141 0 221 77.5t80 213.5q0 123 -76.5 189.5t-224.5 66.5h-98v151q143 0 221 23.5t106.5 69t28.5 127.5q0 116 -68 181.5t-188 65.5q-139 0 -206.5 -75.5
t-70.5 -235.5h-180q4 232 119.5 350.5t335.5 118.5q207 0 324.5 -106t117.5 -293q0 -214 -202 -293q130 -44 187.5 -124.5t57.5 -213.5z" />
    <glyph glyph-name="four" unicode="4" 
d="M1065 348h-215v-348h-180v348h-613v191l660 913h133v-942h215v-162zM670 510v635l-455 -635h455z" />
    <glyph glyph-name="five" unicode="5" 
d="M1051 481q0 -229 -138.5 -370.5t-359.5 -141.5q-199 0 -318.5 96t-162.5 308h180q64 -244 297 -244q149 0 233 86t84 242q0 160 -85 250t-232 90q-85 0 -144 -30t-122 -105h-166l108 759h750v-178h-604l-58 -375q121 88 269 88q210 0 339.5 -130.5t129.5 -344.5z" />
    <glyph glyph-name="six" unicode="6" 
d="M1051 451q0 -213 -134 -347.5t-342 -134.5q-487 0 -487 693q0 381 133.5 585.5t386.5 204.5q166 0 276 -100.5t136 -278.5h-180q-22 104 -85.5 161.5t-158.5 57.5q-155 0 -238.5 -142.5t-85.5 -408.5q119 162 334 162q196 0 320.5 -125.5t124.5 -326.5zM866 436
q0 145 -75.5 226t-206.5 81q-134 0 -217.5 -81.5t-83.5 -215.5q0 -139 84 -228t211 -89q125 0 206.5 85.5t81.5 221.5z" />
    <glyph glyph-name="seven" unicode="7" 
d="M1065 1270q-229 -272 -379.5 -595.5t-210.5 -674.5h-192q153 684 596 1243h-785v178h971v-151z" />
    <glyph glyph-name="eight" unicode="8" 
d="M1051 410q0 -197 -136 -319t-352 -122t-351.5 122t-135.5 321q0 119 61.5 205.5t186.5 146.5q-111 69 -154 134.5t-43 166.5q0 170 122 278.5t314 108.5q193 0 314.5 -108t121.5 -279q0 -103 -43 -168.5t-155 -132.5q127 -60 188.5 -146.5t61.5 -207.5zM815 1061
q0 106 -68.5 168.5t-183.5 62.5q-114 0 -183 -62.5t-69 -166.5q0 -103 69 -165t183 -62t183 62t69 163zM866 408q0 126 -83.5 201t-219.5 75t-219.5 -75t-83.5 -201t83 -202.5t216 -76.5q139 0 223 75.5t84 203.5z" />
    <glyph glyph-name="nine" unicode="9" 
d="M1042 760q0 -379 -134.5 -585t-387.5 -206q-166 0 -275.5 100.5t-135.5 278.5h180q22 -105 85 -162t158 -57q155 0 238.5 142.5t85.5 408.5q-70 -85 -149.5 -123.5t-182.5 -38.5q-197 0 -321.5 125.5t-124.5 327.5q0 213 133.5 347t341.5 134q489 0 489 -692zM846 975
q0 140 -84 229.5t-211 89.5q-126 0 -207.5 -86t-81.5 -223q0 -145 75.5 -226t207.5 -81q133 0 217 82t84 215z" />
    <glyph glyph-name="colon" unicode=":" horiz-adv-x="569" 
d="M391 0h-213v213h213v-213zM391 860h-213v213h213v-213z" />
    <glyph glyph-name="semicolon" unicode=";" horiz-adv-x="569" 
d="M393 860h-213v213h213v-213zM393 -33q0 -268 -215 -268v78q72 3 97.5 41.5t25.5 144.5v37h-123v213h215v-246z" />
    <glyph glyph-name="less" unicode="&#x3c;" horiz-adv-x="1196" 
d="M918 -141l-685 600v106l685 600v-184l-533 -469l533 -469v-184z" />
    <glyph glyph-name="equal" unicode="=" horiz-adv-x="1196" 
d="M1057 629h-918v139h918v-139zM1057 256h-918v139h918v-139z" />
    <glyph glyph-name="greater" unicode="&#x3e;" horiz-adv-x="1196" 
d="M918 459l-685 -600v184l533 469l-533 469v184l685 -600v-106z" />
    <glyph glyph-name="question" unicode="?" 
d="M1028 1124q0 -101 -45 -181.5t-160 -184.5q-103 -96 -132 -141.5t-29 -112.5v-96h-185v112q0 56 13 95.5t45 82.5q27 36 47 56t108 100q82 72 118 135.5t36 134.5q0 105 -72 169.5t-190 64.5q-137 0 -201 -76.5t-64 -243.5h-174q0 236 114 358t335 122q199 0 317.5 -107
t118.5 -287zM662 0h-185v213h185v-213z" />
    <glyph glyph-name="at" unicode="@" horiz-adv-x="2078" 
d="M1948 756q0 -114 -43 -228.5t-115.5 -205.5t-177.5 -148t-221 -57q-199 0 -226 157q-71 -77 -140 -112t-151 -35q-142 0 -237.5 107.5t-95.5 267.5q0 145 74 277t196 211t256 79q172 0 250 -178l45 135h170l-184 -573q-27 -81 -25 -103q0 -37 30.5 -63.5t71.5 -26.5
q85 0 165 67t129.5 177t49.5 227q0 168 -97.5 313t-264 230.5t-358.5 85.5q-159 0 -307.5 -65t-257.5 -173.5t-174.5 -256.5t-65.5 -306q0 -193 101 -351.5t277 -249.5t390 -91q163 0 395 65l57 -137q-230 -86 -463 -86q-191 0 -363.5 64.5t-297 174t-197.5 261t-73 319.5
q0 197 81 380t216 316.5t321 213.5t387 80q234 0 435.5 -103t319.5 -279t118 -380zM1247 741v11q0 80 -54.5 133t-137.5 53q-84 0 -161 -61t-123 -163t-46 -214q0 -101 59 -171.5t144 -70.5q78 0 150.5 68t118 180t50.5 235z" />
    <glyph glyph-name="A" unicode="A" horiz-adv-x="1366" 
d="M1337 0h-213l-153 449h-576l-157 -449h-203l532 1493h246zM918 608l-230 680l-246 -680h476z" />
    <glyph glyph-name="B" unicode="B" horiz-adv-x="1366" 
d="M1276 426q0 -187 -120.5 -306.5t-319.5 -119.5h-674v1493h606q207 0 324.5 -106t117.5 -273q0 -230 -206 -326q143 -56 207.5 -141.5t64.5 -220.5zM1020 1087q0 238 -299 238h-369v-475h369q155 0 227 60t72 177zM1085 424q0 114 -69 186t-199 72h-465v-514h465
q130 0 199 71.5t69 184.5z" />
    <glyph glyph-name="C" unicode="C" horiz-adv-x="1478" 
d="M1386 545q-67 -582 -614 -582q-161 0 -289.5 58t-212 161.5t-128 243t-44.5 303.5q0 132 27 251t83 219.5t136 174t191.5 115t244.5 41.5q486 0 576 -500h-195q-35 171 -132 251.5t-271 80.5q-216 0 -342.5 -171.5t-126.5 -459.5q0 -279 130.5 -439.5t354.5 -160.5
q187 0 284.5 99.5t131.5 314.5h196z" />
    <glyph glyph-name="D" unicode="D" horiz-adv-x="1478" 
d="M1366 748q0 -349 -162.5 -548.5t-445.5 -199.5h-576v1493h576q284 0 446 -198.5t162 -546.5zM1176 745q0 285 -115 432.5t-336 147.5h-352v-1157h352q221 0 336 147t115 430z" />
    <glyph glyph-name="E" unicode="E" horiz-adv-x="1366" 
d="M1255 0h-1071v1493h1035v-168h-844v-477h813v-168h-813v-512h880v-168z" />
    <glyph glyph-name="F" unicode="F" horiz-adv-x="1251" 
d="M1186 1325h-811v-477h712v-168h-712v-680h-191v1493h1002v-168z" />
    <glyph glyph-name="G" unicode="G" horiz-adv-x="1593" 
d="M1452 0h-121l-47 197q-108 -121 -232.5 -177.5t-277.5 -56.5q-303 0 -493.5 212.5t-190.5 555.5q0 168 48.5 313t138 253.5t226.5 170.5t304 62q255 0 420 -130.5t205 -359.5h-195q-31 146 -147 234t-285 88q-235 0 -379.5 -172.5t-144.5 -448.5q0 -278 142 -444
t392 -166q205 0 337 125t132 324v41h-455v167h623v-788z" />
    <glyph glyph-name="H" unicode="H" horiz-adv-x="1478" 
d="M1319 0h-191v680h-768v-680h-190v1493h190v-645h768v645h191v-1493z" />
    <glyph glyph-name="I" unicode="I" horiz-adv-x="569" 
d="M395 0h-190v1493h190v-1493z" />
    <glyph glyph-name="J" unicode="J" horiz-adv-x="1024" 
d="M872 383q0 -194 -113 -307t-308 -113q-194 0 -303 106t-109 289v121h190v-86q0 -130 58.5 -200t165.5 -70q114 0 171.5 76t57.5 254v1040h190v-1110z" />
    <glyph glyph-name="K" unicode="K" horiz-adv-x="1366" 
d="M1348 0h-226l-526 766l-244 -244v-522h-190v1493h190v-756l744 756h245l-608 -608z" />
    <glyph glyph-name="L" unicode="L" 
d="M1092 0h-928v1493h190v-1325h738v-168z" />
    <glyph glyph-name="M" unicode="M" horiz-adv-x="1705" 
d="M1559 0h-181v1251l-420 -1251h-200l-424 1251v-1251h-180v1493h264l442 -1300l434 1300h265v-1493z" />
    <glyph glyph-name="N" unicode="N" horiz-adv-x="1478" 
d="M1323 0h-215l-772 1210v-1210h-180v1493h206l781 -1221v1221h180v-1493z" />
    <glyph glyph-name="O" unicode="O" horiz-adv-x="1593" 
d="M1520 723q0 -218 -88 -390.5t-253 -271t-380 -98.5q-160 0 -294 55.5t-228 155t-146.5 244t-52.5 317.5q0 231 90 412t254 282t375 101q216 0 380.5 -101t253.5 -284t89 -422zM1329 727q0 284 -145 459.5t-387 175.5q-155 0 -276 -79.5t-187 -222t-66 -325.5
q0 -275 146 -439.5t385 -164.5q237 0 383.5 163.5t146.5 432.5z" />
    <glyph glyph-name="P" unicode="P" horiz-adv-x="1366" 
d="M1264 1055q0 -186 -117 -304t-301 -118h-469v-633h-191v1493h617q221 0 341 -113.5t120 -324.5zM1065 1063q0 123 -77 192.5t-214 69.5h-397v-524h397q137 0 214 69.5t77 192.5z" />
    <glyph glyph-name="Q" unicode="Q" horiz-adv-x="1593" 
d="M1520 739q0 -340 -211 -573l192 -158l-96 -119l-215 179q-176 -105 -391 -105q-160 0 -294 55.5t-228 155t-146.5 244t-52.5 317.5q0 231 90 412t254.5 282t376.5 101t376.5 -101t254.5 -281t90 -409zM1329 737q0 276 -146.5 450.5t-383.5 174.5t-384 -174.5t-147 -452.5
q0 -275 145 -439.5t384 -164.5q123 0 245 57l-151 127l94 115l182 -149q84 94 123 203t39 253z" />
    <glyph glyph-name="R" unicode="R" horiz-adv-x="1478" 
d="M1391 0h-232q-46 104 -43 244l2 133q1 137 -59 201.5t-187 64.5h-491v-643h-191v1493h689q220 0 337 -103t117 -296q0 -128 -55 -212t-180 -145q121 -52 160 -128t42 -261q1 -149 19 -206.5t72 -94.5v-47zM1135 1067q0 130 -68.5 194t-224.5 64h-461v-514h461
q152 0 222.5 62t70.5 194z" />
    <glyph glyph-name="S" unicode="S" horiz-adv-x="1366" 
d="M1272 410q0 -204 -152.5 -325.5t-431.5 -121.5q-179 0 -309.5 56t-205.5 175t-75 291h181q0 -164 107 -259t314 -95q190 0 285.5 67.5t95.5 192.5q0 88 -66.5 146.5t-207.5 95.5l-371 98q-293 76 -293 348q0 204 143.5 327.5t387.5 123.5q258 0 402.5 -122t144.5 -341
h-181q0 146 -96.5 224.5t-275.5 78.5q-149 0 -241.5 -74.5t-92.5 -189.5q0 -86 55.5 -136t190.5 -85l374 -101q152 -41 235 -138.5t83 -235.5z" />
    <glyph glyph-name="T" unicode="T" horiz-adv-x="1251" 
d="M1214 1325h-489v-1325h-190v1325h-492v168h1171v-168z" />
    <glyph glyph-name="U" unicode="U" horiz-adv-x="1478" 
d="M1321 455q0 -224 -156.5 -358t-419.5 -134q-265 0 -418 132t-153 360v1038h191v-1038q0 -158 103.5 -241t276.5 -83q180 0 282.5 86.5t102.5 237.5v1038h191v-1038z" />
    <glyph glyph-name="V" unicode="V" horiz-adv-x="1366" 
d="M1321 1493l-518 -1493h-205l-537 1493h205l439 -1264l413 1264h203z" />
    <glyph glyph-name="W" unicode="W" horiz-adv-x="1933" 
d="M1903 1493l-379 -1493h-209l-344 1227l-334 -1227h-209l-383 1493h213l281 -1212l331 1212h205l340 -1212l275 1212h213z" />
    <glyph glyph-name="X" unicode="X" horiz-adv-x="1366" 
d="M1329 0h-235l-408 623l-410 -623h-231l528 766l-495 727h231l383 -586l385 586h228l-504 -727z" />
    <glyph glyph-name="Y" unicode="Y" horiz-adv-x="1366" 
d="M1354 1493l-561 -907v-586h-191v586l-575 907h235l438 -727l426 727h228z" />
    <glyph glyph-name="Z" unicode="Z" horiz-adv-x="1251" 
d="M1194 0h-1137v168l897 1157h-839v168h1075v-172l-893 -1153h897v-168z" />
    <glyph glyph-name="bracketleft" unicode="[" horiz-adv-x="569" 
d="M512 -434h-381v1927h381v-147h-211v-1633h211v-147z" />
    <glyph glyph-name="backslash" unicode="\" horiz-adv-x="569" 
d="M582 -41h-113l-485 1534h112z" />
    <glyph glyph-name="bracketright" unicode="]" horiz-adv-x="569" 
d="M428 -434h-381v147h211v1633h-211v147h381v-1927z" />
    <glyph glyph-name="asciicircum" unicode="^" horiz-adv-x="960" 
d="M870 674h-141l-250 614l-248 -614h-141l313 778h150z" />
    <glyph glyph-name="underscore" unicode="_" 
d="M1184 -362h-1229v102h1229v-102z" />
    <glyph glyph-name="grave" unicode="`" horiz-adv-x="681" 
d="M401 1190h-122l-306 303h232z" />
    <glyph glyph-name="a" unicode="a" 
d="M1096 4q-71 -18 -117 -18q-63 0 -113 40t-63 101q-70 -75 -166 -116.5t-199 -41.5q-164 0 -258 82t-94 228q0 201 188 278q51 21 108.5 32t235.5 34q101 12 140 38t39 80v45q0 77 -62.5 118.5t-177.5 41.5q-120 0 -180.5 -46t-71.5 -144h-172q14 348 430 348
q198 0 301 -75t103 -218v-598q0 -40 24 -62t68 -22q19 0 37 4v-129zM797 371v159q-42 -20 -89 -30t-186 -29q-139 -21 -198.5 -63t-59.5 -125q0 -164 211 -164q130 0 226 70.5t96 181.5z" />
    <glyph glyph-name="b" unicode="b" 
d="M1071 549q0 -262 -127.5 -421t-339.5 -159q-219 0 -340 185v-154h-153v1493h170v-565q60 91 140.5 133.5t190.5 42.5q213 0 336 -147.5t123 -407.5zM893 539q0 181 -85.5 293t-227.5 112q-135 6 -217 -106t-82 -301q0 -183 82 -295.5t217 -112.5q140 0 226.5 113.5
t86.5 296.5z" />
    <glyph glyph-name="c" unicode="c" horiz-adv-x="1024" 
d="M977 369q-15 -186 -131 -293t-307 -107q-219 0 -347.5 149t-128.5 408q0 266 130 422t348 156q185 0 297 -99.5t127 -291.5h-172q-15 112 -81 172.5t-173 60.5q-140 0 -218.5 -110t-78.5 -310q0 -190 79.5 -294.5t221.5 -104.5q111 0 176 57.5t86 184.5h172z" />
    <glyph glyph-name="d" unicode="d" 
d="M1014 0h-152v158q-69 -99 -150 -144t-192 -45q-217 0 -342 153.5t-125 424.5q0 256 125.5 406.5t335.5 150.5q220 0 330 -166v555h170v-1493zM844 532q0 187 -82 299.5t-219 112.5q-141 0 -226.5 -110.5t-85.5 -296.5t86 -297t228 -111q136 0 217.5 109t81.5 294z" />
    <glyph glyph-name="e" unicode="e" 
d="M1051 487h-791q3 -178 89 -269t226 -91q215 0 281 199h172q-33 -164 -154.5 -260.5t-304.5 -96.5q-227 0 -357 149t-130 412q0 264 133 419t358 155q151 0 266.5 -75.5t168.5 -207.5q43 -111 43 -334zM868 639q0 127 -86 217t-211 90q-128 0 -212 -88t-95 -231h602z" />
    <glyph glyph-name="f" unicode="f" horiz-adv-x="569" 
d="M528 934h-178v-934h-170v934h-143v139h143v182q0 115 66.5 179.5t185.5 64.5q47 0 96 -10v-141q-39 2 -59 2q-119 0 -119 -109v-168h178v-139z" />
    <glyph glyph-name="g" unicode="g" 
d="M1001 176q0 -178 -27 -297t-87 -191.5t-148 -103t-217 -30.5q-189 0 -301.5 85.5t-126.5 237.5h174q14 -94 83 -137t177 -43q155 0 235.5 93t80.5 300v72q-86 -103 -164 -148t-178 -45q-192 0 -317.5 153.5t-125.5 403.5q0 260 126 419t331 159q202 0 328 -186v155h157
v-897zM827 530q0 195 -77 305.5t-215 110.5q-137 0 -217 -108.5t-80 -300.5q0 -194 79.5 -302t219.5 -108q136 0 213 106t77 297z" />
    <glyph glyph-name="h" unicode="h" 
d="M995 0h-170v743q0 101 -62.5 156t-158.5 55q-132 0 -211.5 -99t-79.5 -263v-592h-170v1493h170v-567q75 98 152.5 138t191.5 40q157 0 247.5 -79t90.5 -214v-811z" />
    <glyph glyph-name="i" unicode="i" horiz-adv-x="454" 
d="M313 0h-170v1073h170v-1073zM336 1235h-213v213h213v-213z" />
    <glyph glyph-name="j" unicode="j" horiz-adv-x="454" 
d="M313 -223q0 -109 -74.5 -166t-218.5 -57q-27 0 -57 6v145l41 -2q76 -4 107.5 29.5t31.5 111.5v1229h170v-1296zM336 1235h-213v213h213v-213z" />
    <glyph glyph-name="k" unicode="k" horiz-adv-x="1024" 
d="M1028 0h-211l-362 582l-166 -164v-418h-170v1493h170v-875l454 455h220l-373 -371z" />
    <glyph glyph-name="l" unicode="l" horiz-adv-x="454" 
d="M309 0h-170v1493h170v-1493z" />
    <glyph glyph-name="m" unicode="m" horiz-adv-x="1705" 
d="M1556 0h-170v739q0 102 -51.5 158.5t-144.5 56.5q-105 0 -179.5 -81.5t-74.5 -198.5v-674h-170v739q0 103 -52 159t-147 56q-104 0 -178 -81.5t-74 -198.5v-674h-170v1073h156v-151q69 97 146 139.5t184 42.5q104 0 173 -39t116 -125q75 91 148.5 127.5t180.5 36.5
q150 0 228.5 -77t78.5 -222v-805z" />
    <glyph glyph-name="n" unicode="n" 
d="M997 0h-170v743q0 97 -60 154t-161 57q-131 0 -212 -99t-81 -263v-592h-170v1073h158v-180q71 113 153.5 162t202.5 49q155 0 247.5 -79.5t92.5 -213.5v-811z" />
    <glyph glyph-name="o" unicode="o" 
d="M1044 528q0 -263 -129 -411t-356 -148q-229 0 -357 149.5t-128 418.5t128 418t355 149q233 0 360 -149.5t127 -426.5zM866 530q0 199 -81 307.5t-226 108.5q-143 0 -225 -108t-82 -301q0 -194 82 -302t225 -108q142 0 224.5 107.5t82.5 295.5z" />
    <glyph glyph-name="p" unicode="p" 
d="M1071 526q0 -255 -125.5 -406t-333.5 -151q-104 0 -182.5 38.5t-146.5 121.5v-575h-170v1519h155v-162q122 193 342 193q214 0 337.5 -154t123.5 -424zM893 530q0 191 -84.5 302.5t-226.5 111.5q-135 0 -217 -113.5t-82 -302.5q0 -187 81 -293t218 -106
q140 0 225.5 109.5t85.5 291.5z" />
    <glyph glyph-name="q" unicode="q" 
d="M1014 -446h-170v585q-60 -88 -140 -129t-192 -41q-213 0 -336 147.5t-123 407.5q0 266 127 423t340 157q106 0 194 -44.5t148 -129.5v143h152v-1519zM844 530q0 188 -81.5 301t-217.5 113q-142 0 -228 -111t-86 -296q0 -186 86 -297t228 -111q136 0 217.5 108.5
t81.5 292.5z" />
    <glyph glyph-name="r" unicode="r" horiz-adv-x="681" 
d="M657 924q-192 -3 -268 -90.5t-76 -276.5v-557h-170v1073h156v-194q74 120 142 172.5t151 52.5q22 0 65 -6v-174z" />
    <glyph glyph-name="s" unicode="s" horiz-adv-x="1024" 
d="M940 301q0 -154 -119 -243t-323 -89q-212 0 -317 87t-111 272h180q16 -117 77.5 -159t184.5 -42q114 0 182 43t68 117q0 57 -37.5 88t-128.5 53l-160 39q-190 46 -265 114.5t-75 194.5q0 149 112.5 238.5t299.5 89.5q186 0 286.5 -86t102.5 -244h-180q-3 85 -57.5 128.5
t-157.5 43.5q-104 0 -166 -44t-62 -118q0 -57 47 -92.5t152 -60.5l164 -39q162 -39 232.5 -105.5t70.5 -185.5z" />
    <glyph glyph-name="t" unicode="t" horiz-adv-x="569" 
d="M520 0q-80 -14 -139 -14q-100 0 -153.5 44t-53.5 126v778h-145v139h145v295h170v-295h176v-139h-176v-703q0 -57 19 -76.5t75 -19.5q51 0 82 8v-143z" />
    <glyph glyph-name="u" unicode="u" 
d="M987 0h-153v166q-75 -106 -158 -151.5t-201 -45.5q-157 0 -249.5 79.5t-92.5 213.5v811h170v-743q0 -97 60 -154t161 -57q133 0 213 99t80 263v592h170v-1073z" />
    <glyph glyph-name="v" unicode="v" horiz-adv-x="1024" 
d="M995 1073l-411 -1073h-187l-377 1073h193l287 -870l303 870h192z" />
    <glyph glyph-name="w" unicode="w" horiz-adv-x="1478" 
d="M1450 1073l-315 -1073h-195l-217 842l-207 -842h-192l-312 1073h189l219 -835l205 835h209l210 -835l213 835h193z" />
    <glyph glyph-name="x" unicode="x" horiz-adv-x="1024" 
d="M969 0h-199l-268 412l-273 -412h-194l379 547l-359 526h195l258 -389l258 389h192l-360 -518z" />
    <glyph glyph-name="y" unicode="y" horiz-adv-x="1024" 
d="M979 1073l-477 -1298q-82 -221 -277 -221q-63 0 -114 26v154q60 -13 90 -13q55 0 85 23.5t52 81.5l65 170l-362 1077h182l275 -835l297 835h184z" />
    <glyph glyph-name="z" unicode="z" horiz-adv-x="1024" 
d="M936 0h-873v154l642 770h-599v149h801v-151l-637 -772h666v-150z" />
    <glyph glyph-name="braceleft" unicode="{" horiz-adv-x="684" 
d="M565 -434h-94q-106 0 -164.5 70.5t-58.5 197.5v342q0 141 -34.5 202.5t-125.5 80.5v141q91 19 125.5 80t34.5 203v342q0 127 58.5 197.5t164.5 70.5h94v-133h-30q-75 0 -102 -28.5t-27 -108.5v-371q0 -142 -37.5 -213.5t-130.5 -108.5q86 -40 127 -118t41 -205v-371
q0 -80 27 -108.5t102 -28.5h30v-133z" />
    <glyph glyph-name="bar" unicode="|" horiz-adv-x="532" 
d="M336 -434h-139v1927h139v-1927z" />
    <glyph glyph-name="braceright" unicode="}" horiz-adv-x="684" 
d="M537 459q-88 -19 -122 -80.5t-34 -202.5v-342q0 -128 -59 -198t-166 -70h-97v133h33q76 0 103.5 28.5t27.5 108.5v371q0 127 41 205t127 116q-168 77 -168 324v371q0 80 -27.5 108.5t-103.5 28.5h-33v133h97q107 0 166 -70t59 -198v-342q0 -141 34 -202.5t122 -80.5v-141
z" />
    <glyph glyph-name="asciitilde" unicode="~" horiz-adv-x="1196" 
d="M1040 809q0 -119 -58.5 -189.5t-156.5 -70.5q-84 0 -166 53l-200 129q-16 9 -45 19t-43 10q-95 0 -109 -160h-108q7 145 64 221t157 76q52 0 110 -33l240 -141q57 -35 102 -35q57 0 81 36t24 118h108v-33z" />
    <glyph glyph-name="uni00A0" unicode="&#xa0;" horiz-adv-x="569" 
 />
    <glyph glyph-name="exclamdown" unicode="&#xa1;" horiz-adv-x="569" 
d="M369 -420h-170v692l45 457h80l45 -457v-692zM371 860h-172v213h172v-213z" />
    <glyph glyph-name="cent" unicode="&#xa2;" 
d="M1044 369q-11 -185 -119 -296t-286 -120v-199h-86v201q-208 19 -327.5 169t-119.5 394q0 250 120 406t327 178v184h86v-182q180 -12 282 -114t111 -277h-172q-10 103 -68.5 164t-152.5 69v-837q196 21 233 260h172zM553 113v831q-132 -25 -200 -132.5t-68 -293.5
q0 -173 70 -279t198 -126z" />
    <glyph glyph-name="sterling" unicode="&#xa3;" 
d="M1096 68q-62 -60 -126 -87.5t-143 -27.5q-57 0 -114 14t-185 58q-68 22 -135 22q-107 0 -223 -76l-98 135q141 121 198.5 209.5t57.5 182.5q0 78 -49 159h-226v113h166q-70 116 -89 166.5t-19 118.5q0 122 64 222.5t176 158t247 57.5q211 0 329 -118.5t122 -356.5h-181
q-9 315 -278 315q-131 0 -210 -72t-79 -190q0 -36 7 -63.5t15 -45.5t40.5 -79t58.5 -113h328v-113h-279q31 -91 31 -145q0 -80 -52.5 -164t-189.5 -223q121 80 250 80q43 0 177.5 -32t152.5 -32q81 0 170 62z" />
    <glyph glyph-name="currency" unicode="&#xa4;" 
d="M1081 1137l-112 -111q102 -117 102 -307q0 -184 -102 -309l110 -115l-92 -92l-113 119q-122 -113 -305 -113t-305 113l-112 -119l-93 92l111 115q-102 125 -102 309q0 190 102 307l-113 111l99 98l116 -115q58 50 136 77.5t161 27.5t161 -27.5t136 -77.5l117 115z
M922 719q0 146 -104 254t-249 108t-248.5 -108t-103.5 -254q0 -149 103 -258t249 -109t249.5 109t103.5 258z" />
    <glyph glyph-name="yen" unicode="&#xa5;" 
d="M1116 1452l-411 -727h309v-104h-348v-158h348v-105h-348v-358h-181v358h-352v105h352v158h-352v104h309l-419 727h174l378 -659l367 659h174z" />
    <glyph glyph-name="brokenbar" unicode="&#xa6;" horiz-adv-x="532" 
d="M336 723h-139v770h139v-770zM336 -434h-139v770h139v-770z" />
    <glyph glyph-name="section" unicode="&#xa7;" 
d="M1036 469q0 -236 -223 -319q61 -69 85 -122.5t24 -119.5q0 -148 -109.5 -246t-273.5 -98q-183 0 -282 106.5t-99 300.5h174q0 -128 57.5 -189t151.5 -61q87 0 141.5 49.5t54.5 127.5q0 54 -26 96.5t-86 83.5l-349 239q-99 69 -143.5 145.5t-44.5 176.5q0 102 50.5 174.5
t164.5 132.5q-48 57 -69 104.5t-21 104.5q0 141 110 239.5t269 98.5q160 0 259 -100t99 -263v-57h-172v53q0 95 -53.5 152t-144.5 57q-78 0 -130.5 -49.5t-52.5 -124.5q0 -45 26.5 -80.5t90.5 -76.5l299 -193q124 -79 173.5 -155t49.5 -187zM874 426q0 125 -149 229
l-330 224q-80 -53 -112.5 -99.5t-32.5 -107.5q0 -62 27 -102.5t108 -100.5l340 -252q72 38 110.5 92.5t38.5 116.5z" />
    <glyph glyph-name="dieresis" unicode="&#xa8;" horiz-adv-x="681" 
d="M268 1237h-186v209h186v-209zM600 1237h-186v209h186v-209z" />
    <glyph glyph-name="copyright" unicode="&#xa9;" horiz-adv-x="1509" 
d="M1470 684q0 -193 -96 -357.5t-260.5 -260t-357.5 -95.5q-145 0 -277 56.5t-227.5 152t-152 227.5t-56.5 277t56.5 277t152 228t227.5 153t277 57q193 0 357.5 -96t260.5 -261t96 -358zM1382 684q0 127 -49.5 243.5t-133.5 200.5t-200 133.5t-243 49.5q-170 0 -314 -84
t-227.5 -228.5t-83.5 -314.5t83.5 -314t227.5 -227.5t314 -83.5q127 0 243 49.5t200 133t133.5 199.5t49.5 243zM1145 584q-40 -328 -371 -328q-192 0 -298.5 116.5t-106.5 301.5q0 123 44.5 220.5t139 157.5t225.5 60q297 0 348 -285h-131q-19 93 -74 136t-157 43
q-123 0 -195.5 -89.5t-72.5 -240.5q0 -146 75 -230t203 -84q107 0 163 53t77 169h131z" />
    <glyph glyph-name="ordfeminine" unicode="&#xaa;" horiz-adv-x="757" 
d="M655 621h-567v104h567v-104zM682 829q-32 -12 -66 -12q-51 0 -77 20.5t-35 67.5q-101 -88 -215 -88q-98 0 -155.5 53t-57.5 144q0 105 70.5 153.5t250.5 61.5q58 4 79.5 18.5t21.5 48.5v27q0 43 -36 66.5t-102 23.5q-69 0 -99 -24.5t-40 -90.5h-121q3 109 71 165.5
t194 56.5q249 0 249 -193v-366q0 -48 48 -48q6 0 20 7v-91zM498 1059v104q-41 -17 -156 -33q-80 -12 -113.5 -36.5t-33.5 -73.5q0 -46 30.5 -71t85.5 -25q75 0 131 40.5t56 94.5z" />
    <glyph glyph-name="guillemotleft" unicode="&#xab;" 
d="M512 217l-311 248v182l311 250v-170l-217 -170l217 -170v-170zM932 217l-311 248v182l311 250v-170l-217 -170l217 -170v-170z" />
    <glyph glyph-name="logicalnot" unicode="&#xac;" horiz-adv-x="1196" 
d="M1057 326h-139v303h-779v139h918v-442z" />
    <glyph glyph-name="uni00AD" unicode="&#xad;" horiz-adv-x="681" 
d="M582 492h-488v147h488v-147z" />
    <glyph glyph-name="registered" unicode="&#xae;" horiz-adv-x="1509" 
d="M1470 684q0 -193 -96 -357.5t-260.5 -260t-357.5 -95.5q-145 0 -277 56.5t-227.5 152t-152 227.5t-56.5 277t56.5 277t152 228t227.5 153t277 57q193 0 357.5 -96t260.5 -261t96 -358zM1382 684q0 127 -49.5 243.5t-133.5 200.5t-200 133.5t-243 49.5q-170 0 -314 -84
t-227.5 -228.5t-83.5 -314.5t83.5 -314t227.5 -227.5t314 -83.5q127 0 243 49.5t200 133t133.5 199.5t49.5 243zM1116 276h-149q-29 63 -29 140l2 69q0 70 -33 103t-104 33h-281v-345h-129v816h414q133 0 203.5 -58t70.5 -164q0 -68 -29.5 -113t-97.5 -77q64 -28 85.5 -70
t23.5 -139q2 -79 11.5 -108.5t41.5 -49.5v-37zM950 856q0 65 -39.5 97t-126.5 32h-262v-258h262q86 0 126 31t40 98z" />
    <glyph glyph-name="macron" unicode="&#xaf;" horiz-adv-x="681" 
d="M618 1270h-561v143h561v-143z" />
    <glyph glyph-name="degree" unicode="&#xb0;" horiz-adv-x="819" 
d="M709 1141q0 -127 -85.5 -213t-213.5 -86t-213.5 86t-85.5 213t85.5 213t213.5 86t213.5 -86t85.5 -213zM610 1141q0 83 -59.5 147t-140.5 64t-141 -64t-60 -147t60 -147t141 -64t140.5 64t59.5 147z" />
    <glyph glyph-name="plusminus" unicode="&#xb1;" horiz-adv-x="1196" 
d="M1057 582h-389v-318h-140v318h-389v139h389v389h140v-389h389v-139zM1057 0h-918v139h918v-139z" />
    <glyph glyph-name="two.superior" unicode="&#xb2;" horiz-adv-x="681" 
d="M612 1225q0 -144 -174 -232l-112 -59q-59 -29 -87.5 -60t-43.5 -83h411v-105h-547q6 131 52.5 200t175.5 136l106 57q105 55 105 142q0 58 -43.5 96.5t-108.5 38.5q-74 0 -113 -41.5t-45 -136.5h-110q3 139 69.5 206.5t200.5 67.5q117 0 190.5 -63.5t73.5 -163.5z" />
    <glyph glyph-name="three.superior" unicode="&#xb3;" horiz-adv-x="681" 
d="M621 903q0 -110 -75.5 -175.5t-203.5 -65.5q-131 0 -201.5 66.5t-70.5 189.5h112q3 -84 42.5 -123t121.5 -39q75 0 118.5 39t43.5 108q0 79 -50.5 104t-172.5 25v92q115 0 156.5 23t41.5 86q0 57 -37 90t-100 33q-76 0 -111.5 -37t-35.5 -123h-113q6 256 260 256
q115 0 182.5 -58.5t67.5 -158.5q0 -107 -102 -152q127 -46 127 -180z" />
    <glyph glyph-name="acute" unicode="&#xb4;" horiz-adv-x="681" 
d="M709 1493l-306 -303h-122l196 303h232z" />
    <glyph glyph-name="mu" unicode="&#xb5;" 
d="M1114 -29q-68 -18 -117 -18q-88 0 -130.5 41t-45.5 129q-120 -170 -334 -170q-111 0 -184 53v-457h-170v1524h170v-760q0 -97 59.5 -154t159.5 -57q133 0 213 99t80 264v608h170v-893q0 -84 92 -84q17 0 37 4v-129z" />
    <glyph glyph-name="paragraph" unicode="&#xb6;" horiz-adv-x="1099" 
d="M1069 1362h-117v-1724h-131v1724h-168v-1724h-131v892q-197 10 -310.5 144t-113.5 327q0 207 133 349.5t326 142.5h512v-131z" />
    <glyph glyph-name="periodcentered" unicode="&#xb7;" horiz-adv-x="569" 
d="M391 512q0 -44 -31 -75t-75 -31t-75.5 31t-31.5 75t31.5 75t75.5 31t75 -31t31 -75z" />
    <glyph glyph-name="cedilla" unicode="&#xb8;" horiz-adv-x="681" 
d="M588 -281q0 -88 -67.5 -139t-184.5 -51q-59 0 -109 14t-147 56l43 82l18 -9q71 -35 107.5 -47t75.5 -12q47 0 78.5 26t31.5 66q0 37 -25.5 63.5t-68.5 26.5q-28 0 -64 -8l-34 25l86 198h98l-47 -121h47q73 0 117.5 -50.5t44.5 -119.5z" />
    <glyph glyph-name="one.superior" unicode="&#xb9;" horiz-adv-x="681" 
d="M432 686h-110v533h-179v84l27 2q66 4 99.5 17.5t52 41.5t34.5 88h76v-766z" />
    <glyph glyph-name="ordmasculine" unicode="&#xba;" horiz-adv-x="747" 
d="M643 621h-539v104h539v-104zM664 1163q0 -163 -77 -254.5t-214 -91.5q-138 0 -214.5 92.5t-76.5 259.5q0 166 76.5 258.5t214.5 92.5q140 0 215.5 -92.5t75.5 -264.5zM545 1165q0 117 -45 182.5t-127 65.5q-80 0 -126 -65t-46 -179q0 -115 46 -180t126 -65t126 64.5
t46 176.5z" />
    <glyph glyph-name="guillemotright" unicode="&#xbb;" 
d="M516 467l-315 -250v170l221 170l-221 170v170l315 -248v-182zM924 467l-316 -250v170l221 170l-221 170v170l316 -248v-182z" />
    <glyph glyph-name="onequarter" unicode="&#xbc;" horiz-adv-x="1708" 
d="M455 686h-111v533h-178v84l27 2q66 4 99.5 17.5t52 41.5t34.5 88h76v-766zM1395 1452l-926 -1503h-119l926 1503h119zM1571 180h-121v-180h-111v180h-340v107l369 479h82v-490h121v-96zM1339 276v306l-233 -306h233z" />
    <glyph glyph-name="onehalf" unicode="&#xbd;" horiz-adv-x="1708" 
d="M455 686h-111v533h-178v84l27 2q66 4 99.5 17.5t52 41.5t34.5 88h76v-766zM1305 1452l-926 -1503h-119l926 1503h119zM1563 539q0 -144 -174 -232l-113 -59q-59 -29 -87.5 -60.5t-43.5 -83.5h411v-104h-546q6 131 52 200t175 138l104 55q107 55 107 142q0 58 -44 96.5
t-110 38.5q-73 0 -111 -41.5t-44 -136.5h-113q4 139 71 206.5t201 67.5q117 0 191 -63.5t74 -163.5z" />
    <glyph glyph-name="threequarters" unicode="&#xbe;" horiz-adv-x="1708" 
d="M682 903q0 -110 -75.5 -175.5t-203.5 -65.5q-131 0 -201.5 66.5t-70.5 189.5h113q3 -84 42.5 -123t121.5 -39q75 0 118 39t43 108q0 79 -50.5 104t-172.5 25v92q115 0 157 23t42 86q0 57 -37 90t-100 33q-77 0 -112.5 -37t-35.5 -123h-113q6 256 261 256q115 0 182 -58.5
t67 -158.5q0 -107 -102 -152q127 -46 127 -180zM1436 1452l-926 -1503h-119l926 1503h119zM1550 180h-120v-180h-111v180h-340v107l369 479h82v-490h120v-96zM1319 276v306l-234 -306h234z" />
    <glyph glyph-name="questiondown" unicode="&#xbf;" 
d="M995 35q0 -236 -113.5 -357.5t-334.5 -121.5q-200 0 -318 106.5t-118 286.5q0 102 44.5 182t159.5 184q104 96 133 142t29 112v97h185v-113q0 -56 -13 -95.5t-45 -82.5q-27 -36 -47 -56t-108 -100q-82 -72 -118 -135.5t-36 -134.5q0 -105 72 -169.5t190 -64.5
q137 0 200.5 76.5t63.5 243.5h174zM662 860h-185v213h185v-213z" />
    <glyph glyph-name="Agrave" unicode="&#xc0;" horiz-adv-x="1366" 
d="M1337 0h-213l-153 449h-576l-157 -449h-203l532 1493h246zM918 608l-230 680l-246 -680h476zM764 1604h-148l-366 272h278z" />
    <glyph glyph-name="Aacute" unicode="&#xc1;" horiz-adv-x="1366" 
d="M1337 0h-213l-153 449h-576l-157 -449h-203l532 1493h246zM918 608l-230 680l-246 -680h476zM1130 1876l-366 -272h-148l236 272h278z" />
    <glyph glyph-name="Acircumflex" unicode="&#xc2;" horiz-adv-x="1366" 
d="M1337 0h-213l-153 449h-576l-157 -449h-203l532 1493h246zM918 608l-230 680l-246 -680h476zM1042 1604h-153l-199 176l-194 -176h-158l235 276h234z" />
    <glyph glyph-name="Atilde" unicode="&#xc3;" horiz-adv-x="1366" 
d="M1337 0h-213l-153 449h-576l-157 -449h-203l532 1493h246zM918 608l-230 680l-246 -680h476zM1004 1847q-30 -213 -183 -213q-28 0 -57 9t-117 43q-71 26 -100 26q-23 0 -41 -20t-27 -56h-119q17 101 63 156t114 55q31 0 55 -6.5t88 -32.5q80 -36 129 -36q52 0 76 75h119
z" />
    <glyph glyph-name="Adieresis" unicode="&#xc4;" horiz-adv-x="1366" 
d="M1337 0h-213l-153 449h-576l-157 -449h-203l532 1493h246zM918 608l-230 680l-246 -680h476zM618 1636h-186v209h186v-209zM950 1636h-186v209h186v-209z" />
    <glyph glyph-name="Aring" unicode="&#xc5;" horiz-adv-x="1366" 
d="M1337 0h-213l-153 449h-576l-157 -449h-203l532 1493h246zM918 608l-230 680l-246 -680h476zM889 1769q0 -79 -58.5 -136.5t-138.5 -57.5q-82 0 -140 58.5t-58 140.5q0 78 58.5 136t139.5 58q82 0 139.5 -58t57.5 -141zM791 1769q0 43 -29 72t-70 29t-70.5 -28.5
t-29.5 -67.5q0 -41 29.5 -71t70.5 -30q40 0 69.5 29t29.5 67z" />
    <glyph glyph-name="AE" unicode="&#xc6;" horiz-adv-x="2048" 
d="M1946 0h-988v438h-550l-175 -438h-210l612 1493h1274v-168h-760v-477h721v-168h-721v-512h797v-168zM958 606v719h-204l-283 -719h487z" />
    <glyph glyph-name="Ccedilla" unicode="&#xc7;" horiz-adv-x="1478" 
d="M1386 545q-64 -559 -569 -580l-29 -76h48q73 0 117 -50t44 -120q0 -88 -67.5 -139t-184.5 -51q-59 0 -109 14t-147 56l43 82l19 -9q71 -36 107 -47.5t75 -11.5q47 0 79 26t32 66q0 37 -25.5 63.5t-68.5 26.5q-28 0 -64 -8l-35 25l66 153q-148 10 -266 72t-195 163.5
t-117.5 236.5t-40.5 292q0 132 27 251t83 219.5t136 174t191.5 115t244.5 41.5q486 0 576 -500h-195q-35 171 -132 251.5t-271 80.5q-216 0 -342.5 -171.5t-126.5 -459.5q0 -279 130.5 -439.5t354.5 -160.5q187 0 284.5 99.5t131.5 314.5h196z" />
    <glyph glyph-name="Egrave" unicode="&#xc8;" horiz-adv-x="1366" 
d="M1255 0h-1071v1493h1035v-168h-844v-477h813v-168h-813v-512h880v-168zM776 1604h-147l-367 272h279z" />
    <glyph glyph-name="Eacute" unicode="&#xc9;" horiz-adv-x="1366" 
d="M1255 0h-1071v1493h1035v-168h-844v-477h813v-168h-813v-512h880v-168zM1143 1876l-367 -272h-147l235 272h279z" />
    <glyph glyph-name="Ecircumflex" unicode="&#xca;" horiz-adv-x="1366" 
d="M1255 0h-1071v1493h1035v-168h-844v-477h813v-168h-813v-512h880v-168zM1055 1604h-154l-199 176l-194 -176h-158l236 276h233z" />
    <glyph glyph-name="Edieresis" unicode="&#xcb;" horiz-adv-x="1366" 
d="M1255 0h-1071v1493h1035v-168h-844v-477h813v-168h-813v-512h880v-168zM631 1636h-187v209h187v-209zM963 1636h-187v209h187v-209z" />
    <glyph glyph-name="Igrave" unicode="&#xcc;" horiz-adv-x="569" 
d="M395 0h-190v1493h190v-1493zM395 1604h-147l-367 272h279z" />
    <glyph glyph-name="Iacute" unicode="&#xcd;" horiz-adv-x="569" 
d="M395 0h-190v1493h190v-1493zM721 1876l-367 -272h-147l235 272h279z" />
    <glyph glyph-name="Icircumflex" unicode="&#xce;" horiz-adv-x="569" 
d="M395 0h-190v1493h190v-1493zM653 1604h-153l-199 176l-195 -176h-157l235 276h234z" />
    <glyph glyph-name="Idieresis" unicode="&#xcf;" horiz-adv-x="569" 
d="M395 0h-190v1493h190v-1493zM229 1636h-186v209h186v-209zM561 1636h-186v209h186v-209z" />
    <glyph glyph-name="Eth" unicode="&#xd0;" horiz-adv-x="1478" 
d="M1366 748q0 -349 -161.5 -548.5t-444.5 -199.5h-578v694h-141v137h141v662h578q283 0 444.5 -199t161.5 -546zM1176 748q0 284 -114.5 430.5t-334.5 146.5h-354v-494h350v-137h-350v-526h354q220 0 334.5 147.5t114.5 432.5z" />
    <glyph glyph-name="Ntilde" unicode="&#xd1;" horiz-adv-x="1478" 
d="M1323 0h-215l-772 1210v-1210h-180v1493h206l781 -1221v1221h180v-1493zM1053 1847q-30 -213 -183 -213q-28 0 -57 9t-117 43q-71 26 -100 26q-23 0 -41 -20t-27 -56h-118q17 101 63 156t113 55q31 0 55 -6.5t88 -32.5q80 -36 129 -36q52 0 76 75h119z" />
    <glyph glyph-name="Ograve" unicode="&#xd2;" horiz-adv-x="1593" 
d="M1520 723q0 -218 -88 -390.5t-253 -271t-380 -98.5q-160 0 -294 55.5t-228 155t-146.5 244t-52.5 317.5q0 231 90 412t254 282t375 101q216 0 380.5 -101t253.5 -284t89 -422zM1329 727q0 284 -145 459.5t-387 175.5q-155 0 -276 -79.5t-187 -222t-66 -325.5
q0 -275 146 -439.5t385 -164.5q237 0 383.5 163.5t146.5 432.5zM870 1604h-147l-367 272h279z" />
    <glyph glyph-name="Oacute" unicode="&#xd3;" horiz-adv-x="1593" 
d="M1520 723q0 -218 -88 -390.5t-253 -271t-380 -98.5q-160 0 -294 55.5t-228 155t-146.5 244t-52.5 317.5q0 231 90 412t254 282t375 101q216 0 380.5 -101t253.5 -284t89 -422zM1329 727q0 284 -145 459.5t-387 175.5q-155 0 -276 -79.5t-187 -222t-66 -325.5
q0 -275 146 -439.5t385 -164.5q237 0 383.5 163.5t146.5 432.5zM1237 1876l-367 -272h-147l235 272h279z" />
    <glyph glyph-name="Ocircumflex" unicode="&#xd4;" horiz-adv-x="1593" 
d="M1520 723q0 -218 -88 -390.5t-253 -271t-380 -98.5q-160 0 -294 55.5t-228 155t-146.5 244t-52.5 317.5q0 231 90 412t254 282t375 101q216 0 380.5 -101t253.5 -284t89 -422zM1329 727q0 284 -145 459.5t-387 175.5q-155 0 -276 -79.5t-187 -222t-66 -325.5
q0 -275 146 -439.5t385 -164.5q237 0 383.5 163.5t146.5 432.5zM1149 1604h-154l-198 176l-195 -176h-158l236 276h233z" />
    <glyph glyph-name="Otilde" unicode="&#xd5;" horiz-adv-x="1593" 
d="M1520 723q0 -218 -88 -390.5t-253 -271t-380 -98.5q-160 0 -294 55.5t-228 155t-146.5 244t-52.5 317.5q0 231 90 412t254 282t375 101q216 0 380.5 -101t253.5 -284t89 -422zM1329 727q0 284 -145 459.5t-387 175.5q-155 0 -276 -79.5t-187 -222t-66 -325.5
q0 -275 146 -439.5t385 -164.5q237 0 383.5 163.5t146.5 432.5zM1110 1847q-30 -213 -182 -213q-28 0 -57 9t-117 43q-71 26 -101 26q-48 0 -67 -76h-119q17 101 63 156t113 55q31 0 55 -6.5t88 -32.5q80 -36 129 -36q52 0 76 75h119z" />
    <glyph glyph-name="Odieresis" unicode="&#xd6;" horiz-adv-x="1593" 
d="M1520 723q0 -218 -88 -390.5t-253 -271t-380 -98.5q-160 0 -294 55.5t-228 155t-146.5 244t-52.5 317.5q0 231 90 412t254 282t375 101q216 0 380.5 -101t253.5 -284t89 -422zM1329 727q0 284 -145 459.5t-387 175.5q-155 0 -276 -79.5t-187 -222t-66 -325.5
q0 -275 146 -439.5t385 -164.5q237 0 383.5 163.5t146.5 432.5zM725 1636h-186v209h186v-209zM1057 1636h-187v209h187v-209z" />
    <glyph glyph-name="multiply" unicode="&#xd7;" horiz-adv-x="1196" 
d="M971 238l-99 -99l-274 275l-274 -275l-99 99l275 274l-275 274l99 99l274 -275l274 275l99 -99l-275 -274z" />
    <glyph glyph-name="Oslash" unicode="&#xd8;" horiz-adv-x="1593" 
d="M1520 723q0 -218 -88 -390.5t-253 -271t-380 -98.5q-293 0 -484 172l-153 -168l-84 76l162 176q-162 204 -162 516q0 231 90 412t254 282t375 101q291 0 481 -178l158 174l84 -76l-166 -180q166 -218 166 -547zM1329 727q0 242 -104 401l-787 -858q139 -139 361 -139
q237 0 383.5 163.5t146.5 432.5zM1155 1219q-140 143 -358 143q-155 0 -276 -79.5t-187 -222t-66 -325.5q0 -223 99 -377z" />
    <glyph glyph-name="Ugrave" unicode="&#xd9;" horiz-adv-x="1478" 
d="M1321 455q0 -224 -156.5 -358t-419.5 -134q-265 0 -418 132t-153 360v1038h191v-1038q0 -158 103.5 -241t276.5 -83q180 0 282.5 86.5t102.5 237.5v1038h191v-1038zM813 1604h-147l-367 272h279z" />
    <glyph glyph-name="Uacute" unicode="&#xda;" horiz-adv-x="1478" 
d="M1321 455q0 -224 -156.5 -358t-419.5 -134q-265 0 -418 132t-153 360v1038h191v-1038q0 -158 103.5 -241t276.5 -83q180 0 282.5 86.5t102.5 237.5v1038h191v-1038zM1180 1876l-367 -272h-147l235 272h279z" />
    <glyph glyph-name="Ucircumflex" unicode="&#xdb;" horiz-adv-x="1478" 
d="M1321 455q0 -224 -156.5 -358t-419.5 -134q-265 0 -418 132t-153 360v1038h191v-1038q0 -158 103.5 -241t276.5 -83q180 0 282.5 86.5t102.5 237.5v1038h191v-1038zM1092 1604h-154l-199 176l-194 -176h-158l236 276h233z" />
    <glyph glyph-name="Udieresis" unicode="&#xdc;" horiz-adv-x="1478" 
d="M1321 455q0 -224 -156.5 -358t-419.5 -134q-265 0 -418 132t-153 360v1038h191v-1038q0 -158 103.5 -241t276.5 -83q180 0 282.5 86.5t102.5 237.5v1038h191v-1038zM668 1636h-187v209h187v-209zM999 1636h-186v209h186v-209z" />
    <glyph glyph-name="Yacute" unicode="&#xdd;" horiz-adv-x="1366" 
d="M1354 1493l-561 -907v-586h-191v586l-575 907h235l438 -727l426 727h228zM1139 1876l-367 -272h-147l235 272h279z" />
    <glyph glyph-name="Thorn" unicode="&#xde;" horiz-adv-x="1366" 
d="M1262 813q0 -187 -116.5 -306.5t-299.5 -119.5h-469v-387h-191v1493h191v-246h426q214 0 336.5 -116t122.5 -318zM1057 817q0 123 -75 192.5t-208 69.5h-397v-524h397q133 0 208 69.5t75 192.5z" />
    <glyph glyph-name="germandbls" unicode="&#xdf;" horiz-adv-x="1251" 
d="M1159 449q0 -226 -124 -358t-335 -132q-96 0 -172 8v170q85 -10 156 -10q132 0 214.5 86t82.5 223q0 158 -94 218.5t-289 60.5v168q121 0 210 62.5t89 164.5q0 100 -88.5 161.5t-208.5 61.5q-117 0 -202 -65t-85 -166v-1102h-170v1102q0 110 63 201t166.5 140.5
t223.5 49.5q125 0 233.5 -45.5t177 -133t68.5 -198.5q0 -98 -55.5 -179t-147.5 -116q127 -34 207 -137.5t80 -234.5z" />
    <glyph glyph-name="agrave" unicode="&#xe0;" 
d="M1096 4q-71 -18 -117 -18q-63 0 -113 40t-63 101q-70 -75 -166 -116.5t-199 -41.5q-164 0 -258 82t-94 228q0 201 188 278q51 21 108.5 32t235.5 34q101 12 140 38t39 80v45q0 77 -62.5 118.5t-177.5 41.5q-120 0 -180.5 -46t-71.5 -144h-172q14 348 430 348
q198 0 301 -75t103 -218v-598q0 -40 24 -62t68 -22q19 0 37 4v-129zM797 371v159q-42 -20 -89 -30t-186 -29q-139 -21 -198.5 -63t-59.5 -125q0 -164 211 -164q130 0 226 70.5t96 181.5zM625 1190h-123l-305 303h231z" />
    <glyph glyph-name="aacute" unicode="&#xe1;" 
d="M1096 4q-71 -18 -117 -18q-63 0 -113 40t-63 101q-70 -75 -166 -116.5t-199 -41.5q-164 0 -258 82t-94 228q0 201 188 278q51 21 108.5 32t235.5 34q101 12 140 38t39 80v45q0 77 -62.5 118.5t-177.5 41.5q-120 0 -180.5 -46t-71.5 -144h-172q14 348 430 348
q198 0 301 -75t103 -218v-598q0 -40 24 -62t68 -22q19 0 37 4v-129zM797 371v159q-42 -20 -89 -30t-186 -29q-139 -21 -198.5 -63t-59.5 -125q0 -164 211 -164q130 0 226 70.5t96 181.5zM930 1493l-305 -303h-123l196 303h232z" />
    <glyph glyph-name="acircumflex" unicode="&#xe2;" 
d="M1096 4q-71 -18 -117 -18q-63 0 -113 40t-63 101q-70 -75 -166 -116.5t-199 -41.5q-164 0 -258 82t-94 228q0 201 188 278q51 21 108.5 32t235.5 34q101 12 140 38t39 80v45q0 77 -62.5 118.5t-177.5 41.5q-120 0 -180.5 -46t-71.5 -144h-172q14 348 430 348
q198 0 301 -75t103 -218v-598q0 -40 24 -62t68 -22q19 0 37 4v-129zM797 371v159q-42 -20 -89 -30t-186 -29q-139 -21 -198.5 -63t-59.5 -125q0 -164 211 -164q130 0 226 70.5t96 181.5zM856 1188h-129l-166 196l-162 -196h-131l197 307h194z" />
    <glyph glyph-name="atilde" unicode="&#xe3;" 
d="M1096 4q-71 -18 -117 -18q-63 0 -113 40t-63 101q-70 -75 -166 -116.5t-199 -41.5q-164 0 -258 82t-94 228q0 201 188 278q51 21 108.5 32t235.5 34q101 12 140 38t39 80v45q0 77 -62.5 118.5t-177.5 41.5q-120 0 -180.5 -46t-71.5 -144h-172q14 348 430 348
q198 0 301 -75t103 -218v-598q0 -40 24 -62t68 -22q19 0 37 4v-129zM797 371v159q-42 -20 -89 -30t-186 -29q-139 -21 -198.5 -63t-59.5 -125q0 -164 211 -164q130 0 226 70.5t96 181.5zM874 1448q-30 -213 -182 -213q-29 0 -58.5 9t-115.5 42q-74 27 -100 27q-23 0 -41 -20
t-27 -56h-119q17 101 63 156t114 55q31 0 55 -6.5t88 -32.5q82 -37 129 -37q52 0 76 76h118z" />
    <glyph glyph-name="adieresis" unicode="&#xe4;" 
d="M1096 4q-71 -18 -117 -18q-63 0 -113 40t-63 101q-70 -75 -166 -116.5t-199 -41.5q-164 0 -258 82t-94 228q0 201 188 278q51 21 108.5 32t235.5 34q101 12 140 38t39 80v45q0 77 -62.5 118.5t-177.5 41.5q-120 0 -180.5 -46t-71.5 -144h-172q14 348 430 348
q198 0 301 -75t103 -218v-598q0 -40 24 -62t68 -22q19 0 37 4v-129zM797 371v159q-42 -20 -89 -30t-186 -29q-139 -21 -198.5 -63t-59.5 -125q0 -164 211 -164q130 0 226 70.5t96 181.5zM489 1237h-186v209h186v-209zM821 1237h-186v209h186v-209z" />
    <glyph glyph-name="aring" unicode="&#xe5;" 
d="M1096 4q-71 -18 -117 -18q-63 0 -113 40t-63 101q-70 -75 -166 -116.5t-199 -41.5q-164 0 -258 82t-94 228q0 201 188 278q51 21 108.5 32t235.5 34q101 12 140 38t39 80v45q0 77 -62.5 118.5t-177.5 41.5q-120 0 -180.5 -46t-71.5 -144h-172q14 348 430 348
q198 0 301 -75t103 -218v-598q0 -40 24 -62t68 -22q19 0 37 4v-129zM797 371v159q-42 -20 -89 -30t-186 -29q-139 -21 -198.5 -63t-59.5 -125q0 -164 211 -164q130 0 226 70.5t96 181.5zM760 1339q0 -79 -58.5 -136.5t-138.5 -57.5q-82 0 -140 58t-58 140q0 79 58.5 137
t139.5 58q82 0 139.5 -58t57.5 -141zM662 1339q0 43 -29 72t-70 29t-70.5 -29t-29.5 -68q0 -41 29.5 -70.5t70.5 -29.5q40 0 69.5 29t29.5 67z" />
    <glyph glyph-name="ae" unicode="&#xe6;" horiz-adv-x="1820" 
d="M1731 479h-791q3 -167 90 -259.5t225 -92.5q101 0 173.5 52t109.5 147h172q-32 -164 -154.5 -260.5t-302.5 -96.5q-118 0 -214 45t-150 125l-33 56q-116 -120 -219 -173t-223 -53q-158 0 -251 83t-93 227q0 114 46.5 180.5t160.5 105t325 56.5q104 9 141 34.5t37 85.5v45
q0 78 -61.5 119t-179.5 41q-119 0 -179.5 -46t-70.5 -144h-172q14 348 426 348q263 0 358 -168q56 78 150 123t204 45q149 0 264.5 -76t168.5 -207q43 -111 43 -342zM780 338v190q-42 -19 -89 -28.5t-185 -30.5q-141 -21 -199.5 -62t-58.5 -124q0 -79 54.5 -121.5
t150.5 -42.5q75 0 152.5 36t126 87t48.5 96zM1546 618q0 146 -82 237t-213 91q-129 0 -213 -89.5t-94 -238.5h602z" />
    <glyph glyph-name="ccedilla" unicode="&#xe7;" horiz-adv-x="1024" 
d="M977 369q-14 -171 -114 -276t-267 -122l-33 -82h47q73 0 117.5 -50.5t44.5 -119.5q0 -88 -67.5 -139t-184.5 -51q-59 0 -109 14t-147 56l43 82l19 -9q71 -36 107 -47.5t75 -11.5q47 0 78.5 26t31.5 66q0 37 -25.5 63.5t-68.5 26.5q-27 0 -63 -8l-35 25l70 159
q-201 15 -317 162.5t-116 392.5q0 266 130 422t348 156q185 0 297 -99.5t127 -291.5h-172q-15 112 -81 172.5t-173 60.5q-140 0 -218.5 -110t-78.5 -310q0 -190 79.5 -294.5t221.5 -104.5q111 0 176 57.5t86 184.5h172z" />
    <glyph glyph-name="egrave" unicode="&#xe8;" 
d="M1051 487h-791q3 -178 89 -269t226 -91q215 0 281 199h172q-33 -164 -154.5 -260.5t-304.5 -96.5q-227 0 -357 149t-130 412q0 264 133 419t358 155q151 0 266.5 -75.5t168.5 -207.5q43 -111 43 -334zM868 639q0 127 -86 217t-211 90q-128 0 -212 -88t-95 -231h602z
M635 1190h-123l-305 303h231z" />
    <glyph glyph-name="eacute" unicode="&#xe9;" 
d="M1051 487h-791q3 -178 89 -269t226 -91q215 0 281 199h172q-33 -164 -154.5 -260.5t-304.5 -96.5q-227 0 -357 149t-130 412q0 264 133 419t358 155q151 0 266.5 -75.5t168.5 -207.5q43 -111 43 -334zM868 639q0 127 -86 217t-211 90q-128 0 -212 -88t-95 -231h602z
M940 1493l-305 -303h-123l197 303h231z" />
    <glyph glyph-name="ecircumflex" unicode="&#xea;" 
d="M1051 487h-791q3 -178 89 -269t226 -91q215 0 281 199h172q-33 -164 -154.5 -260.5t-304.5 -96.5q-227 0 -357 149t-130 412q0 264 133 419t358 155q151 0 266.5 -75.5t168.5 -207.5q43 -111 43 -334zM868 639q0 127 -86 217t-211 90q-128 0 -212 -88t-95 -231h602z
M866 1188h-129l-166 196l-161 -196h-131l196 307h195z" />
    <glyph glyph-name="edieresis" unicode="&#xeb;" 
d="M1051 487h-791q3 -178 89 -269t226 -91q215 0 281 199h172q-33 -164 -154.5 -260.5t-304.5 -96.5q-227 0 -357 149t-130 412q0 264 133 419t358 155q151 0 266.5 -75.5t168.5 -207.5q43 -111 43 -334zM868 639q0 127 -86 217t-211 90q-128 0 -212 -88t-95 -231h602z
M500 1237h-187v209h187v-209zM831 1237h-186v209h186v-209z" />
    <glyph glyph-name="igrave" unicode="&#xec;" horiz-adv-x="569" 
d="M371 0h-170v1073h170v-1073zM371 1190h-123l-305 303h231z" />
    <glyph glyph-name="iacute" unicode="&#xed;" horiz-adv-x="569" 
d="M371 0h-170v1073h170v-1073zM631 1493l-305 -303h-123l196 303h232z" />
    <glyph glyph-name="icircumflex" unicode="&#xee;" horiz-adv-x="569" 
d="M371 0h-170v1073h170v-1073zM580 1188h-129l-166 196l-162 -196h-131l196 307h195z" />
    <glyph glyph-name="idieresis" unicode="&#xef;" horiz-adv-x="569" 
d="M371 0h-170v1073h170v-1073zM213 1237h-186v209h186v-209zM545 1237h-187v209h187v-209z" />
    <glyph glyph-name="eth" unicode="&#xf0;" 
d="M1044 539q0 -276 -126 -423t-359 -147t-359 147t-126 421q0 262 121 412.5t325 150.5q47 0 129 -27q-81 81 -200 182l-199 -92l-74 80l174 82q-62 48 -168 107l90 90q50 -22 90 -44t138 -85l198 92l82 -76l-184 -84q239 -183 343.5 -370.5t104.5 -415.5zM866 530
q0 199 -81 307.5t-226 108.5q-143 0 -225 -108t-82 -301t82 -301.5t225 -108.5q142 0 224.5 107.5t82.5 295.5z" />
    <glyph glyph-name="ntilde" unicode="&#xf1;" 
d="M997 0h-170v743q0 97 -60 154t-161 57q-131 0 -212 -99t-81 -263v-592h-170v1073h158v-180q71 113 153.5 162t202.5 49q155 0 247.5 -79.5t92.5 -213.5v-811zM881 1448q-30 -213 -183 -213q-29 0 -58.5 9t-115.5 42q-74 27 -100 27q-23 0 -41 -20t-27 -56h-118
q17 101 63 156t113 55q31 0 55 -6.5t88 -32.5q82 -37 129 -37q52 0 76 76h119z" />
    <glyph glyph-name="ograve" unicode="&#xf2;" 
d="M1044 528q0 -263 -129 -411t-356 -148q-229 0 -357 149.5t-128 418.5t128 418t355 149q233 0 360 -149.5t127 -426.5zM866 530q0 199 -81 307.5t-226 108.5q-143 0 -225 -108t-82 -301q0 -194 82 -302t225 -108q142 0 224.5 107.5t82.5 295.5zM631 1190h-123l-305 303
h231z" />
    <glyph glyph-name="oacute" unicode="&#xf3;" 
d="M1044 528q0 -263 -129 -411t-356 -148q-229 0 -357 149.5t-128 418.5t128 418t355 149q233 0 360 -149.5t127 -426.5zM866 530q0 199 -81 307.5t-226 108.5q-143 0 -225 -108t-82 -301q0 -194 82 -302t225 -108q142 0 224.5 107.5t82.5 295.5zM936 1493l-305 -303h-123
l197 303h231z" />
    <glyph glyph-name="ocircumflex" unicode="&#xf4;" 
d="M1044 528q0 -263 -129 -411t-356 -148q-229 0 -357 149.5t-128 418.5t128 418t355 149q233 0 360 -149.5t127 -426.5zM866 530q0 199 -81 307.5t-226 108.5q-143 0 -225 -108t-82 -301q0 -194 82 -302t225 -108q142 0 224.5 107.5t82.5 295.5zM862 1188h-129l-166 196
l-161 -196h-132l197 307h195z" />
    <glyph glyph-name="otilde" unicode="&#xf5;" 
d="M1044 528q0 -263 -129 -411t-356 -148q-229 0 -357 149.5t-128 418.5t128 418t355 149q233 0 360 -149.5t127 -426.5zM866 530q0 199 -81 307.5t-226 108.5q-143 0 -225 -108t-82 -301q0 -194 82 -302t225 -108q142 0 224.5 107.5t82.5 295.5zM881 1448
q-30 -213 -183 -213q-29 0 -58.5 9t-115.5 42q-74 27 -100 27q-23 0 -41 -20t-27 -56h-118q17 101 63 156t113 55q31 0 55 -6.5t88 -32.5q82 -37 129 -37q52 0 76 76h119z" />
    <glyph glyph-name="odieresis" unicode="&#xf6;" 
d="M1044 528q0 -263 -129 -411t-356 -148q-229 0 -357 149.5t-128 418.5t128 418t355 149q233 0 360 -149.5t127 -426.5zM866 530q0 199 -81 307.5t-226 108.5q-143 0 -225 -108t-82 -301q0 -194 82 -302t225 -108q142 0 224.5 107.5t82.5 295.5zM496 1237h-187v209h187
v-209zM827 1237h-186v209h186v-209z" />
    <glyph glyph-name="divide" unicode="&#xf7;" horiz-adv-x="1196" 
d="M1057 442h-918v140h918v-140zM705 885q0 -43 -31.5 -75t-75.5 -32t-75 32t-31 75q0 44 31 75t75 31t75.5 -31t31.5 -75zM705 139q0 -44 -31.5 -75t-75.5 -31t-75 31t-31 75q0 43 31 75t75 32t75.5 -32t31.5 -75z" />
    <glyph glyph-name="oslash" unicode="&#xf8;" 
d="M1044 528q0 -263 -129 -411t-356 -148q-196 0 -319 111l-86 -100l-76 63l94 113q-98 149 -98 381q0 269 128 418t355 149q202 0 322 -111l86 101l75 -64l-94 -112q98 -149 98 -390zM866 530q0 144 -43 242l-471 -559q80 -86 207 -86q142 0 224.5 107.5t82.5 295.5z
M766 860q-77 86 -207 86q-143 0 -225 -108t-82 -301q0 -143 43 -236z" />
    <glyph glyph-name="ugrave" unicode="&#xf9;" 
d="M987 0h-153v166q-75 -106 -158 -151.5t-201 -45.5q-157 0 -249.5 79.5t-92.5 213.5v811h170v-743q0 -97 60 -154t161 -57q133 0 213 99t80 263v592h170v-1073zM631 1190h-123l-305 303h231z" />
    <glyph glyph-name="uacute" unicode="&#xfa;" 
d="M987 0h-153v166q-75 -106 -158 -151.5t-201 -45.5q-157 0 -249.5 79.5t-92.5 213.5v811h170v-743q0 -97 60 -154t161 -57q133 0 213 99t80 263v592h170v-1073zM936 1493l-305 -303h-123l197 303h231z" />
    <glyph glyph-name="ucircumflex" unicode="&#xfb;" 
d="M987 0h-153v166q-75 -106 -158 -151.5t-201 -45.5q-157 0 -249.5 79.5t-92.5 213.5v811h170v-743q0 -97 60 -154t161 -57q133 0 213 99t80 263v592h170v-1073zM862 1188h-129l-166 196l-161 -196h-132l197 307h195z" />
    <glyph glyph-name="udieresis" unicode="&#xfc;" 
d="M987 0h-153v166q-75 -106 -158 -151.5t-201 -45.5q-157 0 -249.5 79.5t-92.5 213.5v811h170v-743q0 -97 60 -154t161 -57q133 0 213 99t80 263v592h170v-1073zM496 1237h-187v209h187v-209zM827 1237h-186v209h186v-209z" />
    <glyph glyph-name="yacute" unicode="&#xfd;" horiz-adv-x="1024" 
d="M979 1073l-477 -1298q-82 -221 -277 -221q-63 0 -114 26v154q60 -13 90 -13q55 0 85 23.5t52 81.5l65 170l-362 1077h182l275 -835l297 835h184zM879 1493l-306 -303h-122l196 303h232z" />
    <glyph glyph-name="thorn" unicode="&#xfe;" 
d="M1069 518q0 -245 -126.5 -397t-332.5 -152q-104 0 -182.5 38.5t-146.5 121.5v-575h-170v1908h170v-522q56 78 141.5 121t187.5 43q209 0 334 -159.5t125 -426.5zM891 522q0 192 -85 307t-226 115q-135 0 -217 -113.5t-82 -302.5q0 -178 82.5 -288.5t216.5 -110.5
q138 0 224.5 110.5t86.5 282.5z" />
    <glyph glyph-name="ydieresis" unicode="&#xff;" horiz-adv-x="1024" 
d="M979 1073l-477 -1298q-82 -221 -277 -221q-63 0 -114 26v154q60 -13 90 -13q55 0 85 23.5t52 81.5l65 170l-362 1077h182l275 -835l297 835h184zM438 1237h-186v209h186v-209zM770 1237h-186v209h186v-209z" />
    <glyph glyph-name="Amacron" unicode="&#x100;" horiz-adv-x="1366" 
d="M1337 0h-213l-153 449h-576l-157 -449h-203l532 1493h246zM918 608l-230 680l-246 -680h476zM969 1669h-561v143h561v-143z" />
    <glyph glyph-name="amacron" unicode="&#x101;" 
d="M1096 4q-71 -18 -117 -18q-63 0 -113 40t-63 101q-70 -75 -166 -116.5t-199 -41.5q-164 0 -258 82t-94 228q0 201 188 278q51 21 108.5 32t235.5 34q101 12 140 38t39 80v45q0 77 -62.5 118.5t-177.5 41.5q-120 0 -180.5 -46t-71.5 -144h-172q14 348 430 348
q198 0 301 -75t103 -218v-598q0 -40 24 -62t68 -22q19 0 37 4v-129zM797 371v159q-42 -20 -89 -30t-186 -29q-139 -21 -198.5 -63t-59.5 -125q0 -164 211 -164q130 0 226 70.5t96 181.5zM840 1270h-561v143h561v-143z" />
    <glyph glyph-name="Abreve" unicode="&#x102;" horiz-adv-x="1366" 
d="M1337 0h-213l-153 449h-576l-157 -449h-203l532 1493h246zM918 608l-230 680l-246 -680h476zM1059 1866q-12 -123 -107 -186.5t-266 -63.5q-165 0 -264.5 61.5t-102.5 188.5h146q9 -59 62 -81t163 -22q105 0 161 23.5t62 79.5h146z" />
    <glyph glyph-name="abreve" unicode="&#x103;" 
d="M1096 4q-71 -18 -117 -18q-63 0 -113 40t-63 101q-70 -75 -166 -116.5t-199 -41.5q-164 0 -258 82t-94 228q0 201 188 278q51 21 108.5 32t235.5 34q101 12 140 38t39 80v45q0 77 -62.5 118.5t-177.5 41.5q-120 0 -180.5 -46t-71.5 -144h-172q14 348 430 348
q198 0 301 -75t103 -218v-598q0 -40 24 -62t68 -22q19 0 37 4v-129zM797 371v159q-42 -20 -89 -30t-186 -29q-139 -21 -198.5 -63t-59.5 -125q0 -164 211 -164q130 0 226 70.5t96 181.5zM868 1481q0 -118 -92 -197.5t-219 -79.5t-219 79.5t-92 197.5h110q25 -61 80 -98
t121 -37t121 37t80 98h110z" />
    <glyph glyph-name="Aogonek" unicode="&#x104;" horiz-adv-x="1366" 
d="M1337 -471h-102q-101 0 -175.5 53t-74.5 146q0 80 41 145q42 68 98 127l-153 449h-576l-157 -449h-203l532 1493h246l524 -1493q-94 0 -159 -100q-33 -47 -33 -121q0 -44 23.5 -67t66.5 -23h102v-160zM918 608l-230 680l-246 -680h476z" />
    <glyph glyph-name="aogonek" unicode="&#x105;" 
d="M1096 -471h-103q-101 0 -175.5 53t-74.5 146q0 80 40 144.5t124 127.5q-40 17 -67.5 50.5t-36.5 76.5q-70 -75 -166 -116.5t-199 -41.5q-164 0 -258 82t-94 228q0 201 188 278q51 21 108.5 32t235.5 34q101 12 140 38t39 80v45q0 77 -62.5 118.5t-177.5 41.5
q-120 0 -180.5 -46t-71.5 -144h-172q14 348 430 348q198 0 301 -75t103 -218v-598q0 -40 24 -62t68 -22q19 0 37 4v-129l-37 -8q-70 -17 -113 -78.5t-43 -138.5q0 -44 23.5 -67t66.5 -23h103v-160zM797 371v159q-42 -20 -89 -30t-186 -29q-139 -21 -198.5 -63t-59.5 -125
q0 -164 211 -164q130 0 226 70.5t96 181.5z" />
    <glyph glyph-name="Cacute" unicode="&#x106;" horiz-adv-x="1478" 
d="M1386 545q-67 -582 -614 -582q-161 0 -289.5 58t-212 161.5t-128 243t-44.5 303.5q0 132 27 251t83 219.5t136 174t191.5 115t244.5 41.5q486 0 576 -500h-195q-35 171 -132 251.5t-271 80.5q-216 0 -342.5 -171.5t-126.5 -459.5q0 -279 130.5 -439.5t354.5 -160.5
q187 0 284.5 99.5t131.5 314.5h196zM1198 1876l-367 -272h-147l236 272h278z" />
    <glyph glyph-name="cacute" unicode="&#x107;" horiz-adv-x="1024" 
d="M977 369q-15 -186 -131 -293t-307 -107q-219 0 -347.5 149t-128.5 408q0 266 130 422t348 156q185 0 297 -99.5t127 -291.5h-172q-15 112 -81 172.5t-173 60.5q-140 0 -218.5 -110t-78.5 -310q0 -190 79.5 -294.5t221.5 -104.5q111 0 176 57.5t86 184.5h172zM907 1493
l-305 -303h-123l197 303h231z" />
    <glyph glyph-name="Ccircumflex" unicode="&#x108;" horiz-adv-x="1478" 
d="M1386 545q-67 -582 -614 -582q-161 0 -289.5 58t-212 161.5t-128 243t-44.5 303.5q0 132 27 251t83 219.5t136 174t191.5 115t244.5 41.5q486 0 576 -500h-195q-35 171 -132 251.5t-271 80.5q-216 0 -342.5 -171.5t-126.5 -459.5q0 -279 130.5 -439.5t354.5 -160.5
q187 0 284.5 99.5t131.5 314.5h196zM1110 1604h-154l-198 176l-195 -176h-157l235 276h233z" />
    <glyph glyph-name="ccircumflex" unicode="&#x109;" horiz-adv-x="1024" 
d="M977 369q-15 -186 -131 -293t-307 -107q-219 0 -347.5 149t-128.5 408q0 266 130 422t348 156q185 0 297 -99.5t127 -291.5h-172q-15 112 -81 172.5t-173 60.5q-140 0 -218.5 -110t-78.5 -310q0 -190 79.5 -294.5t221.5 -104.5q111 0 176 57.5t86 184.5h172zM834 1188
h-129l-166 196l-162 -196h-131l196 307h195z" />
    <glyph glyph-name="Cdotaccent" unicode="&#x10a;" horiz-adv-x="1478" 
d="M1386 545q-67 -582 -614 -582q-161 0 -289.5 58t-212 161.5t-128 243t-44.5 303.5q0 132 27 251t83 219.5t136 174t191.5 115t244.5 41.5q486 0 576 -500h-195q-35 171 -132 251.5t-271 80.5q-216 0 -342.5 -171.5t-126.5 -459.5q0 -279 130.5 -439.5t354.5 -160.5
q187 0 284.5 99.5t131.5 314.5h196zM866 1634h-213v213h213v-213z" />
    <glyph glyph-name="cdotaccent" unicode="&#x10b;" horiz-adv-x="1024" 
d="M977 369q-15 -186 -131 -293t-307 -107q-219 0 -347.5 149t-128.5 408q0 266 130 422t348 156q185 0 297 -99.5t127 -291.5h-172q-15 112 -81 172.5t-173 60.5q-140 0 -218.5 -110t-78.5 -310q0 -190 79.5 -294.5t221.5 -104.5q111 0 176 57.5t86 184.5h172zM647 1235
h-213v213h213v-213z" />
    <glyph glyph-name="Ccaron" unicode="&#x10c;" horiz-adv-x="1478" 
d="M1386 545q-67 -582 -614 -582q-161 0 -289.5 58t-212 161.5t-128 243t-44.5 303.5q0 132 27 251t83 219.5t136 174t191.5 115t244.5 41.5q486 0 576 -500h-195q-35 171 -132 251.5t-271 80.5q-216 0 -342.5 -171.5t-126.5 -459.5q0 -279 130.5 -439.5t354.5 -160.5
q187 0 284.5 99.5t131.5 314.5h196zM1112 1880l-235 -276h-234l-235 276h153l199 -176l194 176h158z" />
    <glyph glyph-name="ccaron" unicode="&#x10d;" horiz-adv-x="1024" 
d="M977 369q-15 -186 -131 -293t-307 -107q-219 0 -347.5 149t-128.5 408q0 266 130 422t348 156q185 0 297 -99.5t127 -291.5h-172q-15 112 -81 172.5t-173 60.5q-140 0 -218.5 -110t-78.5 -310q0 -190 79.5 -294.5t221.5 -104.5q111 0 176 57.5t86 184.5h172zM834 1495
l-197 -307h-195l-196 307h129l166 -197l161 197h132z" />
    <glyph glyph-name="Dcaron" unicode="&#x10e;" horiz-adv-x="1478" 
d="M1366 748q0 -349 -162.5 -548.5t-445.5 -199.5h-576v1493h576q284 0 446 -198.5t162 -546.5zM1176 745q0 285 -115 432.5t-336 147.5h-352v-1157h352q221 0 336 147t115 430zM1079 1880l-235 -276h-234l-235 276h153l199 -176l195 176h157z" />
    <glyph glyph-name="dcaron" unicode="&#x10f;" 
d="M1014 0h-152v158q-69 -99 -150 -144t-192 -45q-217 0 -342 153.5t-125 424.5q0 256 125.5 406.5t335.5 150.5q220 0 330 -166v555h170v-1493zM844 532q0 187 -82 299.5t-219 112.5q-141 0 -226.5 -110.5t-85.5 -296.5t86 -297t228 -111q136 0 217.5 109t81.5 294z
M1358 1282q0 -117 -54.5 -182.5t-150.5 -65.5v78q55 0 84 41.5t29 118.5v16h-113v205h205v-211z" />
    <glyph glyph-name="Dcroat" unicode="&#x110;" horiz-adv-x="1478" 
d="M1366 748q0 -349 -161.5 -548.5t-444.5 -199.5h-578v694h-141v137h141v662h578q283 0 444.5 -199t161.5 -546zM1176 748q0 284 -114.5 430.5t-334.5 146.5h-354v-494h350v-137h-350v-526h354q220 0 334.5 147.5t114.5 432.5z" />
    <glyph glyph-name="dcroat" unicode="&#x111;" 
d="M1141 1229h-129v-1229h-152v137q-143 -168 -344 -168q-210 0 -336.5 157.5t-126.5 422.5q0 254 125.5 404.5t333.5 150.5q104 0 183 -38.5t147 -121.5v285h-307v108h307v156h170v-156h129v-108zM842 532q0 188 -81 296t-218 108q-140 0 -226 -108.5t-86 -290.5t86 -291
t226 -109q136 0 217.5 106.5t81.5 288.5z" />
    <glyph glyph-name="Emacron" unicode="&#x112;" horiz-adv-x="1366" 
d="M1255 0h-1071v1493h1035v-168h-844v-477h813v-168h-813v-512h880v-168zM981 1669h-561v143h561v-143z" />
    <glyph glyph-name="emacron" unicode="&#x113;" 
d="M1051 487h-791q3 -178 89 -269t226 -91q215 0 281 199h172q-33 -164 -154.5 -260.5t-304.5 -96.5q-227 0 -357 149t-130 412q0 264 133 419t358 155q151 0 266.5 -75.5t168.5 -207.5q43 -111 43 -334zM868 639q0 127 -86 217t-211 90q-128 0 -212 -88t-95 -231h602z
M850 1270h-561v143h561v-143z" />
    <glyph glyph-name="Ebreve" unicode="&#x114;" horiz-adv-x="1366" 
d="M1255 0h-1071v1493h1035v-168h-844v-477h813v-168h-813v-512h880v-168zM1071 1866q-12 -123 -107 -186.5t-266 -63.5q-165 0 -264 61.5t-102 188.5h145q9 -59 62 -81t163 -22q106 0 162 23.5t62 79.5h145z" />
    <glyph glyph-name="ebreve" unicode="&#x115;" 
d="M1051 487h-791q3 -178 89 -269t226 -91q215 0 281 199h172q-33 -164 -154.5 -260.5t-304.5 -96.5q-227 0 -357 149t-130 412q0 264 133 419t358 155q151 0 266.5 -75.5t168.5 -207.5q43 -111 43 -334zM868 639q0 127 -86 217t-211 90q-128 0 -212 -88t-95 -231h602z
M879 1481q0 -118 -92.5 -197.5t-219.5 -79.5t-219 79.5t-92 197.5h111q25 -61 79.5 -98t120.5 -37t121 37t80 98h111z" />
    <glyph glyph-name="Edotaccent" unicode="&#x116;" horiz-adv-x="1366" 
d="M1255 0h-1071v1493h1035v-168h-844v-477h813v-168h-813v-512h880v-168zM811 1634h-213v213h213v-213z" />
    <glyph glyph-name="edotaccent" unicode="&#x117;" 
d="M1051 487h-791q3 -178 89 -269t226 -91q215 0 281 199h172q-33 -164 -154.5 -260.5t-304.5 -96.5q-227 0 -357 149t-130 412q0 264 133 419t358 155q151 0 266.5 -75.5t168.5 -207.5q43 -111 43 -334zM868 639q0 127 -86 217t-211 90q-128 0 -212 -88t-95 -231h602z
M680 1235h-213v213h213v-213z" />
    <glyph glyph-name="Eogonek" unicode="&#x118;" horiz-adv-x="1366" 
d="M1255 -471h-102q-101 0 -175.5 53t-74.5 146q0 79 40 143.5t122 128.5h-881v1493h1035v-168h-844v-477h813v-168h-813v-512h880v-168q-94 0 -159 -100q-33 -47 -33 -121q0 -44 23.5 -67t66.5 -23h102v-160z" />
    <glyph glyph-name="eogonek" unicode="&#x119;" 
d="M1051 487h-791q3 -178 89 -269t226 -91q215 0 281 199h172q-46 -222 -231 -308q-83 -41 -136 -102t-53 -137q0 -44 23.5 -67t66.5 -23h103v-160h-103q-101 0 -175 53t-74 146q0 132 124 241h-4q-227 0 -357 149t-130 412q0 264 133 419t358 155q151 0 266.5 -75.5
t168.5 -207.5q43 -111 43 -334zM868 639q0 127 -86 217t-211 90q-128 0 -212 -88t-95 -231h602z" />
    <glyph glyph-name="Ecaron" unicode="&#x11a;" horiz-adv-x="1366" 
d="M1255 0h-1071v1493h1035v-168h-844v-477h813v-168h-813v-512h880v-168zM1057 1880l-236 -276h-233l-236 276h154l199 -176l194 176h158z" />
    <glyph glyph-name="ecaron" unicode="&#x11b;" 
d="M1051 487h-791q3 -178 89 -269t226 -91q215 0 281 199h172q-33 -164 -154.5 -260.5t-304.5 -96.5q-227 0 -357 149t-130 412q0 264 133 419t358 155q151 0 266.5 -75.5t168.5 -207.5q43 -111 43 -334zM868 639q0 127 -86 217t-211 90q-128 0 -212 -88t-95 -231h602z
M866 1495l-196 -307h-195l-196 307h129l165 -197l162 197h131z" />
    <glyph glyph-name="Gcircumflex" unicode="&#x11c;" horiz-adv-x="1593" 
d="M1452 0h-121l-47 197q-108 -121 -232.5 -177.5t-277.5 -56.5q-303 0 -493.5 212.5t-190.5 555.5q0 168 48.5 313t138 253.5t226.5 170.5t304 62q255 0 420 -130.5t205 -359.5h-195q-31 146 -147 234t-285 88q-235 0 -379.5 -172.5t-144.5 -448.5q0 -278 142 -444
t392 -166q205 0 337 125t132 324v41h-455v167h623v-788zM1159 1604h-153l-199 176l-195 -176h-157l235 276h234z" />
    <glyph glyph-name="gcircumflex" unicode="&#x11d;" 
d="M1001 176q0 -178 -27 -297t-87 -191.5t-148 -103t-217 -30.5q-189 0 -301.5 85.5t-126.5 237.5h174q14 -94 83 -137t177 -43q155 0 235.5 93t80.5 300v72q-86 -103 -164 -148t-178 -45q-192 0 -317.5 153.5t-125.5 403.5q0 260 126 419t331 159q202 0 328 -186v155h157
v-897zM827 530q0 195 -77 305.5t-215 110.5q-137 0 -217 -108.5t-80 -300.5q0 -194 79.5 -302t219.5 -108q136 0 213 106t77 297zM862 1188h-129l-166 196l-161 -196h-132l197 307h195z" />
    <glyph glyph-name="Gbreve" unicode="&#x11e;" horiz-adv-x="1593" 
d="M1452 0h-121l-47 197q-108 -121 -232.5 -177.5t-277.5 -56.5q-303 0 -493.5 212.5t-190.5 555.5q0 168 48.5 313t138 253.5t226.5 170.5t304 62q255 0 420 -130.5t205 -359.5h-195q-31 146 -147 234t-285 88q-235 0 -379.5 -172.5t-144.5 -448.5q0 -278 142 -444
t392 -166q205 0 337 125t132 324v41h-455v167h623v-788zM1176 1866q-12 -123 -107 -186.5t-266 -63.5q-165 0 -264.5 61.5t-102.5 188.5h146q9 -59 62 -81t163 -22q105 0 161 23.5t62 79.5h146z" />
    <glyph glyph-name="gbreve" unicode="&#x11f;" 
d="M1001 176q0 -178 -27 -297t-87 -191.5t-148 -103t-217 -30.5q-189 0 -301.5 85.5t-126.5 237.5h174q14 -94 83 -137t177 -43q155 0 235.5 93t80.5 300v72q-86 -103 -164 -148t-178 -45q-192 0 -317.5 153.5t-125.5 403.5q0 260 126 419t331 159q202 0 328 -186v155h157
v-897zM827 530q0 195 -77 305.5t-215 110.5q-137 0 -217 -108.5t-80 -300.5q0 -194 79.5 -302t219.5 -108q136 0 213 106t77 297zM874 1481q0 -118 -92 -197.5t-219 -79.5t-219 79.5t-92 197.5h110q25 -61 80 -98t121 -37t121 37t80 98h110z" />
    <glyph glyph-name="Gdotaccent" unicode="&#x120;" horiz-adv-x="1593" 
d="M1452 0h-121l-47 197q-108 -121 -232.5 -177.5t-277.5 -56.5q-303 0 -493.5 212.5t-190.5 555.5q0 168 48.5 313t138 253.5t226.5 170.5t304 62q255 0 420 -130.5t205 -359.5h-195q-31 146 -147 234t-285 88q-235 0 -379.5 -172.5t-144.5 -448.5q0 -278 142 -444
t392 -166q205 0 337 125t132 324v41h-455v167h623v-788zM915 1634h-213v213h213v-213z" />
    <glyph glyph-name="gdotaccent" unicode="&#x121;" 
d="M1001 176q0 -178 -27 -297t-87 -191.5t-148 -103t-217 -30.5q-189 0 -301.5 85.5t-126.5 237.5h174q14 -94 83 -137t177 -43q155 0 235.5 93t80.5 300v72q-86 -103 -164 -148t-178 -45q-192 0 -317.5 153.5t-125.5 403.5q0 260 126 419t331 159q202 0 328 -186v155h157
v-897zM827 530q0 195 -77 305.5t-215 110.5q-137 0 -217 -108.5t-80 -300.5q0 -194 79.5 -302t219.5 -108q136 0 213 106t77 297zM676 1235h-213v213h213v-213z" />
    <glyph glyph-name="Gcommaaccent" unicode="&#x122;" horiz-adv-x="1593" 
d="M1452 0h-121l-47 197q-108 -121 -232.5 -177.5t-277.5 -56.5q-303 0 -493.5 212.5t-190.5 555.5q0 168 48.5 313t138 253.5t226.5 170.5t304 62q255 0 420 -130.5t205 -359.5h-195q-31 146 -147 234t-285 88q-235 0 -379.5 -172.5t-144.5 -448.5q0 -278 142 -444
t392 -166q205 0 337 125t132 324v41h-455v167h623v-788zM911 -334q0 -117 -54.5 -182.5t-149.5 -65.5v78q55 0 83.5 41.5t28.5 118.5v16h-112v205h204v-211z" />
    <glyph glyph-name="gcommaaccent" unicode="&#x123;" 
d="M674 1182h-205v211q0 116 54.5 181.5t150.5 65.5v-77q-55 0 -84 -41.5t-29 -118.5v-17h113v-204zM1001 176q0 -178 -27 -297t-87 -191.5t-148 -103t-217 -30.5q-189 0 -301.5 85.5t-126.5 237.5h174q14 -94 83 -137t177 -43q155 0 235.5 93t80.5 300v72
q-86 -103 -164 -148t-178 -45q-192 0 -317.5 153.5t-125.5 403.5q0 260 126 419t331 159q202 0 328 -186v155h157v-897zM827 530q0 195 -77 305.5t-215 110.5q-137 0 -217 -108.5t-80 -300.5q0 -194 79.5 -302t219.5 -108q136 0 213 106t77 297z" />
    <glyph glyph-name="Hcircumflex" unicode="&#x124;" horiz-adv-x="1478" 
d="M1319 0h-191v680h-768v-680h-190v1493h190v-645h768v645h191v-1493zM1092 1604h-154l-199 176l-194 -176h-158l236 276h233z" />
    <glyph glyph-name="hcircumflex" unicode="&#x125;" 
d="M995 0h-170v743q0 101 -62.5 156t-158.5 55q-132 0 -211.5 -99t-79.5 -263v-592h-170v1493h170v-567q75 98 152.5 138t191.5 40q157 0 247.5 -79t90.5 -214v-811zM922 1604h-154l-199 176l-194 -176h-158l236 276h233z" />
    <glyph glyph-name="Hbar" unicode="&#x126;" horiz-adv-x="1478" 
d="M1413 1147h-94v-1147h-191v680h-768v-680h-190v1147h-94v94h94v252h190v-252h768v252h191v-252h94v-94zM1128 848v299h-768v-299h768z" />
    <glyph glyph-name="hbar" unicode="&#x127;" horiz-adv-x="1214" 
d="M1075 0h-170v743q0 101 -62.5 156t-158.5 55q-132 0 -211.5 -99t-79.5 -263v-592h-170v1057l-84 -35v102l84 35v334h170v-264l256 104v-100l-256 -107v-200q75 98 152.5 138t191.5 40q157 0 247.5 -79t90.5 -214v-811z" />
    <glyph glyph-name="Itilde" unicode="&#x128;" horiz-adv-x="569" 
d="M395 0h-190v1493h190v-1493zM614 1847q-30 -213 -182 -213q-28 0 -57 9t-117 43q-71 26 -100 26q-23 0 -41 -20t-27 -56h-119q17 101 63 156t113 55q31 0 55.5 -6.5t88.5 -32.5q80 -36 129 -36q52 0 76 75h118z" />
    <glyph glyph-name="itilde" unicode="&#x129;" horiz-adv-x="569" 
d="M371 0h-170v1073h170v-1073zM598 1448q-30 -213 -182 -213q-29 0 -58.5 9t-115.5 42q-73 27 -101 27q-48 0 -67 -76h-119q17 101 63 156t113 55q31 0 55 -6.5t88 -32.5q82 -37 129 -37q52 0 76 76h119z" />
    <glyph glyph-name="Imacron" unicode="&#x12a;" horiz-adv-x="569" 
d="M395 0h-190v1493h190v-1493zM580 1669h-562v143h562v-143z" />
    <glyph glyph-name="imacron" unicode="&#x12b;" horiz-adv-x="569" 
d="M371 0h-170v1073h170v-1073zM563 1270h-561v143h561v-143z" />
    <glyph glyph-name="Ibreve" unicode="&#x12c;" horiz-adv-x="569" 
d="M395 0h-190v1493h190v-1493zM670 1866q-12 -123 -107 -186.5t-266 -63.5q-165 0 -264.5 61.5t-102.5 188.5h146q9 -59 62 -81t163 -22q105 0 161 23.5t62 79.5h146z" />
    <glyph glyph-name="ibreve" unicode="&#x12d;" horiz-adv-x="569" 
d="M371 0h-170v1073h170v-1073zM592 1481q0 -118 -92 -197.5t-219 -79.5t-219.5 79.5t-92.5 197.5h111q25 -61 80 -98t121 -37t120.5 37t79.5 98h111z" />
    <glyph glyph-name="Iogonek" unicode="&#x12e;" horiz-adv-x="569" 
d="M436 -471h-102q-101 0 -175.5 53t-74.5 146q0 79 40 143.5t122 128.5h-41v1493h190v-1493q-74 -30 -119 -100q-32 -46 -32 -121q0 -44 23.5 -67t66.5 -23h102v-160z" />
    <glyph glyph-name="iogonek" unicode="&#x12f;" horiz-adv-x="569" 
d="M432 -471h-102q-101 0 -175.5 53t-74.5 146q0 79 40 143.5t122 128.5h-41v1073h170v-1073q-66 -46 -99 -100q-32 -46 -32 -121q0 -44 23.5 -67t66.5 -23h102v-160zM391 1235h-213v213h213v-213z" />
    <glyph glyph-name="Idotaccent" unicode="&#x130;" horiz-adv-x="569" 
d="M395 0h-190v1493h190v-1493zM410 1634h-213v213h213v-213z" />
    <glyph glyph-name="dotlessi" unicode="&#x131;" horiz-adv-x="454" 
d="M313 0h-170v1073h170v-1073z" />
    <glyph glyph-name="Jcircumflex" unicode="&#x134;" horiz-adv-x="1024" 
d="M872 383q0 -194 -113 -307t-308 -113q-194 0 -303 106t-109 289v121h190v-86q0 -130 58.5 -200t165.5 -70q114 0 171.5 76t57.5 254v1040h190v-1110zM1130 1604h-153l-199 176l-194 -176h-158l236 276h233z" />
    <glyph glyph-name="jcircumflex" unicode="&#x135;" horiz-adv-x="454" 
d="M313 -223q0 -109 -74.5 -166t-218.5 -57q-27 0 -57 6v145l41 -2q76 -4 107.5 29.5t31.5 111.5v1229h170v-1296zM522 1188h-129l-166 196l-161 -196h-132l197 307h195z" />
    <glyph glyph-name="Kcommaaccent" unicode="&#x136;" horiz-adv-x="1366" 
d="M1348 0h-226l-526 766l-244 -244v-522h-190v1493h190v-756l744 756h245l-608 -608zM838 -334q0 -117 -54.5 -182.5t-150.5 -65.5v78q55 0 83.5 41.5t28.5 118.5v16h-112v205h205v-211z" />
    <glyph glyph-name="kcommaaccent" unicode="&#x137;" horiz-adv-x="1024" 
d="M1028 0h-211l-362 582l-166 -164v-418h-170v1493h170v-875l454 455h220l-373 -371zM616 -334q0 -117 -54.5 -182.5t-149.5 -65.5v78q55 0 83.5 41.5t28.5 118.5v16h-112v205h204v-211z" />
    <glyph glyph-name="Lacute" unicode="&#x139;" 
d="M1092 0h-928v1493h190v-1325h738v-168zM680 1876l-367 -272h-147l235 272h279z" />
    <glyph glyph-name="lacute" unicode="&#x13a;" horiz-adv-x="454" 
d="M309 0h-170v1493h170v-1493zM655 1876l-366 -272h-148l236 272h278z" />
    <glyph glyph-name="Lcommaaccent" unicode="&#x13b;" 
d="M1092 0h-928v1493h190v-1325h738v-168zM733 -334q0 -117 -54.5 -182.5t-150.5 -65.5v78q55 0 84 41.5t29 118.5v16h-113v205h205v-211z" />
    <glyph glyph-name="lcommaaccent" unicode="&#x13c;" horiz-adv-x="454" 
d="M309 0h-170v1493h170v-1493zM332 -334q0 -117 -54.5 -182.5t-150.5 -65.5v78q55 0 84 41.5t29 118.5v16h-113v205h205v-211z" />
    <glyph glyph-name="Lcaron" unicode="&#x13d;" 
d="M1092 0h-928v1493h190v-1325h738v-168zM698 1282q0 -117 -54.5 -182.5t-149.5 -65.5v78q55 0 83.5 41.5t28.5 118.5v16h-112v205h204v-211z" />
    <glyph glyph-name="lcaron" unicode="&#x13e;" horiz-adv-x="454" 
d="M309 0h-170v1493h170v-1493zM653 1282q0 -117 -54.5 -182.5t-149.5 -65.5v78q55 0 83.5 41.5t28.5 118.5v16h-112v205h204v-211z" />
    <glyph glyph-name="Ldot" unicode="&#x13f;" 
d="M1092 0h-928v1493h190v-1325h738v-168zM936 672h-213v213h213v-213z" />
    <glyph glyph-name="ldot" unicode="&#x140;" horiz-adv-x="659" 
d="M309 0h-170v1493h170v-1493zM662 672h-213v213h213v-213z" />
    <glyph glyph-name="Lslash" unicode="&#x141;" horiz-adv-x="1286" 
d="M1178 0h-928v492l-133 -132v197l133 131v805h190v-635l256 254v-197l-256 -253v-494h738v-168z" />
    <glyph glyph-name="lslash" unicode="&#x142;" horiz-adv-x="624" 
d="M530 958l-135 -163v-795h-170v610l-127 -153v190l127 154v692h170v-510l135 164v-189z" />
    <glyph glyph-name="Nacute" unicode="&#x143;" horiz-adv-x="1478" 
d="M1323 0h-215l-772 1210v-1210h-180v1493h206l781 -1221v1221h180v-1493zM1180 1876l-367 -272h-147l235 272h279z" />
    <glyph glyph-name="nacute" unicode="&#x144;" 
d="M997 0h-170v743q0 97 -60 154t-161 57q-131 0 -212 -99t-81 -263v-592h-170v1073h158v-180q71 113 153.5 162t202.5 49q155 0 247.5 -79.5t92.5 -213.5v-811zM936 1493l-305 -303h-123l197 303h231z" />
    <glyph glyph-name="Ncommaaccent" unicode="&#x145;" horiz-adv-x="1478" 
d="M1323 0h-215l-772 1210v-1210h-180v1493h206l781 -1221v1221h180v-1493zM844 -334q0 -117 -54.5 -182.5t-150.5 -65.5v78q55 0 84 41.5t29 118.5v16h-113v205h205v-211z" />
    <glyph glyph-name="ncommaaccent" unicode="&#x146;" 
d="M997 0h-170v743q0 97 -60 154t-161 57q-131 0 -212 -99t-81 -263v-592h-170v1073h158v-180q71 113 153.5 162t202.5 49q155 0 247.5 -79.5t92.5 -213.5v-811zM674 -334q0 -117 -54.5 -182.5t-150.5 -65.5v78q55 0 84 41.5t29 118.5v16h-113v205h205v-211z" />
    <glyph glyph-name="Ncaron" unicode="&#x147;" horiz-adv-x="1478" 
d="M1323 0h-215l-772 1210v-1210h-180v1493h206l781 -1221v1221h180v-1493zM1094 1880l-236 -276h-233l-236 276h154l198 -176l195 176h158z" />
    <glyph glyph-name="ncaron" unicode="&#x148;" 
d="M997 0h-170v743q0 97 -60 154t-161 57q-131 0 -212 -99t-81 -263v-592h-170v1073h158v-180q71 113 153.5 162t202.5 49q155 0 247.5 -79.5t92.5 -213.5v-811zM862 1495l-196 -307h-195l-197 307h129l166 -197l162 197h131z" />
    <glyph glyph-name="Eng" unicode="&#x14a;" horiz-adv-x="1478" 
d="M1323 -98q0 -194 -113.5 -307t-308.5 -113q-194 0 -303 106t-109 289l191 35q0 -130 58 -200t165 -70q105 0 172.5 90.5t67.5 212.5l-807 1265v-1210h-180v1493h206l781 -1221v1221h180v-1591z" />
    <glyph glyph-name="eng" unicode="&#x14b;" 
d="M997 -223q0 -109 -74 -166t-218 -57q-28 0 -58 6v145l41 -2q76 -4 107.5 29.5t31.5 111.5v899q0 97 -60 154t-161 57q-131 0 -212 -99t-81 -263v-592h-170v1073h158v-180q71 113 153.5 162t202.5 49q155 0 247.5 -79.5t92.5 -213.5v-1034z" />
    <glyph glyph-name="Omacron" unicode="&#x14c;" horiz-adv-x="1593" 
d="M1520 723q0 -218 -88 -390.5t-253 -271t-380 -98.5q-160 0 -294 55.5t-228 155t-146.5 244t-52.5 317.5q0 231 90 412t254 282t375 101q216 0 380.5 -101t253.5 -284t89 -422zM1329 727q0 284 -145 459.5t-387 175.5q-155 0 -276 -79.5t-187 -222t-66 -325.5
q0 -275 146 -439.5t385 -164.5q237 0 383.5 163.5t146.5 432.5zM1075 1669h-561v143h561v-143z" />
    <glyph glyph-name="omacron" unicode="&#x14d;" 
d="M1044 528q0 -263 -129 -411t-356 -148q-229 0 -357 149.5t-128 418.5t128 418t355 149q233 0 360 -149.5t127 -426.5zM866 530q0 199 -81 307.5t-226 108.5q-143 0 -225 -108t-82 -301q0 -194 82 -302t225 -108q142 0 224.5 107.5t82.5 295.5zM846 1270h-561v143h561
v-143z" />
    <glyph glyph-name="Obreve" unicode="&#x14e;" horiz-adv-x="1593" 
d="M1520 723q0 -218 -88 -390.5t-253 -271t-380 -98.5q-160 0 -294 55.5t-228 155t-146.5 244t-52.5 317.5q0 231 90 412t254 282t375 101q216 0 380.5 -101t253.5 -284t89 -422zM1329 727q0 284 -145 459.5t-387 175.5q-155 0 -276 -79.5t-187 -222t-66 -325.5
q0 -275 146 -439.5t385 -164.5q237 0 383.5 163.5t146.5 432.5zM1165 1866q-12 -123 -107 -186.5t-265 -63.5q-165 0 -264.5 61.5t-102.5 188.5h145q9 -59 62.5 -81t163.5 -22q105 0 161 23.5t62 79.5h145z" />
    <glyph glyph-name="obreve" unicode="&#x14f;" 
d="M1044 528q0 -263 -129 -411t-356 -148q-229 0 -357 149.5t-128 418.5t128 418t355 149q233 0 360 -149.5t127 -426.5zM866 530q0 199 -81 307.5t-226 108.5q-143 0 -225 -108t-82 -301q0 -194 82 -302t225 -108q142 0 224.5 107.5t82.5 295.5zM874 1481
q0 -118 -92 -197.5t-219 -79.5t-219 79.5t-92 197.5h110q25 -61 80 -98t121 -37t121 37t80 98h110z" />
    <glyph glyph-name="Ohungarumlaut" unicode="&#x150;" horiz-adv-x="1593" 
d="M1520 723q0 -218 -88 -390.5t-253 -271t-380 -98.5q-160 0 -294 55.5t-228 155t-146.5 244t-52.5 317.5q0 231 90 412t254 282t375 101q216 0 380.5 -101t253.5 -284t89 -422zM1329 727q0 284 -145 459.5t-387 175.5q-155 0 -276 -79.5t-187 -222t-66 -325.5
q0 -275 146 -439.5t385 -164.5q237 0 383.5 163.5t146.5 432.5zM975 1915l-305 -307h-123l196 307h232zM1311 1915l-305 -307h-123l196 307h232z" />
    <glyph glyph-name="ohungarumlaut" unicode="&#x151;" 
d="M1044 528q0 -263 -129 -411t-356 -148q-229 0 -357 149.5t-128 418.5t128 418t355 149q233 0 360 -149.5t127 -426.5zM866 530q0 199 -81 307.5t-226 108.5q-143 0 -225 -108t-82 -301q0 -194 82 -302t225 -108q142 0 224.5 107.5t82.5 295.5zM748 1495l-306 -307h-123
l197 307h232zM1083 1495l-305 -307h-123l197 307h231z" />
    <glyph glyph-name="OE" unicode="&#x152;" horiz-adv-x="2048" 
d="M1964 0h-889v162q-71 -100 -162 -146.5t-215 -46.5q-285 0 -447.5 202t-162.5 558q0 365 165 577t447 212q248 0 375 -181v156h879v-168h-688v-487h671v-168h-671v-502h698v-168zM1075 383v721q-122 246 -375 246q-208 0 -314.5 -156t-106.5 -457q0 -296 106.5 -448
t312.5 -152q255 0 377 246z" />
    <glyph glyph-name="oe" unicode="&#x153;" horiz-adv-x="1933" 
d="M1841 479h-790q3 -167 90 -259.5t225 -92.5q101 0 173 52t108 147h172q-33 -164 -154.5 -260.5t-302.5 -96.5q-130 0 -232.5 54.5t-164.5 156.5q-129 -211 -398 -211q-231 0 -358 148t-127 413q0 275 126.5 424.5t358.5 149.5q278 0 402 -217q63 103 167 160t228 57
q151 0 266 -75.5t168 -207.5q43 -111 43 -342zM874 524q0 198 -81 310t-226 112q-143 0 -225 -111.5t-82 -304.5q0 -185 82.5 -294t224.5 -109q141 0 224 108t83 289zM1657 618q0 146 -82 237t-213 91q-129 0 -213 -89.5t-94 -238.5h602z" />
    <glyph glyph-name="Racute" unicode="&#x154;" horiz-adv-x="1478" 
d="M1391 0h-232q-46 104 -43 244l2 133q1 137 -59 201.5t-187 64.5h-491v-643h-191v1493h689q220 0 337 -103t117 -296q0 -128 -55 -212t-180 -145q121 -52 160 -128t42 -261q1 -149 19 -206.5t72 -94.5v-47zM1135 1067q0 130 -68.5 194t-224.5 64h-461v-514h461
q152 0 222.5 62t70.5 194zM1180 1876l-367 -272h-147l235 272h279z" />
    <glyph glyph-name="racute" unicode="&#x155;" horiz-adv-x="681" 
d="M657 924q-192 -3 -268 -90.5t-76 -276.5v-557h-170v1073h156v-194q74 120 142 172.5t151 52.5q22 0 65 -6v-174zM680 1493l-305 -303h-123l197 303h231z" />
    <glyph glyph-name="Rcommaaccent" unicode="&#x156;" horiz-adv-x="1478" 
d="M1391 0h-232q-46 104 -43 244l2 133q1 137 -59 201.5t-187 64.5h-491v-643h-191v1493h689q220 0 337 -103t117 -296q0 -128 -55 -212t-180 -145q121 -52 160 -128t42 -261q1 -149 19 -206.5t72 -94.5v-47zM1135 1067q0 130 -68.5 194t-224.5 64h-461v-514h461
q152 0 222.5 62t70.5 194zM844 -334q0 -117 -54.5 -182.5t-150.5 -65.5v78q55 0 84 41.5t29 118.5v16h-113v205h205v-211z" />
    <glyph glyph-name="rcommaaccent" unicode="&#x157;" horiz-adv-x="681" 
d="M657 924q-192 -3 -268 -90.5t-76 -276.5v-557h-170v1073h156v-194q74 120 142 172.5t151 52.5q22 0 65 -6v-174zM334 -334q0 -117 -54.5 -182.5t-150.5 -65.5v78q55 0 84 41.5t29 118.5v16h-113v205h205v-211z" />
    <glyph glyph-name="Rcaron" unicode="&#x158;" horiz-adv-x="1478" 
d="M1391 0h-232q-46 104 -43 244l2 133q1 137 -59 201.5t-187 64.5h-491v-643h-191v1493h689q220 0 337 -103t117 -296q0 -128 -55 -212t-180 -145q121 -52 160 -128t42 -261q1 -149 19 -206.5t72 -94.5v-47zM1135 1067q0 130 -68.5 194t-224.5 64h-461v-514h461
q152 0 222.5 62t70.5 194zM1094 1880l-236 -276h-233l-236 276h154l198 -176l195 176h158z" />
    <glyph glyph-name="rcaron" unicode="&#x159;" horiz-adv-x="681" 
d="M657 924q-192 -3 -268 -90.5t-76 -276.5v-557h-170v1073h156v-194q74 120 142 172.5t151 52.5q22 0 65 -6v-174zM606 1495l-196 -307h-195l-197 307h129l166 -197l162 197h131z" />
    <glyph glyph-name="Sacute" unicode="&#x15a;" horiz-adv-x="1366" 
d="M1272 410q0 -204 -152.5 -325.5t-431.5 -121.5q-179 0 -309.5 56t-205.5 175t-75 291h181q0 -164 107 -259t314 -95q190 0 285.5 67.5t95.5 192.5q0 88 -66.5 146.5t-207.5 95.5l-371 98q-293 76 -293 348q0 204 143.5 327.5t387.5 123.5q258 0 402.5 -122t144.5 -341
h-181q0 146 -96.5 224.5t-275.5 78.5q-149 0 -241.5 -74.5t-92.5 -189.5q0 -86 55.5 -136t190.5 -85l374 -101q152 -41 235 -138.5t83 -235.5zM1124 1876l-366 -272h-148l236 272h278z" />
    <glyph glyph-name="sacute" unicode="&#x15b;" horiz-adv-x="1024" 
d="M940 301q0 -154 -119 -243t-323 -89q-212 0 -317 87t-111 272h180q16 -117 77.5 -159t184.5 -42q114 0 182 43t68 117q0 57 -37.5 88t-128.5 53l-160 39q-190 46 -265 114.5t-75 194.5q0 149 112.5 238.5t299.5 89.5q186 0 286.5 -86t102.5 -244h-180q-3 85 -57.5 128.5
t-157.5 43.5q-104 0 -166 -44t-62 -118q0 -57 47 -92.5t152 -60.5l164 -39q162 -39 232.5 -105.5t70.5 -185.5zM879 1493l-306 -303h-122l196 303h232z" />
    <glyph glyph-name="Scircumflex" unicode="&#x15c;" horiz-adv-x="1366" 
d="M1272 410q0 -204 -152.5 -325.5t-431.5 -121.5q-179 0 -309.5 56t-205.5 175t-75 291h181q0 -164 107 -259t314 -95q190 0 285.5 67.5t95.5 192.5q0 88 -66.5 146.5t-207.5 95.5l-371 98q-293 76 -293 348q0 204 143.5 327.5t387.5 123.5q258 0 402.5 -122t144.5 -341
h-181q0 146 -96.5 224.5t-275.5 78.5q-149 0 -241.5 -74.5t-92.5 -189.5q0 -86 55.5 -136t190.5 -85l374 -101q152 -41 235 -138.5t83 -235.5zM1036 1604h-153l-199 176l-195 -176h-157l235 276h234z" />
    <glyph glyph-name="scircumflex" unicode="&#x15d;" horiz-adv-x="1024" 
d="M940 301q0 -154 -119 -243t-323 -89q-212 0 -317 87t-111 272h180q16 -117 77.5 -159t184.5 -42q114 0 182 43t68 117q0 57 -37.5 88t-128.5 53l-160 39q-190 46 -265 114.5t-75 194.5q0 149 112.5 238.5t299.5 89.5q186 0 286.5 -86t102.5 -244h-180q-3 85 -57.5 128.5
t-157.5 43.5q-104 0 -166 -44t-62 -118q0 -57 47 -92.5t152 -60.5l164 -39q162 -39 232.5 -105.5t70.5 -185.5zM805 1188h-129l-166 196l-162 -196h-131l197 307h194z" />
    <glyph glyph-name="Scedilla" unicode="&#x15e;" horiz-adv-x="1366" 
d="M1272 410q0 -193 -137.5 -313t-389.5 -132l-28 -76h47q73 0 117.5 -50.5t44.5 -119.5q0 -88 -67.5 -139t-184.5 -51q-59 0 -109 14t-147 56l43 82l18 -9q71 -35 107.5 -47t75.5 -12q47 0 78.5 26t31.5 66q0 37 -25.5 63.5t-68.5 26.5q-28 0 -64 -8l-34 25l65 151
q-254 11 -400.5 143t-146.5 379h181q0 -164 107 -259t314 -95q190 0 285.5 67.5t95.5 192.5q0 88 -66.5 146.5t-207.5 95.5l-371 98q-293 76 -293 348q0 204 143.5 327.5t387.5 123.5q258 0 402.5 -122t144.5 -341h-181q0 146 -96.5 224.5t-275.5 78.5q-149 0 -241.5 -74.5
t-92.5 -189.5q0 -86 55.5 -136t190.5 -85l374 -101q152 -41 235 -138.5t83 -235.5z" />
    <glyph glyph-name="scedilla" unicode="&#x15f;" horiz-adv-x="1024" 
d="M940 301q0 -144 -102.5 -231t-282.5 -99l-33 -82h47q73 0 117.5 -50.5t44.5 -119.5q0 -88 -67.5 -139t-184.5 -51q-59 0 -109 14t-147 56l43 82l19 -9q71 -36 107 -47.5t75 -11.5q47 0 79 26t32 66q0 37 -26 63.5t-69 26.5q-27 0 -63 -8l-35 25l70 157q-190 9 -284.5 96
t-100.5 263h180q16 -117 77.5 -159t184.5 -42q114 0 182 43t68 117q0 57 -37.5 88t-128.5 53l-160 39q-190 46 -265 114.5t-75 194.5q0 149 112.5 238.5t299.5 89.5q186 0 286.5 -86t102.5 -244h-180q-3 85 -57.5 128.5t-157.5 43.5q-104 0 -166 -44t-62 -118
q0 -57 47 -92.5t152 -60.5l164 -39q162 -39 232.5 -105.5t70.5 -185.5z" />
    <glyph glyph-name="Scaron" unicode="&#x160;" horiz-adv-x="1366" 
d="M1272 410q0 -204 -152.5 -325.5t-431.5 -121.5q-179 0 -309.5 56t-205.5 175t-75 291h181q0 -164 107 -259t314 -95q190 0 285.5 67.5t95.5 192.5q0 88 -66.5 146.5t-207.5 95.5l-371 98q-293 76 -293 348q0 204 143.5 327.5t387.5 123.5q258 0 402.5 -122t144.5 -341
h-181q0 146 -96.5 224.5t-275.5 78.5q-149 0 -241.5 -74.5t-92.5 -189.5q0 -86 55.5 -136t190.5 -85l374 -101q152 -41 235 -138.5t83 -235.5zM1038 1880l-235 -276h-234l-235 276h153l199 -176l195 176h157z" />
    <glyph glyph-name="scaron" unicode="&#x161;" horiz-adv-x="1024" 
d="M940 301q0 -154 -119 -243t-323 -89q-212 0 -317 87t-111 272h180q16 -117 77.5 -159t184.5 -42q114 0 182 43t68 117q0 57 -37.5 88t-128.5 53l-160 39q-190 46 -265 114.5t-75 194.5q0 149 112.5 238.5t299.5 89.5q186 0 286.5 -86t102.5 -244h-180q-3 85 -57.5 128.5
t-157.5 43.5q-104 0 -166 -44t-62 -118q0 -57 47 -92.5t152 -60.5l164 -39q162 -39 232.5 -105.5t70.5 -185.5zM805 1495l-197 -307h-194l-197 307h129l166 -197l162 197h131z" />
    <glyph glyph-name="Tcedilla" unicode="&#x162;" horiz-adv-x="1251" 
d="M1214 1325h-489v-1325h-57l-43 -111h47q73 0 117.5 -50.5t44.5 -119.5q0 -88 -67.5 -139t-184.5 -51q-59 0 -109 14t-147 56l43 82l18 -9q71 -36 107 -47.5t75 -11.5q47 0 79 26t32 66q0 37 -25.5 63.5t-68.5 26.5q-28 0 -64 -8l-35 25l82 188h-34v1325h-492v168h1171
v-168z" />
    <glyph glyph-name="tcedilla" unicode="&#x163;" horiz-adv-x="569" 
d="M547 -281q0 -88 -67.5 -139t-184.5 -51q-59 0 -109 14t-147 56l43 82l18 -9q71 -35 107.5 -47t75.5 -12q47 0 78.5 26t31.5 66q0 37 -25.5 63.5t-68.5 26.5q-27 0 -63 -8l-35 25l82 188q-109 38 -109 156v778h-145v139h145v295h170v-295h176v-139h-176v-703
q0 -57 19 -76.5t75 -19.5q51 0 82 8v-143q-80 -14 -139 -14h-6l-37 -97h47q73 0 117.5 -50.5t44.5 -119.5z" />
    <glyph glyph-name="Tcaron" unicode="&#x164;" horiz-adv-x="1251" 
d="M1214 1325h-489v-1325h-190v1325h-492v168h1171v-168zM985 1880l-235 -276h-234l-235 276h153l199 -176l194 176h158z" />
    <glyph glyph-name="tcaron" unicode="&#x165;" horiz-adv-x="569" 
d="M520 0q-80 -14 -139 -14q-100 0 -153.5 44t-53.5 126v778h-145v139h145v295h170v-295h176v-139h-176v-703q0 -57 19 -76.5t75 -19.5q51 0 82 8v-143zM618 1391q0 -117 -54.5 -182.5t-149.5 -65.5v78q55 0 83.5 41t28.5 118v17h-112v205h204v-211z" />
    <glyph glyph-name="Utilde" unicode="&#x168;" horiz-adv-x="1478" 
d="M1321 455q0 -224 -156.5 -358t-419.5 -134q-265 0 -418 132t-153 360v1038h191v-1038q0 -158 103.5 -241t276.5 -83q180 0 282.5 86.5t102.5 237.5v1038h191v-1038zM1053 1847q-30 -213 -183 -213q-28 0 -57 9t-117 43q-71 26 -100 26q-23 0 -41 -20t-27 -56h-118
q17 101 63 156t113 55q31 0 55 -6.5t88 -32.5q80 -36 129 -36q52 0 76 75h119z" />
    <glyph glyph-name="utilde" unicode="&#x169;" 
d="M987 0h-153v166q-75 -106 -158 -151.5t-201 -45.5q-157 0 -249.5 79.5t-92.5 213.5v811h170v-743q0 -97 60 -154t161 -57q133 0 213 99t80 263v592h170v-1073zM881 1448q-30 -213 -183 -213q-29 0 -58.5 9t-115.5 42q-74 27 -100 27q-23 0 -41 -20t-27 -56h-118
q17 101 63 156t113 55q31 0 55 -6.5t88 -32.5q82 -37 129 -37q52 0 76 76h119z" />
    <glyph glyph-name="Umacron" unicode="&#x16a;" horiz-adv-x="1478" 
d="M1321 455q0 -224 -156.5 -358t-419.5 -134q-265 0 -418 132t-153 360v1038h191v-1038q0 -158 103.5 -241t276.5 -83q180 0 282.5 86.5t102.5 237.5v1038h191v-1038zM1018 1669h-561v143h561v-143z" />
    <glyph glyph-name="umacron" unicode="&#x16b;" 
d="M987 0h-153v166q-75 -106 -158 -151.5t-201 -45.5q-157 0 -249.5 79.5t-92.5 213.5v811h170v-743q0 -97 60 -154t161 -57q133 0 213 99t80 263v592h170v-1073zM846 1270h-561v143h561v-143z" />
    <glyph glyph-name="Ubreve" unicode="&#x16c;" horiz-adv-x="1478" 
d="M1321 455q0 -224 -156.5 -358t-419.5 -134q-265 0 -418 132t-153 360v1038h191v-1038q0 -158 103.5 -241t276.5 -83q180 0 282.5 86.5t102.5 237.5v1038h191v-1038zM1108 1866q-12 -123 -107 -186.5t-266 -63.5q-165 0 -264 61.5t-102 188.5h145q9 -59 62 -81t163 -22
q106 0 162 23.5t62 79.5h145z" />
    <glyph glyph-name="ubreve" unicode="&#x16d;" 
d="M987 0h-153v166q-75 -106 -158 -151.5t-201 -45.5q-157 0 -249.5 79.5t-92.5 213.5v811h170v-743q0 -97 60 -154t161 -57q133 0 213 99t80 263v592h170v-1073zM874 1481q0 -118 -92 -197.5t-219 -79.5t-219 79.5t-92 197.5h110q25 -61 80 -98t121 -37t121 37t80 98h110z
" />
    <glyph glyph-name="Uring" unicode="&#x16e;" horiz-adv-x="1478" 
d="M1321 455q0 -224 -156.5 -358t-419.5 -134q-265 0 -418 132t-153 360v1038h191v-1038q0 -158 103.5 -241t276.5 -83q180 0 282.5 86.5t102.5 237.5v1038h191v-1038zM938 1769q0 -79 -58.5 -136.5t-138.5 -57.5q-82 0 -140 58.5t-58 140.5q0 78 58.5 136t139.5 58
q82 0 139.5 -58t57.5 -141zM840 1769q0 43 -29 72t-70 29t-70.5 -28.5t-29.5 -67.5q0 -41 29.5 -71t70.5 -30q40 0 69.5 29t29.5 67z" />
    <glyph glyph-name="uring" unicode="&#x16f;" 
d="M987 0h-153v166q-75 -106 -158 -151.5t-201 -45.5q-157 0 -249.5 79.5t-92.5 213.5v811h170v-743q0 -97 60 -154t161 -57q133 0 213 99t80 263v592h170v-1073zM766 1339q0 -79 -58.5 -136.5t-138.5 -57.5q-82 0 -140 58t-58 140q0 79 58.5 137t139.5 58q82 0 139.5 -58
t57.5 -141zM668 1339q0 43 -29 72t-70 29t-70.5 -29t-29.5 -68q0 -41 29.5 -70.5t70.5 -29.5q40 0 69.5 29t29.5 67z" />
    <glyph glyph-name="Uhungarumlaut" unicode="&#x170;" horiz-adv-x="1478" 
d="M1321 455q0 -224 -156.5 -358t-419.5 -134q-265 0 -418 132t-153 360v1038h191v-1038q0 -158 103.5 -241t276.5 -83q180 0 282.5 86.5t102.5 237.5v1038h191v-1038zM918 1915l-306 -307h-123l197 307h232zM1253 1915l-305 -307h-123l197 307h231z" />
    <glyph glyph-name="uhungarumlaut" unicode="&#x171;" 
d="M987 0h-153v166q-75 -106 -158 -151.5t-201 -45.5q-157 0 -249.5 79.5t-92.5 213.5v811h170v-743q0 -97 60 -154t161 -57q133 0 213 99t80 263v592h170v-1073zM748 1495l-306 -307h-123l197 307h232zM1083 1495l-305 -307h-123l197 307h231z" />
    <glyph glyph-name="Uogonek" unicode="&#x172;" horiz-adv-x="1478" 
d="M1321 455q0 -166 -89.5 -286t-248.5 -171q-79 -26 -130.5 -85t-51.5 -134q0 -44 23.5 -67t66.5 -23h102v-160h-102q-101 0 -175.5 53t-74.5 146q0 127 117 235h-13q-265 0 -418 132t-153 360v1038h191v-1038q0 -158 103.5 -241t276.5 -83q180 0 282.5 86.5t102.5 237.5
v1038h191v-1038z" />
    <glyph glyph-name="uogonek" unicode="&#x173;" 
d="M1008 -471h-103q-101 0 -175.5 53t-74.5 146q0 80 41 145q49 82 138 127v166q-75 -106 -158 -151.5t-201 -45.5q-157 0 -249.5 79.5t-92.5 213.5v811h170v-743q0 -97 60 -154t161 -57q133 0 213 99t80 263v592h170v-1073q-92 -23 -139 -100q-33 -47 -33 -121
q0 -44 23.5 -67t66.5 -23h103v-160z" />
    <glyph glyph-name="Wcircumflex" unicode="&#x174;" horiz-adv-x="1933" 
d="M1903 1493l-379 -1493h-209l-344 1227l-334 -1227h-209l-383 1493h213l281 -1212l331 1212h205l340 -1212l275 1212h213zM1319 1604h-154l-198 176l-195 -176h-158l236 276h233z" />
    <glyph glyph-name="wcircumflex" unicode="&#x175;" horiz-adv-x="1478" 
d="M1450 1073l-315 -1073h-195l-217 842l-207 -842h-192l-312 1073h189l219 -835l205 835h209l210 -835l213 835h193zM1032 1188h-129l-166 196l-162 -196h-131l197 307h195z" />
    <glyph glyph-name="Ycircumflex" unicode="&#x176;" horiz-adv-x="1366" 
d="M1354 1493l-561 -907v-586h-191v586l-575 907h235l438 -727l426 727h228zM1051 1604h-154l-199 176l-194 -176h-158l236 276h233z" />
    <glyph glyph-name="ycircumflex" unicode="&#x177;" horiz-adv-x="1024" 
d="M979 1073l-477 -1298q-82 -221 -277 -221q-63 0 -114 26v154q60 -13 90 -13q55 0 85 23.5t52 81.5l65 170l-362 1077h182l275 -835l297 835h184zM805 1188h-129l-166 196l-162 -196h-131l197 307h194z" />
    <glyph glyph-name="Ydieresis" unicode="&#x178;" horiz-adv-x="1366" 
d="M1354 1493l-561 -907v-586h-191v586l-575 907h235l438 -727l426 727h228zM627 1636h-187v209h187v-209zM958 1636h-186v209h186v-209z" />
    <glyph glyph-name="Zacute" unicode="&#x179;" horiz-adv-x="1251" 
d="M1194 0h-1137v168l897 1157h-839v168h1075v-172l-893 -1153h897v-168zM1094 1876l-367 -272h-147l235 272h279z" />
    <glyph glyph-name="zacute" unicode="&#x17a;" horiz-adv-x="1024" 
d="M936 0h-873v154l642 770h-599v149h801v-151l-637 -772h666v-150zM879 1493l-306 -303h-122l196 303h232z" />
    <glyph glyph-name="Zdotaccent" unicode="&#x17b;" horiz-adv-x="1251" 
d="M1194 0h-1137v168l897 1157h-839v168h1075v-172l-893 -1153h897v-168zM762 1634h-213v213h213v-213z" />
    <glyph glyph-name="zdotaccent" unicode="&#x17c;" horiz-adv-x="1024" 
d="M936 0h-873v154l642 770h-599v149h801v-151l-637 -772h666v-150zM618 1235h-212v213h212v-213z" />
    <glyph glyph-name="Zcaron" unicode="&#x17d;" horiz-adv-x="1251" 
d="M1194 0h-1137v168l897 1157h-839v168h1075v-172l-893 -1153h897v-168zM1008 1880l-236 -276h-233l-236 276h154l198 -176l195 176h158z" />
    <glyph glyph-name="zcaron" unicode="&#x17e;" horiz-adv-x="1024" 
d="M936 0h-873v154l642 770h-599v149h801v-151l-637 -772h666v-150zM805 1495l-197 -307h-194l-197 307h129l166 -197l162 197h131z" />
    <glyph glyph-name="longs" unicode="&#x17f;" horiz-adv-x="569" 
d="M528 1348q-39 2 -59 2q-119 0 -119 -109v-1241h-170v1255q0 115 66.5 179.5t185.5 64.5q47 0 96 -10v-141z" />
    <glyph glyph-name="Ereversed" unicode="&#x18e;" horiz-adv-x="1366" 
d="M1255 0h-1071v168h881v512h-813v168h813v477h-844v168h1034v-1493z" />
    <glyph glyph-name="florin" unicode="&#x192;" 
d="M1110 1473l-61 -162q-65 37 -107 37q-71 0 -120.5 -66.5t-71.5 -191.5l-25 -144h231v-143h-258l-153 -813q-40 -216 -146 -320t-264 -104q-73 0 -112 20l34 172q49 -32 105 -32q78 0 125.5 56t70.5 175l160 846h-231v143h256l45 213q36 170 133.5 261t226.5 91
q76 0 162 -38z" />
    <glyph glyph-name="Ohorn" unicode="&#x1a0;" horiz-adv-x="1593" 
d="M1520 731q0 -183 -68 -342t-190 -262q-187 -158 -463 -158q-323 0 -522 212.5t-199 561.5t198.5 562t520.5 213q164 0 298.5 -57.5t229.5 -164.5q92 77 92 197h-98v213h190v-207q0 -175 -131 -270q142 -207 142 -498zM1329 735q0 282 -144.5 448.5t-387.5 166.5
q-237 0 -383 -166t-146 -441t146 -440.5t385 -165.5q237 0 383.5 164.5t146.5 433.5z" />
    <glyph glyph-name="ohorn" unicode="&#x1a1;" horiz-adv-x="1169" 
d="M1145 1079q0 -96 -41.5 -166t-104.5 -112q45 -124 45 -273q0 -263 -129 -411t-356 -148q-229 0 -357 149.5t-128 418.5t128 418t355 149q281 0 408 -225q88 77 88 194h-99v213h191v-207zM866 530q0 199 -81 307.5t-226 108.5q-143 0 -225 -108t-82 -301q0 -194 82 -302
t225 -108q142 0 224.5 107.5t82.5 295.5z" />
    <glyph glyph-name="Uhorn" unicode="&#x1af;" horiz-adv-x="1599" 
d="M1573 1499q0 -75 -26 -137t-66.5 -100t-81 -60.5t-78.5 -30.5v-710q0 -224 -156.5 -358t-419.5 -134q-265 0 -418 132t-153 360v1032h191v-1032q0 -163 108 -246q110 -78 272 -78q180 0 282.5 86.5t102.5 237.5v1032h191v-238q61 22 110.5 85t49.5 153h-99v213h191v-207z
" />
    <glyph glyph-name="uhorn" unicode="&#x1b0;" horiz-adv-x="1257" 
d="M1235 1081q0 -74 -25 -135t-64.5 -99t-79.5 -60.5t-79 -32.5v-754h-153v166q-75 -106 -158 -151.5t-201 -45.5q-157 0 -249.5 79.5t-92.5 213.5v811h170v-743q0 -97 60 -154t161 -57q133 0 213 99t80 263v592h170v-233q60 24 108 86t48 149h-99v213h191v-207z" />
    <glyph glyph-name="eturned" unicode="&#x1dd;" 
d="M1051 543q0 -263 -133.5 -418.5t-358.5 -155.5q-151 0 -266 75.5t-168 207.5q-43 111 -43 334h790q-3 178 -89 269t-226 91q-215 0 -281 -198h-172q33 164 154.5 260t304.5 96q227 0 357.5 -149t130.5 -412zM868 446h-602l-2 -12q0 -127 86 -217t211 -90q128 0 212 88
t95 231z" />
    <glyph glyph-name="Gcaron" unicode="&#x1e6;" horiz-adv-x="1593" 
d="M1452 0h-121l-47 197q-108 -121 -232.5 -177.5t-277.5 -56.5q-303 0 -493.5 212.5t-190.5 555.5q0 168 48.5 313t138 253.5t226.5 170.5t304 62q255 0 420 -130.5t205 -359.5h-195q-31 146 -147 234t-285 88q-235 0 -379.5 -172.5t-144.5 -448.5q0 -278 142 -444
t392 -166q205 0 337 125t132 324v41h-455v167h623v-788zM1161 1880l-235 -276h-234l-235 276h153l199 -176l195 176h157z" />
    <glyph glyph-name="gcaron" unicode="&#x1e7;" 
d="M1001 176q0 -178 -27 -297t-87 -191.5t-148 -103t-217 -30.5q-189 0 -301.5 85.5t-126.5 237.5h174q14 -94 83 -137t177 -43q155 0 235.5 93t80.5 300v72q-86 -103 -164 -148t-178 -45q-192 0 -317.5 153.5t-125.5 403.5q0 260 126 419t331 159q202 0 328 -186v155h157
v-897zM827 530q0 195 -77 305.5t-215 110.5q-137 0 -217 -108.5t-80 -300.5q0 -194 79.5 -302t219.5 -108q136 0 213 106t77 297zM862 1495l-196 -307h-195l-197 307h129l166 -197l162 197h131z" />
    <glyph glyph-name="Oogonek" unicode="&#x1ea;" horiz-adv-x="1593" 
d="M1520 723q0 -263 -128 -457t-350 -266q-85 -28 -140.5 -86.5t-55.5 -134.5q0 -44 23.5 -67t66.5 -23h102v-160h-102q-101 0 -175.5 53t-74.5 146q0 127 117 235h-4q-160 0 -294 55.5t-228 155t-146.5 244t-52.5 317.5q0 231 90 412t254 282t375 101q216 0 380.5 -101
t253.5 -284t89 -422zM1329 727q0 284 -145 459.5t-387 175.5q-155 0 -276 -79.5t-187 -222t-66 -325.5q0 -275 146 -439.5t385 -164.5q237 0 383.5 163.5t146.5 432.5z" />
    <glyph glyph-name="oogonek" unicode="&#x1eb;" 
d="M1044 528q0 -196 -73.5 -330t-208.5 -192q-66 -27 -105 -89.5t-39 -137.5q0 -44 24 -67t67 -23h102v-160h-102q-101 0 -175.5 53t-74.5 146q0 131 125 241h-25q-229 0 -357 149.5t-128 418.5t128 418t355 149q233 0 360 -149.5t127 -426.5zM866 530q0 199 -81 307.5
t-226 108.5q-143 0 -225 -108t-82 -301q0 -194 82 -302t225 -108q142 0 224.5 107.5t82.5 295.5z" />
    <glyph glyph-name="Gacute" unicode="&#x1f4;" horiz-adv-x="1593" 
d="M1452 0h-121l-47 197q-108 -121 -232.5 -177.5t-277.5 -56.5q-303 0 -493.5 212.5t-190.5 555.5q0 168 48.5 313t138 253.5t226.5 170.5t304 62q255 0 420 -130.5t205 -359.5h-195q-31 146 -147 234t-285 88q-235 0 -379.5 -172.5t-144.5 -448.5q0 -278 142 -444
t392 -166q205 0 337 125t132 324v41h-455v167h623v-788zM1247 1876l-366 -272h-148l236 272h278z" />
    <glyph glyph-name="gacute" unicode="&#x1f5;" 
d="M1001 176q0 -178 -27 -297t-87 -191.5t-148 -103t-217 -30.5q-189 0 -301.5 85.5t-126.5 237.5h174q14 -94 83 -137t177 -43q155 0 235.5 93t80.5 300v72q-86 -103 -164 -148t-178 -45q-192 0 -317.5 153.5t-125.5 403.5q0 260 126 419t331 159q202 0 328 -186v155h157
v-897zM827 530q0 195 -77 305.5t-215 110.5q-137 0 -217 -108.5t-80 -300.5q0 -194 79.5 -302t219.5 -108q136 0 213 106t77 297zM936 1493l-305 -303h-123l197 303h231z" />
    <glyph glyph-name="Aringacute" unicode="&#x1fa;" horiz-adv-x="1366" 
d="M1337 0h-213l-153 449h-576l-157 -449h-203l532 1493h246zM918 608l-230 680l-246 -680h476zM1130 2281l-366 -272h-148l236 272h278zM889 1769q0 -79 -58.5 -136.5t-138.5 -57.5q-82 0 -140 58.5t-58 140.5q0 78 58.5 136t139.5 58q82 0 139.5 -58t57.5 -141zM791 1769
q0 43 -29 72t-70 29t-70.5 -28.5t-29.5 -67.5q0 -41 29.5 -71t70.5 -30q40 0 69.5 29t29.5 67z" />
    <glyph glyph-name="aringacute" unicode="&#x1fb;" 
d="M1096 4q-71 -18 -117 -18q-63 0 -113 40t-63 101q-70 -75 -166 -116.5t-199 -41.5q-164 0 -258 82t-94 228q0 201 188 278q51 21 108.5 32t235.5 34q101 12 140 38t39 80v45q0 77 -62.5 118.5t-177.5 41.5q-120 0 -180.5 -46t-71.5 -144h-172q14 348 430 348
q198 0 301 -75t103 -218v-598q0 -40 24 -62t68 -22q19 0 37 4v-129zM797 371v159q-42 -20 -89 -30t-186 -29q-139 -21 -198.5 -63t-59.5 -125q0 -164 211 -164q130 0 226 70.5t96 181.5zM1004 1862l-367 -273h-148l236 273h279zM762 1350q0 -79 -58.5 -137t-138.5 -58
q-82 0 -140 58.5t-58 140.5q0 78 58.5 136t139.5 58q82 0 139.5 -57.5t57.5 -140.5zM664 1350q0 42 -29 71t-70 29t-70.5 -28.5t-29.5 -67.5q0 -41 29.5 -71t70.5 -30q40 0 69.5 29.5t29.5 67.5z" />
    <glyph glyph-name="AEacute" unicode="&#x1fc;" horiz-adv-x="2048" 
d="M1946 0h-988v438h-550l-175 -438h-210l612 1493h1274v-168h-760v-477h721v-168h-721v-512h797v-168zM958 606v719h-204l-283 -719h487zM1464 1876l-366 -272h-148l236 272h278z" />
    <glyph glyph-name="aeacute" unicode="&#x1fd;" horiz-adv-x="1820" 
d="M1731 479h-791q3 -167 90 -259.5t225 -92.5q101 0 173.5 52t109.5 147h172q-32 -164 -154.5 -260.5t-302.5 -96.5q-118 0 -214 45t-150 125l-33 56q-116 -120 -219 -173t-223 -53q-158 0 -251 83t-93 227q0 114 46.5 180.5t160.5 105t325 56.5q104 9 141 34.5t37 85.5v45
q0 78 -61.5 119t-179.5 41q-119 0 -179.5 -46t-70.5 -144h-172q14 348 426 348q263 0 358 -168q56 78 150 123t204 45q149 0 264.5 -76t168.5 -207q43 -111 43 -342zM780 338v190q-42 -19 -89 -28.5t-185 -30.5q-141 -21 -199.5 -62t-58.5 -124q0 -79 54.5 -121.5
t150.5 -42.5q75 0 152.5 36t126 87t48.5 96zM1546 618q0 146 -82 237t-213 91q-129 0 -213 -89.5t-94 -238.5h602zM1278 1493l-305 -303h-123l197 303h231z" />
    <glyph glyph-name="Oslashacute" unicode="&#x1fe;" horiz-adv-x="1593" 
d="M1520 723q0 -218 -88 -390.5t-253 -271t-380 -98.5q-293 0 -484 172l-153 -168l-84 76l162 176q-162 204 -162 516q0 231 90 412t254 282t375 101q291 0 481 -178l158 174l84 -76l-166 -180q166 -218 166 -547zM1329 727q0 242 -104 401l-787 -858q139 -139 361 -139
q237 0 383.5 163.5t146.5 432.5zM1155 1219q-140 143 -358 143q-155 0 -276 -79.5t-187 -222t-66 -325.5q0 -223 99 -377zM1237 1876l-367 -272h-147l235 272h279z" />
    <glyph glyph-name="oslashacute" unicode="&#x1ff;" 
d="M1044 528q0 -263 -129 -411t-356 -148q-196 0 -319 111l-86 -100l-76 63l94 113q-98 149 -98 381q0 269 128 418t355 149q202 0 322 -111l86 101l75 -64l-94 -112q98 -149 98 -390zM866 530q0 144 -43 242l-471 -559q80 -86 207 -86q142 0 224.5 107.5t82.5 295.5z
M766 860q-77 86 -207 86q-143 0 -225 -108t-82 -301q0 -143 43 -236zM993 1493l-305 -303h-123l197 303h231z" />
    <glyph glyph-name="Adblgrave" unicode="&#x200;" horiz-adv-x="1366" 
d="M1337 0h-213l-153 449h-576l-157 -449h-203l532 1493h246zM918 608l-230 680l-246 -680h476zM940 1608h-123l-305 307h231zM604 1608h-123l-305 307h232z" />
    <glyph glyph-name="adblgrave" unicode="&#x201;" 
d="M1096 4q-71 -18 -117 -18q-63 0 -113 40t-63 101q-70 -75 -166 -116.5t-199 -41.5q-164 0 -258 82t-94 228q0 201 188 278q51 21 108.5 32t235.5 34q101 12 140 38t39 80v45q0 77 -62.5 118.5t-177.5 41.5q-120 0 -180.5 -46t-71.5 -144h-172q14 348 430 348
q198 0 301 -75t103 -218v-598q0 -40 24 -62t68 -22q19 0 37 4v-129zM797 371v159q-42 -20 -89 -30t-186 -29q-139 -21 -198.5 -63t-59.5 -125q0 -164 211 -164q130 0 226 70.5t96 181.5zM813 1188h-123l-305 307h231zM477 1188h-123l-305 307h232z" />
    <glyph glyph-name="Edblgrave" unicode="&#x204;" horiz-adv-x="1366" 
d="M1255 0h-1071v1493h1035v-168h-844v-477h813v-168h-813v-512h880v-168zM952 1608h-123l-305 307h232zM616 1608h-122l-306 307h232z" />
    <glyph glyph-name="edblgrave" unicode="&#x205;" 
d="M1051 487h-791q3 -178 89 -269t226 -91q215 0 281 199h172q-33 -164 -154.5 -260.5t-304.5 -96.5q-227 0 -357 149t-130 412q0 264 133 419t358 155q151 0 266.5 -75.5t168.5 -207.5q43 -111 43 -334zM868 639q0 127 -86 217t-211 90q-128 0 -212 -88t-95 -231h602z
M823 1188h-123l-305 307h232zM487 1188h-122l-306 307h232z" />
    <glyph glyph-name="Idblgrave" unicode="&#x208;" horiz-adv-x="569" 
d="M395 0h-190v1493h190v-1493zM551 1608h-123l-305 307h231zM215 1608h-123l-305 307h231z" />
    <glyph glyph-name="idblgrave" unicode="&#x209;" horiz-adv-x="569" 
d="M371 0h-170v1073h170v-1073zM537 1188h-123l-305 307h231zM201 1188h-123l-305 307h231z" />
    <glyph glyph-name="Odblgrave" unicode="&#x20c;" horiz-adv-x="1593" 
d="M1520 723q0 -218 -88 -390.5t-253 -271t-380 -98.5q-160 0 -294 55.5t-228 155t-146.5 244t-52.5 317.5q0 231 90 412t254 282t375 101q216 0 380.5 -101t253.5 -284t89 -422zM1329 727q0 284 -145 459.5t-387 175.5q-155 0 -276 -79.5t-187 -222t-66 -325.5
q0 -275 146 -439.5t385 -164.5q237 0 383.5 163.5t146.5 432.5zM1047 1608h-123l-306 307h232zM711 1608h-123l-305 307h231z" />
    <glyph glyph-name="odblgrave" unicode="&#x20d;" 
d="M1044 528q0 -263 -129 -411t-356 -148q-229 0 -357 149.5t-128 418.5t128 418t355 149q233 0 360 -149.5t127 -426.5zM866 530q0 199 -81 307.5t-226 108.5q-143 0 -225 -108t-82 -301q0 -194 82 -302t225 -108q142 0 224.5 107.5t82.5 295.5zM819 1188h-123l-305 307
h232zM483 1188h-123l-305 307h232z" />
    <glyph glyph-name="Rdblgrave" unicode="&#x210;" horiz-adv-x="1478" 
d="M1391 0h-232q-46 104 -43 244l2 133q1 137 -59 201.5t-187 64.5h-491v-643h-191v1493h689q220 0 337 -103t117 -296q0 -128 -55 -212t-180 -145q121 -52 160 -128t42 -261q1 -149 19 -206.5t72 -94.5v-47zM1135 1067q0 130 -68.5 194t-224.5 64h-461v-514h461
q152 0 222.5 62t70.5 194zM989 1608h-123l-305 307h232zM653 1608h-123l-305 307h232z" />
    <glyph glyph-name="rdblgrave" unicode="&#x211;" horiz-adv-x="681" 
d="M657 924q-192 -3 -268 -90.5t-76 -276.5v-557h-170v1073h156v-194q74 120 142 172.5t151 52.5q22 0 65 -6v-174zM563 1188h-123l-305 307h232zM227 1188h-123l-305 307h232z" />
    <glyph glyph-name="Udblgrave" unicode="&#x214;" horiz-adv-x="1478" 
d="M1321 455q0 -224 -156.5 -358t-419.5 -134q-265 0 -418 132t-153 360v1038h191v-1038q0 -158 103.5 -241t276.5 -83q180 0 282.5 86.5t102.5 237.5v1038h191v-1038zM989 1608h-123l-305 307h232zM653 1608h-123l-305 307h232z" />
    <glyph glyph-name="udblgrave" unicode="&#x215;" 
d="M987 0h-153v166q-75 -106 -158 -151.5t-201 -45.5q-157 0 -249.5 79.5t-92.5 213.5v811h170v-743q0 -97 60 -154t161 -57q133 0 213 99t80 263v592h170v-1073zM819 1188h-123l-305 307h232zM483 1188h-123l-305 307h232z" />
    <glyph glyph-name="uni0218" unicode="&#x218;" horiz-adv-x="1366" 
d="M1272 410q0 -204 -152.5 -325.5t-431.5 -121.5q-179 0 -309.5 56t-205.5 175t-75 291h181q0 -164 107 -259t314 -95q190 0 285.5 67.5t95.5 192.5q0 88 -66.5 146.5t-207.5 95.5l-371 98q-293 76 -293 348q0 204 143.5 327.5t387.5 123.5q258 0 402.5 -122t144.5 -341
h-181q0 146 -96.5 224.5t-275.5 78.5q-149 0 -241.5 -74.5t-92.5 -189.5q0 -86 55.5 -136t190.5 -85l374 -101q152 -41 235 -138.5t83 -235.5zM788 -334q0 -117 -54.5 -182.5t-149.5 -65.5v78q55 0 83.5 41.5t28.5 118.5v16h-112v205h204v-211z" />
    <glyph glyph-name="uni0219" unicode="&#x219;" horiz-adv-x="1024" 
d="M940 301q0 -154 -119 -243t-323 -89q-212 0 -317 87t-111 272h180q16 -117 77.5 -159t184.5 -42q114 0 182 43t68 117q0 57 -37.5 88t-128.5 53l-160 39q-190 46 -265 114.5t-75 194.5q0 149 112.5 238.5t299.5 89.5q186 0 286.5 -86t102.5 -244h-180q-3 85 -57.5 128.5
t-157.5 43.5q-104 0 -166 -44t-62 -118q0 -57 47 -92.5t152 -60.5l164 -39q162 -39 232.5 -105.5t70.5 -185.5zM616 -334q0 -117 -54.5 -182.5t-149.5 -65.5v78q55 0 83.5 41.5t28.5 118.5v16h-112v205h204v-211z" />
    <glyph glyph-name="uni021A" unicode="&#x21a;" horiz-adv-x="1251" 
d="M1214 1325h-489v-1325h-190v1325h-492v168h1171v-168zM735 -334q0 -117 -54.5 -182.5t-150.5 -65.5v78q55 0 84 41.5t29 118.5v16h-113v205h205v-211z" />
    <glyph glyph-name="uni021B" unicode="&#x21b;" horiz-adv-x="569" 
d="M520 0q-80 -14 -139 -14q-100 0 -153.5 44t-53.5 126v778h-145v139h145v295h170v-295h176v-139h-176v-703q0 -57 19 -76.5t75 -19.5q51 0 82 8v-143zM389 -334q0 -117 -54.5 -182.5t-150.5 -65.5v78q55 0 84 41.5t29 118.5v16h-113v205h205v-211z" />
    <glyph glyph-name="ereversed" unicode="&#x258;" 
d="M1051 530q0 -263 -130.5 -412t-357.5 -149q-183 0 -304.5 96.5t-154.5 260.5h172q66 -199 281 -199q140 0 226 91t89 269h-790q0 223 43 334q53 132 168 207.5t266 75.5q225 0 358.5 -155.5t133.5 -418.5zM868 627q-11 143 -95 231t-212 88q-125 0 -211 -90t-86 -217
q0 -8 2 -12h602z" />
    <glyph glyph-name="schwa" unicode="&#x259;" 
d="M1051 543q0 -263 -133.5 -418.5t-358.5 -155.5q-151 0 -266 75.5t-168 207.5q-43 111 -43 334h790q-3 178 -89 269t-226 91q-215 0 -281 -198h-172q33 164 154.5 260t304.5 96q227 0 357.5 -149t130.5 -412zM868 446h-602l-2 -12q0 -127 86 -217t211 -90q128 0 212 88
t95 231z" />
    <glyph glyph-name="ringhalfright" unicode="&#x2be;" horiz-adv-x="919" 
d="M780 1053q0 -185 -91 -293.5t-243 -108.5q-131 0 -210 70.5t-89 206.5q-1 6 4 11t13 5h115q13 0 16 -14q9 -68 48 -105t103 -37q88 0 135.5 69.5t47.5 195.5q0 119 -48.5 184.5t-136.5 65.5q-134 0 -157 -148q-3 -14 -17 -14h-114q-8 0 -13 5.5t-4 12.5q11 130 92 205.5
t215 75.5q153 0 243.5 -103.5t90.5 -283.5z" />
    <glyph glyph-name="ringhalfleft" unicode="&#x2bf;" horiz-adv-x="919" 
d="M780 932q-11 -130 -92 -205.5t-215 -75.5q-153 0 -243.5 103.5t-90.5 283.5q0 185 91 293.5t243 108.5q131 0 210 -70.5t89 -206.5q2 -6 -3 -11t-13 -5h-115q-13 0 -16 14q-9 68 -48.5 105t-103.5 37q-87 0 -134.5 -69.5t-47.5 -195.5q0 -119 48 -184.5t136 -65.5
q135 0 158 148q3 14 16 14h115q8 0 12.5 -5.5t3.5 -12.5z" />
    <glyph glyph-name="circumflex" unicode="&#x2c6;" horiz-adv-x="681" 
d="M635 1188h-129l-166 196l-162 -196h-131l197 307h194z" />
    <glyph glyph-name="caron" unicode="&#x2c7;" horiz-adv-x="681" 
d="M635 1495l-197 -307h-194l-197 307h129l166 -197l162 197h131z" />
    <glyph glyph-name="breve" unicode="&#x2d8;" horiz-adv-x="681" 
d="M647 1481q0 -118 -92 -197.5t-219 -79.5t-219 79.5t-92 197.5h110q25 -61 80 -98t121 -37t121 37t80 98h110z" />
    <glyph glyph-name="dotaccent" unicode="&#x2d9;" horiz-adv-x="681" 
d="M449 1235h-213v213h213v-213z" />
    <glyph glyph-name="ring" unicode="&#x2da;" horiz-adv-x="681" 
d="M539 1339q0 -79 -58.5 -136.5t-138.5 -57.5q-82 0 -140.5 58t-58.5 140q0 78 59 136.5t140 58.5q82 0 139.5 -58t57.5 -141zM440 1339q0 43 -28.5 72t-69.5 29t-70.5 -29t-29.5 -68q0 -41 29.5 -70.5t70.5 -29.5q40 0 69 29t29 67z" />
    <glyph glyph-name="ogonek" unicode="&#x2db;" horiz-adv-x="681" 
d="M565 -471h-102q-101 0 -175.5 53t-74.5 146q0 79 40 143.5t122 128.5h133q-74 -55 -104.5 -102.5t-30.5 -118.5q0 -44 23.5 -67t66.5 -23h102v-160z" />
    <glyph glyph-name="tilde" unicode="&#x2dc;" horiz-adv-x="681" 
d="M653 1448q-30 -213 -182 -213q-29 0 -58.5 9t-115.5 42q-74 27 -100 27q-23 0 -41 -20t-27 -56h-119q17 101 63 156t113 55q31 0 55.5 -6.5t88.5 -32.5q82 -37 129 -37q52 0 76 76h118z" />
    <glyph glyph-name="hungarumlaut" unicode="&#x2dd;" horiz-adv-x="681" 
d="M520 1495l-305 -307h-123l197 307h231zM856 1495l-305 -307h-123l197 307h231z" />
    <glyph glyph-name="uni0300" unicode="&#x300;" horiz-adv-x="0" 
d="M-508 1190h-123l-305 303h231z" />
    <glyph glyph-name="uni0301" unicode="&#x301;" horiz-adv-x="0" 
d="M-201 1493l-305 -303h-123l197 303h231z" />
    <glyph glyph-name="uni0302" unicode="&#x302;" horiz-adv-x="0" 
d="M-274 1188h-129l-166 196l-162 -196h-131l196 307h195z" />
    <glyph glyph-name="uni0303" unicode="&#x303;" horiz-adv-x="0" 
d="M-256 1448q-30 -213 -182 -213q-29 0 -58.5 9t-115.5 42q-74 27 -101 27q-48 0 -67 -76h-119q17 101 63 156t113 55q31 0 55 -6.5t88 -32.5q82 -37 129 -37q52 0 76 76h119z" />
    <glyph glyph-name="uni0304" unicode="&#x304;" horiz-adv-x="0" 
d="M-291 1270h-561v143h561v-143z" />
    <glyph glyph-name="uni0306" unicode="&#x306;" horiz-adv-x="0" 
d="M-262 1481q0 -118 -92 -197.5t-219 -79.5t-219.5 79.5t-92.5 197.5h111q25 -61 80 -98t121 -37t120.5 37t79.5 98h111z" />
    <glyph glyph-name="uni0307" unicode="&#x307;" horiz-adv-x="0" 
d="M-461 1235h-213v213h213v-213z" />
    <glyph glyph-name="uni0308" unicode="&#x308;" horiz-adv-x="0" 
d="M-641 1237h-186v209h186v-209zM-309 1237h-187v209h187v-209z" />
    <glyph glyph-name="uni0309" unicode="&#x309;" horiz-adv-x="0" 
d="M-338 1446q0 -49 -21.5 -83t-80.5 -77q-47 -36 -59.5 -49.5t-12.5 -30.5v-61h-127v67q0 48 23 78t86 72v-2q65 51 65 86q0 28 -28.5 45.5t-75.5 17.5q-72 0 -93 -34v2q-14 -22 -14 -91h-125q0 116 60.5 176t177.5 60q104 0 164.5 -48t60.5 -128z" />
    <glyph glyph-name="uni030A" unicode="&#x30a;" horiz-adv-x="0" 
d="M-371 1339q0 -79 -58 -136.5t-138 -57.5q-82 0 -140.5 58t-58.5 140q0 78 59 136.5t140 58.5q82 0 139 -58t57 -141zM-469 1339q0 43 -28.5 72t-69.5 29t-71 -29t-30 -68q0 -41 30 -70.5t71 -29.5q40 0 69 29t29 67z" />
    <glyph glyph-name="uni030B" unicode="&#x30b;" horiz-adv-x="0" 
d="M-389 1495l-305 -307h-123l196 307h232zM-53 1495l-305 -307h-123l196 307h232z" />
    <glyph glyph-name="uni030C" unicode="&#x30c;" horiz-adv-x="0" 
d="M-274 1495l-197 -307h-195l-196 307h129l166 -197l161 197h132z" />
    <glyph glyph-name="uni030F" unicode="&#x30f;" horiz-adv-x="0" 
d="M-319 1188h-123l-306 307h232zM-655 1188h-123l-305 307h231z" />
    <glyph glyph-name="uni0311" unicode="&#x311;" horiz-adv-x="0" 
d="M-262 1204h-111q-25 61 -79.5 98t-120.5 37t-121 -37t-80 -98h-111q0 118 92.5 197.5t219.5 79.5t219 -79.5t92 -197.5z" />
    <glyph glyph-name="uni0323" unicode="&#x323;" horiz-adv-x="0" 
d="M-461 -375h-213v213h213v-213z" />
    <glyph glyph-name="uni0326" unicode="&#x326;" horiz-adv-x="0" 
d="M-465 -334q0 -117 -54.5 -182.5t-150.5 -65.5v78q55 0 84 41.5t29 118.5v16h-113v205h205v-211z" />
    <glyph glyph-name="uni032E" unicode="&#x32e;" horiz-adv-x="0" 
d="M-199 -143q-12 -123 -107 -186.5t-265 -63.5q-165 0 -264.5 61.5t-102.5 188.5h145q9 -59 62.5 -81t163.5 -22q105 0 161 23.5t62 79.5h145z" />
    <glyph glyph-name="uni032F" unicode="&#x32f;" horiz-adv-x="0" 
d="M-199 -393h-145q-9 59 -62 80.5t-163 21.5q-106 0 -162 -23t-62 -79h-145q12 123 107 186.5t266 63.5q165 0 264 -61.5t102 -188.5z" />
    <glyph glyph-name="uni0330" unicode="&#x330;" horiz-adv-x="0" 
d="M-256 -162q-30 -213 -182 -213q-29 0 -58.5 9t-115.5 42q-74 27 -101 27q-48 0 -67 -76h-119q17 101 63 156t113 55q31 0 55 -6.5t88 -32.5q82 -37 129 -37q52 0 76 76h119z" />
    <glyph glyph-name="uni0331" unicode="&#x331;" horiz-adv-x="0" 
d="M-291 -340h-561v143h561v-143z" />
    <glyph glyph-name="uni0332" unicode="&#x332;" horiz-adv-x="0" 
d="M-291 -340h-561v143h561v-143z" />
    <glyph glyph-name="Alpha" unicode="&#x391;" horiz-adv-x="1366" 
d="M1337 0h-213l-153 449h-576l-157 -449h-203l532 1493h246zM918 608l-230 680l-246 -680h476z" />
    <glyph glyph-name="Beta" unicode="&#x392;" horiz-adv-x="1366" 
d="M1276 426q0 -187 -120.5 -306.5t-319.5 -119.5h-674v1493h606q207 0 324.5 -106t117.5 -273q0 -230 -206 -326q143 -56 207.5 -141.5t64.5 -220.5zM1020 1087q0 238 -299 238h-369v-475h369q155 0 227 60t72 177zM1085 424q0 114 -69 186t-199 72h-465v-514h465
q130 0 199 71.5t69 184.5z" />
    <glyph glyph-name="Gamma" unicode="&#x393;" horiz-adv-x="1251" 
d="M1186 1325h-811v-1325h-191v1493h1002v-168z" />
    <glyph glyph-name="Delta" unicode="&#x394;" horiz-adv-x="1456" 
d="M1460 0h-1464l655 1464h154zM1200 168l-473 1057l-471 -1057h944z" />
    <glyph glyph-name="Epsilon" unicode="&#x395;" horiz-adv-x="1366" 
d="M1255 0h-1071v1493h1035v-168h-844v-477h813v-168h-813v-512h880v-168z" />
    <glyph glyph-name="Zeta" unicode="&#x396;" horiz-adv-x="1251" 
d="M1194 0h-1137v168l897 1157h-839v168h1075v-172l-893 -1153h897v-168z" />
    <glyph glyph-name="Eta" unicode="&#x397;" horiz-adv-x="1478" 
d="M1319 0h-191v680h-768v-680h-190v1493h190v-645h768v645h191v-1493z" />
    <glyph glyph-name="Theta" unicode="&#x398;" horiz-adv-x="1593" 
d="M1520 723q0 -218 -88 -390.5t-253 -271t-380 -98.5q-160 0 -294 55.5t-228 155t-146.5 244t-52.5 317.5q0 231 90 412t254 282t375 101q216 0 380.5 -101t253.5 -284t89 -422zM1329 727q0 284 -145 459.5t-387 175.5q-155 0 -276 -79.5t-187 -222t-66 -325.5
q0 -275 146 -439.5t385 -164.5q237 0 383.5 163.5t146.5 432.5zM1198 664h-797v167h797v-167z" />
    <glyph glyph-name="Iota" unicode="&#x399;" horiz-adv-x="569" 
d="M395 0h-190v1493h190v-1493z" />
    <glyph glyph-name="Kappa" unicode="&#x39a;" horiz-adv-x="1366" 
d="M1348 0h-226l-526 766l-244 -244v-522h-190v1493h190v-756l744 756h245l-608 -608z" />
    <glyph glyph-name="Lambda" unicode="&#x39b;" horiz-adv-x="1366" 
d="M1337 0h-213l-436 1288l-450 -1288h-203l532 1493h246z" />
    <glyph glyph-name="Mu" unicode="&#x39c;" horiz-adv-x="1705" 
d="M1559 0h-181v1251l-420 -1251h-200l-424 1251v-1251h-180v1493h264l442 -1300l434 1300h265v-1493z" />
    <glyph glyph-name="Nu" unicode="&#x39d;" horiz-adv-x="1478" 
d="M1323 0h-215l-772 1210v-1210h-180v1493h206l781 -1221v1221h180v-1493z" />
    <glyph glyph-name="Xi" unicode="&#x39e;" horiz-adv-x="1478" 
d="M1384 1305h-1290v188h1290v-188zM1196 664h-913v167h913v-167zM1384 0h-1290v188h1290v-188z" />
    <glyph glyph-name="Omicron" unicode="&#x39f;" horiz-adv-x="1593" 
d="M1520 723q0 -218 -88 -390.5t-253 -271t-380 -98.5q-160 0 -294 55.5t-228 155t-146.5 244t-52.5 317.5q0 231 90 412t254 282t375 101q216 0 380.5 -101t253.5 -284t89 -422zM1329 727q0 284 -145 459.5t-387 175.5q-155 0 -276 -79.5t-187 -222t-66 -325.5
q0 -275 146 -439.5t385 -164.5q237 0 383.5 163.5t146.5 432.5z" />
    <glyph glyph-name="Pi" unicode="&#x3a0;" horiz-adv-x="1271" 
d="M1210 0h-190v1325h-768v-1325h-191v1493h1149v-1493z" />
    <glyph glyph-name="Rho" unicode="&#x3a1;" horiz-adv-x="1366" 
d="M1264 1055q0 -186 -117 -304t-301 -118h-469v-633h-191v1493h617q221 0 341 -113.5t120 -324.5zM1065 1063q0 123 -77 192.5t-214 69.5h-397v-524h397q137 0 214 69.5t77 192.5z" />
    <glyph glyph-name="Sigma" unicode="&#x3a3;" horiz-adv-x="1232" 
d="M1171 0h-1110v152l594 596l-594 593v152h1110v-168h-856l578 -577l-578 -580h856v-168z" />
    <glyph glyph-name="Tau" unicode="&#x3a4;" horiz-adv-x="1251" 
d="M1214 1325h-489v-1325h-190v1325h-492v168h1171v-168z" />
    <glyph glyph-name="Upsilon" unicode="&#x3a5;" horiz-adv-x="1366" 
d="M1354 1493l-561 -907v-586h-191v586l-575 907h235l438 -727l426 727h228z" />
    <glyph glyph-name="Phi" unicode="&#x3a6;" horiz-adv-x="1558" 
d="M1419 748q0 -77 -29 -145t-79.5 -119t-119.5 -90t-149 -62t-168 -31v-301h-190v301q-88 8 -168 31t-149 62t-119.5 90t-79.5 119t-29 145q0 95 44 175.5t120 135t173.5 89t207.5 44.5v301h190v-301q110 -10 207.5 -44.5t173.5 -89t120 -135t44 -175.5zM684 457v579
q-76 -9 -140.5 -30.5t-116.5 -56.5t-82 -86.5t-30 -114.5q0 -124 105 -198t264 -93zM1243 748q0 63 -30 114.5t-82 86.5t-116.5 56.5t-140.5 30.5v-579q159 19 264 93t105 198z" />
    <glyph glyph-name="Chi" unicode="&#x3a7;" horiz-adv-x="1366" 
d="M1329 0h-235l-408 623l-410 -623h-231l528 766l-495 727h231l383 -586l385 586h228l-504 -727z" />
    <glyph glyph-name="Psi" unicode="&#x3a8;" horiz-adv-x="1525" 
d="M1386 1073q0 -230 -151 -402t-377 -206v-465h-190v465q-226 34 -377.5 206t-151.5 402v420h176v-420q0 -163 100 -288.5t253 -159.5v868h190v-868q153 34 252.5 159.5t99.5 288.5v420h176v-420z" />
    <glyph glyph-name="Omega" unicode="&#x3a9;" horiz-adv-x="1556" 
d="M1495 0h-598v412q148 41 242 169t94 291q0 195 -132.5 336.5t-322.5 141.5q-125 0 -230 -65.5t-164.5 -175t-59.5 -237.5q0 -164 93.5 -291.5t241.5 -168.5v-412h-598v168h408v137q-154 85 -245 235.5t-91 331.5q0 174 86.5 323t235 236t323.5 87t323.5 -87t235 -236
t86.5 -323q0 -181 -91 -331.5t-245 -235.5v-137h408v-168z" />
    <glyph glyph-name="alpha" unicode="&#x3b1;" horiz-adv-x="1576" 
d="M1438 45l-138 -90q-59 88 -145 342q-82 -147 -198.5 -234.5t-262.5 -87.5q-112 0 -214.5 42t-177 113t-119 170.5t-44.5 209.5q0 118 43.5 226t117 187.5t177 127t217.5 47.5q288 0 467 -367q110 341 139 387l138 -90q-48 -70 -193 -518q35 -110 55 -169.5t58.5 -147
t79.5 -148.5zM1087 510q-23 70 -47.5 128t-60.5 116.5t-76 98t-94 64.5t-115 25q-163 0 -275 -128t-112 -304q0 -158 114 -268.5t273 -110.5q72 0 135 31t111 85.5t84 119.5t63 143z" />
    <glyph glyph-name="beta" unicode="&#x3b2;" horiz-adv-x="1124" 
d="M1051 449q0 -224 -123.5 -352t-335.5 -128q-149 0 -273 88v-528h-169v1573q0 99 34.5 175.5t95 122.5t137 69.5t165.5 23.5q181 0 293 -104t112 -273q0 -109 -54.5 -181.5t-168.5 -113.5q149 -51 218 -140.5t69 -231.5zM872 436q0 155 -86 217t-276 62v168h18
q123 0 202 63.5t79 163.5q0 98 -68 160.5t-174 62.5q-113 0 -180.5 -62.5t-67.5 -168.5v-875q114 -90 256 -90q133 0 215 81.5t82 217.5z" />
    <glyph glyph-name="gamma" unicode="&#x3b3;" horiz-adv-x="1312" 
d="M1176 1073l-435 -1087v-457h-168v457l-434 1087h180l338 -848l338 848h181z" />
    <glyph glyph-name="delta" unicode="&#x3b4;" horiz-adv-x="1122" 
d="M1061 457q0 -135 -67 -247t-182 -176.5t-251 -64.5q-135 0 -250 64.5t-182.5 177t-67.5 246.5q0 164 121 276t312 156q-92 72 -147.5 168t-55.5 203q0 71 46.5 125t118.5 81t156 27q91 0 175 -35t149 -100l-98 -98q-94 94 -226 94q-63 0 -107 -24t-44 -70q0 -44 17 -85.5
t38 -70.5t63.5 -65.5t68.5 -55t78 -53.5q19 -13 28 -19q307 -212 307 -454zM870 457q0 104 -57 188t-154 125q-107 0 -199 -37t-150 -109.5t-58 -166.5q0 -134 89.5 -226t219.5 -92t219.5 92t89.5 226z" />
    <glyph glyph-name="epsilon" unicode="&#x3b5;" horiz-adv-x="1247" 
d="M1108 49q-232 -115 -436 -115q-139 0 -260 50t-197 146.5t-76 219.5q0 171 189 240q-158 71 -158 227q0 99 63.5 174t162.5 112.5t214 37.5q212 0 465 -117l-51 -115q-172 76 -414 76q-112 0 -192 -42.5t-80 -125.5q0 -43 19 -74t60.5 -50t79.5 -30t106.5 -15.5t109 -5.5
t116.5 -1v-125q-60 0 -92 -0.5t-89 -2t-90 -6t-78.5 -12t-71.5 -20t-52 -29.5t-37.5 -41.5t-11.5 -54.5q0 -80 53 -140.5t135 -90t177 -29.5q232 0 381 74z" />
    <glyph glyph-name="zeta" unicode="&#x3b6;" horiz-adv-x="1069" 
d="M999 -152q0 -128 -93.5 -216.5t-225.5 -88.5v140q64 0 107.5 49t43.5 116q0 65 -44 111.5t-107 46.5h-76q-131 0 -239 73.5t-167 195t-59 262.5q0 255 130.5 473.5t351.5 349.5h-482v125h860v-125h-104q-174 -51 -308.5 -174.5t-207 -292.5t-72.5 -356q0 -98 36 -183
t105 -138.5t156 -53.5h76q132 0 225.5 -92t93.5 -222z" />
    <glyph glyph-name="eta" unicode="&#x3b7;" 
d="M999 -471h-168v1186q0 95 -66.5 161t-160.5 66q-96 0 -175.5 -48.5t-121.5 -127.5v-766h-168v1073h168v-90q125 115 297 115q162 0 278.5 -111.5t116.5 -271.5v-1186z" />
    <glyph glyph-name="theta" unicode="&#x3b8;" horiz-adv-x="1189" 
d="M1051 721q0 -114 -16.5 -219.5t-52 -202t-88 -168t-129.5 -114t-171 -42.5q-93 0 -169.5 42.5t-128.5 114t-88 168t-52.5 202.5t-16.5 219q0 121 14.5 232.5t49 216t86 180.5t130 122t175.5 46q82 0 151 -31.5t118 -89t86 -132t59 -165.5t32.5 -185t10.5 -194zM883 799
q-2 77 -7 139.5t-17 130t-33 117.5t-51.5 91.5t-76.5 63t-104 21.5t-103.5 -21.5t-75.5 -63t-51 -91.5t-33 -117.5t-17 -130t-7 -139.5h576zM881 643h-572q16 -512 285 -512q271 0 287 512z" />
    <glyph glyph-name="iota" unicode="&#x3b9;" horiz-adv-x="724" 
d="M586 -25q-130 0 -218.5 103t-88.5 244v751h167v-751q0 -76 38.5 -133.5t101.5 -57.5v-156z" />
    <glyph glyph-name="kappa" unicode="&#x3ba;" horiz-adv-x="1024" 
d="M1028 0h-211l-362 582l-166 -164v-418h-170v1073h170v-455l454 455h220l-373 -371z" />
    <glyph glyph-name="lambda" unicode="&#x3bb;" horiz-adv-x="1402" 
d="M1266 0h-181l-294 776l-459 -776h-193l576 973l-29 74q-48 127 -146 209.5t-221 82.5v140q174 0 317.5 -105.5t209.5 -273.5z" />
    <glyph glyph-name="mu.greek" unicode="&#x3bc;" horiz-adv-x="1417" 
d="M1139 0h-168v94q-109 -119 -262 -119q-154 0 -263 119v-565h-167v1544h167v-682q28 -116 95.5 -188t167.5 -72q99 0 166.5 72t95.5 188v682h168v-1073z" />
    <glyph glyph-name="nu" unicode="&#x3bd;" horiz-adv-x="1169" 
d="M1100 715q0 -240 -127.5 -442.5t-343.5 -305.5l-113 43l-446 1063h180l383 -911q140 92 219.5 239t79.5 314q0 162 -33 358h172q29 -173 29 -358z" />
    <glyph glyph-name="xi" unicode="&#x3be;" 
d="M999 -152q0 -128 -93.5 -216.5t-225.5 -88.5v140q64 0 107.5 49t43.5 116q0 65 -44 111.5t-107 46.5h-76q-125 0 -231.5 57t-170 158.5t-63.5 222.5q0 116 65 209.5t175 151.5q-96 49 -152.5 128.5t-56.5 180.5q0 149 131 246h-162v125h860v-125h-383
q-122 -20 -200 -83.5t-78 -162.5q0 -111 102 -175.5t240 -64.5v-139q-97 0 -181.5 -35t-138 -102.5t-53.5 -153.5q0 -119 87 -200.5t210 -81.5h76q132 0 225.5 -92t93.5 -222z" />
    <glyph glyph-name="omicron" unicode="&#x3bf;" 
d="M1044 528q0 -263 -129 -411t-356 -148q-229 0 -357 149.5t-128 418.5t128 418t355 149q233 0 360 -149.5t127 -426.5zM866 530q0 199 -81 307.5t-226 108.5q-143 0 -225 -108t-82 -301q0 -194 82 -302t225 -108q142 0 224.5 107.5t82.5 295.5z" />
    <glyph glyph-name="pi" unicode="&#x3c0;" horiz-adv-x="1374" 
d="M1313 934h-205v-934h-170v934h-338v-934h-170v934q-119 0 -174 -56.5t-55 -177.5h-140q0 111 25.5 183.5t84 114.5t140 58.5t205.5 16.5h797v-139z" />
    <glyph glyph-name="rho" unicode="&#x3c1;" horiz-adv-x="1302" 
d="M1163 537q0 -149 -66 -278t-184.5 -206.5t-261.5 -77.5q-190 0 -344 125v-571h-168v1008q0 149 66 277.5t184.5 206t261.5 77.5t261.5 -77.5t184.5 -206t66 -277.5zM995 537q0 107 -43 199t-122.5 149t-178.5 57t-178.5 -57t-122.5 -149t-43 -199v-248q61 -76 152 -117
t192 -41q148 0 246 121t98 285z" />
    <glyph glyph-name="uni03C2" unicode="&#x3c2;" 
d="M999 -152q0 -128 -93.5 -216.5t-225.5 -88.5v140q64 0 107.5 49t43.5 116q0 65 -44 111.5t-107 46.5h-76q-132 0 -240 76.5t-166.5 201.5t-58.5 269q0 143 58.5 267.5t166.5 201t240 76.5q141 0 249 -90t136 -228l-147 -30q-17 84 -84 138t-154 54q-89 0 -158 -56
t-104 -144t-35 -189q0 -102 35 -190.5t104 -144.5t158 -56h76q132 0 225.5 -92t93.5 -222z" />
    <glyph glyph-name="sigma" unicode="&#x3c3;" horiz-adv-x="1325" 
d="M1255 1028q-118 -34 -290 -55q145 -148 145 -445q0 -263 -129 -411t-356 -148q-229 0 -357.5 149.5t-128.5 418.5t128.5 418t355.5 149q64 0 137 -17q190 17 454 93zM932 530q0 199 -81 307.5t-226 108.5q-143 0 -225.5 -108.5t-82.5 -300.5q0 -194 82.5 -302t225.5 -108
q142 0 224.5 107.5t82.5 295.5z" />
    <glyph glyph-name="tau" unicode="&#x3c4;" horiz-adv-x="1021" 
d="M883 911h-289v-589q0 -76 39 -133.5t102 -57.5v-156q-131 0 -220 103t-89 244v589h-287v156h744v-156z" />
    <glyph glyph-name="upsilon" unicode="&#x3c5;" 
d="M999 512q0 -141 -58 -263.5t-164.5 -198t-237.5 -75.5q-164 0 -282 111.5t-118 271.5v715h168v-715q0 -95 68 -161t164 -66q87 0 155 54.5t102.5 140.5t34.5 186q0 278 -63 561h172q59 -265 59 -561z" />
    <glyph glyph-name="phi" unicode="&#x3c6;" horiz-adv-x="1757" 
d="M1618 537q0 -117 -53.5 -218t-144.5 -171t-208.5 -113.5t-248.5 -54.5v-451h-168v451q-131 11 -248.5 54.5t-209 113.5t-145 171t-53.5 218q0 181 106.5 330.5t278.5 217.5l54 -131q-125 -50 -198 -164.5t-73 -252.5q0 -114 69 -202.5t177.5 -137.5t241.5 -62v377
q0 113 27.5 217t78 187t130 132.5t175.5 49.5q94 0 173.5 -47t130.5 -126t79.5 -179.5t28.5 -208.5zM1450 537q0 106 -23.5 194t-80.5 149.5t-140 61.5q-65 0 -114 -37t-76 -100.5t-40 -136.5t-13 -156v-377q133 13 241 62t177 137.5t69 202.5z" />
    <glyph glyph-name="chi" unicode="&#x3c7;" horiz-adv-x="1323" 
d="M1184 -471h-189l-333 602l-334 -602h-189l428 772l-428 772h189l334 -602l333 602h189l-428 -772z" />
    <glyph glyph-name="psi" unicode="&#x3c8;" horiz-adv-x="1478" 
d="M1339 358q0 -86 -42.5 -156t-115.5 -115.5t-163.5 -72t-194.5 -34.5v-451h-168v451q-104 8 -194.5 34.5t-163.5 72t-115.5 115.5t-42.5 156v715h168v-715q0 -56 28.5 -98.5t79 -68t109.5 -39.5t131 -19v1360h168v-1360q72 5 131 19t109.5 39.5t79 68t28.5 98.5v715h168
v-715z" />
    <glyph glyph-name="omega" unicode="&#x3c9;" horiz-adv-x="1550" 
d="M1411 563q0 -113 -21 -215t-63 -187t-113 -135.5t-163 -50.5q-192 0 -281 209q-90 -209 -270 -209q-92 0 -163 50.5t-113 135t-63.5 187t-21.5 215.5q0 223 131 510h129q-92 -199 -92 -510q0 -58 2 -103t8.5 -98.5t20 -91.5t34 -71.5t53 -50.5t75.5 -17q176 0 209 289
q-17 133 -17 295h168v-81t1.5 -80.5t4 -82t7 -75.5t12 -73t17.5 -62t24 -54.5t32 -39.5t41.5 -27.5t51.5 -8.5q43 0 75.5 17t52.5 50.5t33.5 71.5t20 91.5t8.5 98t2 103.5q0 311 -92 510h129q131 -287 131 -510z" />
    <glyph glyph-name="uni03D1" unicode="&#x3d1;" horiz-adv-x="1277" 
d="M1139 797h-140v-439q0 -109 -59.5 -199t-158 -140t-212.5 -50t-212.5 50t-158 140t-59.5 199v357h168v-357q0 -96 78 -158.5t184 -62.5t184 62.5t78 158.5v443q-92 4 -167 13t-151.5 26t-133 45t-101.5 67t-68.5 96t-23.5 128q0 158 112 268t271 110q121 0 220.5 -66.5
t154.5 -176.5t55 -238v-151h140v-125zM831 1073q0 93 -30 173.5t-91 133t-141 52.5q-103 0 -175 -75.5t-72 -180.5q0 -54 27.5 -96t72.5 -68.5t113 -45t138 -27t158 -13.5v147z" />
    <glyph glyph-name="uni03D5" unicode="&#x3d5;" horiz-adv-x="1435" 
d="M1298 537q0 -141 -65.5 -263.5t-178.5 -201t-251 -97.5v-446h-168v446q-138 19 -251 97.5t-178 201t-65 263.5t65 263t178 200.5t251 97.5v395h168v-395q138 -19 251 -97.5t178.5 -200.5t65.5 -263zM1130 537q0 144 -93.5 253.5t-233.5 137.5v-783q140 28 233.5 138
t93.5 254zM635 928q-140 -28 -233 -137.5t-93 -253.5t93 -254t233 -138v783z" />
    <glyph glyph-name="uni03D6" unicode="&#x3d6;" horiz-adv-x="1550" 
d="M1411 563q0 -113 -21 -215t-63 -187t-113 -135.5t-163 -50.5q-192 0 -281 209q-90 -209 -270 -209q-92 0 -163 50.5t-113 135t-63.5 187t-21.5 215.5q0 223 131 510h129q-92 -199 -92 -510q0 -58 2 -103t8.5 -98.5t20 -91.5t34 -71.5t53 -50.5t75.5 -17q176 0 209 289
q-17 133 -17 295h168v-81t1.5 -80.5t4 -82t7 -75.5t12 -73t17.5 -62t24 -54.5t32 -39.5t41.5 -27.5t51.5 -8.5q43 0 75.5 17t52.5 50.5t33.5 71.5t20 91.5t8.5 98t2 103.5q0 95 -8.5 182t-26.5 173t-50 156t-75 124.5t-105.5 84.5t-137.5 30q-236 0 -471 -82l-35 104
q244 86 506 86q138 0 249 -73t180 -195.5t105.5 -273.5t36.5 -316z" />
    <glyph glyph-name="epsilon.alt" unicode="&#x3f5;" horiz-adv-x="1024" 
d="M958 268q-39 -141 -147.5 -220t-271.5 -79q-219 0 -347.5 149t-128.5 408q0 266 130 422t348 156q160 0 266.5 -75.5t142.5 -223.5h-182q-63 141 -229 141q-125 0 -201.5 -88t-91.5 -252h436v-139h-438q12 -163 90 -251.5t209 -88.5q171 0 233 141h182z" />
    <glyph glyph-name="uni0400" unicode="&#x400;" horiz-adv-x="1366" 
d="M915 1575h-122l-306 303h232zM1255 0h-1071v1493h1035v-168h-844v-477h813v-168h-813v-512h880v-168z" />
    <glyph glyph-name="afii10023" unicode="&#x401;" horiz-adv-x="1366" 
d="M1233 0h-1071v1493h1034v-168h-844v-477h813v-168h-813v-512h881v-168zM621 1661h-213v211h213v-211zM952 1661h-213v211h213v-211z" />
    <glyph glyph-name="afii10051" unicode="&#x402;" horiz-adv-x="1511" 
d="M1436 37q0 -184 -95.5 -288.5t-283.5 -104.5h-107v168h99q88 0 142 48t54 140v604q0 92 -54 140.5t-142 48.5h-406v-793h-190v1325h-410v168h1008v-168h-408v-364h414q188 0 283.5 -105t95.5 -289v-530z" />
    <glyph glyph-name="afii10052" unicode="&#x403;" horiz-adv-x="1251" 
d="M1186 1325h-811v-1325h-191v1493h1002v-168zM899 1878l-305 -303h-123l197 303h231z" />
    <glyph glyph-name="afii10053" unicode="&#x404;" horiz-adv-x="1478" 
d="M1386 545q-67 -592 -614 -592q-289 0 -457 174q-106 109 -161.5 263t-55.5 339q0 181 54 336.5t155 265.5q169 187 473 187q246 0 389 -121t187 -367h-195q-17 83 -42 135t-66 90q-46 43 -125.5 69t-169.5 26q-193 0 -315.5 -133.5t-147.5 -368.5h745v-168h-749
q12 -258 141.5 -408.5t341.5 -150.5q120 0 211 50t137 142q45 86 68 232h196z" />
    <glyph glyph-name="afii10054" unicode="&#x405;" horiz-adv-x="1366" 
d="M1272 410q0 -97 -44.5 -189.5t-119.5 -152.5q-149 -115 -420 -115q-346 0 -502 213q-45 62 -66 134.5t-22 174.5h181q-3 -133 77 -229q105 -125 344 -125q184 0 275 63q48 34 77 90.5t29 116.5q0 88 -66.5 146.5t-207.5 95.5l-371 98q-293 76 -293 348q0 203 142.5 321
t388.5 118q258 0 402 -121.5t145 -341.5h-181q-2 146 -98 224.5t-274 78.5q-151 0 -242.5 -69t-91.5 -183q0 -86 55 -135t191 -86l374 -101q152 -41 235 -138.5t83 -235.5z" />
    <glyph glyph-name="afii10055" unicode="&#x406;" horiz-adv-x="569" 
d="M397 0h-192v1493h192v-1493z" />
    <glyph glyph-name="afii10056" unicode="&#x407;" horiz-adv-x="569" 
d="M229 1649h-213v211h213v-211zM561 1649h-213v211h213v-211zM397 0h-192v1493h192v-1493z" />
    <glyph glyph-name="afii10057" unicode="&#x408;" horiz-adv-x="1024" 
d="M872 373q0 -194 -113 -307t-308 -113q-192 0 -304 106.5t-112 288.5v131h194v-96q0 -130 58.5 -200t165.5 -70q57 0 105.5 24.5t76.5 67.5q47 68 47 237v1051h190v-1120z" />
    <glyph glyph-name="afii10058" unicode="&#x409;" horiz-adv-x="2211" 
d="M2093 426q0 -180 -115 -301q-116 -125 -325 -125h-602v1325h-461q0 -36 1 -113q2 -400 -20 -601q-58 -531 -316 -600q-40 -11 -85 -11v193q142 0 192 287q36 206 36 688q0 50 -1 151v174h846v-643h295q265 0 397 -108t158 -316zM1903 424q0 113 -70 186q-66 72 -199 72
h-391v-514h391q133 0 199 72q70 73 70 184z" />
    <glyph glyph-name="afii10059" unicode="&#x40a;" horiz-adv-x="2076" 
d="M1991 426q0 -180 -115 -301q-116 -125 -326 -125h-565v680h-623v-680h-192v1493h190v-645h625v645h191v-643h260q265 0 397 -108t158 -316zM1800 424q0 114 -69 186q-66 72 -199 72h-356v-514h356q133 0 199 72q69 72 69 184z" />
    <glyph glyph-name="afii10060" unicode="&#x40b;" horiz-adv-x="1531" 
d="M1456 0h-190v604q0 92 -54.5 140.5t-142.5 48.5h-426v-793h-190v1325h-410v168h1008v-168h-408v-364h434q188 0 283.5 -105t95.5 -289v-567z" />
    <glyph glyph-name="afii10061" unicode="&#x40c;" horiz-adv-x="1366" 
d="M1348 0h-226l-770 664v-664h-190v1493h190v-645l744 645h245l-843 -725zM965 1878l-306 -303h-122l196 303h232z" />
    <glyph glyph-name="uni040D" unicode="&#x40d;" horiz-adv-x="1478" 
d="M1323 0h-180v1210l-772 -1210h-215v1493h180v-1221l780 1221h207v-1493zM954 1575h-123l-305 303h232z" />
    <glyph glyph-name="afii10062" unicode="&#x40e;" horiz-adv-x="1331" 
d="M1268 1493l-752 -1493h-231l264 500l-496 993h232l379 -776l376 776h228zM969 1851q-10 -136 -89.5 -206t-222.5 -70q-177 0 -262 117q-22 32 -32 66t-11 93h121q15 -135 189 -135q83 0 131.5 35t54.5 100h121z" />
    <glyph glyph-name="afii10145" unicode="&#x40f;" horiz-adv-x="1478" 
d="M1321 0h-494v-276h-163v276h-494v1493h192v-1325h766v1325h193v-1493z" />
    <glyph glyph-name="afii10017" unicode="&#x410;" horiz-adv-x="1366" 
d="M1337 0h-213l-153 449h-576l-157 -449h-203l532 1493h246zM918 608l-230 680l-246 -680h476z" />
    <glyph glyph-name="afii10018" unicode="&#x411;" horiz-adv-x="1366" 
d="M1276 446q0 -90 -30.5 -177t-84.5 -144q-116 -125 -325 -125h-674v1493h1001v-168h-811v-434h484q61 0 117 -11t116.5 -41t105 -78t73 -129t28.5 -186zM1085 444q0 58 -18 115.5t-51 91.5q-66 72 -199 72h-465v-555h465q133 0 199 72q32 34 50.5 90.5t18.5 113.5z" />
    <glyph glyph-name="afii10019" unicode="&#x412;" horiz-adv-x="1366" 
d="M1276 426q0 -180 -115 -301q-116 -125 -325 -125h-674v1493h606q211 0 324 -104q118 -106 118 -275q0 -230 -206 -326q143 -56 207.5 -141.5t64.5 -220.5zM1020 1087q0 122 -82 185q-38 29 -87.5 41t-129.5 12h-369v-475h369q80 0 129.5 12t87.5 41q82 63 82 184z
M1085 424q0 114 -69 186q-66 72 -199 72h-465v-514h465q133 0 199 72q69 72 69 184z" />
    <glyph glyph-name="afii10020" unicode="&#x413;" horiz-adv-x="1251" 
d="M1163 1325h-811v-1325h-190v1493h1001v-168z" />
    <glyph glyph-name="afii10021" unicode="&#x414;" horiz-adv-x="1662" 
d="M1214 168v1157h-536v-498q0 -438 -141 -659h677zM1593 -276h-163v276h-1197v-276h-163v428h188q116 53 171.5 231t55.5 444v666h922v-1341h186v-428z" />
    <glyph glyph-name="afii10022" unicode="&#x415;" horiz-adv-x="1366" 
d="M1233 0h-1071v1493h1034v-168h-844v-477h813v-168h-813v-512h881v-168z" />
    <glyph glyph-name="afii10024" unicode="&#x416;" horiz-adv-x="2095" 
d="M1942 0h-242l-570 664v-664h-190v664l-586 -664h-225l666 768l-580 725h238l487 -631v631h190v-631l488 631h237l-579 -725z" />
    <glyph glyph-name="afii10025" unicode="&#x417;" horiz-adv-x="1366" 
d="M1272 410q0 -97 -44.5 -189.5t-119.5 -152.5q-149 -115 -420 -115q-346 0 -502 213q-45 62 -66 134.5t-22 174.5h181q-3 -133 77 -229q105 -125 344 -125q184 0 275 63q48 34 77 90.5t29 116.5q0 120 -92.5 193t-240.5 73h-222v168h181q132 0 227.5 88t95.5 193
q0 114 -91.5 183t-242.5 69q-178 0 -274 -78.5t-98 -224.5h-181q1 220 145 341.5t402 121.5q246 0 388.5 -118t142.5 -321q0 -222 -215 -313q128 -47 197 -139t69 -217z" />
    <glyph glyph-name="afii10026" unicode="&#x418;" horiz-adv-x="1490" 
d="M1329 0h-180v1225l-772 -1225h-215v1493h180v-1235l780 1235h207v-1493z" />
    <glyph glyph-name="afii10027" unicode="&#x419;" horiz-adv-x="1490" 
d="M1053 1892q-10 -136 -89.5 -206t-222.5 -70q-177 0 -262 117q-22 32 -32 66t-11 93h121q15 -135 188 -135q83 0 132 35.5t55 99.5h121zM1329 0h-180v1225l-772 -1225h-215v1493h180v-1235l780 1235h207v-1493z" />
    <glyph glyph-name="afii10028" unicode="&#x41a;" horiz-adv-x="1366" 
d="M1272 0h-254l-666 682v-682h-190v1493h190v-627l625 627h227l-706 -707z" />
    <glyph glyph-name="afii10029" unicode="&#x41b;" horiz-adv-x="1378" 
d="M1217 0h-193v1325h-537v-498q0 -133 -12 -250.5t-42.5 -229t-77 -191.5t-120 -128t-167.5 -48v192q79 0 131.5 92.5t74 235t21.5 327.5v666h922v-1493z" />
    <glyph glyph-name="afii10030" unicode="&#x41c;" horiz-adv-x="1728" 
d="M1567 0h-181v1251l-419 -1251h-201l-424 1251v-1251h-180v1493h264l442 -1300l435 1300h264v-1493z" />
    <glyph glyph-name="afii10031" unicode="&#x41d;" horiz-adv-x="1472" 
d="M1311 0h-193v680h-764v-680h-192v1493h190v-645h766v645h193v-1493z" />
    <glyph glyph-name="afii10032" unicode="&#x41e;" horiz-adv-x="1593" 
d="M1520 723q0 -184 -68.5 -347t-189.5 -265q-187 -158 -463 -158q-159 0 -293.5 57t-228.5 158.5t-146.5 247.5t-52.5 319q0 231 90 409t253.5 276t375.5 98q328 0 525.5 -217t197.5 -578zM1329 727q0 283 -144.5 453t-387.5 170q-237 0 -383 -169.5t-146 -445.5
t146.5 -445t384.5 -169q236 0 383 168t147 438z" />
    <glyph glyph-name="afii10033" unicode="&#x41f;" horiz-adv-x="1472" 
d="M1311 0h-193v1325h-764v-1325h-192v1493h1149v-1493z" />
    <glyph glyph-name="afii10034" unicode="&#x420;" horiz-adv-x="1366" 
d="M1239 1055q0 -103 -31 -179t-98 -137q-118 -106 -289 -106h-469v-633h-190v1493h616q221 0 341 -113.5t120 -324.5zM1040 1063q0 123 -77 192.5t-213 69.5h-398v-524h398q136 0 213 69.5t77 192.5z" />
    <glyph glyph-name="afii10035" unicode="&#x421;" horiz-adv-x="1478" 
d="M1386 545q-67 -592 -614 -592q-289 0 -457 174q-106 109 -161.5 263t-55.5 339q0 181 54 336.5t155 265.5q169 187 473 187q246 0 389 -121t187 -367h-195q-17 83 -42 135t-66 90q-46 43 -125.5 69t-169.5 26q-217 0 -343 -166t-126 -453q0 -280 131 -445t354 -165
q120 0 211 50t137 142q45 86 68 232h196z" />
    <glyph glyph-name="afii10036" unicode="&#x422;" horiz-adv-x="1251" 
d="M1214 1325h-489v-1325h-190v1325h-492v168h1171v-168z" />
    <glyph glyph-name="afii10037" unicode="&#x423;" horiz-adv-x="1331" 
d="M1268 1493l-752 -1493h-231l258 506l-490 987h232l366 -758l389 758h228z" />
    <glyph glyph-name="afii10038" unicode="&#x424;" horiz-adv-x="1916" 
d="M1698 748q0 -87 -16.5 -160.5t-43 -127t-68.5 -96t-83 -70t-96 -47.5t-99.5 -30t-102 -16t-93.5 -7t-84 -1v-193h-195v193q-48 0 -84 1t-93.5 7t-102 16t-99.5 30t-96 47.5t-83 70t-68.5 96t-43 127t-16.5 160.5t18 161t47 127t73 95.5t87.5 70t100 47.5t101.5 30t100 16
t87 7t72 1v190h195v-190q40 0 72 -1t87 -7t100 -16t101.5 -30t100 -47.5t87.5 -70t73 -95.5t47 -127t18 -161zM1493 748q0 74 -21 134t-53.5 99.5t-78.5 69t-89 45t-92.5 25t-82.5 12t-64 2.5v-775q31 0 64 2.5t82.5 12t92.5 25t89 45.5t78.5 69.5t53.5 99.5t21 134z
M817 360v775q-31 0 -64 -2.5t-82.5 -12t-92.5 -25t-89 -45t-78.5 -69t-53.5 -99.5t-21 -134t21 -134t53.5 -99.5t78.5 -69.5t89 -45.5t92.5 -25t82.5 -12t64 -2.5z" />
    <glyph glyph-name="afii10039" unicode="&#x425;" horiz-adv-x="1366" 
d="M1313 0h-219l-416 610l-402 -610h-231l528 766l-495 727h231l373 -571l395 571h213l-502 -727z" />
    <glyph glyph-name="afii10040" unicode="&#x426;" horiz-adv-x="1517" 
d="M1448 -276h-164v276h-1122v1493h192v-1325h764v1325h193v-1341h137v-428z" />
    <glyph glyph-name="afii10041" unicode="&#x427;" horiz-adv-x="1327" 
d="M1165 0h-190v532h-434q-188 0 -283.5 105t-95.5 289v567h190v-604q0 -92 54.5 -140.5t142.5 -48.5h426v793h190v-1493z" />
    <glyph glyph-name="afii10042" unicode="&#x428;" horiz-adv-x="1695" 
d="M1534 0h-1372v1493h192v-1325h398v1325h192v-1325h397v1325h193v-1493z" />
    <glyph glyph-name="afii10043" unicode="&#x429;" horiz-adv-x="1740" 
d="M1671 -276h-164v276h-1345v1493h192v-1325h398v1325h192v-1325h397v1325h193v-1341h137v-428z" />
    <glyph glyph-name="afii10044" unicode="&#x42a;" horiz-adv-x="1837" 
d="M1753 463q0 -203 -133.5 -333t-337.5 -130h-643v1325h-473v168h663v-569h453q202 0 336.5 -132t134.5 -329zM1563 461q0 131 -83 213t-216 82h-435v-588h435q131 0 215 83.5t84 209.5z" />
    <glyph glyph-name="afii10045" unicode="&#x42b;" horiz-adv-x="1785" 
d="M1276 463q0 -203 -133.5 -333t-337.5 -130h-643v1493h190v-569h453q202 0 336.5 -132t134.5 -329zM1085 461q0 131 -83 213t-216 82h-434v-588h434q131 0 215 83.5t84 209.5zM1624 0h-192v1493h192v-1493z" />
    <glyph glyph-name="afii10046" unicode="&#x42c;" horiz-adv-x="1366" 
d="M1276 463q0 -203 -133.5 -333t-337.5 -130h-643v1493h190v-569h453q202 0 336.5 -132t134.5 -329zM1085 461q0 131 -83 213t-216 82h-434v-588h434q131 0 215 83.5t84 209.5z" />
    <glyph glyph-name="afii10047" unicode="&#x42d;" horiz-adv-x="1478" 
d="M1386 729q0 -185 -55.5 -339t-161.5 -263q-168 -174 -456 -174q-548 0 -615 592h197q23 -149 67 -232q46 -92 137.5 -142t211.5 -50q212 0 341.5 150t143.5 409h-752v168h746q-25 235 -147.5 368.5t-315.5 133.5q-90 0 -169.5 -26t-125.5 -69q-41 -38 -66 -90t-42 -135
h-195q44 246 187 367t389 121q304 0 473 -187q101 -110 154.5 -265t53.5 -337z" />
    <glyph glyph-name="afii10048" unicode="&#x42e;" horiz-adv-x="2113" 
d="M1962 723q0 -184 -68.5 -347t-189.5 -265q-96 -81 -191.5 -119.5t-224.5 -38.5q-306 0 -487.5 197.5t-196.5 529.5h-242v-680h-192v1493h190v-645h248q33 309 208 489.5t464 180.5q324 0 503 -214.5t179 -580.5zM1772 727q0 289 -127 456t-365 167q-232 0 -359.5 -166.5
t-127.5 -448.5t127.5 -448t361.5 -166q232 0 361 165.5t129 440.5z" />
    <glyph glyph-name="afii10049" unicode="&#x42f;" horiz-adv-x="1437" 
d="M1276 0h-191v643h-227l-567 -643h-225l559 643q-105 0 -193.5 35t-147 93.5t-90.5 135t-32 160.5q0 181 114 301q116 125 326 125h674v-1493zM1085 811v514h-464q-133 0 -199 -72q-70 -73 -70 -186q0 -111 70 -184q66 -72 199 -72h464z" />
    <glyph glyph-name="afii10065" unicode="&#x430;" 
d="M1096 -29q-71 -18 -117 -18q-83 0 -125 38t-51 120q-91 -83 -177.5 -120.5t-187.5 -37.5q-163 0 -257.5 85.5t-94.5 231.5q0 210 188 287q51 21 108.5 32t235.5 34q101 12 140 38t39 80v45q0 77 -62.5 118.5t-177.5 41.5q-120 0 -180.5 -46t-71.5 -144h-172
q3 79 20 130.5t54 92.5q54 60 146.5 92.5t209.5 32.5q198 0 301 -75t103 -218v-631q0 -40 24 -62t68 -22q19 0 37 4v-129zM797 338v192q-42 -20 -89 -30t-186 -29q-137 -20 -197.5 -66t-60.5 -131q0 -82 55.5 -127t155.5 -45q146 0 254 97q38 35 53 65.5t15 73.5z" />
    <glyph glyph-name="afii10066" unicode="&#x431;" 
d="M1044 520q0 -264 -129.5 -415.5t-355.5 -151.5q-229 0 -357 152.5t-128 422.5q0 122 8.5 231t32.5 223.5t62 200t101.5 148.5t145.5 82l272 53q46 11 80.5 46t34.5 75h152q0 -33 -1 -51.5t-5 -47t-12.5 -45.5t-25 -39t-40.5 -37t-60.5 -30t-83.5 -26l-276 -60
q-81 -20 -140.5 -99.5t-78.5 -190.5q89 143 317 143q232 0 359.5 -153t127.5 -431zM866 522q0 200 -81 312t-226 112q-142 0 -224.5 -112t-82.5 -306q0 -195 82 -306t225 -111q141 0 224 111t83 300z" />
    <glyph glyph-name="afii10067" unicode="&#x432;" horiz-adv-x="1069" 
d="M958 307q0 -127 -84 -217t-233 -90h-498v1073h449q149 0 229 -74q82 -76 82 -196q0 -167 -141 -236q103 -40 149.5 -101.5t46.5 -158.5zM731 770q0 41 -13 63t-46 48q-50 39 -156 39h-201v-291h201q105 0 156 37q24 19 34 29t17.5 29t7.5 46zM772 317q0 28 -0.5 37.5
t-4.5 27t-13.5 28.5t-26.5 22q-62 41 -141 41h-271v-317h271q94 0 141 53q25 25 35 48t10 60z" />
    <glyph glyph-name="afii10068" unicode="&#x433;" horiz-adv-x="880" 
d="M778 918h-463v-918h-172v1073h635v-155z" />
    <glyph glyph-name="afii10069" unicode="&#x434;" horiz-adv-x="1232" 
d="M1171 -246h-143v246h-823v-246h-144v377h117q48 5 87.5 84.5t60 197.5t20.5 244v416h694v-942h131v-377zM868 156v762h-352v-261q0 -140 -24.5 -274t-75.5 -227h452z" />
    <glyph glyph-name="afii10070" unicode="&#x435;" 
d="M1051 479h-791q2 -81 14.5 -132.5t42.5 -96.5q43 -67 109.5 -103t148.5 -36q209 0 281 215h172q-32 -175 -153.5 -274t-305.5 -99q-226 0 -356.5 152.5t-130.5 416.5t133.5 423t357.5 159q151 0 266.5 -75.5t168.5 -207.5q43 -111 43 -342zM868 631q0 132 -85.5 223.5
t-211.5 91.5q-129 0 -213 -89.5t-94 -238.5h602z" />
    <glyph glyph-name="afii10072" unicode="&#x436;" horiz-adv-x="1714" 
d="M1616 0h-217l-461 463v-463h-170v463l-461 -463h-217l561 561l-495 512h219l393 -411v411h170v-411l393 411h219l-495 -512z" />
    <glyph glyph-name="afii10073" unicode="&#x437;" horiz-adv-x="1024" 
d="M940 293q0 -155 -120 -247.5t-322 -92.5q-211 0 -316.5 90t-111.5 276h180q7 -56 17.5 -84.5t31.5 -52.5q68 -71 213 -71q111 0 176.5 46t65.5 122q0 66 -47 120t-132 54h-182v155h127q98 0 148.5 54.5t50.5 121.5q0 74 -61.5 118t-165.5 44q-97 0 -155 -44.5t-61 -127.5
h-180q1 157 105.5 243.5t283.5 86.5q187 0 299.5 -89.5t112.5 -238.5q0 -82 -31 -135.5t-102 -93.5q91 -40 133.5 -101t42.5 -153z" />
    <glyph glyph-name="afii10074" unicode="&#x438;" horiz-adv-x="1161" 
d="M1018 0h-170v846l-481 -846h-224v1073h172v-846l482 846h221v-1073z" />
    <glyph glyph-name="afii10075" unicode="&#x439;" horiz-adv-x="1161" 
d="M1018 0h-170v846l-481 -846h-224v1073h172v-846l482 846h221v-1073zM889 1432q-10 -136 -89 -206.5t-222 -70.5q-178 0 -263 117q-22 31 -32 66t-11 94h121q15 -136 189 -136q83 0 131.5 35.5t54.5 100.5h121z" />
    <glyph glyph-name="afii10076" unicode="&#x43a;" horiz-adv-x="1044" 
d="M991 0h-217l-461 463v-463h-170v1073h170v-434l435 434h196l-514 -512z" />
    <glyph glyph-name="afii10077" unicode="&#x43b;" horiz-adv-x="1140" 
d="M997 0h-172v918h-352v-261q0 -101 -9 -192t-32.5 -181.5t-59.5 -156.5t-95 -106.5t-134 -40.5v163q75 0 117.5 144t42.5 370v416h694v-1073z" />
    <glyph glyph-name="afii10078" unicode="&#x43c;" horiz-adv-x="1265" 
d="M1122 0h-172v743l-266 -661h-102l-267 661v-743h-172v1073h213l277 -667l276 667h213v-1073z" />
    <glyph glyph-name="afii10079" unicode="&#x43d;" horiz-adv-x="1142" 
d="M999 0h-172v477h-512v-477h-172v1073h172v-440h512v440h172v-1073z" />
    <glyph glyph-name="afii10080" unicode="&#x43e;" 
d="M1044 520q0 -264 -129.5 -415.5t-355.5 -151.5q-229 0 -357 152.5t-128 422.5t128.5 423t354.5 153q232 0 359.5 -153t127.5 -431zM866 522q0 200 -81 312t-226 112q-142 0 -224.5 -112t-82.5 -306q0 -195 82 -306t225 -111q141 0 224 111t83 300z" />
    <glyph glyph-name="afii10081" unicode="&#x43f;" horiz-adv-x="1140" 
d="M997 0h-172v918h-510v-918h-172v1073h854v-1073z" />
    <glyph glyph-name="afii10082" unicode="&#x440;" horiz-adv-x="1179" 
d="M1071 518q0 -256 -126 -410.5t-333 -154.5q-104 0 -182.5 38.5t-146.5 121.5v-559h-172v1519h157v-162q122 193 342 193q213 0 337 -158t124 -428zM893 522q0 192 -85 307t-226 115q-135 0 -217 -113.5t-82 -302.5t82 -302t217 -113q139 0 225 113t86 296z" />
    <glyph glyph-name="afii10083" unicode="&#x441;" horiz-adv-x="1024" 
d="M977 369q-15 -197 -130.5 -306.5t-307.5 -109.5q-218 0 -347 153t-129 412q0 267 130.5 426.5t347.5 159.5q112 0 204 -42t148 -118q61 -88 72 -231h-172q-15 112 -81 172.5t-173 60.5q-139 0 -218 -113.5t-79 -314.5q0 -191 80 -299t221 -108q219 0 262 258h172z" />
    <glyph glyph-name="afii10084" unicode="&#x442;" horiz-adv-x="1015" 
d="M885 918h-295v-918h-172v918h-295v155h762v-155z" />
    <glyph glyph-name="afii10085" unicode="&#x443;" horiz-adv-x="1024" 
d="M979 1073l-477 -1298q-43 -116 -117 -170q-70 -51 -160 -51q-63 0 -114 26v154q60 -13 90 -13q53 0 84.5 25.5t52.5 79.5l65 170l-362 1077h182l275 -835l297 835h184z" />
    <glyph glyph-name="afii10086" unicode="&#x444;" horiz-adv-x="1867" 
d="M1741 518q0 -261 -112 -413t-316 -152q-100 0 -164 36t-135 124v-559h-170v569q-63 -92 -128 -131t-173 -39q-208 0 -313 148t-105 415q0 273 109 430.5t317 157.5q192 0 293 -193v469h170v-469q91 193 297 193q210 0 320 -155.5t110 -430.5zM1563 522q0 197 -71.5 309.5
t-209.5 112.5q-132 0 -200 -111t-68 -305t68 -304.5t200 -110.5q136 0 208.5 110.5t72.5 298.5zM844 522q0 199 -68 310.5t-201 111.5q-136 0 -204 -111t-68 -305q0 -195 67.5 -305t204.5 -110q132 0 200.5 109.5t68.5 299.5z" />
    <glyph glyph-name="afii10087" unicode="&#x445;" horiz-adv-x="1024" 
d="M969 0h-199l-268 412l-273 -412h-194l379 547l-359 526h195l258 -389l258 389h192l-360 -518z" />
    <glyph glyph-name="afii10088" unicode="&#x446;" horiz-adv-x="1183" 
d="M1122 -246h-143v246h-836v1073h172v-917h510v917h172v-942h125v-377z" />
    <glyph glyph-name="afii10089" unicode="&#x447;" horiz-adv-x="1064" 
d="M922 0h-172v391h-289q-133 0 -225.5 77.5t-92.5 215.5v389h172v-383q0 -72 37.5 -107.5t102.5 -35.5h295v526h172v-1073z" />
    <glyph glyph-name="afii10090" unicode="&#x448;" horiz-adv-x="1417" 
d="M1274 0h-1131v1073h172v-917h308v917h172v-917h307v917h172v-1073z" />
    <glyph glyph-name="afii10091" unicode="&#x449;" horiz-adv-x="1458" 
d="M1397 -246h-144v246h-1110v1073h172v-917h308v917h172v-917h307v917h172v-942h123v-377z" />
    <glyph glyph-name="afii10092" unicode="&#x44a;" horiz-adv-x="1503" 
d="M1337 342q0 -150 -96 -246t-246 -96h-503v918h-375v155h547v-375h331q152 0 247 -96.5t95 -259.5zM1151 336q0 109 -57 158t-176 49h-254v-387h254q71 0 119 14.5t72 41t33 56t9 68.5z" />
    <glyph glyph-name="afii10093" unicode="&#x44b;" horiz-adv-x="1413" 
d="M989 342q0 -150 -96 -246t-246 -96h-504v1073h172v-375h332q153 0 247.5 -96t94.5 -260zM803 336q0 109 -57.5 158t-176.5 49h-254v-387h254q71 0 119 14.5t72 41t33.5 56t9.5 68.5zM1270 0h-170v1073h170v-1073z" />
    <glyph glyph-name="afii10094" unicode="&#x44c;" horiz-adv-x="1130" 
d="M989 342q0 -150 -96 -246t-246 -96h-504v1073h172v-375h332q153 0 247.5 -96t94.5 -260zM803 336q0 109 -57.5 158t-176.5 49h-254v-387h254q71 0 119 14.5t72 41t33.5 56t9.5 68.5z" />
    <glyph glyph-name="afii10095" unicode="&#x44d;" horiz-adv-x="1024" 
d="M977 518q0 -260 -128.5 -412.5t-346.5 -152.5q-192 0 -308 110t-131 306h173q44 -258 262 -258q133 0 212.5 96t88.5 268h-465v158h459q-22 150 -97.5 231.5t-193.5 81.5q-107 0 -173 -60.5t-81 -172.5h-172q11 145 71 231q56 75 148.5 117.5t204.5 42.5
q217 0 347 -159.5t130 -426.5z" />
    <glyph glyph-name="afii10096" unicode="&#x44e;" horiz-adv-x="1552" 
d="M1477 520q0 -264 -130 -415.5t-356 -151.5q-113 0 -202 38.5t-140 96t-84.5 131.5t-45 137t-11.5 121h-193v-477h-172v1073h172v-440h197q0 24 5 57t20 79t37 90.5t60 89.5t85.5 79t117.5 55t152 21q232 0 360 -153t128 -431zM1298 522q0 200 -81 312t-226 112
q-142 0 -224.5 -112t-82.5 -306q0 -195 82 -306t225 -111q141 0 224 111t83 300z" />
    <glyph glyph-name="afii10097" unicode="&#x44f;" horiz-adv-x="1112" 
d="M969 0h-172v446h-142l-415 -446h-211l420 453q-137 11 -221.5 89.5t-84.5 225.5q0 127 84 217q82 88 234 88h508v-1073zM797 602v318h-281q-93 0 -141 -54q-25 -25 -35 -48t-10 -60q0 -28 0.5 -37.5t4.5 -27t13.5 -28.5t26.5 -22q62 -41 141 -41h281z" />
    <glyph glyph-name="uni0450" unicode="&#x450;" 
d="M711 1212h-123l-305 304h231zM1051 479h-791q2 -81 14.5 -132.5t42.5 -96.5q43 -67 109.5 -103t148.5 -36q209 0 281 215h172q-32 -175 -153.5 -274t-305.5 -99q-226 0 -356.5 152.5t-130.5 416.5t133.5 423t357.5 159q151 0 266.5 -75.5t168.5 -207.5q43 -111 43 -342z
M868 631q0 132 -85.5 223.5t-211.5 91.5q-129 0 -213 -89.5t-94 -238.5h602z" />
    <glyph glyph-name="afii10071" unicode="&#x451;" 
d="M526 1255h-213v211h213v-211zM858 1255h-213v211h213v-211zM1051 479h-791q2 -81 14.5 -132.5t42.5 -96.5q43 -67 109.5 -103t148.5 -36q209 0 281 215h172q-32 -175 -153.5 -274t-305.5 -99q-226 0 -356.5 152.5t-130.5 416.5t133.5 423t357.5 159q151 0 266.5 -75.5
t168.5 -207.5q43 -111 43 -342zM868 631q0 132 -85.5 223.5t-211.5 91.5q-129 0 -213 -89.5t-94 -238.5h602z" />
    <glyph glyph-name="afii10099" unicode="&#x452;" horiz-adv-x="1191" 
d="M1049 0q0 -135 -90.5 -214t-247.5 -79h-54v150q87 0 152 49q70 50 70 162v596q0 111 -70 161q-65 49 -152 49q-132 0 -211 -99t-79 -263v-512h-170v1204h-166v144h166v145h170v-145h389v-144h-389v-358q75 98 152.5 138t191.5 40q157 0 247.5 -79t90.5 -214v-731z" />
    <glyph glyph-name="afii10100" unicode="&#x453;" horiz-adv-x="880" 
d="M748 918h-433v-918h-172v1073h605v-155zM659 1458l-305 -303h-123l197 303h231z" />
    <glyph glyph-name="afii10101" unicode="&#x454;" horiz-adv-x="1024" 
d="M977 369q-15 -197 -130.5 -306.5t-307.5 -109.5q-218 0 -347 153t-129 412q0 267 130.5 426.5t347.5 159.5q112 0 204 -42t148 -118q61 -88 72 -231h-172q-15 112 -81 172.5t-173 60.5q-118 0 -193.5 -81.5t-97.5 -231.5h457v-158h-463q9 -172 88.5 -268t212.5 -96
q219 0 262 258h172z" />
    <glyph glyph-name="afii10102" unicode="&#x455;" horiz-adv-x="1024" 
d="M940 293q0 -155 -120 -247.5t-322 -92.5q-211 0 -316.5 90t-111.5 276h180q7 -56 17.5 -84.5t31.5 -52.5q68 -71 213 -71q112 0 181 46.5t69 121.5q0 58 -38.5 92.5t-127.5 56.5l-160 39q-190 46 -265 114.5t-75 194.5q0 149 112.5 238.5t299.5 89.5q186 0 286.5 -86
t102.5 -244h-180q-3 85 -57.5 128.5t-157.5 43.5q-104 0 -166 -44t-62 -118q0 -57 47 -92.5t152 -60.5l164 -39q160 -38 231.5 -108.5t71.5 -190.5z" />
    <glyph glyph-name="afii10103" unicode="&#x456;" horiz-adv-x="454" 
d="M307 0h-170v1073h170v-1073zM307 1278h-172v215h172v-215z" />
    <glyph glyph-name="afii10104" unicode="&#x457;" horiz-adv-x="569" 
d="M219 1239h-213v211h213v-211zM551 1239h-213v211h213v-211zM365 0h-172v1073h172v-1073z" />
    <glyph glyph-name="afii10105" unicode="&#x458;" horiz-adv-x="454" 
d="M313 -223q0 -109 -74.5 -166t-218.5 -57q-27 0 -57 6v145l41 -2q78 0 108.5 31t30.5 110v1229h170v-1296zM313 1278h-170v215h170v-215z" />
    <glyph glyph-name="afii10106" unicode="&#x459;" horiz-adv-x="1810" 
d="M1669 342q0 -150 -96 -246t-246 -96h-502v918h-352q2 -60 0 -131t-3 -147t-11 -153t-23 -148t-38.5 -133t-59 -107.5t-83.5 -72t-112 -26.5v164q39 0 67.5 29t45.5 99t27 133t14 186.5t5 199.5t1 229v33h692v-375h232q224 0 333 -92.5t109 -263.5zM1483 336
q0 109 -57.5 158t-176.5 49h-254v-387h254q71 0 119 14.5t72 41t33.5 56t9.5 68.5z" />
    <glyph glyph-name="afii10107" unicode="&#x45a;" horiz-adv-x="1812" 
d="M1671 342q0 -150 -96 -246t-246 -96h-502v477h-512v-477h-172v1073h172v-440h512v440h170v-375h232q224 0 333 -92.5t109 -263.5zM1485 336q0 109 -57.5 158t-176.5 49h-254v-387h254q71 0 119 14.5t72 41t33.5 56t9.5 68.5z" />
    <glyph glyph-name="afii10108" unicode="&#x45b;" horiz-adv-x="1191" 
d="M1049 0h-170v664q0 111 -70 161q-65 49 -152 49q-132 0 -211 -99t-79 -263v-512h-170v1204h-166v144h166v145h170v-145h389v-144h-389v-358q75 98 152.5 138t191.5 40q157 0 247.5 -79t90.5 -214v-731z" />
    <glyph glyph-name="afii10109" unicode="&#x45c;" horiz-adv-x="1024" 
d="M1028 0h-211l-528 442v-442h-170v1073h170v-455l454 455h220l-557 -532zM754 1458l-305 -303h-123l196 303h232z" />
    <glyph glyph-name="uni045D" unicode="&#x45d;" 
d="M997 0h-170v846l-481 -846h-203v1073h172v-846l482 846h200v-1073zM784 1155h-122l-306 303h232z" />
    <glyph glyph-name="afii10110" unicode="&#x45e;" horiz-adv-x="1024" 
d="M817 1432q-10 -136 -89 -206.5t-222 -70.5q-177 0 -262 117q-22 31 -32 66t-11 94h121q15 -136 188 -136q83 0 131.5 35.5t54.5 100.5h121zM979 1073l-477 -1298q-25 -64 -51 -102.5t-66 -67.5q-70 -51 -160 -51q-63 0 -114 26v154q60 -13 90 -13q54 0 85.5 24t51.5 81
l65 170l-362 1077h182l275 -835l297 835h184z" />
    <glyph glyph-name="afii10193" unicode="&#x45f;" 
d="M999 0h-356v-246h-143v246h-357v1073h172v-917h512v917h172v-1073z" />
    <glyph glyph-name="uni048C" unicode="&#x48c;" horiz-adv-x="1366" 
d="M1085 424q0 114 -69 186q-66 72 -199 72h-465v-514h465q133 0 199 72q69 72 69 184zM1276 426q0 -180 -115 -301q-116 -125 -325 -125h-674v1104h-182v143h182v246h190v-246h189v-143h-189v-254h369q265 0 397 -108t158 -316z" />
    <glyph glyph-name="uni048D" unicode="&#x48d;" horiz-adv-x="1130" 
d="M813 301q0 37 -1 53t-11.5 40t-32.5 38q-62 41 -141 41h-312v-317h312q94 0 141 53q45 45 45 92zM999 307q0 -127 -84 -217t-233 -90h-539v782h-127v144h127v147h172v-147h148v-144h-148v-153h242q230 0 336 -78t106 -244z" />
    <glyph glyph-name="uni048E" unicode="&#x48e;" horiz-adv-x="1366" 
d="M1065 1063q0 123 -77 192.5t-214 69.5h-397v-524h397q48 0 96 10l-110 111l102 102l139 -139q64 67 64 178zM1264 1055q0 -102 -29.5 -176t-93.5 -134l119 -118l-103 -103l-139 142q-73 -33 -172 -33h-469v-633h-191v1493h617q221 0 341 -113.5t120 -324.5z" />
    <glyph glyph-name="uni048F" unicode="&#x48f;" 
d="M893 522q0 192 -85 307t-226 115q-135 0 -217 -113.5t-82 -302.5t82 -302t217 -113q67 0 125 28l-132 131l101 103l139 -139q78 115 78 286zM1073 -23l-100 -102l-137 137q-95 -59 -224 -59q-104 0 -182.5 38.5t-146.5 121.5v-559h-172v1519h157v-162q122 193 342 193
q213 0 337 -158t124 -428q0 -260 -127 -412z" />
    <glyph glyph-name="afii10050" unicode="&#x490;" horiz-adv-x="1251" 
d="M1186 1325h-811v-1325h-191v1493h811v197h191v-365z" />
    <glyph glyph-name="afii10098" unicode="&#x491;" horiz-adv-x="880" 
d="M748 918h-433v-918h-172v1073h432v215h173v-370z" />
    <glyph glyph-name="uni0492" unicode="&#x492;" horiz-adv-x="1251" 
d="M1163 1325h-811v-315h217v-144h-217v-866h-190v866h-154v144h154v483h1001v-168z" />
    <glyph glyph-name="uni0493" unicode="&#x493;" horiz-adv-x="880" 
d="M778 918h-463v-246h140v-144h-140v-528h-172v528h-127v144h127v401h635v-155z" />
    <glyph glyph-name="uni0494" unicode="&#x494;" horiz-adv-x="1251" 
d="M1186 1325h-811v-364h352q188 0 283.5 -105t95.5 -289v-530q0 -184 -95.5 -288.5t-283.5 -104.5h-106v168h98q88 0 142 48t54 140v604q0 92 -54 140.5t-142 48.5h-344v-793h-191v1493h1002v-168z" />
    <glyph glyph-name="uni0495" unicode="&#x495;" horiz-adv-x="1003" 
d="M874 0q0 -135 -90.5 -214t-246.5 -79h-54v150q87 0 152 49q70 50 70 162v288q0 116 -36.5 163.5t-123.5 47.5q-125 0 -177.5 -93t-52.5 -269v-205h-172v1073h605v-155h-433v-379q33 98 99.5 138t183.5 40q150 0 213 -75t63 -218v-424z" />
    <glyph glyph-name="uni0496" unicode="&#x496;" horiz-adv-x="2095" 
d="M1942 -276h-164v276h-62l-586 664v-664h-190v664l-586 -664h-225l666 768l-588 725h246l487 -631v631h190v-631l488 631h246l-588 -725l534 -616h132v-428z" />
    <glyph glyph-name="uni0497" unicode="&#x497;" horiz-adv-x="1714" 
d="M1677 -246h-143v246h-68l-528 442v-442h-170v442l-528 -442h-211l622 541l-557 532h219l455 -455v455h170v-455l455 455h219l-557 -532l471 -410h151v-377z" />
    <glyph glyph-name="uni0498" unicode="&#x498;" horiz-adv-x="1366" 
d="M1272 410q0 -97 -44.5 -189.5t-119.5 -152.5q-128 -95 -340 -113q111 -69 111 -182q0 -117 -129 -166q-76 -27 -142 -27q-52 0 -155 21v92q55 -21 129 -21q72 0 109.5 28.5t37.5 82.5q0 53 -26 91.5t-93 80.5q-288 24 -424 211q-45 62 -66 134.5t-22 174.5h181
q-3 -133 77 -229q105 -125 344 -125q184 0 275 63q48 34 77 90.5t29 116.5q0 95 -97.5 180.5t-235.5 85.5h-222v168h181q65 0 126.5 27.5t103.5 69.5t67.5 91.5t25.5 92.5q0 114 -91.5 183t-242.5 69q-178 0 -274 -78.5t-98 -224.5h-181q1 220 145 341.5t402 121.5
q246 0 388.5 -118t142.5 -321q0 -222 -215 -313q128 -47 197 -139t69 -217z" />
    <glyph glyph-name="uni0499" unicode="&#x499;" horiz-adv-x="1024" 
d="M940 293q0 -139 -98 -229t-267 -107q111 -75 111 -184q0 -117 -129 -166q-76 -27 -141 -27q-53 0 -156 21v92q56 -21 129 -21q72 0 110 28.5t38 82.5q0 53 -26.5 91.5t-94.5 82.5q-169 15 -254.5 105t-91.5 257h180q7 -56 17.5 -84.5t31.5 -52.5q68 -71 213 -71
q111 0 176.5 46t65.5 122q0 63 -60.5 118.5t-148.5 55.5h-152v155h127q98 0 148.5 54.5t50.5 121.5q0 74 -61.5 118t-165.5 44q-103 0 -158 -43.5t-58 -128.5h-180q2 158 102.5 244t286.5 86q187 0 299.5 -89.5t112.5 -238.5q0 -82 -31 -135.5t-102 -93.5q91 -40 133.5 -101
t42.5 -153z" />
    <glyph glyph-name="uni049A" unicode="&#x49a;" horiz-adv-x="1366" 
d="M1272 -276h-164v276h-90l-666 682v-682h-190v1493h190v-627l625 627h227l-706 -707l624 -634h150v-428z" />
    <glyph glyph-name="uni049B" unicode="&#x49b;" horiz-adv-x="1044" 
d="M991 -246h-143v246h-74l-461 463v-463h-170v1073h170v-434l435 434h196l-514 -512l430 -430h131v-377z" />
    <glyph glyph-name="uni049C" unicode="&#x49c;" horiz-adv-x="1366" 
d="M1360 0h-238l-528 455v-129h-143v254l-99 84v-664h-190v1493h190v-645l99 86v280h143v-157l502 436h245l-747 -643v-168z" />
    <glyph glyph-name="uni049D" unicode="&#x49d;" horiz-adv-x="1024" 
d="M1028 0h-211l-285 238v-86h-143v206l-100 84v-442h-170v1073h170v-455l100 101v219h143v-76l211 211h220l-431 -411v-232z" />
    <glyph glyph-name="uni049E" unicode="&#x49e;" horiz-adv-x="1366" 
d="M1348 0h-226l-770 664v-664h-190v1133h-174v143h174v217h190v-217h197v-143h-197v-285l744 645h245l-843 -725z" />
    <glyph glyph-name="uni049F" unicode="&#x49f;" horiz-adv-x="1024" 
d="M1028 0h-211l-528 442v-442h-170v836h-123v143h123v94h170v-94h145v-143h-145v-218l454 455h220l-557 -532z" />
    <glyph glyph-name="uni04A0" unicode="&#x4a0;" horiz-adv-x="1843" 
d="M1825 0h-226l-770 664v-664h-190v1325h-473v168h663v-645l744 645h246l-844 -725z" />
    <glyph glyph-name="uni04A1" unicode="&#x4a1;" horiz-adv-x="1398" 
d="M1403 0h-211l-528 442v-442h-170v918h-377v155h547v-455l454 455h219l-557 -532z" />
    <glyph glyph-name="uni04A2" unicode="&#x4a2;" horiz-adv-x="1478" 
d="M1456 -276h-164v276h-166v680h-764v-680h-192v1493h190v-645h766v645h193v-1341h137v-428z" />
    <glyph glyph-name="uni04A3" unicode="&#x4a3;" 
d="M1122 -246h-143v246h-152v477h-512v-477h-172v1073h172v-440h512v440h172v-942h123v-377z" />
    <glyph glyph-name="uni04A4" unicode="&#x4a4;" horiz-adv-x="2048" 
d="M1982 1325h-663v-1325h-193v680h-764v-680h-192v1493h190v-645h766v645h856v-168z" />
    <glyph glyph-name="uni04A5" unicode="&#x4a5;" horiz-adv-x="1564" 
d="M1432 918h-433v-918h-172v477h-512v-477h-172v1073h172v-440h512v440h605v-155z" />
    <glyph glyph-name="uni04A6" unicode="&#x4a6;" horiz-adv-x="2172" 
d="M2050 37q0 -184 -95.5 -288.5t-283.5 -104.5h-106v168h98q89 0 143 48t54 140v604q0 92 -54.5 140.5t-142.5 48.5h-344v-793h-193v1325h-764v-1325h-192v1493h1149v-532h352q188 0 283.5 -105t95.5 -289v-530z" />
    <glyph glyph-name="uni04A7" unicode="&#x4a7;" horiz-adv-x="1691" 
d="M1556 0q0 -135 -90.5 -214t-246.5 -79h-54v150q87 0 152 49q69 49 69 162v288q0 116 -36 163.5t-123 47.5q-125 0 -177.5 -93t-52.5 -269v-205h-172v918h-510v-918h-172v1073h854v-534q33 98 99.5 138t183.5 40q150 0 213 -75t63 -218v-424z" />
    <glyph glyph-name="uni04A8" unicode="&#x4a8;" horiz-adv-x="1478" 
d="M1386 545q-67 -592 -614 -592q-289 0 -457 174q-106 109 -161.5 263t-55.5 339q0 181 54 336.5t155 265.5q169 187 473 187q246 0 389 -121t187 -367h-195q-17 83 -42 135t-66 90q-46 43 -125.5 69t-169.5 26q-217 0 -343 -166t-126 -453q0 -280 131 -445t354 -165
q120 0 211 50t137 142q45 86 68 232h196z" />
    <glyph glyph-name="uni04A9" unicode="&#x4a9;" horiz-adv-x="1024" 
d="M977 369q-15 -197 -130.5 -306.5t-307.5 -109.5q-218 0 -347 153t-129 412q0 267 130.5 426.5t347.5 159.5q112 0 204 -42t148 -118q61 -88 72 -231h-172q-15 112 -81 172.5t-173 60.5q-139 0 -218 -113.5t-79 -314.5q0 -191 80 -299t221 -108q219 0 262 258h172z" />
    <glyph glyph-name="uni04AA" unicode="&#x4aa;" horiz-adv-x="1478" 
d="M1386 545q-64 -553 -542 -590q108 -73 108 -182q0 -117 -129 -166q-76 -27 -141 -27q-53 0 -156 21v92q56 -21 129 -21q72 0 110 28.5t38 82.5q0 53 -26.5 91.5t-94.5 82.5q-224 21 -367 170q-106 109 -161.5 263t-55.5 339q0 181 54 336.5t155 265.5q169 187 473 187
q246 0 389 -121t187 -367h-195q-17 83 -42 135t-66 90q-46 43 -125.5 69t-169.5 26q-217 0 -343 -166t-126 -453q0 -280 131 -445t354 -165q120 0 211 50t137 142q45 86 68 232h196z" />
    <glyph glyph-name="uni04AB" unicode="&#x4ab;" horiz-adv-x="1024" 
d="M977 369q-13 -176 -108 -283t-255 -129q113 -74 113 -184q0 -117 -129 -166q-76 -27 -141 -27q-53 0 -156 21v92q55 -21 129 -21q72 0 110 28.5t38 82.5q0 55 -27 93.5t-98 82.5q-181 31 -285.5 179t-104.5 380q0 267 130.5 426.5t347.5 159.5q112 0 204 -42t148 -118
q61 -88 72 -231h-172q-15 112 -81 172.5t-173 60.5q-139 0 -218 -113.5t-79 -314.5q0 -191 80 -299t221 -108q219 0 262 258h172z" />
    <glyph glyph-name="uni04AC" unicode="&#x4ac;" horiz-adv-x="1251" 
d="M1214 1325h-489v-1173h137v-428h-164v276h-163v1325h-492v168h1171v-168z" />
    <glyph glyph-name="uni04AD" unicode="&#x4ad;" horiz-adv-x="1015" 
d="M885 918h-295v-787h123v-377h-144v246h-151v918h-295v155h762v-155z" />
    <glyph glyph-name="uni04AE" unicode="&#x4ae;" horiz-adv-x="1366" 
d="M1354 1493l-561 -907v-586h-191v586l-575 907h235l438 -727l426 727h228z" />
    <glyph glyph-name="uni04AF" unicode="&#x4af;" horiz-adv-x="1366" 
d="M1272 1073l-479 -897v-586h-191v586l-493 897h235l356 -717l344 717h228z" />
    <glyph glyph-name="uni04B0" unicode="&#x4b0;" horiz-adv-x="1366" 
d="M1354 1493l-561 -907v-54h450v-143h-450v-389h-191v389h-450v143h450v54l-575 907h235l438 -727l426 727h228z" />
    <glyph glyph-name="uni04B1" unicode="&#x4b1;" horiz-adv-x="1366" 
d="M1272 1073l-479 -897h450v-143h-450v-443h-191v443h-450v143h450l-493 897h235l356 -717l344 717h228z" />
    <glyph glyph-name="uni04B2" unicode="&#x4b2;" horiz-adv-x="1366" 
d="M1329 -276h-164v276h-71l-408 623l-410 -623h-231l528 766l-495 727h231l383 -586l385 586h228l-504 -727l424 -614h104v-428z" />
    <glyph glyph-name="uni04B3" unicode="&#x4b3;" horiz-adv-x="1024" 
d="M969 -246h-144v246h-55l-268 412l-273 -412h-194l379 547l-359 526h195l258 -389l258 389h192l-360 -518l283 -424h88v-377z" />
    <glyph glyph-name="uni04B4" unicode="&#x4b4;" horiz-adv-x="1929" 
d="M1851 -276h-163v276h-1174v1325h-471v168h1128v-168h-464v-1157h763v1325h193v-1341h188v-428z" />
    <glyph glyph-name="uni04B5" unicode="&#x4b5;" horiz-adv-x="1499" 
d="M1417 -246h-143v246h-877v918h-274v155h721v-155h-275v-762h510v917h172v-942h166v-377z" />
    <glyph glyph-name="uni04B6" unicode="&#x4b6;" horiz-adv-x="1327" 
d="M1303 -276h-164v276h-164v532h-434q-188 0 -283.5 105t-95.5 289v567h190v-604q0 -92 54.5 -140.5t142.5 -48.5h426v793h190v-1341h138v-428z" />
    <glyph glyph-name="uni04B7" unicode="&#x4b7;" horiz-adv-x="1064" 
d="M1047 -246h-144v246h-153v391h-289q-133 0 -225.5 77.5t-92.5 215.5v389h172v-383q0 -72 37.5 -107.5t102.5 -35.5h295v526h172v-942h125v-377z" />
    <glyph glyph-name="uni04B8" unicode="&#x4b8;" horiz-adv-x="1327" 
d="M1165 0h-190v532h-227v-256h-144v256h-63q-188 0 -283.5 105t-95.5 289v567h190v-604q0 -92 54.5 -140.5t142.5 -48.5h55v281h144v-281h227v793h190v-1493z" />
    <glyph glyph-name="uni04B9" unicode="&#x4b9;" horiz-adv-x="1064" 
d="M922 0h-172v391h-136v-190h-143v190h-10q-133 0 -225.5 77.5t-92.5 215.5v389h172v-383q0 -72 37.5 -107.5t102.5 -35.5h16v211h143v-211h136v526h172v-1073z" />
    <glyph glyph-name="uni04BA" unicode="&#x4ba;" horiz-adv-x="1327" 
d="M1165 0h-190v604q0 92 -54.5 140.5t-142.5 48.5h-426v-793h-190v1493h190v-532h434q188 0 283.5 -105t95.5 -289v-567z" />
    <glyph glyph-name="uni04BB" unicode="&#x4bb;" horiz-adv-x="1064" 
d="M922 0h-172v383q0 72 -37.5 107.5t-102.5 35.5h-295v-526h-172v1073h172v-391h289q133 0 225.5 -77.5t92.5 -215.5v-389z" />
    <glyph glyph-name="uni04BC" unicode="&#x4bc;" horiz-adv-x="1898" 
d="M1585 954q-23 160 -45 203q-46 92 -137 142.5t-211 50.5q-175 0 -295.5 -105t-165.5 -291h854zM1806 786h-2h-196h-899q-2 -16 -2 -47q0 -287 126 -452.5t343 -165.5q90 0 169 25.5t125 68.5q41 38 66.5 90t42.5 135h195q-44 -246 -187 -366.5t-389 -120.5
q-305 0 -473 186q-101 110 -155 265.5t-54 336.5v45q-107 2 -190 38t-132 95t-73.5 130t-24.5 151q0 159 79 254.5t208 95.5q67 0 123 -25t88 -69q38 -56 43 -139h-102q-9 67 -48 103t-104 36q-84 0 -131 -68t-47 -188q0 -116 47.5 -181t132.5 -65h152q48 238 196 389
q169 175 457 175q611 0 614 -723z" />
    <glyph glyph-name="uni04BD" unicode="&#x4bd;" horiz-adv-x="1466" 
d="M1196 631q0 132 -85.5 223.5t-211.5 91.5q-129 0 -213 -89.5t-94 -238.5h602zM1378 479h-790q2 -81 14.5 -132.5t42.5 -96.5q43 -67 109.5 -103t148.5 -36q209 0 281 215h172q-32 -175 -153.5 -274t-305.5 -99q-217 0 -346 140t-141 386q-84 1 -148.5 29t-101.5 73
t-55.5 96t-18.5 105q0 107 52 170.5t138 63.5q94 0 142 -64q22 -32 28 -92h-69q-6 45 -32.5 69.5t-68.5 24.5q-56 0 -87 -46t-31 -126q0 -77 31.5 -120.5t86.5 -43.5h138q25 224 155 355t332 131q151 0 266 -75.5t168 -207.5q43 -111 43 -342z" />
    <glyph glyph-name="uni04BE" unicode="&#x4be;" horiz-adv-x="1898" 
d="M1585 954q-23 160 -45 203q-46 92 -137 142.5t-211 50.5q-175 0 -295.5 -105t-165.5 -291h854zM1806 786h-2h-196h-899q-2 -16 -2 -47q0 -287 126 -452.5t343 -165.5q90 0 169 25.5t125 68.5q41 38 66.5 90t42.5 135h195q-41 -227 -165.5 -347.5t-336.5 -137.5
q108 -73 108 -182q0 -117 -129 -166q-76 -27 -141 -27q-53 0 -156 21v92q56 -21 129 -21q72 0 110 28.5t38 82.5q0 53 -26.5 91.5t-94.5 82.5q-242 24 -385 182q-101 110 -155 265.5t-54 336.5v45q-107 2 -190 38t-132 95t-73.5 130t-24.5 151q0 159 79 254.5t208 95.5
q67 0 123 -25t88 -69q38 -56 43 -139h-102q-9 67 -48 103t-104 36q-84 0 -131 -68t-47 -188q0 -116 47.5 -181t132.5 -65h152q48 238 196 389q169 175 457 175q611 0 614 -723z" />
    <glyph glyph-name="uni04BF" unicode="&#x4bf;" horiz-adv-x="1466" 
d="M1196 631q0 132 -85.5 223.5t-211.5 91.5q-129 0 -213 -89.5t-94 -238.5h602zM1378 479h-790q2 -81 14.5 -132.5t42.5 -96.5q43 -67 109.5 -103t148.5 -36q209 0 281 215h172q-29 -158 -131.5 -255t-259.5 -114q110 -72 110 -184q0 -117 -129 -166q-76 -27 -141 -27
q-53 0 -156 21v92q55 -21 129 -21q72 0 110 28.5t38 82.5t-27.5 93.5t-99.5 84.5q-174 31 -276.5 166.5t-112.5 351.5q-84 1 -148.5 29t-101.5 73t-55.5 96t-18.5 105q0 107 52 170.5t138 63.5q94 0 142 -64q22 -32 28 -92h-69q-6 45 -32.5 69.5t-68.5 24.5q-56 0 -87 -46
t-31 -126q0 -77 31.5 -120.5t86.5 -43.5h138q25 224 155 355t332 131q151 0 266 -75.5t168 -207.5q43 -111 43 -342z" />
    <glyph glyph-name="uni04C0" unicode="&#x4c0;" horiz-adv-x="569" 
d="M397 0h-192v1493h192v-1493z" />
    <glyph glyph-name="uni04C1" unicode="&#x4c1;" horiz-adv-x="2095" 
d="M1942 0h-226l-586 664v-664h-190v664l-586 -664h-225l666 768l-588 725h246l487 -631v631h190v-631l488 631h246l-588 -725zM1343 1851q-10 -136 -89 -206t-222 -70q-177 0 -262 117q-22 32 -32 66t-11 93h121q15 -135 188 -135q83 0 132 35.5t55 99.5h120z" />
    <glyph glyph-name="uni04C2" unicode="&#x4c2;" horiz-adv-x="1714" 
d="M1677 0h-211l-528 442v-442h-170v442l-528 -442h-211l622 541l-557 532h219l455 -455v455h170v-455l455 455h219l-557 -532zM1161 1432q-10 -136 -89 -206.5t-222 -70.5q-177 0 -262 117q-22 31 -32 66t-11 94h121q15 -136 188 -136q83 0 131.5 35.5t54.5 100.5h121z" />
    <glyph glyph-name="uni04C3" unicode="&#x4c3;" horiz-adv-x="1366" 
d="M1341 1493l-843 -725h374q188 0 283.5 -104.5t95.5 -288.5v-338q0 -184 -95.5 -288.5t-283.5 -104.5h-106v168h98q89 0 143 48t54 140v412q0 92 -54 140t-143 48h-512v-600h-190v1493h190v-645l744 645h245z" />
    <glyph glyph-name="uni04C4" unicode="&#x4c4;" horiz-adv-x="1024" 
d="M963 1073l-557 -532l157 2q157 0 247.5 -79t90.5 -214v-250q0 -135 -90.5 -214t-247.5 -79h-53v150q87 0 152 49q69 49 69 162v114q0 113 -69 162q-65 49 -152 49h-221v-393h-170v1073h170v-455l454 455h220z" />
    <glyph glyph-name="uni04C7" unicode="&#x4c7;" horiz-adv-x="1478" 
d="M1319 37q0 -184 -96 -288.5t-285 -104.5h-107v168h99q88 0 142 48t54 140v680h-764v-680h-192v1493h190v-645h766v645h193v-1456z" />
    <glyph glyph-name="uni04C8" unicode="&#x4c8;" 
d="M999 0q0 -135 -90.5 -214t-246.5 -79h-54v150q87 0 152 49q67 48 67 162v409h-512v-477h-172v1073h172v-440h512v440h172v-1073z" />
    <glyph glyph-name="uni04CB" unicode="&#x4cb;" horiz-adv-x="1327" 
d="M1165 0h-164v-276h-163v428h137v380h-434q-188 0 -283.5 105t-95.5 289v567h190v-604q0 -92 54.5 -140.5t142.5 -48.5h426v793h190v-1493z" />
    <glyph glyph-name="uni04CC" unicode="&#x4cc;" horiz-adv-x="1064" 
d="M922 0h-154v-246h-143v377h125v260h-289q-133 0 -225.5 77.5t-92.5 215.5v389h172v-383q0 -72 37.5 -107.5t102.5 -35.5h295v526h172v-1073z" />
    <glyph glyph-name="uni04D0" unicode="&#x4d0;" horiz-adv-x="1366" 
d="M995 1851q-10 -136 -89 -206t-222 -70q-177 0 -262 117q-22 32 -32 66t-11 93h121q15 -135 188 -135q83 0 131.5 35t54.5 100h121zM1337 0h-213l-153 449h-576l-157 -449h-203l532 1493h246zM918 608l-230 680l-246 -680h476z" />
    <glyph glyph-name="uni04D1" unicode="&#x4d1;" 
d="M858 1432q-10 -136 -89 -206.5t-222 -70.5q-177 0 -262 117q-22 31 -32 66t-11 94h120q15 -136 189 -136q83 0 131.5 35.5t54.5 100.5h121zM1096 -29q-71 -18 -117 -18q-83 0 -125 38t-51 120q-91 -83 -177.5 -120.5t-187.5 -37.5q-163 0 -257.5 85.5t-94.5 231.5
q0 210 188 287q51 21 108.5 32t235.5 34q101 12 140 38t39 80v45q0 77 -62.5 118.5t-177.5 41.5q-120 0 -180.5 -46t-71.5 -144h-172q3 79 20 130.5t54 92.5q54 60 146.5 92.5t209.5 32.5q198 0 301 -75t103 -218v-631q0 -40 24 -62t68 -22q19 0 37 4v-129zM797 338v192
q-42 -20 -89 -30t-186 -29q-137 -20 -197.5 -66t-60.5 -131q0 -82 55.5 -127t155.5 -45q146 0 254 97q38 35 53 65.5t15 73.5z" />
    <glyph glyph-name="uni04D2" unicode="&#x4d2;" horiz-adv-x="1366" 
d="M627 1575h-213v211h213v-211zM958 1575h-213v211h213v-211zM1337 0h-213l-153 449h-576l-157 -449h-203l532 1493h246zM918 608l-230 680l-246 -680h476z" />
    <glyph glyph-name="uni04D3" unicode="&#x4d3;" 
d="M492 1155h-213v211h213v-211zM823 1155h-213v211h213v-211zM1096 -29q-71 -18 -117 -18q-83 0 -125 38t-51 120q-91 -83 -177.5 -120.5t-187.5 -37.5q-163 0 -257.5 85.5t-94.5 231.5q0 210 188 287q51 21 108.5 32t235.5 34q101 12 140 38t39 80v45q0 77 -62.5 118.5
t-177.5 41.5q-120 0 -180.5 -46t-71.5 -144h-172q3 79 20 130.5t54 92.5q54 60 146.5 92.5t209.5 32.5q198 0 301 -75t103 -218v-631q0 -40 24 -62t68 -22q19 0 37 4v-129zM797 338v192q-42 -20 -89 -30t-186 -29q-137 -20 -197.5 -66t-60.5 -131q0 -82 55.5 -127t155.5 -45
q146 0 254 97q38 35 53 65.5t15 73.5z" />
    <glyph glyph-name="uni04D4" unicode="&#x4d4;" horiz-adv-x="2048" 
d="M1946 0h-988v438h-550l-175 -438h-210l612 1493h1274v-168h-760v-477h721v-168h-721v-512h797v-168zM958 606v719h-204l-283 -719h487z" />
    <glyph glyph-name="uni04D5" unicode="&#x4d5;" horiz-adv-x="1820" 
d="M1731 479h-791q2 -81 14.5 -132.5t42.5 -96.5q43 -67 109.5 -103t148.5 -36q208 0 283 215h172q-32 -175 -153.5 -274t-303.5 -99q-118 0 -214 45t-150 125l-33 55q-115 -120 -218.5 -172.5t-223.5 -52.5q-157 0 -250.5 86t-93.5 231q0 208 190 287q101 44 342 64
q104 9 141 34.5t37 85.5v45q0 78 -61.5 119t-179.5 41q-119 0 -179.5 -46t-70.5 -144h-172q3 80 19.5 131t53.5 92q54 60 146.5 92.5t206.5 32.5q263 0 358 -168q56 78 150 123t204 45q149 0 264.5 -76t168.5 -207q43 -111 43 -342zM780 322v206q-42 -19 -89 -28.5
t-185 -30.5q-138 -20 -198 -65t-60 -130q0 -80 55 -126t150 -46q123 0 227 78q46 35 73 74t27 68zM1546 618q0 146 -82 237t-213 91q-129 0 -213 -89.5t-94 -238.5h602z" />
    <glyph glyph-name="uni04D6" unicode="&#x4d6;" horiz-adv-x="1366" 
d="M1010 1851q-10 -136 -89.5 -206t-222.5 -70q-177 0 -262 117q-22 32 -32 66t-11 93h121q15 -135 188 -135q83 0 132 35.5t55 99.5h121zM1255 0h-1071v1493h1035v-168h-844v-477h813v-168h-813v-512h880v-168z" />
    <glyph glyph-name="uni04D7" unicode="&#x4d7;" 
d="M965 1432q-10 -136 -89.5 -206.5t-222.5 -70.5q-177 0 -262 117q-22 31 -32 66t-11 94h121q15 -136 188 -136q83 0 132 35.5t55 100.5h121zM1051 479h-791q2 -81 14.5 -132.5t42.5 -96.5q43 -67 109.5 -103t148.5 -36q209 0 281 215h172q-32 -175 -153.5 -274t-305.5 -99
q-226 0 -356.5 152.5t-130.5 416.5t133.5 423t357.5 159q151 0 266.5 -75.5t168.5 -207.5q43 -111 43 -342zM868 631q0 132 -85.5 223.5t-211.5 91.5q-129 0 -213 -89.5t-94 -238.5h602z" />
    <glyph glyph-name="uni04D8" unicode="&#x4d8;" horiz-adv-x="1478" 
d="M1171 516h-854q23 -160 45 -203q46 -92 137.5 -142t211.5 -50q175 0 295 104.5t165 290.5zM1386 729q0 -185 -55.5 -339t-161.5 -263q-168 -174 -456 -174q-612 0 -615 723l-2 8h2h197h899q2 16 2 47q0 287 -126 453t-343 166q-90 0 -169.5 -26t-125.5 -69
q-41 -38 -66 -90t-42 -135h-195q44 246 187 367t389 121q304 0 473 -187q101 -110 154.5 -265t53.5 -337z" />
    <glyph glyph-name="afii10846" unicode="&#x4d9;" 
d="M1051 535q0 -264 -134 -423t-358 -159q-151 0 -266 75.5t-168 207.5q-43 111 -43 342h790q-2 81 -14.5 132.5t-42.5 96.5q-43 67 -109.5 103t-148.5 36q-209 0 -281 -215h-172q32 175 153.5 274t305.5 99q226 0 357 -152.5t131 -416.5zM868 438h-602l-2 -12
q0 -132 85.5 -223.5t211.5 -91.5q129 0 213 89t94 238z" />
    <glyph glyph-name="uni04DA" unicode="&#x4da;" horiz-adv-x="1478" 
d="M645 1640h-213v211h213v-211zM977 1640h-213v211h213v-211zM1171 516h-854q23 -160 45 -203q46 -92 137.5 -142t211.5 -50q175 0 295 104.5t165 290.5zM1386 729q0 -185 -55.5 -339t-161.5 -263q-168 -174 -456 -174q-612 0 -615 723l-2 8h2h197h899q2 16 2 47
q0 287 -126 453t-343 166q-90 0 -169.5 -26t-125.5 -69q-41 -38 -66 -90t-42 -135h-195q44 246 187 367t389 121q304 0 473 -187q101 -110 154.5 -265t53.5 -337z" />
    <glyph glyph-name="uni04DB" unicode="&#x4db;" 
d="M504 1227h-213v211h213v-211zM836 1227h-213v211h213v-211zM1051 535q0 -264 -134 -423t-358 -159q-151 0 -266 75.5t-168 207.5q-43 111 -43 342h790q-2 81 -14.5 132.5t-42.5 96.5q-43 67 -109.5 103t-148.5 36q-209 0 -281 -215h-172q32 175 153.5 274t305.5 99
q226 0 357 -152.5t131 -416.5zM868 438h-602l-2 -12q0 -132 85.5 -223.5t211.5 -91.5q129 0 213 89t94 238z" />
    <glyph glyph-name="uni04DC" unicode="&#x4dc;" horiz-adv-x="2095" 
d="M1942 0h-226l-586 664v-664h-190v664l-586 -664h-225l666 768l-588 725h246l487 -631v631h190v-631l488 631h246l-588 -725zM977 1575h-213v211h213v-211zM1309 1575h-213v211h213v-211z" />
    <glyph glyph-name="uni04DD" unicode="&#x4dd;" horiz-adv-x="1714" 
d="M1677 0h-211l-528 442v-442h-170v442l-528 -442h-211l622 541l-557 532h219l455 -455v455h170v-455l455 455h219l-557 -532zM793 1155h-213v211h213v-211zM1124 1155h-213v211h213v-211z" />
    <glyph glyph-name="uni04DE" unicode="&#x4de;" horiz-adv-x="1366" 
d="M1272 410q0 -97 -44.5 -189.5t-119.5 -152.5q-149 -115 -420 -115q-346 0 -502 213q-45 62 -66 134.5t-22 174.5h181q-3 -133 77 -229q105 -125 344 -125q184 0 275 63q48 34 77 90.5t29 116.5q0 95 -97.5 180.5t-235.5 85.5h-222v168h181q65 0 126.5 27.5t103.5 69.5
t67.5 91.5t25.5 92.5q0 114 -91.5 183t-242.5 69q-178 0 -274 -78.5t-98 -224.5h-181q1 220 145 341.5t402 121.5q246 0 388.5 -118t142.5 -321q0 -222 -215 -313q128 -47 197 -139t69 -217zM616 1575h-213v211h213v-211zM948 1575h-213v211h213v-211z" />
    <glyph glyph-name="uni04DF" unicode="&#x4df;" horiz-adv-x="1024" 
d="M940 293q0 -155 -120 -247.5t-322 -92.5q-211 0 -316.5 90t-111.5 276h180q7 -56 17.5 -84.5t31.5 -52.5q68 -71 213 -71q111 0 176.5 46t65.5 122q0 63 -60.5 118.5t-148.5 55.5h-152v155h127q98 0 148.5 54.5t50.5 121.5q0 74 -61.5 118t-165.5 44q-103 0 -158 -43.5
t-58 -128.5h-180q2 158 102.5 244t286.5 86q187 0 299.5 -89.5t112.5 -238.5q0 -82 -31 -135.5t-102 -93.5q91 -40 133.5 -101t42.5 -153zM438 1155h-213v211h213v-211zM770 1155h-213v211h213v-211z" />
    <glyph glyph-name="uni04E0" unicode="&#x4e0;" horiz-adv-x="1366" 
d="M1272 410q0 -97 -44.5 -189.5t-119.5 -152.5q-149 -115 -420 -115q-346 0 -502 213q-45 62 -66 134.5t-22 174.5h181q-3 -133 77 -229q105 -125 344 -125q184 0 275 63q48 34 77 90.5t29 116.5q0 95 -97.5 180.5t-235.5 85.5h-222v168h181q65 0 126.5 27.5t103.5 69.5
t67.5 91.5t25.5 92.5q0 114 -91.5 183t-242.5 69q-178 0 -274 -78.5t-98 -224.5h-181q1 220 145 341.5t402 121.5q246 0 388.5 -118t142.5 -321q0 -222 -215 -313q128 -47 197 -139t69 -217z" />
    <glyph glyph-name="uni04E1" unicode="&#x4e1;" horiz-adv-x="1024" 
d="M940 293q0 -155 -120 -247.5t-322 -92.5q-211 0 -316.5 90t-111.5 276h180q7 -56 17.5 -84.5t31.5 -52.5q68 -71 213 -71q111 0 176.5 46t65.5 122q0 63 -60.5 118.5t-148.5 55.5h-152v155h127q98 0 148.5 54.5t50.5 121.5q0 74 -61.5 118t-165.5 44q-103 0 -158 -43.5
t-58 -128.5h-180q2 158 102.5 244t286.5 86q187 0 299.5 -89.5t112.5 -238.5q0 -82 -31 -135.5t-102 -93.5q91 -40 133.5 -101t42.5 -153z" />
    <glyph glyph-name="uni04E2" unicode="&#x4e2;" horiz-adv-x="1478" 
d="M1323 0h-180v1210l-772 -1210h-215v1493h180v-1221l780 1221h207v-1493zM1020 1575h-561v143h561v-143z" />
    <glyph glyph-name="uni04E3" unicode="&#x4e3;" 
d="M997 0h-170v846l-481 -846h-203v1073h172v-846l482 846h200v-1073zM852 1155h-561v143h561v-143z" />
    <glyph glyph-name="uni04E4" unicode="&#x4e4;" horiz-adv-x="1478" 
d="M1323 0h-180v1210l-772 -1210h-215v1493h180v-1221l780 1221h207v-1493zM680 1575h-213v211h213v-211zM1012 1575h-213v211h213v-211z" />
    <glyph glyph-name="uni04E5" unicode="&#x4e5;" 
d="M997 0h-170v846l-481 -846h-203v1073h172v-846l482 846h200v-1073zM512 1155h-213v211h213v-211zM844 1155h-213v211h213v-211z" />
    <glyph glyph-name="uni04E6" unicode="&#x4e6;" horiz-adv-x="1593" 
d="M739 1575h-213v211h213v-211zM1071 1575h-213v211h213v-211zM1520 723q0 -184 -68.5 -347t-189.5 -265q-187 -158 -463 -158q-159 0 -293.5 57t-228.5 158.5t-146.5 247.5t-52.5 319q0 231 90 409t253.5 276t375.5 98q328 0 525.5 -217t197.5 -578zM1329 727
q0 283 -144.5 453t-387.5 170q-237 0 -383 -169.5t-146 -445.5t146.5 -445t384.5 -169q236 0 383 168t147 438z" />
    <glyph glyph-name="uni04E7" unicode="&#x4e7;" 
d="M500 1155h-213v211h213v-211zM831 1155h-213v211h213v-211zM1044 520q0 -264 -129.5 -415.5t-355.5 -151.5q-229 0 -357 152.5t-128 422.5t128.5 423t354.5 153q232 0 359.5 -153t127.5 -431zM866 522q0 200 -81 312t-226 112q-142 0 -224.5 -112t-82.5 -306
q0 -195 82 -306t225 -111q141 0 224 111t83 300z" />
    <glyph glyph-name="uni04E8" unicode="&#x4e8;" horiz-adv-x="1593" 
d="M1520 723q0 -184 -68.5 -347t-189.5 -265q-187 -158 -463 -158q-159 0 -293.5 57t-228.5 158.5t-146.5 247.5t-52.5 319q0 231 90 409t253.5 276t375.5 98q328 0 525.5 -217t197.5 -578zM1327 788q-15 257 -158.5 409.5t-371.5 152.5q-224 0 -368.5 -154t-158.5 -408
h1057zM1325 645h-1053q25 -239 167.5 -381.5t359.5 -142.5t360 143.5t166 380.5z" />
    <glyph glyph-name="uni04E9" unicode="&#x4e9;" 
d="M1044 520q0 -264 -129.5 -415.5t-355.5 -151.5q-229 0 -357 152.5t-128 422.5t128.5 423t354.5 153q232 0 359.5 -153t127.5 -431zM864 594q-15 167 -95 259.5t-210 92.5t-210.5 -93.5t-94.5 -258.5h610zM862 451h-606q15 -160 95.5 -250t207.5 -90t207.5 90.5
t95.5 249.5z" />
    <glyph glyph-name="uni04EA" unicode="&#x4ea;" horiz-adv-x="1593" 
d="M1520 723q0 -184 -68.5 -347t-189.5 -265q-187 -158 -463 -158q-159 0 -293.5 57t-228.5 158.5t-146.5 247.5t-52.5 319q0 231 90 409t253.5 276t375.5 98q328 0 525.5 -217t197.5 -578zM1327 788q-15 257 -158.5 409.5t-371.5 152.5q-224 0 -368.5 -154t-158.5 -408
h1057zM1325 645h-1053q25 -239 167.5 -381.5t359.5 -142.5t360 143.5t166 380.5zM739 1575h-213v211h213v-211zM1071 1575h-213v211h213v-211z" />
    <glyph glyph-name="uni04EB" unicode="&#x4eb;" 
d="M1044 520q0 -264 -129.5 -415.5t-355.5 -151.5q-229 0 -357 152.5t-128 422.5t128.5 423t354.5 153q232 0 359.5 -153t127.5 -431zM864 594q-15 167 -95 259.5t-210 92.5t-210.5 -93.5t-94.5 -258.5h610zM862 451h-606q15 -160 95.5 -250t207.5 -90t207.5 90.5
t95.5 249.5zM500 1155h-213v211h213v-211zM831 1155h-213v211h213v-211z" />
    <glyph glyph-name="uni04EC" unicode="&#x4ec;" horiz-adv-x="1478" 
d="M1386 729q0 -185 -55.5 -339t-161.5 -263q-168 -174 -456 -174q-548 0 -615 592h197q23 -149 67 -232q46 -92 137.5 -142t211.5 -50q212 0 341.5 150t143.5 409h-752v168h746q-25 235 -147.5 368.5t-315.5 133.5q-90 0 -169.5 -26t-125.5 -69q-41 -38 -66 -90t-42 -135
h-195q44 246 187 367t389 121q304 0 473 -187q101 -110 154.5 -265t53.5 -337zM795 1575h-213v211h213v-211zM1126 1575h-213v211h213v-211z" />
    <glyph glyph-name="uni04ED" unicode="&#x4ed;" horiz-adv-x="1024" 
d="M977 518q0 -260 -128.5 -412.5t-346.5 -152.5q-192 0 -308 110t-131 306h173q44 -258 262 -258q133 0 212.5 96t88.5 268h-465v158h459q-22 150 -97.5 231.5t-193.5 81.5q-107 0 -173 -60.5t-81 -172.5h-172q11 145 71 231q56 75 148.5 117.5t204.5 42.5
q217 0 347 -159.5t130 -426.5zM375 1155h-213v211h213v-211zM707 1155h-213v211h213v-211z" />
    <glyph glyph-name="uni04EE" unicode="&#x4ee;" horiz-adv-x="1331" 
d="M1268 1493l-752 -1493h-231l264 500l-496 993h232l379 -776l376 776h228zM942 1575h-561v143h561v-143z" />
    <glyph glyph-name="uni04EF" unicode="&#x4ef;" horiz-adv-x="1024" 
d="M791 1155h-562v143h562v-143zM979 1073l-477 -1298q-25 -64 -51 -102.5t-66 -67.5q-70 -51 -160 -51q-63 0 -114 26v154q60 -13 90 -13q54 0 85.5 24t51.5 81l65 170l-362 1077h182l275 -835l297 835h184z" />
    <glyph glyph-name="uni04F0" unicode="&#x4f0;" horiz-adv-x="1331" 
d="M1268 1493l-752 -1493h-231l264 500l-496 993h232l379 -776l376 776h228zM602 1575h-213v211h213v-211zM934 1575h-213v211h213v-211z" />
    <glyph glyph-name="uni04F1" unicode="&#x4f1;" horiz-adv-x="1024" 
d="M451 1155h-213v211h213v-211zM782 1155h-213v211h213v-211zM979 1073l-477 -1298q-25 -64 -51 -102.5t-66 -67.5q-70 -51 -160 -51q-63 0 -114 26v154q60 -13 90 -13q54 0 85.5 24t51.5 81l65 170l-362 1077h182l275 -835l297 835h184z" />
    <glyph glyph-name="uni04F2" unicode="&#x4f2;" horiz-adv-x="1331" 
d="M1268 1493l-752 -1493h-231l264 500l-496 993h232l379 -776l376 776h228zM696 1882l-305 -307h-123l197 307h231zM1053 1882l-305 -307h-123l196 307h232z" />
    <glyph glyph-name="uni04F3" unicode="&#x4f3;" horiz-adv-x="1024" 
d="M547 1462l-305 -307h-123l196 307h232zM903 1462l-305 -307h-123l197 307h231zM979 1073l-477 -1298q-25 -64 -51 -102.5t-66 -67.5q-70 -51 -160 -51q-63 0 -114 26v154q60 -13 90 -13q54 0 85.5 24t51.5 81l65 170l-362 1077h182l275 -835l297 835h184z" />
    <glyph glyph-name="uni04F4" unicode="&#x4f4;" horiz-adv-x="1327" 
d="M604 1640h-213v211h213v-211zM936 1640h-213v211h213v-211zM1165 0h-190v532h-434q-188 0 -283.5 105t-95.5 289v567h190v-604q0 -92 54.5 -140.5t142.5 -48.5h426v793h190v-1493z" />
    <glyph glyph-name="uni04F5" unicode="&#x4f5;" horiz-adv-x="1064" 
d="M473 1227h-213v211h213v-211zM805 1227h-213v211h213v-211zM922 0h-172v391h-289q-133 0 -225.5 77.5t-92.5 215.5v389h172v-383q0 -72 37.5 -107.5t102.5 -35.5h295v526h172v-1073z" />
    <glyph glyph-name="uni04F8" unicode="&#x4f8;" horiz-adv-x="1814" 
d="M1647 0h-193v1493h193v-1493zM1276 426q0 -180 -115 -301q-116 -125 -325 -125h-674v1493h190v-643h369q265 0 397 -108t158 -316zM1085 424q0 114 -69 186q-66 72 -199 72h-465v-514h465q133 0 199 72q69 72 69 184zM844 1575h-213v211h213v-211zM1176 1575h-213v211
h213v-211z" />
    <glyph glyph-name="uni04F9" unicode="&#x4f9;" horiz-adv-x="1531" 
d="M1354 0h-170v1073h170v-1073zM999 307q0 -127 -84 -217t-233 -90h-539v1073h172v-444h242q228 0 335 -79.5t107 -242.5zM813 301q0 37 -1 53t-11.5 40t-32.5 38q-62 41 -141 41h-312v-317h312q94 0 141 53q25 25 35 45t10 47zM688 1155h-213v211h213v-211zM1020 1155
h-213v211h213v-211z" />
    <glyph glyph-name="baht" unicode="&#xe3f;" horiz-adv-x="1366" 
d="M1276 426q0 -187 -120.5 -306.5t-319.5 -119.5h-103v-170h-110v170h-461v1493h461v170h110v-170h35q207 0 324.5 -106t117.5 -273q0 -230 -206 -326q143 -56 207.5 -141.5t64.5 -220.5zM1020 1087q0 115 -69 175t-218 63v-475q149 3 218 62.5t69 174.5zM623 1325h-271
v-475h271v475zM1085 424q0 114 -69 186t-199 72h-84v-514h84q130 0 199 71.5t69 184.5zM623 682h-271v-514h271v514z" />
    <glyph glyph-name="Ddotbelow" unicode="&#x1e0c;" horiz-adv-x="1478" 
d="M1366 748q0 -349 -162.5 -548.5t-445.5 -199.5h-576v1493h576q284 0 446 -198.5t162 -546.5zM1176 745q0 285 -115 432.5t-336 147.5h-352v-1157h352q221 0 336 147t115 430zM831 -375h-213v213h213v-213z" />
    <glyph glyph-name="ddotbelow" unicode="&#x1e0d;" 
d="M1014 0h-152v158q-69 -99 -150 -144t-192 -45q-217 0 -342 153.5t-125 424.5q0 256 125.5 406.5t335.5 150.5q220 0 330 -166v555h170v-1493zM844 532q0 187 -82 299.5t-219 112.5q-141 0 -226.5 -110.5t-85.5 -296.5t86 -297t228 -111q136 0 217.5 109t81.5 294z
M676 -375h-213v213h213v-213z" />
    <glyph glyph-name="Dlinebelow" unicode="&#x1e0e;" horiz-adv-x="1478" 
d="M1366 748q0 -349 -162.5 -548.5t-445.5 -199.5h-576v1493h576q284 0 446 -198.5t162 -546.5zM1176 745q0 285 -115 432.5t-336 147.5h-352v-1157h352q221 0 336 147t115 430zM1004 -340h-562v143h562v-143z" />
    <glyph glyph-name="dlinebelow" unicode="&#x1e0f;" 
d="M1014 0h-152v158q-69 -99 -150 -144t-192 -45q-217 0 -342 153.5t-125 424.5q0 256 125.5 406.5t335.5 150.5q220 0 330 -166v555h170v-1493zM844 532q0 187 -82 299.5t-219 112.5q-141 0 -226.5 -110.5t-85.5 -296.5t86 -297t228 -111q136 0 217.5 109t81.5 294z
M848 -340h-561v143h561v-143z" />
    <glyph glyph-name="Hdotbelow" unicode="&#x1e24;" horiz-adv-x="1478" 
d="M1319 0h-191v680h-768v-680h-190v1493h190v-645h768v645h191v-1493zM846 -375h-213v213h213v-213z" />
    <glyph glyph-name="hdotbelow" unicode="&#x1e25;" 
d="M995 0h-170v743q0 101 -62.5 156t-158.5 55q-132 0 -211.5 -99t-79.5 -263v-592h-170v1493h170v-567q75 98 152.5 138t191.5 40q157 0 247.5 -79t90.5 -214v-811zM676 -375h-213v213h213v-213z" />
    <glyph glyph-name="Hdieresis" unicode="&#x1e26;" horiz-adv-x="1478" 
d="M1319 0h-191v680h-768v-680h-190v1493h190v-645h768v645h191v-1493zM668 1636h-187v209h187v-209zM999 1636h-186v209h186v-209z" />
    <glyph glyph-name="hdieresis" unicode="&#x1e27;" 
d="M995 0h-170v743q0 101 -62.5 156t-158.5 55q-132 0 -211.5 -99t-79.5 -263v-592h-170v1493h170v-567q75 98 152.5 138t191.5 40q157 0 247.5 -79t90.5 -214v-811zM498 1636h-187v209h187v-209zM829 1636h-186v209h186v-209z" />
    <glyph glyph-name="Hbrevebelow" unicode="&#x1e2a;" horiz-adv-x="1478" 
d="M1319 0h-191v680h-768v-680h-190v1493h190v-645h768v645h191v-1493zM1108 -143q-12 -123 -107 -186.5t-266 -63.5q-165 0 -264 61.5t-102 188.5h145q9 -59 62 -81t163 -22q106 0 162 23.5t62 79.5h145z" />
    <glyph glyph-name="hbrevebelow" unicode="&#x1e2b;" 
d="M995 0h-170v743q0 101 -62.5 156t-158.5 55q-132 0 -211.5 -99t-79.5 -263v-592h-170v1493h170v-567q75 98 152.5 138t191.5 40q157 0 247.5 -79t90.5 -214v-811zM938 -143q-12 -123 -107 -186.5t-266 -63.5q-165 0 -264 61.5t-102 188.5h145q9 -59 62 -81t163 -22
q106 0 162 23.5t62 79.5h145z" />
    <glyph glyph-name="Ldotbelow" unicode="&#x1e36;" 
d="M1092 0h-928v1493h190v-1325h738v-168zM735 -375h-213v213h213v-213z" />
    <glyph glyph-name="ldotbelow" unicode="&#x1e37;" horiz-adv-x="454" 
d="M309 0h-170v1493h170v-1493zM334 -375h-213v213h213v-213z" />
    <glyph glyph-name="Ldotbelowmacron" unicode="&#x1e38;" 
d="M1092 0h-928v1493h190v-1325h738v-168zM735 -375h-213v213h213v-213zM537 1669h-562v143h562v-143z" />
    <glyph glyph-name="ldotbelowmacron" unicode="&#x1e39;" horiz-adv-x="454" 
d="M309 0h-170v1493h170v-1493zM334 -375h-213v213h213v-213zM502 1669h-561v143h561v-143z" />
    <glyph glyph-name="Mdotbelow" unicode="&#x1e42;" horiz-adv-x="1705" 
d="M1559 0h-181v1251l-420 -1251h-200l-424 1251v-1251h-180v1493h264l442 -1300l434 1300h265v-1493zM961 -375h-213v213h213v-213z" />
    <glyph glyph-name="mdotbelow" unicode="&#x1e43;" horiz-adv-x="1705" 
d="M1556 0h-170v739q0 102 -51.5 158.5t-144.5 56.5q-105 0 -179.5 -81.5t-74.5 -198.5v-674h-170v739q0 103 -52 159t-147 56q-104 0 -178 -81.5t-74 -198.5v-674h-170v1073h156v-151q69 97 146 139.5t184 42.5q104 0 173 -39t116 -125q75 91 148.5 127.5t180.5 36.5
q150 0 228.5 -77t78.5 -222v-805zM961 -375h-213v213h213v-213z" />
    <glyph glyph-name="Ndotaccent" unicode="&#x1e44;" horiz-adv-x="1478" 
d="M1323 0h-215l-772 1210v-1210h-180v1493h206l781 -1221v1221h180v-1493zM848 1634h-213v213h213v-213z" />
    <glyph glyph-name="ndotaccent" unicode="&#x1e45;" 
d="M997 0h-170v743q0 97 -60 154t-161 57q-131 0 -212 -99t-81 -263v-592h-170v1073h158v-180q71 113 153.5 162t202.5 49q155 0 247.5 -79.5t92.5 -213.5v-811zM676 1235h-213v213h213v-213z" />
    <glyph glyph-name="Ndotbelow" unicode="&#x1e46;" horiz-adv-x="1478" 
d="M1323 0h-215l-772 1210v-1210h-180v1493h206l781 -1221v1221h180v-1493zM846 -375h-213v213h213v-213z" />
    <glyph glyph-name="ndotbelow" unicode="&#x1e47;" 
d="M997 0h-170v743q0 97 -60 154t-161 57q-131 0 -212 -99t-81 -263v-592h-170v1073h158v-180q71 113 153.5 162t202.5 49q155 0 247.5 -79.5t92.5 -213.5v-811zM676 -375h-213v213h213v-213z" />
    <glyph glyph-name="Rdotaccent" unicode="&#x1e58;" horiz-adv-x="1478" 
d="M1391 0h-232q-46 104 -43 244l2 133q1 137 -59 201.5t-187 64.5h-491v-643h-191v1493h689q220 0 337 -103t117 -296q0 -128 -55 -212t-180 -145q121 -52 160 -128t42 -261q1 -149 19 -206.5t72 -94.5v-47zM1135 1067q0 130 -68.5 194t-224.5 64h-461v-514h461
q152 0 222.5 62t70.5 194zM848 1634h-213v213h213v-213z" />
    <glyph glyph-name="rdotaccent" unicode="&#x1e59;" horiz-adv-x="681" 
d="M657 924q-192 -3 -268 -90.5t-76 -276.5v-557h-170v1073h156v-194q74 120 142 172.5t151 52.5q22 0 65 -6v-174zM420 1235h-213v213h213v-213z" />
    <glyph glyph-name="Rdotbelow" unicode="&#x1e5a;" horiz-adv-x="1478" 
d="M1391 0h-232q-46 104 -43 244l2 133q1 137 -59 201.5t-187 64.5h-491v-643h-191v1493h689q220 0 337 -103t117 -296q0 -128 -55 -212t-180 -145q121 -52 160 -128t42 -261q1 -149 19 -206.5t72 -94.5v-47zM1135 1067q0 130 -68.5 194t-224.5 64h-461v-514h461
q152 0 222.5 62t70.5 194zM846 -375h-213v213h213v-213z" />
    <glyph glyph-name="rdotbelow" unicode="&#x1e5b;" horiz-adv-x="681" 
d="M657 924q-192 -3 -268 -90.5t-76 -276.5v-557h-170v1073h156v-194q74 120 142 172.5t151 52.5q22 0 65 -6v-174zM336 -375h-213v213h213v-213z" />
    <glyph glyph-name="Rdotbelowmacron" unicode="&#x1e5c;" horiz-adv-x="1478" 
d="M1391 0h-232q-46 104 -43 244l2 133q1 137 -59 201.5t-187 64.5h-491v-643h-191v1493h689q220 0 337 -103t117 -296q0 -128 -55 -212t-180 -145q121 -52 160 -128t42 -261q1 -149 19 -206.5t72 -94.5v-47zM1135 1067q0 130 -68.5 194t-224.5 64h-461v-514h461
q152 0 222.5 62t70.5 194zM846 -375h-213v213h213v-213zM1018 1669h-561v143h561v-143z" />
    <glyph glyph-name="rdotbelowmacron" unicode="&#x1e5d;" horiz-adv-x="681" 
d="M657 924q-192 -3 -268 -90.5t-76 -276.5v-557h-170v1073h156v-194q74 120 142 172.5t151 52.5q22 0 65 -6v-174zM336 -375h-213v213h213v-213zM590 1300h-561v144h561v-144z" />
    <glyph glyph-name="Sdotbelow" unicode="&#x1e62;" horiz-adv-x="1366" 
d="M1272 410q0 -204 -152.5 -325.5t-431.5 -121.5q-179 0 -309.5 56t-205.5 175t-75 291h181q0 -164 107 -259t314 -95q190 0 285.5 67.5t95.5 192.5q0 88 -66.5 146.5t-207.5 95.5l-371 98q-293 76 -293 348q0 204 143.5 327.5t387.5 123.5q258 0 402.5 -122t144.5 -341
h-181q0 146 -96.5 224.5t-275.5 78.5q-149 0 -241.5 -74.5t-92.5 -189.5q0 -86 55.5 -136t190.5 -85l374 -101q152 -41 235 -138.5t83 -235.5zM791 -375h-213v213h213v-213z" />
    <glyph glyph-name="sdotbelow" unicode="&#x1e63;" horiz-adv-x="1024" 
d="M940 301q0 -154 -119 -243t-323 -89q-212 0 -317 87t-111 272h180q16 -117 77.5 -159t184.5 -42q114 0 182 43t68 117q0 57 -37.5 88t-128.5 53l-160 39q-190 46 -265 114.5t-75 194.5q0 149 112.5 238.5t299.5 89.5q186 0 286.5 -86t102.5 -244h-180q-3 85 -57.5 128.5
t-157.5 43.5q-104 0 -166 -44t-62 -118q0 -57 47 -92.5t152 -60.5l164 -39q162 -39 232.5 -105.5t70.5 -185.5zM618 -375h-212v213h212v-213z" />
    <glyph glyph-name="Tdotbelow" unicode="&#x1e6c;" horiz-adv-x="1251" 
d="M1214 1325h-489v-1325h-190v1325h-492v168h1171v-168zM737 -375h-213v213h213v-213z" />
    <glyph glyph-name="tdotbelow" unicode="&#x1e6d;" horiz-adv-x="569" 
d="M520 0q-80 -14 -139 -14q-100 0 -153.5 44t-53.5 126v778h-145v139h145v295h170v-295h176v-139h-176v-703q0 -57 19 -76.5t75 -19.5q51 0 82 8v-143zM391 -375h-213v213h213v-213z" />
    <glyph glyph-name="Tlinebelow" unicode="&#x1e6e;" horiz-adv-x="1251" 
d="M1214 1325h-489v-1325h-190v1325h-492v168h1171v-168zM909 -340h-561v143h561v-143z" />
    <glyph glyph-name="tlinebelow" unicode="&#x1e6f;" horiz-adv-x="569" 
d="M520 0q-80 -14 -139 -14q-100 0 -153.5 44t-53.5 126v778h-145v139h145v295h170v-295h176v-139h-176v-703q0 -57 19 -76.5t75 -19.5q51 0 82 8v-143zM563 -340h-561v143h561v-143z" />
    <glyph glyph-name="Wgrave" unicode="&#x1e80;" horiz-adv-x="1933" 
d="M1903 1493l-379 -1493h-209l-344 1227l-334 -1227h-209l-383 1493h213l281 -1212l331 1212h205l340 -1212l275 1212h213zM1040 1604h-147l-367 272h279z" />
    <glyph glyph-name="wgrave" unicode="&#x1e81;" horiz-adv-x="1478" 
d="M1450 1073l-315 -1073h-195l-217 842l-207 -842h-192l-312 1073h189l219 -835l205 835h209l210 -835l213 835h193zM801 1190h-123l-305 303h231z" />
    <glyph glyph-name="Wacute" unicode="&#x1e82;" horiz-adv-x="1933" 
d="M1903 1493l-379 -1493h-209l-344 1227l-334 -1227h-209l-383 1493h213l281 -1212l331 1212h205l340 -1212l275 1212h213zM1407 1876l-367 -272h-147l235 272h279z" />
    <glyph glyph-name="wacute" unicode="&#x1e83;" horiz-adv-x="1478" 
d="M1450 1073l-315 -1073h-195l-217 842l-207 -842h-192l-312 1073h189l219 -835l205 835h209l210 -835l213 835h193zM1106 1493l-305 -303h-123l196 303h232z" />
    <glyph glyph-name="Wdieresis" unicode="&#x1e84;" horiz-adv-x="1933" 
d="M1903 1493l-379 -1493h-209l-344 1227l-334 -1227h-209l-383 1493h213l281 -1212l331 1212h205l340 -1212l275 1212h213zM895 1636h-186v209h186v-209zM1227 1636h-187v209h187v-209z" />
    <glyph glyph-name="wdieresis" unicode="&#x1e85;" horiz-adv-x="1478" 
d="M1450 1073l-315 -1073h-195l-217 842l-207 -842h-192l-312 1073h189l219 -835l205 835h209l210 -835l213 835h193zM666 1237h-187v209h187v-209zM997 1237h-186v209h186v-209z" />
    <glyph glyph-name="Zdotbelow" unicode="&#x1e92;" horiz-adv-x="1251" 
d="M1194 0h-1137v168l897 1157h-839v168h1075v-172l-893 -1153h897v-168zM760 -375h-213v213h213v-213z" />
    <glyph glyph-name="zdotbelow" unicode="&#x1e93;" horiz-adv-x="1024" 
d="M936 0h-873v154l642 770h-599v149h801v-151l-637 -772h666v-150zM618 -375h-212v213h212v-213z" />
    <glyph glyph-name="tdieresis" unicode="&#x1e97;" horiz-adv-x="569" 
d="M520 0q-80 -14 -139 -14q-100 0 -153.5 44t-53.5 126v778h-145v139h145v295h170v-295h176v-139h-176v-703q0 -57 19 -76.5t75 -19.5q51 0 82 8v-143zM186 1511h-186v209h186v-209zM518 1511h-186v209h186v-209z" />
    <glyph glyph-name="Adotbelow" unicode="&#x1ea0;" horiz-adv-x="1366" 
d="M1337 0h-213l-153 449h-576l-157 -449h-203l532 1493h246zM918 608l-230 680l-246 -680h476zM791 -375h-213v213h213v-213z" />
    <glyph glyph-name="adotbelow" unicode="&#x1ea1;" 
d="M1096 4q-71 -18 -117 -18q-63 0 -113 40t-63 101q-70 -75 -166 -116.5t-199 -41.5q-164 0 -258 82t-94 228q0 201 188 278q51 21 108.5 32t235.5 34q101 12 140 38t39 80v45q0 77 -62.5 118.5t-177.5 41.5q-120 0 -180.5 -46t-71.5 -144h-172q14 348 430 348
q198 0 301 -75t103 -218v-598q0 -40 24 -62t68 -22q19 0 37 4v-129zM797 371v159q-42 -20 -89 -30t-186 -29q-139 -21 -198.5 -63t-59.5 -125q0 -164 211 -164q130 0 226 70.5t96 181.5zM670 -375h-213v213h213v-213z" />
    <glyph glyph-name="Ahookabove" unicode="&#x1ea2;" horiz-adv-x="1366" 
d="M1337 0h-213l-153 449h-576l-157 -449h-203l532 1493h246zM918 608l-230 680l-246 -680h476zM922 1866q0 -49 -22 -83t-81 -77q-47 -36 -59 -49.5t-12 -30.5v-61h-127v67q0 48 23 78.5t85 71.5v-2q66 51 66 86q0 28 -29 45.5t-76 17.5q-71 0 -92 -35v2q-14 -22 -14 -90
h-125q0 116 60 176t177 60q104 0 165 -48t61 -128z" />
    <glyph glyph-name="ahookabove" unicode="&#x1ea3;" 
d="M1096 4q-71 -18 -117 -18q-63 0 -113 40t-63 101q-70 -75 -166 -116.5t-199 -41.5q-164 0 -258 82t-94 228q0 201 188 278q51 21 108.5 32t235.5 34q101 12 140 38t39 80v45q0 77 -62.5 118.5t-177.5 41.5q-120 0 -180.5 -46t-71.5 -144h-172q14 348 430 348
q198 0 301 -75t103 -218v-598q0 -40 24 -62t68 -22q19 0 37 4v-129zM797 371v159q-42 -20 -89 -30t-186 -29q-139 -21 -198.5 -63t-59.5 -125q0 -164 211 -164q130 0 226 70.5t96 181.5zM795 1446q0 -49 -22 -83t-81 -77q-47 -36 -59 -49.5t-12 -30.5v-61h-127v67
q0 48 23 78.5t85 71.5v-2q66 51 66 86q0 28 -29 45.5t-76 17.5q-71 0 -92 -34v2q-14 -22 -14 -91h-125q0 116 60 176t177 60q104 0 165 -48t61 -128z" />
    <glyph glyph-name="Acircumflexacute" unicode="&#x1ea4;" horiz-adv-x="1366" 
d="M1337 0h-213l-153 449h-576l-157 -449h-203l532 1493h246zM918 608l-230 680l-246 -680h476zM1130 2193l-366 -272h-148l236 272h278zM1044 1604h-153l-199 176l-194 -176h-158l235 276h234z" />
    <glyph glyph-name="acircumflexacute" unicode="&#x1ea5;" 
d="M1096 4q-71 -18 -117 -18q-63 0 -113 40t-63 101q-70 -75 -166 -116.5t-199 -41.5q-164 0 -258 82t-94 228q0 201 188 278q51 21 108.5 32t235.5 34q101 12 140 38t39 80v45q0 77 -62.5 118.5t-177.5 41.5q-120 0 -180.5 -46t-71.5 -144h-172q14 348 430 348
q198 0 301 -75t103 -218v-598q0 -40 24 -62t68 -22q19 0 37 4v-129zM797 371v159q-42 -20 -89 -30t-186 -29q-139 -21 -198.5 -63t-59.5 -125q0 -164 211 -164q130 0 226 70.5t96 181.5zM1004 1774l-367 -273h-148l236 273h279zM918 1184h-154l-199 176l-194 -176h-158
l236 276h233z" />
    <glyph glyph-name="Acircumflexgrave" unicode="&#x1ea6;" horiz-adv-x="1366" 
d="M1337 0h-213l-153 449h-576l-157 -449h-203l532 1493h246zM918 608l-230 680l-246 -680h476zM764 1921h-148l-366 272h278zM1044 1604h-153l-199 176l-194 -176h-158l235 276h234z" />
    <glyph glyph-name="acircumflexgrave" unicode="&#x1ea7;" 
d="M1096 4q-71 -18 -117 -18q-63 0 -113 40t-63 101q-70 -75 -166 -116.5t-199 -41.5q-164 0 -258 82t-94 228q0 201 188 278q51 21 108.5 32t235.5 34q101 12 140 38t39 80v45q0 77 -62.5 118.5t-177.5 41.5q-120 0 -180.5 -46t-71.5 -144h-172q14 348 430 348
q198 0 301 -75t103 -218v-598q0 -40 24 -62t68 -22q19 0 37 4v-129zM797 371v159q-42 -20 -89 -30t-186 -29q-139 -21 -198.5 -63t-59.5 -125q0 -164 211 -164q130 0 226 70.5t96 181.5zM637 1501h-148l-366 273h278zM918 1184h-154l-199 176l-194 -176h-158l236 276h233z
" />
    <glyph glyph-name="Acircumflexhookabove" unicode="&#x1ea8;" horiz-adv-x="1366" 
d="M1337 0h-213l-153 449h-576l-157 -449h-203l532 1493h246zM918 608l-230 680l-246 -680h476zM1044 2193q0 -44 -21.5 -74.5t-80.5 -70.5q-46 -31 -59 -44t-13 -28v-55h-127v61q0 43 23 70.5t86 65.5v-2q66 45 66 77q0 25 -29 41.5t-76 16.5q-69 0 -92 -33v2
q-14 -20 -14 -80h-125q0 103 60 157t177 54q103 0 164 -43.5t61 -114.5zM1044 1604h-153l-199 176l-194 -176h-158l235 276h234z" />
    <glyph glyph-name="acircumflexhookabove" unicode="&#x1ea9;" 
d="M1096 4q-71 -18 -117 -18q-63 0 -113 40t-63 101q-70 -75 -166 -116.5t-199 -41.5q-164 0 -258 82t-94 228q0 201 188 278q51 21 108.5 32t235.5 34q101 12 140 38t39 80v45q0 77 -62.5 118.5t-177.5 41.5q-120 0 -180.5 -46t-71.5 -144h-172q14 348 430 348
q198 0 301 -75t103 -218v-598q0 -40 24 -62t68 -22q19 0 37 4v-129zM797 371v159q-42 -20 -89 -30t-186 -29q-139 -21 -198.5 -63t-59.5 -125q0 -164 211 -164q130 0 226 70.5t96 181.5zM918 1774q0 -44 -22 -75t-81 -71q-46 -31 -59 -44t-13 -28v-55h-127v62q0 42 23 69
t86 66v-2q66 45 66 78q0 25 -29 41t-76 16q-69 0 -92 -33v2q-14 -20 -14 -80h-125q0 103 60 157t177 54q104 0 165 -43t61 -114zM918 1184h-154l-199 176l-194 -176h-158l236 276h233z" />
    <glyph glyph-name="Acircumflextilde" unicode="&#x1eaa;" horiz-adv-x="1366" 
d="M1337 0h-213l-153 449h-576l-157 -449h-203l532 1493h246zM918 608l-230 680l-246 -680h476zM1004 2154q-30 -212 -183 -212q-29 0 -58.5 9t-115.5 42q-71 26 -100 26q-23 0 -41 -20t-27 -55h-119q17 101 63 155.5t114 54.5q32 0 56 -6.5t87 -31.5q82 -37 129 -37
q52 0 76 75h119zM1044 1604h-153l-199 176l-194 -176h-158l235 276h234z" />
    <glyph glyph-name="acircumflextilde" unicode="&#x1eab;" 
d="M1096 4q-71 -18 -117 -18q-63 0 -113 40t-63 101q-70 -75 -166 -116.5t-199 -41.5q-164 0 -258 82t-94 228q0 201 188 278q51 21 108.5 32t235.5 34q101 12 140 38t39 80v45q0 77 -62.5 118.5t-177.5 41.5q-120 0 -180.5 -46t-71.5 -144h-172q14 348 430 348
q198 0 301 -75t103 -218v-598q0 -40 24 -62t68 -22q19 0 37 4v-129zM797 371v159q-42 -20 -89 -30t-186 -29q-139 -21 -198.5 -63t-59.5 -125q0 -164 211 -164q130 0 226 70.5t96 181.5zM877 1735q-30 -213 -183 -213q-29 0 -58.5 9t-115.5 42q-71 26 -100 26q-23 0 -41 -20
t-27 -55h-119q17 101 63 156t114 55q31 0 55 -6.5t88 -32.5q82 -37 129 -37q52 0 76 76h119zM918 1184h-154l-199 176l-194 -176h-158l236 276h233z" />
    <glyph glyph-name="Acircumflexdotbelow" unicode="&#x1eac;" horiz-adv-x="1366" 
d="M1337 0h-213l-153 449h-576l-157 -449h-203l532 1493h246zM918 608l-230 680l-246 -680h476zM1042 1604h-153l-199 176l-194 -176h-158l235 276h234zM791 -375h-213v213h213v-213z" />
    <glyph glyph-name="acircumflexdotbelow" unicode="&#x1ead;" 
d="M1096 4q-71 -18 -117 -18q-63 0 -113 40t-63 101q-70 -75 -166 -116.5t-199 -41.5q-164 0 -258 82t-94 228q0 201 188 278q51 21 108.5 32t235.5 34q101 12 140 38t39 80v45q0 77 -62.5 118.5t-177.5 41.5q-120 0 -180.5 -46t-71.5 -144h-172q14 348 430 348
q198 0 301 -75t103 -218v-598q0 -40 24 -62t68 -22q19 0 37 4v-129zM797 371v159q-42 -20 -89 -30t-186 -29q-139 -21 -198.5 -63t-59.5 -125q0 -164 211 -164q130 0 226 70.5t96 181.5zM856 1188h-129l-166 196l-162 -196h-131l197 307h194zM670 -375h-213v213h213v-213z
" />
    </font>
</defs>
</svg>
